999
"DXF R12 Output" (www.mydxf.blogspot.com)
 0 
SECTION
 2 
HEADER
 9 
$ACADVER
 1 
AC1009
 9 
$EXTMIN
 10 
 0 
 20 
 0 
 9 
$EXTMAX
 10 
 8.5 
 20 
 11 
 0 
ENDSEC
 0 
SECTION
 2 
ENTITIES
0
LINE
8
Ebene 1
10
44.366119
20
135.484360
11
45.349296
21
138.605265
0
LINE
8
Ebene 1
10
45.349296
20
138.605265
11
46.208395
21
141.935566
0
LINE
8
Ebene 1
10
46.208395
20
141.935566
11
46.909739
21
145.330136
0
LINE
8
Ebene 1
10
46.909739
20
145.330136
11
47.419654
21
148.643850
0
LINE
8
Ebene 1
10
47.419654
20
148.643850
11
47.584503
21
151.054773
0
LINE
8
Ebene 1
10
47.584503
20
151.054773
11
47.589453
21
153.957704
0
LINE
8
Ebene 1
10
47.589453
20
153.957704
11
47.446858
21
156.833955
0
LINE
8
Ebene 1
10
47.446858
20
156.833955
11
47.169071
21
159.164840
0
LINE
8
Ebene 1
10
47.169071
20
159.164840
11
47.091461
21
159.593590
0
LINE
8
Ebene 1
10
47.091461
20
159.593590
11
84.362862
21
159.593590
0
LINE
8
Ebene 1
10
84.362862
20
159.593590
11
121.634261
21
159.593590
0
LINE
8
Ebene 1
10
121.634261
20
159.593590
11
121.634261
21
147.060750
0
LINE
8
Ebene 1
10
121.634261
20
147.060750
11
121.634261
21
134.527910
0
LINE
8
Ebene 1
10
121.634261
20
134.527910
11
82.833576
21
134.527910
0
LINE
8
Ebene 1
10
82.833576
20
134.527910
11
44.032891
21
134.527910
0
LINE
8
Ebene 1
10
44.032891
20
134.527910
11
44.366119
21
135.484360
0
LINE
8
Ebene 1
10
61.700089
20
138.935720
11
63.242734
21
144.599140
0
LINE
8
Ebene 1
10
63.242734
20
144.599140
11
64.879370
21
150.844250
0
LINE
8
Ebene 1
10
64.879370
20
150.844250
11
65.088736
21
151.620020
0
LINE
8
Ebene 1
10
65.088736
20
151.620020
11
65.312876
21
150.909050
0
LINE
8
Ebene 1
10
65.312876
20
150.909050
11
68.390720
21
139.570080
0
LINE
8
Ebene 1
10
68.390720
20
139.570080
11
68.594284
21
138.873570
0
LINE
8
Ebene 1
10
68.594284
20
138.873570
11
70.303717
21
138.910470
0
LINE
8
Ebene 1
10
70.303717
20
138.910470
11
72.013149
21
138.947370
0
LINE
8
Ebene 1
10
72.013149
20
138.947370
11
74.145108
21
147.060740
0
LINE
8
Ebene 1
10
74.145108
20
147.060740
11
76.277869
21
155.339010
0
LINE
8
Ebene 1
10
76.277869
20
155.339010
11
75.976750
21
155.466806
0
LINE
8
Ebene 1
10
75.976750
20
155.466806
11
74.937899
21
155.503920
0
LINE
8
Ebene 1
10
74.937899
20
155.503920
11
73.820165
21
155.463436
0
LINE
8
Ebene 1
10
73.820165
20
155.463436
11
73.528041
21
155.273050
0
LINE
8
Ebene 1
10
73.528041
20
155.273050
11
70.681898
21
143.828590
0
LINE
8
Ebene 1
10
70.681898
20
143.828590
11
70.373829
21
142.377420
0
LINE
8
Ebene 1
10
70.373829
20
142.377420
11
70.214469
21
143.168960
0
LINE
8
Ebene 1
10
70.214469
20
143.168960
11
68.408738
21
149.732220
0
LINE
8
Ebene 1
10
68.408738
20
149.732220
11
66.762368
21
155.503920
0
LINE
8
Ebene 1
10
66.762368
20
155.503920
11
65.243630
21
155.503920
0
LINE
8
Ebene 1
10
65.243630
20
155.503920
11
63.724892
21
155.440320
0
LINE
8
Ebene 1
10
63.724892
20
155.440320
11
62.179170
21
149.866510
0
LINE
8
Ebene 1
10
62.179170
20
149.866510
11
60.469569
21
143.471440
0
LINE
8
Ebene 1
10
60.469569
20
143.471440
11
60.210760
21
142.643950
0
LINE
8
Ebene 1
10
60.210760
20
142.643950
11
60.024822
21
143.371780
0
LINE
8
Ebene 1
10
60.024822
20
143.371780
11
57.097559
21
155.009180
0
LINE
8
Ebene 1
10
57.097559
20
155.009180
11
56.965142
21
155.503900
0
LINE
8
Ebene 1
10
56.965142
20
155.503900
11
55.552983
21
155.503900
0
LINE
8
Ebene 1
10
55.552983
20
155.503900
11
54.456875
21
155.466861
0
LINE
8
Ebene 1
10
54.456875
20
155.466861
11
54.135652
21
155.338990
0
LINE
8
Ebene 1
10
54.135652
20
155.338990
11
56.261696
21
147.028400
0
LINE
8
Ebene 1
10
56.261696
20
147.028400
11
58.392910
21
138.882720
0
LINE
8
Ebene 1
10
58.392910
20
138.882720
11
60.046499
21
138.882060
0
LINE
8
Ebene 1
10
60.046499
20
138.882060
11
61.700089
21
138.935660
0
LINE
8
Ebene 1
10
61.700089
20
138.935660
11
61.700089
21
138.935720
0
LINE
8
Ebene 1
10
82.353081
20
147.192680
11
82.353081
21
155.503930
0
LINE
8
Ebene 1
10
82.353081
20
155.503930
11
80.935719
21
155.503930
0
LINE
8
Ebene 1
10
80.935719
20
155.503930
11
79.518356
21
155.503930
0
LINE
8
Ebene 1
10
79.518356
20
155.503930
11
79.518356
21
147.192680
0
LINE
8
Ebene 1
10
79.518356
20
147.192680
11
79.518356
21
138.881420
0
LINE
8
Ebene 1
10
79.518356
20
138.881420
11
80.935719
21
138.881420
0
LINE
8
Ebene 1
10
80.935719
20
138.881420
11
82.353081
21
138.881420
0
LINE
8
Ebene 1
10
82.353081
20
138.881420
11
82.353081
21
147.192680
0
LINE
8
Ebene 1
10
95.716782
20
140.002780
11
95.716782
21
141.124140
0
LINE
8
Ebene 1
10
95.716782
20
141.124140
11
92.612083
21
141.124140
0
LINE
8
Ebene 1
10
92.612083
20
141.124140
11
89.507385
21
141.124140
0
LINE
8
Ebene 1
10
89.507385
20
141.124140
11
89.507385
21
143.696670
0
LINE
8
Ebene 1
10
89.507385
20
143.696670
11
89.507385
21
146.269200
0
LINE
8
Ebene 1
10
89.507385
20
146.269200
11
92.004642
21
146.269200
0
LINE
8
Ebene 1
10
92.004642
20
146.269200
11
94.501900
21
146.269200
0
LINE
8
Ebene 1
10
94.501900
20
146.269200
11
94.501900
21
147.390560
0
LINE
8
Ebene 1
10
94.501900
20
147.390560
11
94.501900
21
148.511920
0
LINE
8
Ebene 1
10
94.501900
20
148.511920
11
92.004642
21
148.511920
0
LINE
8
Ebene 1
10
92.004642
20
148.511920
11
89.507385
21
148.511920
0
LINE
8
Ebene 1
10
89.507385
20
148.511920
11
89.507385
21
150.818130
0
LINE
8
Ebene 1
10
89.507385
20
150.818130
11
89.507385
21
153.124330
0
LINE
8
Ebene 1
10
89.507385
20
153.124330
11
92.578337
21
153.159830
0
LINE
8
Ebene 1
10
92.578337
20
153.159830
11
95.649288
21
153.195330
0
LINE
8
Ebene 1
10
95.649288
20
153.195330
11
95.688288
21
154.349670
0
LINE
8
Ebene 1
10
95.688288
20
154.349670
11
95.727288
21
155.504010
0
LINE
8
Ebene 1
10
95.727288
20
155.504010
11
91.267470
21
155.504010
0
LINE
8
Ebene 1
10
91.267470
20
155.504010
11
86.807648
21
155.504010
0
LINE
8
Ebene 1
10
86.807648
20
155.504010
11
86.807648
21
147.192760
0
LINE
8
Ebene 1
10
86.807648
20
147.192760
11
86.807648
21
138.881500
0
LINE
8
Ebene 1
10
86.807648
20
138.881500
11
91.262215
21
138.881500
0
LINE
8
Ebene 1
10
91.262215
20
138.881500
11
95.716782
21
138.881500
0
LINE
8
Ebene 1
10
95.716782
20
138.881500
11
95.716782
21
140.002780
0
LINE
8
Ebene 1
10
102.128530
20
145.180820
11
102.035430
21
151.480230
0
LINE
8
Ebene 1
10
102.035430
20
151.480230
11
102.630010
21
150.358870
0
LINE
8
Ebene 1
10
102.630010
20
150.358870
11
106.380640
21
144.059460
0
LINE
8
Ebene 1
10
106.380640
20
144.059460
11
109.536700
21
138.881420
0
LINE
8
Ebene 1
10
109.536700
20
138.881420
11
111.333380
21
138.881420
0
LINE
8
Ebene 1
10
111.333380
20
138.881420
11
113.130060
21
138.881420
0
LINE
8
Ebene 1
10
113.130060
20
138.881420
11
113.130060
21
147.192680
0
LINE
8
Ebene 1
10
113.130060
20
147.192680
11
113.130060
21
155.503930
0
LINE
8
Ebene 1
10
113.130060
20
155.503930
11
111.760480
21
155.503930
0
LINE
8
Ebene 1
10
111.760480
20
155.503930
11
110.390910
21
155.503930
0
LINE
8
Ebene 1
10
110.390910
20
155.503930
11
110.460610
21
149.233850
0
LINE
8
Ebene 1
10
110.460610
20
149.233850
11
110.530310
21
142.963770
0
LINE
8
Ebene 1
10
110.530310
20
142.963770
11
109.555680
21
144.715430
0
LINE
8
Ebene 1
10
109.555680
20
144.715430
11
105.819980
21
150.952530
0
LINE
8
Ebene 1
10
105.819980
20
150.952530
11
103.058920
21
155.437970
0
LINE
8
Ebene 1
10
103.058920
20
155.437970
11
101.277690
21
155.474770
0
LINE
8
Ebene 1
10
101.277690
20
155.474770
11
99.496454
21
155.511570
0
LINE
8
Ebene 1
10
99.496454
20
155.511570
11
99.496454
21
147.196480
0
LINE
8
Ebene 1
10
99.496454
20
147.196480
11
99.496454
21
138.881400
0
LINE
8
Ebene 1
10
99.496454
20
138.881400
11
100.859050
21
138.881400
0
LINE
8
Ebene 1
10
100.859050
20
138.881400
11
102.221640
21
138.881400
0
LINE
8
Ebene 1
10
102.221640
20
138.881400
11
102.128530
21
145.180820
0
LINE
8
Ebene 1
10
46.116601
20
163.848160
11
44.903483
21
167.133994
0
LINE
8
Ebene 1
10
44.903483
20
167.133994
11
43.006342
21
171.400850
0
LINE
8
Ebene 1
10
43.006342
20
171.400850
11
39.919236
21
178.231221
0
LINE
8
Ebene 1
10
39.919236
20
178.231221
11
38.166807
21
182.944260
0
LINE
8
Ebene 1
10
38.166807
20
182.944260
11
36.997490
21
187.591290
0
LINE
8
Ebene 1
10
36.997490
20
187.591290
11
38.747949
21
187.722393
0
LINE
8
Ebene 1
10
38.747949
20
187.722393
11
48.380978
21
187.792391
0
LINE
8
Ebene 1
10
48.380978
20
187.792391
11
117.584660
21
187.825470
0
LINE
8
Ebene 1
10
117.584660
20
187.825470
11
198.171820
21
187.825470
0
LINE
8
Ebene 1
10
198.171820
20
187.825470
11
198.171820
21
175.226670
0
LINE
8
Ebene 1
10
198.171820
20
175.226670
11
198.171820
21
162.627860
0
LINE
8
Ebene 1
10
198.171820
20
162.627860
11
122.330070
21
162.627860
0
LINE
8
Ebene 1
10
122.330070
20
162.627860
11
46.488328
21
162.627860
0
LINE
8
Ebene 1
10
46.488328
20
162.627860
11
46.116601
21
163.848160
0
LINE
8
Ebene 1
10
162.265310
20
166.937290
11
163.726618
21
167.546943
0
LINE
8
Ebene 1
10
163.726618
20
167.546943
11
164.990826
21
168.506339
0
LINE
8
Ebene 1
10
164.990826
20
168.506339
11
165.985892
21
169.745370
0
LINE
8
Ebene 1
10
165.985892
20
169.745370
11
166.639770
21
171.193930
0
LINE
8
Ebene 1
10
166.639770
20
171.193930
11
166.815773
21
172.842936
0
LINE
8
Ebene 1
10
166.815773
20
172.842936
11
166.854870
21
177.757180
0
LINE
8
Ebene 1
10
166.854870
20
177.757180
11
166.854870
21
183.603880
0
LINE
8
Ebene 1
10
166.854870
20
183.603880
11
165.516340
21
183.603880
0
LINE
8
Ebene 1
10
165.516340
20
183.603880
11
164.177820
21
183.603880
0
LINE
8
Ebene 1
10
164.177820
20
183.603880
11
164.126720
21
178.030060
0
LINE
8
Ebene 1
10
164.126720
20
178.030060
11
164.041649
21
173.131915
0
LINE
8
Ebene 1
10
164.041649
20
173.131915
11
163.947492
21
172.255531
0
LINE
8
Ebene 1
10
163.947492
20
172.255531
11
163.780650
21
171.730660
0
LINE
8
Ebene 1
10
163.780650
20
171.730660
11
163.193766
21
170.691756
0
LINE
8
Ebene 1
10
163.193766
20
170.691756
11
162.400844
21
169.935670
0
LINE
8
Ebene 1
10
162.400844
20
169.935670
11
161.418379
21
169.473719
0
LINE
8
Ebene 1
10
161.418379
20
169.473719
11
160.262870
21
169.317220
0
LINE
8
Ebene 1
10
160.262870
20
169.317220
11
159.179331
21
169.452744
0
LINE
8
Ebene 1
10
159.179331
20
169.452744
11
158.242438
21
169.855854
0
LINE
8
Ebene 1
10
158.242438
20
169.855854
11
157.460543
21
170.521357
0
LINE
8
Ebene 1
10
157.460543
20
170.521357
11
156.842000
21
171.444060
0
LINE
8
Ebene 1
10
156.842000
20
171.444060
11
156.660793
21
171.893841
0
LINE
8
Ebene 1
10
156.660793
20
171.893841
11
156.563255
21
172.716219
0
LINE
8
Ebene 1
10
156.563255
20
172.716219
11
156.489230
21
177.832180
0
LINE
8
Ebene 1
10
156.489230
20
177.832180
11
156.450130
21
183.603880
0
LINE
8
Ebene 1
10
156.450130
20
183.603880
11
155.038120
21
183.603880
0
LINE
8
Ebene 1
10
155.038120
20
183.603880
11
153.626110
21
183.603880
0
LINE
8
Ebene 1
10
153.626110
20
183.603880
11
153.628110
21
177.832180
0
LINE
8
Ebene 1
10
153.628110
20
177.832180
11
153.724449
21
172.145329
0
LINE
8
Ebene 1
10
153.724449
20
172.145329
11
153.925860
21
170.977196
0
LINE
8
Ebene 1
10
153.925860
20
170.977196
11
154.303420
21
170.077610
0
LINE
8
Ebene 1
10
154.303420
20
170.077610
11
154.915993
21
169.154387
0
LINE
8
Ebene 1
10
154.915993
20
169.154387
11
155.774980
21
168.280710
0
LINE
8
Ebene 1
10
155.774980
20
168.280710
11
156.776550
21
167.546323
0
LINE
8
Ebene 1
10
156.776550
20
167.546323
11
157.816870
21
167.040970
0
LINE
8
Ebene 1
10
157.816870
20
167.040970
11
158.835340
21
166.789930
0
LINE
8
Ebene 1
10
158.835340
20
166.789930
11
159.981743
21
166.687446
0
LINE
8
Ebene 1
10
159.981743
20
166.687446
11
161.157909
21
166.735804
0
LINE
8
Ebene 1
10
161.157909
20
166.735804
11
162.265670
21
166.937290
0
LINE
8
Ebene 1
10
162.265670
20
166.937290
11
162.265310
21
166.937290
0
LINE
8
Ebene 1
10
89.015447
20
167.058030
11
90.689364
21
167.658820
0
LINE
8
Ebene 1
10
90.689364
20
167.658820
11
91.235947
21
167.932389
0
LINE
8
Ebene 1
10
91.235947
20
167.932389
11
91.404831
21
168.182129
0
LINE
8
Ebene 1
10
91.404831
20
168.182129
11
91.182424
21
168.569942
0
LINE
8
Ebene 1
10
91.182424
20
168.569942
11
90.555135
21
169.257730
0
LINE
8
Ebene 1
10
90.555135
20
169.257730
11
89.844852
21
170.016950
0
LINE
8
Ebene 1
10
89.844852
20
170.016950
11
89.002108
21
169.681610
0
LINE
8
Ebene 1
10
89.002108
20
169.681610
11
87.678316
21
169.325459
0
LINE
8
Ebene 1
10
87.678316
20
169.325459
11
86.362548
21
169.286300
0
LINE
8
Ebene 1
10
86.362548
20
169.286300
11
85.096826
21
169.539703
0
LINE
8
Ebene 1
10
85.096826
20
169.539703
11
83.923170
21
170.061238
0
LINE
8
Ebene 1
10
83.923170
20
170.061238
11
82.883601
21
170.826472
0
LINE
8
Ebene 1
10
82.883601
20
170.826472
11
82.020140
21
171.810976
0
LINE
8
Ebene 1
10
82.020140
20
171.810976
11
81.374807
21
172.990319
0
LINE
8
Ebene 1
10
81.374807
20
172.990319
11
80.989624
21
174.340070
0
LINE
8
Ebene 1
10
80.989624
20
174.340070
11
80.927896
21
175.802820
0
LINE
8
Ebene 1
10
80.927896
20
175.802820
11
81.215523
21
177.185896
0
LINE
8
Ebene 1
10
81.215523
20
177.185896
11
81.807716
21
178.443629
0
LINE
8
Ebene 1
10
81.807716
20
178.443629
11
82.659688
21
179.530346
0
LINE
8
Ebene 1
10
82.659688
20
179.530346
11
83.726651
21
180.400378
0
LINE
8
Ebene 1
10
83.726651
20
180.400378
11
84.963816
21
181.008053
0
LINE
8
Ebene 1
10
84.963816
20
181.008053
11
86.326395
21
181.307701
0
LINE
8
Ebene 1
10
86.326395
20
181.307701
11
87.769601
21
181.253650
0
LINE
8
Ebene 1
10
87.769601
20
181.253650
11
89.269465
21
180.817480
0
LINE
8
Ebene 1
10
89.269465
20
180.817480
11
89.827802
21
180.539100
0
LINE
8
Ebene 1
10
89.827802
20
180.539100
11
90.546610
21
181.312920
0
LINE
8
Ebene 1
10
90.546610
20
181.312920
11
91.179328
21
182.010887
0
LINE
8
Ebene 1
10
91.179328
20
182.010887
11
91.404323
21
182.402790
0
LINE
8
Ebene 1
10
91.404323
20
182.402790
11
91.236150
21
182.653138
0
LINE
8
Ebene 1
10
91.236150
20
182.653138
11
90.689364
21
182.926440
0
LINE
8
Ebene 1
10
90.689364
20
182.926440
11
88.865392
21
183.549855
0
LINE
8
Ebene 1
10
88.865392
20
183.549855
11
86.850270
21
183.735810
0
LINE
8
Ebene 1
10
86.850270
20
183.735810
11
84.836727
21
183.549740
0
LINE
8
Ebene 1
10
84.836727
20
183.549740
11
82.960522
21
182.896120
0
LINE
8
Ebene 1
10
82.960522
20
182.896120
11
81.388910
21
181.942586
0
LINE
8
Ebene 1
10
81.388910
20
181.942586
11
80.066796
21
180.670780
0
LINE
8
Ebene 1
10
80.066796
20
180.670780
11
79.044916
21
179.141334
0
LINE
8
Ebene 1
10
79.044916
20
179.141334
11
78.374007
21
177.414880
0
LINE
8
Ebene 1
10
78.374007
20
177.414880
11
78.154924
21
175.292813
0
LINE
8
Ebene 1
10
78.154924
20
175.292813
11
78.373821
21
173.168120
0
LINE
8
Ebene 1
10
78.373821
20
173.168120
11
78.741378
21
172.096473
0
LINE
8
Ebene 1
10
78.741378
20
172.096473
11
79.254797
21
171.086634
0
LINE
8
Ebene 1
10
79.254797
20
171.086634
11
80.665612
21
169.304604
0
LINE
8
Ebene 1
10
80.665612
20
169.304604
11
82.499041
21
167.926476
0
LINE
8
Ebene 1
10
82.499041
20
167.926476
11
83.540727
21
167.421516
0
LINE
8
Ebene 1
10
83.540727
20
167.421516
11
84.647858
21
167.056700
0
LINE
8
Ebene 1
10
84.647858
20
167.056700
11
86.824217
21
166.861949
0
LINE
8
Ebene 1
10
86.824217
20
166.861949
11
89.015447
21
167.057700
0
LINE
8
Ebene 1
10
89.015447
20
167.057700
11
89.015447
21
167.058030
0
LINE
8
Ebene 1
10
59.540298
20
174.171270
11
59.540298
21
181.361160
0
LINE
8
Ebene 1
10
59.540298
20
181.361160
11
61.902569
21
181.361160
0
LINE
8
Ebene 1
10
61.902569
20
181.361160
11
64.264839
21
181.361160
0
LINE
8
Ebene 1
10
64.264839
20
181.361160
11
64.264839
21
182.482520
0
LINE
8
Ebene 1
10
64.264839
20
182.482520
11
64.264839
21
183.603880
0
LINE
8
Ebene 1
10
64.264839
20
183.603880
11
58.122936
21
183.603880
0
LINE
8
Ebene 1
10
58.122936
20
183.603880
11
51.981033
21
183.603880
0
LINE
8
Ebene 1
10
51.981033
20
183.603880
11
51.981033
21
182.482520
0
LINE
8
Ebene 1
10
51.981033
20
182.482520
11
51.981033
21
181.361160
0
LINE
8
Ebene 1
10
51.981033
20
181.361160
11
54.343304
21
181.361160
0
LINE
8
Ebene 1
10
54.343304
20
181.361160
11
56.705574
21
181.361160
0
LINE
8
Ebene 1
10
56.705574
20
181.361160
11
56.705574
21
174.171270
0
LINE
8
Ebene 1
10
56.705574
20
174.171270
11
56.705574
21
166.981370
0
LINE
8
Ebene 1
10
56.705574
20
166.981370
11
58.122936
21
166.981370
0
LINE
8
Ebene 1
10
58.122936
20
166.981370
11
59.540298
21
166.981370
0
LINE
8
Ebene 1
10
59.540298
20
166.981370
11
59.540298
21
174.171270
0
LINE
8
Ebene 1
10
76.008698
20
168.168700
11
76.008698
21
169.356020
0
LINE
8
Ebene 1
10
76.008698
20
169.356020
11
72.903999
21
169.356020
0
LINE
8
Ebene 1
10
72.903999
20
169.356020
11
69.799301
21
169.356020
0
LINE
8
Ebene 1
10
69.799301
20
169.356020
11
69.799301
21
171.859680
0
LINE
8
Ebene 1
10
69.799301
20
171.859680
11
69.799301
21
174.363330
0
LINE
8
Ebene 1
10
69.799301
20
174.363330
11
72.330305
21
174.399230
0
LINE
8
Ebene 1
10
72.330305
20
174.399230
11
74.861309
21
174.435130
0
LINE
8
Ebene 1
10
74.861309
20
174.435130
11
74.900469
21
175.520580
0
LINE
8
Ebene 1
10
74.900469
20
175.520580
11
74.939629
21
176.606020
0
LINE
8
Ebene 1
10
74.939629
20
176.606020
11
72.403214
21
176.641920
0
LINE
8
Ebene 1
10
72.403214
20
176.641920
11
69.866800
21
176.677820
0
LINE
8
Ebene 1
10
69.866800
20
176.677820
11
69.829940
21
179.019480
0
LINE
8
Ebene 1
10
69.829940
20
179.019480
11
69.793080
21
181.361140
0
LINE
8
Ebene 1
10
69.793080
20
181.361140
11
72.900893
21
181.361140
0
LINE
8
Ebene 1
10
72.900893
20
181.361140
11
76.008706
21
181.361140
0
LINE
8
Ebene 1
10
76.008706
20
181.361140
11
76.008706
21
182.482500
0
LINE
8
Ebene 1
10
76.008706
20
182.482500
11
76.008706
21
183.603860
0
LINE
8
Ebene 1
10
76.008706
20
183.603860
11
71.554139
21
183.603860
0
LINE
8
Ebene 1
10
71.554139
20
183.603860
11
67.099572
21
183.603860
0
LINE
8
Ebene 1
10
67.099572
20
183.603860
11
67.099572
21
175.292610
0
LINE
8
Ebene 1
10
67.099572
20
175.292610
11
67.099572
21
166.981350
0
LINE
8
Ebene 1
10
67.099572
20
166.981350
11
71.554139
21
166.981350
0
LINE
8
Ebene 1
10
71.554139
20
166.981350
11
76.008706
21
166.981350
0
LINE
8
Ebene 1
10
76.008706
20
166.981350
11
76.008698
21
168.168700
0
LINE
8
Ebene 1
10
97.336624
20
170.675260
11
97.336624
21
174.369160
0
LINE
8
Ebene 1
10
97.336624
20
174.369160
11
101.251240
21
174.369160
0
LINE
8
Ebene 1
10
101.251240
20
174.369160
11
105.165860
21
174.369160
0
LINE
8
Ebene 1
10
105.165860
20
174.369160
11
105.165860
21
170.675260
0
LINE
8
Ebene 1
10
105.165860
20
170.675260
11
105.165860
21
166.981370
0
LINE
8
Ebene 1
10
105.165860
20
166.981370
11
106.583230
21
166.981370
0
LINE
8
Ebene 1
10
106.583230
20
166.981370
11
108.000590
21
166.981370
0
LINE
8
Ebene 1
10
108.000590
20
166.981370
11
108.000590
21
175.292630
0
LINE
8
Ebene 1
10
108.000590
20
175.292630
11
108.000590
21
183.603880
0
LINE
8
Ebene 1
10
108.000590
20
183.603880
11
106.583230
21
183.603880
0
LINE
8
Ebene 1
10
106.583230
20
183.603880
11
105.165860
21
183.603880
0
LINE
8
Ebene 1
10
105.165860
20
183.603880
11
105.165860
21
180.173840
0
LINE
8
Ebene 1
10
105.165860
20
180.173840
11
105.165860
21
176.743800
0
LINE
8
Ebene 1
10
105.165860
20
176.743800
11
101.251240
21
176.743800
0
LINE
8
Ebene 1
10
101.251240
20
176.743800
11
97.336624
21
176.743800
0
LINE
8
Ebene 1
10
97.336624
20
176.743800
11
97.336624
21
180.173840
0
LINE
8
Ebene 1
10
97.336624
20
180.173840
11
97.336624
21
183.603880
0
LINE
8
Ebene 1
10
97.336624
20
183.603880
11
95.919262
21
183.603880
0
LINE
8
Ebene 1
10
95.919262
20
183.603880
11
94.501900
21
183.603880
0
LINE
8
Ebene 1
10
94.501900
20
183.603880
11
94.501900
21
175.292630
0
LINE
8
Ebene 1
10
94.501900
20
175.292630
11
94.501900
21
166.981370
0
LINE
8
Ebene 1
10
94.501900
20
166.981370
11
95.919262
21
166.981370
0
LINE
8
Ebene 1
10
95.919262
20
166.981370
11
97.336624
21
166.981370
0
LINE
8
Ebene 1
10
97.336624
20
166.981370
11
97.336624
21
170.675260
0
LINE
8
Ebene 1
10
115.185330
20
173.313760
11
115.148230
21
179.580180
0
LINE
8
Ebene 1
10
115.148230
20
179.580180
11
115.792730
21
178.375180
0
LINE
8
Ebene 1
10
115.792730
20
178.375180
11
119.541930
21
172.076240
0
LINE
8
Ebene 1
10
119.541930
20
172.076240
11
122.646620
21
166.982310
0
LINE
8
Ebene 1
10
122.646620
20
166.982310
11
124.435200
21
166.981840
0
LINE
8
Ebene 1
10
124.435200
20
166.981840
11
126.223780
21
166.981370
0
LINE
8
Ebene 1
10
126.223780
20
166.981370
11
126.223780
21
175.292630
0
LINE
8
Ebene 1
10
126.223780
20
175.292630
11
126.223780
21
183.603880
0
LINE
8
Ebene 1
10
126.223780
20
183.603880
11
124.854670
21
183.603880
0
LINE
8
Ebene 1
10
124.854670
20
183.603880
11
123.485560
21
183.603880
0
LINE
8
Ebene 1
10
123.485560
20
183.603880
11
123.553060
21
177.321620
0
LINE
8
Ebene 1
10
123.553060
20
177.321620
11
123.620560
21
171.039350
0
LINE
8
Ebene 1
10
123.620560
20
171.039350
11
122.931140
21
172.350050
0
LINE
8
Ebene 1
10
122.931140
20
172.350050
11
119.204520
21
178.628300
0
LINE
8
Ebene 1
10
119.204520
20
178.628300
11
116.167310
21
183.595860
0
LINE
8
Ebene 1
10
116.167310
20
183.595860
11
114.311240
21
183.599860
0
LINE
8
Ebene 1
10
114.311240
20
183.599860
11
112.455170
21
183.603860
0
LINE
8
Ebene 1
10
112.455170
20
183.603860
11
112.455170
21
175.287990
0
LINE
8
Ebene 1
10
112.455170
20
175.287990
11
112.455170
21
166.972120
0
LINE
8
Ebene 1
10
112.455170
20
166.972120
11
113.838790
21
167.009720
0
LINE
8
Ebene 1
10
113.838790
20
167.009720
11
115.222410
21
167.047320
0
LINE
8
Ebene 1
10
115.222410
20
167.047320
11
115.185330
21
173.313760
0
LINE
8
Ebene 1
10
133.783080
20
175.292630
11
133.783080
21
183.603880
0
LINE
8
Ebene 1
10
133.783080
20
183.603880
11
132.365720
21
183.603880
0
LINE
8
Ebene 1
10
132.365720
20
183.603880
11
130.948360
21
183.603880
0
LINE
8
Ebene 1
10
130.948360
20
183.603880
11
130.948360
21
175.380580
0
LINE
8
Ebene 1
10
130.948360
20
175.380580
11
131.038360
21
167.069320
0
LINE
8
Ebene 1
10
131.038360
20
167.069320
11
132.455720
21
166.981320
0
LINE
8
Ebene 1
10
132.455720
20
166.981320
11
133.783090
21
166.981320
0
LINE
8
Ebene 1
10
133.783090
20
166.981320
11
133.783080
21
175.292630
0
LINE
8
Ebene 1
10
141.374110
20
170.971860
11
141.409810
21
174.962350
0
LINE
8
Ebene 1
10
141.409810
20
174.962350
11
144.370860
21
171.024280
0
LINE
8
Ebene 1
10
144.370860
20
171.024280
11
147.482700
21
167.029650
0
LINE
8
Ebene 1
10
147.482700
20
167.029650
11
149.338260
21
167.010250
0
LINE
8
Ebene 1
10
149.338260
20
167.010250
11
151.043040
21
167.047350
0
LINE
8
Ebene 1
10
151.043040
20
167.047350
11
147.601360
21
171.310960
0
LINE
8
Ebene 1
10
147.601360
20
171.310960
11
144.159690
21
175.574580
0
LINE
8
Ebene 1
10
144.159690
20
175.574580
11
144.617730
21
176.126210
0
LINE
8
Ebene 1
10
144.617730
20
176.126210
11
147.816800
21
179.975960
0
LINE
8
Ebene 1
10
147.816800
20
179.975960
11
150.691130
21
183.438990
0
LINE
8
Ebene 1
10
150.691130
20
183.438990
11
150.451889
21
183.570220
0
LINE
8
Ebene 1
10
150.451889
20
183.570220
11
149.133150
21
183.603890
0
LINE
8
Ebene 1
10
149.133150
20
183.603890
11
147.441840
21
183.603890
0
LINE
8
Ebene 1
10
147.441840
20
183.603890
11
144.425820
21
179.826220
0
LINE
8
Ebene 1
10
144.425820
20
179.826220
11
141.409810
21
176.048560
0
LINE
8
Ebene 1
10
141.409810
20
176.048560
11
141.374010
21
179.826220
0
LINE
8
Ebene 1
10
141.374010
20
179.826220
11
141.338210
21
183.603890
0
LINE
8
Ebene 1
10
141.338210
20
183.603890
11
139.990410
21
183.603890
0
LINE
8
Ebene 1
10
139.990410
20
183.603890
11
138.642610
21
183.603890
0
LINE
8
Ebene 1
10
138.642610
20
183.603890
11
138.642610
21
175.292640
0
LINE
8
Ebene 1
10
138.642610
20
175.292640
11
138.642610
21
166.981380
0
LINE
8
Ebene 1
10
138.642610
20
166.981380
11
139.990500
21
166.981380
0
LINE
8
Ebene 1
10
139.990500
20
166.981380
11
141.338390
21
166.981380
0
LINE
8
Ebene 1
10
141.338390
20
166.981380
11
141.374110
21
170.971860
0
LINE
8
Ebene 1
10
172.659300
20
167.052250
11
173.136610
21
170.911050
0
LINE
8
Ebene 1
10
173.136610
20
170.911050
11
174.152750
21
179.514220
0
LINE
8
Ebene 1
10
174.152750
20
179.514220
11
174.237554
21
179.343953
0
LINE
8
Ebene 1
10
174.237554
20
179.343953
11
174.426090
21
178.656710
0
LINE
8
Ebene 1
10
174.426090
20
178.656710
11
176.466160
21
172.291340
0
LINE
8
Ebene 1
10
176.466160
20
172.291340
11
178.243840
21
166.981370
0
LINE
8
Ebene 1
10
178.243840
20
166.981370
11
179.694560
21
166.981370
0
LINE
8
Ebene 1
10
179.694560
20
166.981370
11
180.953086
21
167.023311
0
LINE
8
Ebene 1
10
180.953086
20
167.023311
11
181.153692
21
167.112037
0
LINE
8
Ebene 1
10
181.153692
20
167.112037
11
181.236050
21
167.278200
0
LINE
8
Ebene 1
10
181.236050
20
167.278200
11
182.948890
21
172.521220
0
LINE
8
Ebene 1
10
182.948890
20
172.521220
11
184.874360
21
178.640390
0
LINE
8
Ebene 1
10
184.874360
20
178.640390
11
185.177760
21
179.813390
0
LINE
8
Ebene 1
10
185.177760
20
179.813390
11
185.273160
21
178.905240
0
LINE
8
Ebene 1
10
185.273160
20
178.905240
11
186.168240
21
172.613140
0
LINE
8
Ebene 1
10
186.168240
20
172.613140
11
186.967900
21
167.105290
0
LINE
8
Ebene 1
10
186.967900
20
167.105290
11
188.463480
21
166.981370
0
LINE
8
Ebene 1
10
188.463480
20
166.981370
11
189.959060
21
166.981370
0
LINE
8
Ebene 1
10
189.959060
20
166.981370
11
189.884260
21
167.344170
0
LINE
8
Ebene 1
10
189.884260
20
167.344170
11
188.655590
21
175.226670
0
LINE
8
Ebene 1
10
188.655590
20
175.226670
11
187.422250
21
183.175130
0
LINE
8
Ebene 1
10
187.422250
20
183.175130
11
187.342750
21
183.603880
0
LINE
8
Ebene 1
10
187.342750
20
183.603880
11
185.677880
21
183.603880
0
LINE
8
Ebene 1
10
185.677880
20
183.603880
11
184.013010
21
183.603880
0
LINE
8
Ebene 1
10
184.013010
20
183.603880
11
182.054030
21
177.824710
0
LINE
8
Ebene 1
10
182.054030
20
177.824710
11
180.004520
21
171.492320
0
LINE
8
Ebene 1
10
180.004520
20
171.492320
11
179.820960
21
170.939110
0
LINE
8
Ebene 1
10
179.820960
20
170.939110
11
179.493880
21
171.895570
0
LINE
8
Ebene 1
10
179.493880
20
171.895570
11
177.467990
21
178.194970
0
LINE
8
Ebene 1
10
177.467990
20
178.194970
11
175.676130
21
183.537920
0
LINE
8
Ebene 1
10
175.676130
20
183.537920
11
173.999650
21
183.537920
0
LINE
8
Ebene 1
10
173.999650
20
183.537920
11
172.323180
21
183.537920
0
LINE
8
Ebene 1
10
172.323180
20
183.537920
11
171.162710
21
175.886290
0
LINE
8
Ebene 1
10
171.162710
20
175.886290
11
169.905100
21
167.608020
0
LINE
8
Ebene 1
10
169.905100
20
167.608020
11
169.808000
21
166.981370
0
LINE
8
Ebene 1
10
169.808000
20
166.981370
11
171.233630
21
166.981370
0
LINE
8
Ebene 1
10
171.233630
20
166.981370
11
172.659260
21
167.052270
0
LINE
8
Ebene 1
10
172.659260
20
167.052270
11
172.659300
21
167.052250
0
LINE
8
Ebene 1
10
36.408996
20
191.222530
11
36.229444
21
194.824513
0
LINE
8
Ebene 1
10
36.229444
20
194.824513
11
36.314386
21
198.776120
0
LINE
8
Ebene 1
10
36.314386
20
198.776120
11
36.909292
21
202.824205
0
LINE
8
Ebene 1
10
36.909292
20
202.824205
11
37.932998
21
206.816595
0
LINE
8
Ebene 1
10
37.932998
20
206.816595
11
39.378160
21
210.729771
0
LINE
8
Ebene 1
10
39.378160
20
210.729771
11
41.237433
21
214.540214
0
LINE
8
Ebene 1
10
41.237433
20
214.540214
11
41.963264
21
215.859460
0
LINE
8
Ebene 1
10
41.963264
20
215.859460
11
64.722921
21
215.892820
0
LINE
8
Ebene 1
10
64.722921
20
215.892820
11
87.482577
21
215.926180
0
LINE
8
Ebene 1
10
87.482577
20
215.926180
11
87.482577
21
203.327000
0
LINE
8
Ebene 1
10
87.482577
20
203.327000
11
87.482577
21
190.727810
0
LINE
8
Ebene 1
10
87.482577
20
190.727810
11
61.984831
21
190.727810
0
LINE
8
Ebene 1
10
61.984831
20
190.727810
11
36.487079
21
190.727810
0
LINE
8
Ebene 1
10
36.487079
20
190.727810
11
36.408996
21
191.222530
0
LINE
8
Ebene 1
10
55.220718
20
198.709255
11
55.220718
21
202.469107
0
LINE
8
Ebene 1
10
55.220718
20
202.469107
11
58.122936
21
202.469107
0
LINE
8
Ebene 1
10
58.122936
20
202.469107
11
61.025154
21
202.469107
0
LINE
8
Ebene 1
10
61.025154
20
202.469107
11
61.025154
21
203.590467
0
LINE
8
Ebene 1
10
61.025154
20
203.590467
11
61.025154
21
204.711827
0
LINE
8
Ebene 1
10
61.025154
20
204.711827
11
58.122936
21
204.711827
0
LINE
8
Ebene 1
10
58.122936
20
204.711827
11
55.220718
21
204.711827
0
LINE
8
Ebene 1
10
55.220718
20
204.711827
11
55.220718
21
207.020508
0
LINE
8
Ebene 1
10
55.220718
20
207.020508
11
55.220718
21
209.329190
0
LINE
8
Ebene 1
10
55.220718
20
209.329190
11
58.595390
21
209.329190
0
LINE
8
Ebene 1
10
58.595390
20
209.329190
11
61.970062
21
209.329190
0
LINE
8
Ebene 1
10
61.970062
20
209.329190
11
61.970062
21
210.450549
0
LINE
8
Ebene 1
10
61.970062
20
210.450549
11
61.970062
21
211.571909
0
LINE
8
Ebene 1
10
61.970062
20
211.571909
11
57.178028
21
211.571909
0
LINE
8
Ebene 1
10
57.178028
20
211.571909
11
52.385994
21
211.571909
0
LINE
8
Ebene 1
10
52.385994
20
211.571909
11
52.385994
21
203.260655
0
LINE
8
Ebene 1
10
52.385994
20
203.260655
11
52.385994
21
194.949400
0
LINE
8
Ebene 1
10
52.385994
20
194.949400
11
53.803356
21
194.949400
0
LINE
8
Ebene 1
10
53.803356
20
194.949400
11
55.220718
21
194.949400
0
LINE
8
Ebene 1
10
55.220718
20
194.949400
11
55.220718
21
198.709255
0
LINE
8
Ebene 1
10
68.314445
20
198.709255
11
68.314445
21
202.469107
0
LINE
8
Ebene 1
10
68.314445
20
202.469107
11
72.229065
21
202.469107
0
LINE
8
Ebene 1
10
72.229065
20
202.469107
11
76.143684
21
202.469107
0
LINE
8
Ebene 1
10
76.143684
20
202.469107
11
76.143684
21
198.704640
0
LINE
8
Ebene 1
10
76.143684
20
198.704640
11
76.143684
21
194.940170
0
LINE
8
Ebene 1
10
76.143684
20
194.940170
11
77.527300
21
194.977770
0
LINE
8
Ebene 1
10
77.527300
20
194.977770
11
78.910915
21
195.015370
0
LINE
8
Ebene 1
10
78.910915
20
195.015370
11
78.945675
21
203.293647
0
LINE
8
Ebene 1
10
78.945675
20
203.293647
11
78.980435
21
211.571919
0
LINE
8
Ebene 1
10
78.980435
20
211.571919
11
77.562059
21
211.571919
0
LINE
8
Ebene 1
10
77.562059
20
211.571919
11
76.143682
21
211.571919
0
LINE
8
Ebene 1
10
76.143682
20
211.571919
11
76.143682
21
208.141878
0
LINE
8
Ebene 1
10
76.143682
20
208.141878
11
76.143682
21
204.711837
0
LINE
8
Ebene 1
10
76.143682
20
204.711837
11
72.229063
21
204.711837
0
LINE
8
Ebene 1
10
72.229063
20
204.711837
11
68.314443
21
204.711837
0
LINE
8
Ebene 1
10
68.314443
20
204.711837
11
68.314443
21
208.141878
0
LINE
8
Ebene 1
10
68.314443
20
208.141878
11
68.314443
21
211.571919
0
LINE
8
Ebene 1
10
68.314443
20
211.571919
11
66.897081
21
211.571919
0
LINE
8
Ebene 1
10
66.897081
20
211.571919
11
65.479719
21
211.571919
0
LINE
8
Ebene 1
10
65.479719
20
211.571919
11
65.479719
21
203.260665
0
LINE
8
Ebene 1
10
65.479719
20
203.260665
11
65.479719
21
194.949410
0
LINE
8
Ebene 1
10
65.479719
20
194.949410
11
66.897081
21
194.949410
0
LINE
8
Ebene 1
10
66.897081
20
194.949410
11
68.314443
21
194.949410
0
LINE
8
Ebene 1
10
68.314443
20
194.949410
11
68.314445
21
198.709255
 0 
ENDSEC
 0 
EOF