%TF.GenerationSoftware,KiCad,Pcbnew,7.0.8*%
%TF.CreationDate,2024-03-17T18:00:07+01:00*%
%TF.ProjectId,HM_mainboard,484d5f6d-6169-46e6-926f-6172642e6b69,rev?*%
%TF.SameCoordinates,Original*%
%TF.FileFunction,Soldermask,Bot*%
%TF.FilePolarity,Negative*%
%FSLAX46Y46*%
G04 Gerber Fmt 4.6, Leading zero omitted, Abs format (unit mm)*
G04 Created by KiCad (PCBNEW 7.0.8) date 2024-03-17 18:00:07*
%MOMM*%
%LPD*%
G01*
G04 APERTURE LIST*
G04 Aperture macros list*
%AMRoundRect*
0 Rectangle with rounded corners*
0 $1 Rounding radius*
0 $2 $3 $4 $5 $6 $7 $8 $9 X,Y pos of 4 corners*
0 Add a 4 corners polygon primitive as box body*
4,1,4,$2,$3,$4,$5,$6,$7,$8,$9,$2,$3,0*
0 Add four circle primitives for the rounded corners*
1,1,$1+$1,$2,$3*
1,1,$1+$1,$4,$5*
1,1,$1+$1,$6,$7*
1,1,$1+$1,$8,$9*
0 Add four rect primitives between the rounded corners*
20,1,$1+$1,$2,$3,$4,$5,0*
20,1,$1+$1,$4,$5,$6,$7,0*
20,1,$1+$1,$6,$7,$8,$9,0*
20,1,$1+$1,$8,$9,$2,$3,0*%
G04 Aperture macros list end*
%ADD10C,1.200000*%
%ADD11O,2.700000X2.000000*%
%ADD12O,2.000000X2.700000*%
%ADD13RoundRect,0.250000X-0.625000X0.350000X-0.625000X-0.350000X0.625000X-0.350000X0.625000X0.350000X0*%
%ADD14O,1.750000X1.200000*%
%ADD15R,1.700000X1.700000*%
%ADD16O,1.700000X1.700000*%
%ADD17C,2.000000*%
%ADD18C,0.650000*%
%ADD19O,1.000000X2.100000*%
%ADD20O,1.000000X1.800000*%
G04 APERTURE END LIST*
D10*
%TO.C,J4*%
X171450000Y-125618000D03*
X171450000Y-118618000D03*
D11*
X171450000Y-115318000D03*
D12*
X168150000Y-116118000D03*
X174750000Y-116118000D03*
X174750000Y-124118000D03*
X168150000Y-124118000D03*
%TD*%
D10*
%TO.C,J6*%
X141224000Y-125618000D03*
X141224000Y-118618000D03*
D11*
X141224000Y-115318000D03*
D12*
X137924000Y-116118000D03*
X144524000Y-116118000D03*
X144524000Y-124118000D03*
X137924000Y-124118000D03*
%TD*%
D13*
%TO.C,J1*%
X125701000Y-93201000D03*
D14*
X125701000Y-95201000D03*
%TD*%
D15*
%TO.C,TP7*%
X150475000Y-94400000D03*
D16*
X147935000Y-94400000D03*
%TD*%
D17*
%TO.C,TP2*%
X122100000Y-88400000D03*
%TD*%
D15*
%TO.C,J3*%
X191760000Y-112395000D03*
D16*
X189220000Y-112395000D03*
X186680000Y-112395000D03*
X184140000Y-112395000D03*
%TD*%
D10*
%TO.C,S3*%
X152300000Y-75000000D03*
X155300000Y-75000000D03*
%TD*%
D17*
%TO.C,TP3*%
X138800000Y-81100000D03*
%TD*%
%TO.C,TP5*%
X122000000Y-79200000D03*
%TD*%
D18*
%TO.C,J2*%
X133065000Y-79440000D03*
X127285000Y-79440000D03*
D19*
X134495000Y-79940000D03*
D20*
X134495000Y-75760000D03*
D19*
X125855000Y-79940000D03*
D20*
X125855000Y-75760000D03*
%TD*%
D10*
%TO.C,J7*%
X125730000Y-125618000D03*
X125730000Y-118618000D03*
D11*
X125730000Y-115318000D03*
D12*
X122430000Y-116118000D03*
X129030000Y-116118000D03*
X129030000Y-124118000D03*
X122430000Y-124118000D03*
%TD*%
D17*
%TO.C,TP4*%
X130800000Y-99300000D03*
%TD*%
%TO.C,TP1*%
X122000000Y-83600000D03*
%TD*%
D10*
%TO.C,J5*%
X156210000Y-125618000D03*
X156210000Y-118618000D03*
D11*
X156210000Y-115318000D03*
D12*
X152910000Y-116118000D03*
X159510000Y-116118000D03*
X159510000Y-124118000D03*
X152910000Y-124118000D03*
%TD*%
D17*
%TO.C,TP6*%
X163800000Y-89500000D03*
%TD*%
M02*
