M48
; DRILL file {KiCad 7.0.8} date Sun Mar 17 18:00:09 2024
; FORMAT={-:-/ absolute / inch / decimal}
; #@! TF.CreationDate,2024-03-17T18:00:09+01:00
; #@! TF.GenerationSoftware,Kicad,Pcbnew,7.0.8
; #@! TF.FileFunction,Plated,1,2,PTH
FMAT,2
INCH
; #@! TA.AperFunction,Plated,PTH,ViaDrill
T1C0.0039
; #@! TA.AperFunction,Plated,PTH,ViaDrill
T2C0.0157
; #@! TA.AperFunction,Plated,PTH,ComponentDrill
T3C0.0236
; #@! TA.AperFunction,Plated,PTH,ComponentDrill
T4C0.0295
; #@! TA.AperFunction,Plated,PTH,ComponentDrill
T5C0.0394
%
G90
G05
T1
X5.75Y-3.6358
X5.7717Y-3.6496
X5.923Y-3.7848
X5.983Y-3.7848
X6.01Y-4.08
X6.02Y-3.93
X6.02Y-3.98
X6.0591Y-3.6614
X6.0787Y-3.6378
X6.09Y-4.05
X6.1913Y-3.77
X6.23Y-3.77
X6.32Y-3.75
X6.32Y-3.9
X6.32Y-4.05
X6.32Y-4.08
X6.339Y-3.77
X6.34Y-3.92
X6.59Y-3.65
X6.59Y-3.6811
X6.6Y-4.075
X6.6142Y-4.1535
X6.753Y-3.6292
X6.76Y-4.32
X6.7637Y-3.6489
X7.01Y-4.51
X7.1654Y-3.6319
X7.2246Y-3.6626
T2
X4.7146Y-4.7244
X4.7205Y-3.3622
X4.7244Y-3.5472
X4.7244Y-3.8189
X4.7244Y-3.9173
X4.7244Y-4.0059
X4.7441Y-3.7303
X4.7539Y-4.065
X4.7824Y-3.9887
X4.7933Y-4.3701
X4.813Y-3.6909
X4.8386Y-2.9882
X4.8624Y-4.1487
X4.8917Y-3.2677
X4.8917Y-3.3465
X4.8917Y-3.5335
X4.9016Y-3.2087
X4.9024Y-3.8587
X4.94Y-4.81
X4.9606Y-3.4055
X4.9606Y-3.4547
X4.9724Y-3.8587
X4.98Y-4.33
X4.9924Y-4.0787
X5.0188Y-3.2209
X5.08Y-3.04
X5.1476Y-3.9961
X5.1476Y-4.2224
X5.1772Y-4.0945
X5.18Y-3.04
X5.1824Y-3.5887
X5.2067Y-3.7992
X5.2165Y-3.9469
X5.2215Y-3.3152
X5.23Y-4.51
X5.2447Y-3.2253
X5.2461Y-4.1634
X5.2461Y-4.2618
X5.2461Y-4.3701
X5.2559Y-4.0453
X5.2559Y-4.8031
X5.2657Y-3.6024
X5.2657Y-4.9016
X5.2756Y-3.6811
X5.2854Y-3.8976
X5.3299Y-3.6464
X5.3445Y-4.5571
X5.3445Y-4.6949
X5.35Y-3.8681
X5.3543Y-3.96
X5.3543Y-4.0551
X5.3543Y-4.1535
X5.3839Y-3.1496
X5.3839Y-4.2618
X5.3839Y-4.3799
X5.3976Y-2.9724
X5.4Y-3.81
X5.4016Y-3.4606
X5.45Y-3.77
X5.463Y-4.0148
X5.5118Y-3.7205
X5.5217Y-4.2618
X5.5217Y-4.3799
X5.5236Y-3.0236
X5.533Y-3.8248
X5.5512Y-3.5925
X5.56Y-4.82
X5.563Y-3.1496
X5.5669Y-3.5039
X5.58Y-3.34
X5.6Y-3.77
X5.6004Y-2.9724
X5.6102Y-3.1004
X5.6496Y-4.2618
X5.6496Y-4.3799
X5.65Y-3.46
X5.6693Y-3.0512
X5.6751Y-3.28
X5.7Y-3.57
X5.7283Y-2.9626
X5.748Y-3.0413
X5.748Y-3.1791
X5.748Y-3.2283
X5.7677Y-4.498
X5.77Y-3.51
X5.7776Y-4.2618
X5.8169Y-3.0413
X5.8268Y-3.1791
X5.8268Y-4.3799
X5.83Y-3.46
X5.8366Y-4.5866
X5.84Y-3.32
X5.853Y-4.1448
X5.8563Y-4.9213
X5.8661Y-4.498
X5.87Y-3.53
X5.876Y-4.7933
X5.9055Y-3.1791
X5.9341Y-4.2615
X5.935Y-4.3504
X5.9449Y-4.7047
X5.95Y-3.55
X5.9655Y-4.01
X5.9744Y-3.1791
X5.9923Y-4.4173
X6.0Y-3.82
X6.0039Y-4.1929
X6.0138Y-4.2815
X6.04Y-3.54
X6.05Y-3.1791
X6.0827Y-4.1831
X6.0827Y-4.252
X6.0942Y-4.3163
X6.11Y-3.54
X6.14Y-3.47
X6.1417Y-3.376
X6.1417Y-4.4291
X6.15Y-4.81
X6.1516Y-3.2874
X6.16Y-3.52
X6.16Y-3.8894
X6.1614Y-3.8189
X6.1614Y-4.1831
X6.1614Y-4.252
X6.18Y-3.96
X6.2008Y-3.248
X6.2008Y-3.3169
X6.21Y-3.53
X6.21Y-4.311
X6.2205Y-3.1791
X6.2598Y-4.1831
X6.2598Y-4.252
X6.2697Y-3.248
X6.27Y-3.82
X6.2795Y-4.4291
X6.2992Y-4.311
X6.3091Y-4.7244
X6.3189Y-3.189
X6.3583Y-4.1831
X6.3583Y-4.252
X6.3583Y-4.626
X6.378Y-3.002
X6.378Y-3.1398
X6.378Y-3.4646
X6.3878Y-4.3209
X6.4Y-3.2972
X6.4Y-3.59
X6.45Y-4.325
X6.45Y-4.51
X6.45Y-4.64
X6.45Y-4.79
X6.4567Y-3.2579
X6.46Y-3.803
X6.46Y-4.94
X6.4665Y-3.1299
X6.48Y-3.94
X6.49Y-3.59
X6.4961Y-3.3563
X6.4961Y-4.1831
X6.5157Y-4.2618
X6.5197Y-3.4567
X6.5256Y-3.2579
X6.5256Y-3.7106
X6.5354Y-4.3209
X6.55Y-4.61
X6.565Y-4.252
X6.5846Y-3.3071
X6.5846Y-3.7205
X6.59Y-4.4783
X6.6Y-3.42
X6.6Y-3.6
X6.61Y-3.83
X6.6142Y-4.3012
X6.6142Y-4.3888
X6.6186Y-4.1088
X6.6339Y-3.3563
X6.6339Y-4.252
X6.67Y-3.05
X6.6732Y-4.4783
X6.7028Y-3.4252
X6.7126Y-4.311
X6.7323Y-2.9823
X6.74Y-3.12
X6.74Y-3.22
X6.74Y-4.81
X6.7421Y-4.3888
X6.78Y-3.29
X6.79Y-3.8287
X6.79Y-3.93
X6.79Y-4.08
X6.7913Y-3.7303
X6.8Y-3.17
X6.8012Y-2.9823
X6.8307Y-4.311
X6.8307Y-4.4783
X6.84Y-3.35
X6.86Y-3.12
X6.86Y-3.22
X6.86Y-3.6319
X6.8602Y-4.1339
X6.8701Y-3.9764
X6.8996Y-4.311
X6.9094Y-3.75
X6.9193Y-4.3888
X6.9284Y-3.9171
X6.9488Y-4.1339
X6.95Y-3.1102
X6.9587Y-4.0256
X6.9685Y-3.6319
X6.9783Y-3.8681
X6.9783Y-4.5374
X7.0069Y-4.3199
X7.01Y-4.7
X7.02Y-4.86
X7.0472Y-4.1339
X7.0472Y-4.3602
X7.06Y-3.28
X7.08Y-3.04
X7.0866Y-3.6319
X7.0866Y-4.498
X7.1063Y-4.3996
X7.1358Y-3.7106
X7.1358Y-4.0256
X7.1358Y-4.1339
X7.15Y-2.96
X7.1555Y-3.0413
X7.2Y-4.59
X7.2042Y-3.6412
X7.2047Y-4.35
X7.22Y-3.24
X7.22Y-3.31
X7.22Y-3.37
X7.22Y-3.42
X7.2244Y-4.1339
X7.2638Y-3.6909
X7.313Y-3.6319
X7.313Y-3.7992
X7.313Y-3.9075
X7.313Y-4.0256
X7.313Y-4.1339
X7.35Y-3.21
X7.3559Y-3.49
X7.38Y-4.33
X7.3819Y-4.1437
X7.4Y-4.56
X7.41Y-4.8
X7.42Y-3.03
X7.42Y-3.4
X7.4311Y-4.1831
X7.44Y-3.3
X7.4409Y-3.6516
X7.4409Y-3.7205
X7.4409Y-3.7992
X7.4409Y-3.878
X7.4409Y-3.9567
X7.4409Y-4.0354
X7.4409Y-4.1043
X7.45Y-3.21
X7.48Y-3.51
X7.49Y-4.33
X7.54Y-3.28
X7.58Y-4.32
X7.61Y-4.56
T4
X4.9489Y-3.6693
X4.9489Y-3.7481
T5
X4.8031Y-3.1181
X4.8031Y-3.2913
X4.8071Y-3.4803
X5.1496Y-3.9094
X5.4646Y-3.1929
X5.8242Y-3.7165
X5.9242Y-3.7165
X6.4488Y-3.5236
X7.2496Y-4.425
X7.3496Y-4.425
X7.4496Y-4.425
X7.5496Y-4.425
T3
G00X4.9549Y-2.9984
M15
G01X4.9549Y-2.9669
M16
G05
G00X4.9549Y-3.1689
M15
G01X4.9549Y-3.1256
M16
G05
G00X5.2951Y-2.9984
M15
G01X5.2951Y-2.9669
M16
G05
G00X5.2951Y-3.1689
M15
G01X5.2951Y-3.1256
M16
G05
T5
G00X4.8201Y-4.5854
M15
G01X4.8201Y-4.5578
M16
G05
G00X4.8201Y-4.9003
M15
G01X4.8201Y-4.8728
M16
G05
G00X4.9638Y-4.5401
M15
G01X4.9362Y-4.5401
M16
G05
G00X5.0799Y-4.5854
M15
G01X5.0799Y-4.5578
M16
G05
G00X5.0799Y-4.9003
M15
G01X5.0799Y-4.8728
M16
G05
G00X5.4301Y-4.5854
M15
G01X5.4301Y-4.5578
M16
G05
G00X5.4301Y-4.9003
M15
G01X5.4301Y-4.8728
M16
G05
G00X5.5738Y-4.5401
M15
G01X5.5462Y-4.5401
M16
G05
G00X5.6899Y-4.5854
M15
G01X5.6899Y-4.5578
M16
G05
G00X5.6899Y-4.9003
M15
G01X5.6899Y-4.8728
M16
G05
G00X6.0201Y-4.5854
M15
G01X6.0201Y-4.5578
M16
G05
G00X6.0201Y-4.9003
M15
G01X6.0201Y-4.8728
M16
G05
G00X6.1638Y-4.5401
M15
G01X6.1362Y-4.5401
M16
G05
G00X6.2799Y-4.5854
M15
G01X6.2799Y-4.5578
M16
G05
G00X6.2799Y-4.9003
M15
G01X6.2799Y-4.8728
M16
G05
G00X6.6201Y-4.5854
M15
G01X6.6201Y-4.5578
M16
G05
G00X6.6201Y-4.9003
M15
G01X6.6201Y-4.8728
M16
G05
G00X6.7638Y-4.5401
M15
G01X6.7362Y-4.5401
M16
G05
G00X6.8799Y-4.5854
M15
G01X6.8799Y-4.5578
M16
G05
G00X6.8799Y-4.9003
M15
G01X6.8799Y-4.8728
M16
G05
T0
M30
