%TF.GenerationSoftware,KiCad,Pcbnew,7.0.8*%
%TF.CreationDate,2024-03-17T18:00:07+01:00*%
%TF.ProjectId,HM_mainboard,484d5f6d-6169-46e6-926f-6172642e6b69,rev?*%
%TF.SameCoordinates,Original*%
%TF.FileFunction,Legend,Bot*%
%TF.FilePolarity,Positive*%
%FSLAX46Y46*%
G04 Gerber Fmt 4.6, Leading zero omitted, Abs format (unit mm)*
G04 Created by KiCad (PCBNEW 7.0.8) date 2024-03-17 18:00:07*
%MOMM*%
%LPD*%
G01*
G04 APERTURE LIST*
%ADD10C,0.300000*%
G04 APERTURE END LIST*
D10*
X194945489Y-119135828D02*
X194945489Y-117635828D01*
X194945489Y-118350114D02*
X194088346Y-118350114D01*
X194088346Y-119135828D02*
X194088346Y-117635828D01*
X192802631Y-119064400D02*
X192945488Y-119135828D01*
X192945488Y-119135828D02*
X193231203Y-119135828D01*
X193231203Y-119135828D02*
X193374060Y-119064400D01*
X193374060Y-119064400D02*
X193445488Y-118921542D01*
X193445488Y-118921542D02*
X193445488Y-118350114D01*
X193445488Y-118350114D02*
X193374060Y-118207257D01*
X193374060Y-118207257D02*
X193231203Y-118135828D01*
X193231203Y-118135828D02*
X192945488Y-118135828D01*
X192945488Y-118135828D02*
X192802631Y-118207257D01*
X192802631Y-118207257D02*
X192731203Y-118350114D01*
X192731203Y-118350114D02*
X192731203Y-118492971D01*
X192731203Y-118492971D02*
X193445488Y-118635828D01*
X191445489Y-119135828D02*
X191445489Y-118350114D01*
X191445489Y-118350114D02*
X191516917Y-118207257D01*
X191516917Y-118207257D02*
X191659774Y-118135828D01*
X191659774Y-118135828D02*
X191945489Y-118135828D01*
X191945489Y-118135828D02*
X192088346Y-118207257D01*
X191445489Y-119064400D02*
X191588346Y-119135828D01*
X191588346Y-119135828D02*
X191945489Y-119135828D01*
X191945489Y-119135828D02*
X192088346Y-119064400D01*
X192088346Y-119064400D02*
X192159774Y-118921542D01*
X192159774Y-118921542D02*
X192159774Y-118778685D01*
X192159774Y-118778685D02*
X192088346Y-118635828D01*
X192088346Y-118635828D02*
X191945489Y-118564400D01*
X191945489Y-118564400D02*
X191588346Y-118564400D01*
X191588346Y-118564400D02*
X191445489Y-118492971D01*
X190088346Y-119135828D02*
X190088346Y-117635828D01*
X190088346Y-119064400D02*
X190231203Y-119135828D01*
X190231203Y-119135828D02*
X190516917Y-119135828D01*
X190516917Y-119135828D02*
X190659774Y-119064400D01*
X190659774Y-119064400D02*
X190731203Y-118992971D01*
X190731203Y-118992971D02*
X190802631Y-118850114D01*
X190802631Y-118850114D02*
X190802631Y-118421542D01*
X190802631Y-118421542D02*
X190731203Y-118278685D01*
X190731203Y-118278685D02*
X190659774Y-118207257D01*
X190659774Y-118207257D02*
X190516917Y-118135828D01*
X190516917Y-118135828D02*
X190231203Y-118135828D01*
X190231203Y-118135828D02*
X190088346Y-118207257D01*
X189374060Y-119135828D02*
X189374060Y-117635828D01*
X189374060Y-117635828D02*
X188874060Y-118707257D01*
X188874060Y-118707257D02*
X188374060Y-117635828D01*
X188374060Y-117635828D02*
X188374060Y-119135828D01*
X187445488Y-119135828D02*
X187588345Y-119064400D01*
X187588345Y-119064400D02*
X187659774Y-118992971D01*
X187659774Y-118992971D02*
X187731202Y-118850114D01*
X187731202Y-118850114D02*
X187731202Y-118421542D01*
X187731202Y-118421542D02*
X187659774Y-118278685D01*
X187659774Y-118278685D02*
X187588345Y-118207257D01*
X187588345Y-118207257D02*
X187445488Y-118135828D01*
X187445488Y-118135828D02*
X187231202Y-118135828D01*
X187231202Y-118135828D02*
X187088345Y-118207257D01*
X187088345Y-118207257D02*
X187016917Y-118278685D01*
X187016917Y-118278685D02*
X186945488Y-118421542D01*
X186945488Y-118421542D02*
X186945488Y-118850114D01*
X186945488Y-118850114D02*
X187016917Y-118992971D01*
X187016917Y-118992971D02*
X187088345Y-119064400D01*
X187088345Y-119064400D02*
X187231202Y-119135828D01*
X187231202Y-119135828D02*
X187445488Y-119135828D01*
X185659774Y-118135828D02*
X185659774Y-119135828D01*
X186302631Y-118135828D02*
X186302631Y-118921542D01*
X186302631Y-118921542D02*
X186231202Y-119064400D01*
X186231202Y-119064400D02*
X186088345Y-119135828D01*
X186088345Y-119135828D02*
X185874059Y-119135828D01*
X185874059Y-119135828D02*
X185731202Y-119064400D01*
X185731202Y-119064400D02*
X185659774Y-118992971D01*
X185016916Y-119064400D02*
X184874059Y-119135828D01*
X184874059Y-119135828D02*
X184588345Y-119135828D01*
X184588345Y-119135828D02*
X184445488Y-119064400D01*
X184445488Y-119064400D02*
X184374059Y-118921542D01*
X184374059Y-118921542D02*
X184374059Y-118850114D01*
X184374059Y-118850114D02*
X184445488Y-118707257D01*
X184445488Y-118707257D02*
X184588345Y-118635828D01*
X184588345Y-118635828D02*
X184802631Y-118635828D01*
X184802631Y-118635828D02*
X184945488Y-118564400D01*
X184945488Y-118564400D02*
X185016916Y-118421542D01*
X185016916Y-118421542D02*
X185016916Y-118350114D01*
X185016916Y-118350114D02*
X184945488Y-118207257D01*
X184945488Y-118207257D02*
X184802631Y-118135828D01*
X184802631Y-118135828D02*
X184588345Y-118135828D01*
X184588345Y-118135828D02*
X184445488Y-118207257D01*
X183159773Y-119064400D02*
X183302630Y-119135828D01*
X183302630Y-119135828D02*
X183588345Y-119135828D01*
X183588345Y-119135828D02*
X183731202Y-119064400D01*
X183731202Y-119064400D02*
X183802630Y-118921542D01*
X183802630Y-118921542D02*
X183802630Y-118350114D01*
X183802630Y-118350114D02*
X183731202Y-118207257D01*
X183731202Y-118207257D02*
X183588345Y-118135828D01*
X183588345Y-118135828D02*
X183302630Y-118135828D01*
X183302630Y-118135828D02*
X183159773Y-118207257D01*
X183159773Y-118207257D02*
X183088345Y-118350114D01*
X183088345Y-118350114D02*
X183088345Y-118492971D01*
X183088345Y-118492971D02*
X183802630Y-118635828D01*
X181516916Y-117635828D02*
X181016916Y-119135828D01*
X181016916Y-119135828D02*
X180516916Y-117635828D01*
X179231202Y-119135828D02*
X180088345Y-119135828D01*
X179659774Y-119135828D02*
X179659774Y-117635828D01*
X179659774Y-117635828D02*
X179802631Y-117850114D01*
X179802631Y-117850114D02*
X179945488Y-117992971D01*
X179945488Y-117992971D02*
X180088345Y-118064400D01*
X178588346Y-118992971D02*
X178516917Y-119064400D01*
X178516917Y-119064400D02*
X178588346Y-119135828D01*
X178588346Y-119135828D02*
X178659774Y-119064400D01*
X178659774Y-119064400D02*
X178588346Y-118992971D01*
X178588346Y-118992971D02*
X178588346Y-119135828D01*
X177588345Y-117635828D02*
X177445488Y-117635828D01*
X177445488Y-117635828D02*
X177302631Y-117707257D01*
X177302631Y-117707257D02*
X177231203Y-117778685D01*
X177231203Y-117778685D02*
X177159774Y-117921542D01*
X177159774Y-117921542D02*
X177088345Y-118207257D01*
X177088345Y-118207257D02*
X177088345Y-118564400D01*
X177088345Y-118564400D02*
X177159774Y-118850114D01*
X177159774Y-118850114D02*
X177231203Y-118992971D01*
X177231203Y-118992971D02*
X177302631Y-119064400D01*
X177302631Y-119064400D02*
X177445488Y-119135828D01*
X177445488Y-119135828D02*
X177588345Y-119135828D01*
X177588345Y-119135828D02*
X177731203Y-119064400D01*
X177731203Y-119064400D02*
X177802631Y-118992971D01*
X177802631Y-118992971D02*
X177874060Y-118850114D01*
X177874060Y-118850114D02*
X177945488Y-118564400D01*
X177945488Y-118564400D02*
X177945488Y-118207257D01*
X177945488Y-118207257D02*
X177874060Y-117921542D01*
X177874060Y-117921542D02*
X177802631Y-117778685D01*
X177802631Y-117778685D02*
X177731203Y-117707257D01*
X177731203Y-117707257D02*
X177588345Y-117635828D01*
X194445489Y-120765114D02*
X194945489Y-120765114D01*
X194945489Y-121550828D02*
X194945489Y-120050828D01*
X194945489Y-120050828D02*
X194231203Y-120050828D01*
X193659775Y-121550828D02*
X193659775Y-120050828D01*
X193659775Y-120765114D02*
X192802632Y-120765114D01*
X192802632Y-121550828D02*
X192802632Y-120050828D01*
X191159774Y-120050828D02*
X190302632Y-120050828D01*
X190731203Y-121550828D02*
X190731203Y-120050828D01*
X189231203Y-121479400D02*
X189374060Y-121550828D01*
X189374060Y-121550828D02*
X189659775Y-121550828D01*
X189659775Y-121550828D02*
X189802632Y-121479400D01*
X189802632Y-121479400D02*
X189874060Y-121336542D01*
X189874060Y-121336542D02*
X189874060Y-120765114D01*
X189874060Y-120765114D02*
X189802632Y-120622257D01*
X189802632Y-120622257D02*
X189659775Y-120550828D01*
X189659775Y-120550828D02*
X189374060Y-120550828D01*
X189374060Y-120550828D02*
X189231203Y-120622257D01*
X189231203Y-120622257D02*
X189159775Y-120765114D01*
X189159775Y-120765114D02*
X189159775Y-120907971D01*
X189159775Y-120907971D02*
X189874060Y-121050828D01*
X187874061Y-121479400D02*
X188016918Y-121550828D01*
X188016918Y-121550828D02*
X188302632Y-121550828D01*
X188302632Y-121550828D02*
X188445489Y-121479400D01*
X188445489Y-121479400D02*
X188516918Y-121407971D01*
X188516918Y-121407971D02*
X188588346Y-121265114D01*
X188588346Y-121265114D02*
X188588346Y-120836542D01*
X188588346Y-120836542D02*
X188516918Y-120693685D01*
X188516918Y-120693685D02*
X188445489Y-120622257D01*
X188445489Y-120622257D02*
X188302632Y-120550828D01*
X188302632Y-120550828D02*
X188016918Y-120550828D01*
X188016918Y-120550828D02*
X187874061Y-120622257D01*
X187231204Y-121550828D02*
X187231204Y-120050828D01*
X186588347Y-121550828D02*
X186588347Y-120765114D01*
X186588347Y-120765114D02*
X186659775Y-120622257D01*
X186659775Y-120622257D02*
X186802632Y-120550828D01*
X186802632Y-120550828D02*
X187016918Y-120550828D01*
X187016918Y-120550828D02*
X187159775Y-120622257D01*
X187159775Y-120622257D02*
X187231204Y-120693685D01*
X185874061Y-120550828D02*
X185874061Y-121550828D01*
X185874061Y-120693685D02*
X185802632Y-120622257D01*
X185802632Y-120622257D02*
X185659775Y-120550828D01*
X185659775Y-120550828D02*
X185445489Y-120550828D01*
X185445489Y-120550828D02*
X185302632Y-120622257D01*
X185302632Y-120622257D02*
X185231204Y-120765114D01*
X185231204Y-120765114D02*
X185231204Y-121550828D01*
X184516918Y-121550828D02*
X184516918Y-120550828D01*
X184516918Y-120050828D02*
X184588346Y-120122257D01*
X184588346Y-120122257D02*
X184516918Y-120193685D01*
X184516918Y-120193685D02*
X184445489Y-120122257D01*
X184445489Y-120122257D02*
X184516918Y-120050828D01*
X184516918Y-120050828D02*
X184516918Y-120193685D01*
X183802632Y-121550828D02*
X183802632Y-120050828D01*
X183659775Y-120979400D02*
X183231203Y-121550828D01*
X183231203Y-120550828D02*
X183802632Y-121122257D01*
X181945489Y-120550828D02*
X181945489Y-121550828D01*
X182588346Y-120550828D02*
X182588346Y-121336542D01*
X182588346Y-121336542D02*
X182516917Y-121479400D01*
X182516917Y-121479400D02*
X182374060Y-121550828D01*
X182374060Y-121550828D02*
X182159774Y-121550828D01*
X182159774Y-121550828D02*
X182016917Y-121479400D01*
X182016917Y-121479400D02*
X181945489Y-121407971D01*
X181231203Y-121550828D02*
X181231203Y-120550828D01*
X181231203Y-120693685D02*
X181159774Y-120622257D01*
X181159774Y-120622257D02*
X181016917Y-120550828D01*
X181016917Y-120550828D02*
X180802631Y-120550828D01*
X180802631Y-120550828D02*
X180659774Y-120622257D01*
X180659774Y-120622257D02*
X180588346Y-120765114D01*
X180588346Y-120765114D02*
X180588346Y-121550828D01*
X180588346Y-120765114D02*
X180516917Y-120622257D01*
X180516917Y-120622257D02*
X180374060Y-120550828D01*
X180374060Y-120550828D02*
X180159774Y-120550828D01*
X180159774Y-120550828D02*
X180016917Y-120622257D01*
X180016917Y-120622257D02*
X179945488Y-120765114D01*
X179945488Y-120765114D02*
X179945488Y-121550828D01*
X178231203Y-120050828D02*
X177874060Y-121550828D01*
X177874060Y-121550828D02*
X177588346Y-120479400D01*
X177588346Y-120479400D02*
X177302631Y-121550828D01*
X177302631Y-121550828D02*
X176945489Y-120050828D01*
X176374060Y-121550828D02*
X176374060Y-120550828D01*
X176374060Y-120050828D02*
X176445488Y-120122257D01*
X176445488Y-120122257D02*
X176374060Y-120193685D01*
X176374060Y-120193685D02*
X176302631Y-120122257D01*
X176302631Y-120122257D02*
X176374060Y-120050828D01*
X176374060Y-120050828D02*
X176374060Y-120193685D01*
X175088345Y-121479400D02*
X175231202Y-121550828D01*
X175231202Y-121550828D02*
X175516917Y-121550828D01*
X175516917Y-121550828D02*
X175659774Y-121479400D01*
X175659774Y-121479400D02*
X175731202Y-121336542D01*
X175731202Y-121336542D02*
X175731202Y-120765114D01*
X175731202Y-120765114D02*
X175659774Y-120622257D01*
X175659774Y-120622257D02*
X175516917Y-120550828D01*
X175516917Y-120550828D02*
X175231202Y-120550828D01*
X175231202Y-120550828D02*
X175088345Y-120622257D01*
X175088345Y-120622257D02*
X175016917Y-120765114D01*
X175016917Y-120765114D02*
X175016917Y-120907971D01*
X175016917Y-120907971D02*
X175731202Y-121050828D01*
X174374060Y-120550828D02*
X174374060Y-121550828D01*
X174374060Y-120693685D02*
X174302631Y-120622257D01*
X174302631Y-120622257D02*
X174159774Y-120550828D01*
X174159774Y-120550828D02*
X173945488Y-120550828D01*
X173945488Y-120550828D02*
X173802631Y-120622257D01*
X173802631Y-120622257D02*
X173731203Y-120765114D01*
X173731203Y-120765114D02*
X173731203Y-121550828D01*
M02*
