%TF.GenerationSoftware,KiCad,Pcbnew,7.0.8*%
%TF.CreationDate,2023-12-05T20:53:18+01:00*%
%TF.ProjectId,HM_mainboard,484d5f6d-6169-46e6-926f-6172642e6b69,rev?*%
%TF.SameCoordinates,Original*%
%TF.FileFunction,Drillmap*%
%TF.FilePolarity,Positive*%
%FSLAX45Y45*%
G04 Gerber Fmt 4.5, Leading zero omitted, Abs format (unit mm)*
G04 Created by KiCad (PCBNEW 7.0.8) date 2023-12-05 20:53:18*
%MOMM*%
%LPD*%
G01*
G04 APERTURE LIST*
%ADD10C,0.200000*%
%ADD11C,0.010000*%
%ADD12C,0.040000*%
%ADD13C,0.060000*%
%ADD14C,0.075000*%
%ADD15C,0.100000*%
G04 APERTURE END LIST*
D10*
X11677000Y-7295000D02*
X19677000Y-7295000D01*
X19677000Y-12795000D01*
X11677000Y-12795000D01*
X11677000Y-7295000D01*
D11*
X13126800Y-9672400D02*
X13136800Y-9682400D01*
X13136800Y-9672400D02*
X13126800Y-9682400D01*
X13241100Y-9837500D02*
X13251100Y-9847500D01*
X13251100Y-9837500D02*
X13241100Y-9847500D01*
X13355400Y-9443800D02*
X13365400Y-9453800D01*
X13365400Y-9443800D02*
X13355400Y-9453800D01*
X13507800Y-9570800D02*
X13517800Y-9580800D01*
X13517800Y-9570800D02*
X13507800Y-9580800D01*
X14777800Y-9213100D02*
X14787800Y-9223100D01*
X14787800Y-9213100D02*
X14777800Y-9223100D01*
X14777800Y-9268100D02*
X14787800Y-9278100D01*
X14787800Y-9268100D02*
X14777800Y-9278100D01*
X14828600Y-9367600D02*
X14838600Y-9377600D01*
X14838600Y-9367600D02*
X14828600Y-9377600D01*
X14828600Y-9469200D02*
X14838600Y-9479200D01*
X14838600Y-9469200D02*
X14828600Y-9479200D01*
X15039420Y-9608500D02*
X15049420Y-9618500D01*
X15049420Y-9608500D02*
X15039420Y-9618500D01*
X15191820Y-9608500D02*
X15201820Y-9618500D01*
X15201820Y-9608500D02*
X15191820Y-9618500D01*
X15260400Y-10358200D02*
X15270400Y-10368200D01*
X15270400Y-10358200D02*
X15260400Y-10368200D01*
X15285800Y-9977200D02*
X15295800Y-9987200D01*
X15295800Y-9977200D02*
X15285800Y-9987200D01*
X15285800Y-10104200D02*
X15295800Y-10114200D01*
X15295800Y-10104200D02*
X15285800Y-10114200D01*
X15311200Y-9213100D02*
X15321200Y-9223100D01*
X15321200Y-9213100D02*
X15311200Y-9223100D01*
X15311200Y-9263100D02*
X15321200Y-9273100D01*
X15321200Y-9263100D02*
X15311200Y-9273100D01*
X15311200Y-9367600D02*
X15321200Y-9377600D01*
X15321200Y-9367600D02*
X15311200Y-9377600D01*
X15311200Y-9469200D02*
X15321200Y-9479200D01*
X15321200Y-9469200D02*
X15311200Y-9479200D01*
X15463600Y-10282000D02*
X15473600Y-10292000D01*
X15473600Y-10282000D02*
X15463600Y-10292000D01*
X15720950Y-9570800D02*
X15730950Y-9580800D01*
X15730950Y-9570800D02*
X15720950Y-9580800D01*
X15819200Y-9570800D02*
X15829200Y-9580800D01*
X15829200Y-9570800D02*
X15819200Y-9580800D01*
X16047800Y-9520000D02*
X16057800Y-9530000D01*
X16057800Y-9520000D02*
X16047800Y-9530000D01*
X16047800Y-9901000D02*
X16057800Y-9911000D01*
X16057800Y-9901000D02*
X16047800Y-9911000D01*
X16047800Y-10282000D02*
X16057800Y-10292000D01*
X16057800Y-10282000D02*
X16047800Y-10292000D01*
X16047800Y-10358200D02*
X16057800Y-10368200D01*
X16057800Y-10358200D02*
X16047800Y-10368200D01*
X16095947Y-9570800D02*
X16105947Y-9580800D01*
X16105947Y-9570800D02*
X16095947Y-9580800D01*
X16098600Y-9951800D02*
X16108600Y-9961800D01*
X16108600Y-9951800D02*
X16098600Y-9961800D01*
X16733600Y-9213100D02*
X16743600Y-9223100D01*
X16743600Y-9213100D02*
X16733600Y-9223100D01*
X16733600Y-9268100D02*
X16743600Y-9278100D01*
X16743600Y-9268100D02*
X16733600Y-9278100D01*
X16759000Y-9367600D02*
X16769000Y-9377600D01*
X16769000Y-9367600D02*
X16759000Y-9377600D01*
X16759000Y-9469200D02*
X16769000Y-9479200D01*
X16769000Y-9469200D02*
X16759000Y-9479200D01*
X17147500Y-9213100D02*
X17157500Y-9223100D01*
X17157500Y-9213100D02*
X17147500Y-9223100D01*
X17147500Y-9268100D02*
X17157500Y-9278100D01*
X17157500Y-9268100D02*
X17147500Y-9278100D01*
X17165400Y-10967800D02*
X17175400Y-10977800D01*
X17175400Y-10967800D02*
X17165400Y-10977800D01*
X17800400Y-11450400D02*
X17810400Y-11460400D01*
X17810400Y-11450400D02*
X17800400Y-11460400D01*
X18257600Y-9443800D02*
X18267600Y-9453800D01*
X18267600Y-9443800D02*
X18257600Y-9453800D01*
X18410000Y-9266000D02*
X18420000Y-9276000D01*
X18420000Y-9266000D02*
X18410000Y-9276000D01*
D12*
X11831000Y-10033000D02*
G75*
G03*
X11831000Y-10033000I-20000J0D01*
G01*
X11831000Y-10337800D02*
G75*
G03*
X11831000Y-10337800I-20000J0D01*
G01*
X11958000Y-9093200D02*
G75*
G03*
X11958000Y-9093200I-20000J0D01*
G01*
X11983400Y-10236200D02*
G75*
G03*
X11983400Y-10236200I-20000J0D01*
G01*
X12186600Y-8559800D02*
G75*
G03*
X12186600Y-8559800I-20000J0D01*
G01*
X12186600Y-10642600D02*
G75*
G03*
X12186600Y-10642600I-20000J0D01*
G01*
X12212000Y-7924800D02*
G75*
G03*
X12212000Y-7924800I-20000J0D01*
G01*
X12262800Y-9093200D02*
G75*
G03*
X12262800Y-9093200I-20000J0D01*
G01*
X12288200Y-9906000D02*
G75*
G03*
X12288200Y-9906000I-20000J0D01*
G01*
X12516800Y-10464800D02*
G75*
G03*
X12516800Y-10464800I-20000J0D01*
G01*
X12567600Y-12217400D02*
G75*
G03*
X12567600Y-12217400I-20000J0D01*
G01*
X12618400Y-8813800D02*
G75*
G03*
X12618400Y-8813800I-20000J0D01*
G01*
X12669200Y-10998200D02*
G75*
G03*
X12669200Y-10998200I-20000J0D01*
G01*
X12767750Y-8180991D02*
G75*
G03*
X12767750Y-8180991I-20000J0D01*
G01*
X12923200Y-7721600D02*
G75*
G03*
X12923200Y-7721600I-20000J0D01*
G01*
X12948600Y-10388600D02*
G75*
G03*
X12948600Y-10388600I-20000J0D01*
G01*
X12999400Y-9220200D02*
G75*
G03*
X12999400Y-9220200I-20000J0D01*
G01*
X13024800Y-9677400D02*
G75*
G03*
X13024800Y-9677400I-20000J0D01*
G01*
X13177200Y-7721600D02*
G75*
G03*
X13177200Y-7721600I-20000J0D01*
G01*
X13228000Y-10160000D02*
G75*
G03*
X13228000Y-10160000I-20000J0D01*
G01*
X13253400Y-9347200D02*
G75*
G03*
X13253400Y-9347200I-20000J0D01*
G01*
X13278800Y-10947400D02*
G75*
G03*
X13278800Y-10947400I-20000J0D01*
G01*
X13282550Y-8420530D02*
G75*
G03*
X13282550Y-8420530I-20000J0D01*
G01*
X13304200Y-11455400D02*
G75*
G03*
X13304200Y-11455400I-20000J0D01*
G01*
X13341596Y-8192204D02*
G75*
G03*
X13341596Y-8192204I-20000J0D01*
G01*
X13609000Y-9855200D02*
G75*
G03*
X13609000Y-9855200I-20000J0D01*
G01*
X13609000Y-10058400D02*
G75*
G03*
X13609000Y-10058400I-20000J0D01*
G01*
X13609000Y-10439400D02*
G75*
G03*
X13609000Y-10439400I-20000J0D01*
G01*
X13736000Y-9677400D02*
G75*
G03*
X13736000Y-9677400I-20000J0D01*
G01*
X13812200Y-7797800D02*
G75*
G03*
X13812200Y-7797800I-20000J0D01*
G01*
X13863000Y-9575800D02*
G75*
G03*
X13863000Y-9575800I-20000J0D01*
G01*
X13896020Y-10197700D02*
G75*
G03*
X13896020Y-10197700I-20000J0D01*
G01*
X13913800Y-10769600D02*
G75*
G03*
X13913800Y-10769600I-20000J0D01*
G01*
X13990000Y-9144000D02*
G75*
G03*
X13990000Y-9144000I-20000J0D01*
G01*
X14015400Y-9427150D02*
G75*
G03*
X14015400Y-9427150I-20000J0D01*
G01*
X14073820Y-9715100D02*
G75*
G03*
X14073820Y-9715100I-20000J0D01*
G01*
X14117000Y-8813800D02*
G75*
G03*
X14117000Y-8813800I-20000J0D01*
G01*
X14142400Y-7823200D02*
G75*
G03*
X14142400Y-7823200I-20000J0D01*
G01*
X14142400Y-12242800D02*
G75*
G03*
X14142400Y-12242800I-20000J0D01*
G01*
X14193200Y-8483600D02*
G75*
G03*
X14193200Y-8483600I-20000J0D01*
G01*
X14244000Y-9575800D02*
G75*
G03*
X14244000Y-9575800I-20000J0D01*
G01*
X14371000Y-8788400D02*
G75*
G03*
X14371000Y-8788400I-20000J0D01*
G01*
X14396400Y-10769600D02*
G75*
G03*
X14396400Y-10769600I-20000J0D01*
G01*
X14434800Y-8331200D02*
G75*
G03*
X14434800Y-8331200I-20000J0D01*
G01*
X14498000Y-9067800D02*
G75*
G03*
X14498000Y-9067800I-20000J0D01*
G01*
X14650400Y-7721600D02*
G75*
G03*
X14650400Y-7721600I-20000J0D01*
G01*
X14675800Y-8915400D02*
G75*
G03*
X14675800Y-8915400I-20000J0D01*
G01*
X14726600Y-8128000D02*
G75*
G03*
X14726600Y-8128000I-20000J0D01*
G01*
X14828200Y-8788400D02*
G75*
G03*
X14828200Y-8788400I-20000J0D01*
G01*
X14828200Y-10769600D02*
G75*
G03*
X14828200Y-10769600I-20000J0D01*
G01*
X14853600Y-8432800D02*
G75*
G03*
X14853600Y-8432800I-20000J0D01*
G01*
X14886620Y-10527900D02*
G75*
G03*
X14886620Y-10527900I-20000J0D01*
G01*
X14929800Y-8966200D02*
G75*
G03*
X14929800Y-8966200I-20000J0D01*
G01*
X15133000Y-9017000D02*
G75*
G03*
X15133000Y-9017000I-20000J0D01*
G01*
X15133000Y-11353800D02*
G75*
G03*
X15133000Y-11353800I-20000J0D01*
G01*
X15172300Y-10185400D02*
G75*
G03*
X15172300Y-10185400I-20000J0D01*
G01*
X15260000Y-9702800D02*
G75*
G03*
X15260000Y-9702800I-20000J0D01*
G01*
X15260000Y-10769600D02*
G75*
G03*
X15260000Y-10769600I-20000J0D01*
G01*
X15361600Y-8991600D02*
G75*
G03*
X15361600Y-8991600I-20000J0D01*
G01*
X15387000Y-8102600D02*
G75*
G03*
X15387000Y-8102600I-20000J0D01*
G01*
X15437800Y-11049000D02*
G75*
G03*
X15437800Y-11049000I-20000J0D01*
G01*
X15539400Y-8991600D02*
G75*
G03*
X15539400Y-8991600I-20000J0D01*
G01*
X15615600Y-8813800D02*
G75*
G03*
X15615600Y-8813800I-20000J0D01*
G01*
X15641000Y-8483600D02*
G75*
G03*
X15641000Y-8483600I-20000J0D01*
G01*
X15641000Y-12217400D02*
G75*
G03*
X15641000Y-12217400I-20000J0D01*
G01*
X15666400Y-8940800D02*
G75*
G03*
X15666400Y-8940800I-20000J0D01*
G01*
X15666400Y-9879138D02*
G75*
G03*
X15666400Y-9879138I-20000J0D01*
G01*
X15717200Y-10058400D02*
G75*
G03*
X15717200Y-10058400I-20000J0D01*
G01*
X15793400Y-8966200D02*
G75*
G03*
X15793400Y-8966200I-20000J0D01*
G01*
X15793400Y-10896600D02*
G75*
G03*
X15793400Y-10896600I-20000J0D01*
G01*
X15844200Y-8280400D02*
G75*
G03*
X15844200Y-8280400I-20000J0D01*
G01*
X15945800Y-9702800D02*
G75*
G03*
X15945800Y-9702800I-20000J0D01*
G01*
X15996600Y-8077200D02*
G75*
G03*
X15996600Y-8077200I-20000J0D01*
G01*
X16123600Y-10896600D02*
G75*
G03*
X16123600Y-10896600I-20000J0D01*
G01*
X16199800Y-7924800D02*
G75*
G03*
X16199800Y-7924800I-20000J0D01*
G01*
X16276000Y-8458200D02*
G75*
G03*
X16276000Y-8458200I-20000J0D01*
G01*
X16276000Y-8763000D02*
G75*
G03*
X16276000Y-8763000I-20000J0D01*
G01*
X16276000Y-9118600D02*
G75*
G03*
X16276000Y-9118600I-20000J0D01*
G01*
X16403000Y-10867450D02*
G75*
G03*
X16403000Y-10867450I-20000J0D01*
G01*
X16403000Y-11455400D02*
G75*
G03*
X16403000Y-11455400I-20000J0D01*
G01*
X16403000Y-11785600D02*
G75*
G03*
X16403000Y-11785600I-20000J0D01*
G01*
X16403000Y-12166600D02*
G75*
G03*
X16403000Y-12166600I-20000J0D01*
G01*
X16428400Y-8331200D02*
G75*
G03*
X16428400Y-8331200I-20000J0D01*
G01*
X16428400Y-9659739D02*
G75*
G03*
X16428400Y-9659739I-20000J0D01*
G01*
X16428400Y-12547600D02*
G75*
G03*
X16428400Y-12547600I-20000J0D01*
G01*
X16453800Y-7899400D02*
G75*
G03*
X16453800Y-7899400I-20000J0D01*
G01*
X16479200Y-10007600D02*
G75*
G03*
X16479200Y-10007600I-20000J0D01*
G01*
X16504600Y-9118600D02*
G75*
G03*
X16504600Y-9118600I-20000J0D01*
G01*
X16530000Y-8763000D02*
G75*
G03*
X16530000Y-8763000I-20000J0D01*
G01*
X16657000Y-10845800D02*
G75*
G03*
X16657000Y-10845800I-20000J0D01*
G01*
X16657000Y-11709400D02*
G75*
G03*
X16657000Y-11709400I-20000J0D01*
G01*
X16707800Y-8305800D02*
G75*
G03*
X16707800Y-8305800I-20000J0D01*
G01*
X16758600Y-11328400D02*
G75*
G03*
X16758600Y-11328400I-20000J0D01*
G01*
X16784000Y-8686800D02*
G75*
G03*
X16784000Y-8686800I-20000J0D01*
G01*
X16784000Y-9093200D02*
G75*
G03*
X16784000Y-9093200I-20000J0D01*
G01*
X16809400Y-9728200D02*
G75*
G03*
X16809400Y-9728200I-20000J0D01*
G01*
X16834800Y-10845800D02*
G75*
G03*
X16834800Y-10845800I-20000J0D01*
G01*
X16961800Y-7747000D02*
G75*
G03*
X16961800Y-7747000I-20000J0D01*
G01*
X17063400Y-8686800D02*
G75*
G03*
X17063400Y-8686800I-20000J0D01*
G01*
X17139600Y-7924800D02*
G75*
G03*
X17139600Y-7924800I-20000J0D01*
G01*
X17139600Y-8178800D02*
G75*
G03*
X17139600Y-8178800I-20000J0D01*
G01*
X17139600Y-12217400D02*
G75*
G03*
X17139600Y-12217400I-20000J0D01*
G01*
X17241200Y-7518400D02*
G75*
G03*
X17241200Y-7518400I-20000J0D01*
G01*
X17241200Y-8356600D02*
G75*
G03*
X17241200Y-8356600I-20000J0D01*
G01*
X17266600Y-9575800D02*
G75*
G03*
X17266600Y-9575800I-20000J0D01*
G01*
X17266600Y-9982200D02*
G75*
G03*
X17266600Y-9982200I-20000J0D01*
G01*
X17266600Y-10363200D02*
G75*
G03*
X17266600Y-10363200I-20000J0D01*
G01*
X17292000Y-8051800D02*
G75*
G03*
X17292000Y-8051800I-20000J0D01*
G01*
X17342800Y-11328400D02*
G75*
G03*
X17342800Y-11328400I-20000J0D01*
G01*
X17393600Y-8509000D02*
G75*
G03*
X17393600Y-8509000I-20000J0D01*
G01*
X17444400Y-7924800D02*
G75*
G03*
X17444400Y-7924800I-20000J0D01*
G01*
X17444400Y-8178800D02*
G75*
G03*
X17444400Y-8178800I-20000J0D01*
G01*
X17444400Y-9271000D02*
G75*
G03*
X17444400Y-9271000I-20000J0D01*
G01*
X17673000Y-7975600D02*
G75*
G03*
X17673000Y-7975600I-20000J0D01*
G01*
X17749200Y-10363200D02*
G75*
G03*
X17749200Y-10363200I-20000J0D01*
G01*
X17825400Y-11938000D02*
G75*
G03*
X17825400Y-11938000I-20000J0D01*
G01*
X17850800Y-12344400D02*
G75*
G03*
X17850800Y-12344400I-20000J0D01*
G01*
X17952400Y-8331200D02*
G75*
G03*
X17952400Y-8331200I-20000J0D01*
G01*
X17952400Y-9271000D02*
G75*
G03*
X17952400Y-9271000I-20000J0D01*
G01*
X17977800Y-11328400D02*
G75*
G03*
X17977800Y-11328400I-20000J0D01*
G01*
X18003200Y-7721600D02*
G75*
G03*
X18003200Y-7721600I-20000J0D01*
G01*
X18181000Y-7518400D02*
G75*
G03*
X18181000Y-7518400I-20000J0D01*
G01*
X18181000Y-10363200D02*
G75*
G03*
X18181000Y-10363200I-20000J0D01*
G01*
X18257200Y-11049000D02*
G75*
G03*
X18257200Y-11049000I-20000J0D01*
G01*
X18308000Y-11658600D02*
G75*
G03*
X18308000Y-11658600I-20000J0D01*
G01*
X18358800Y-8229600D02*
G75*
G03*
X18358800Y-8229600I-20000J0D01*
G01*
X18358800Y-8407400D02*
G75*
G03*
X18358800Y-8407400I-20000J0D01*
G01*
X18358800Y-8559800D02*
G75*
G03*
X18358800Y-8559800I-20000J0D01*
G01*
X18358800Y-8686800D02*
G75*
G03*
X18358800Y-8686800I-20000J0D01*
G01*
X18638200Y-10363200D02*
G75*
G03*
X18638200Y-10363200I-20000J0D01*
G01*
X18663600Y-9271000D02*
G75*
G03*
X18663600Y-9271000I-20000J0D01*
G01*
X18689000Y-8153400D02*
G75*
G03*
X18689000Y-8153400I-20000J0D01*
G01*
X18704000Y-8864600D02*
G75*
G03*
X18704000Y-8864600I-20000J0D01*
G01*
X18765200Y-10998200D02*
G75*
G03*
X18765200Y-10998200I-20000J0D01*
G01*
X18816000Y-11582400D02*
G75*
G03*
X18816000Y-11582400I-20000J0D01*
G01*
X18841400Y-12192000D02*
G75*
G03*
X18841400Y-12192000I-20000J0D01*
G01*
X18866800Y-7696200D02*
G75*
G03*
X18866800Y-7696200I-20000J0D01*
G01*
X18866800Y-8636000D02*
G75*
G03*
X18866800Y-8636000I-20000J0D01*
G01*
X18892200Y-10566400D02*
G75*
G03*
X18892200Y-10566400I-20000J0D01*
G01*
X18917600Y-8382000D02*
G75*
G03*
X18917600Y-8382000I-20000J0D01*
G01*
X18943000Y-8153400D02*
G75*
G03*
X18943000Y-8153400I-20000J0D01*
G01*
X19019200Y-8915400D02*
G75*
G03*
X19019200Y-8915400I-20000J0D01*
G01*
X19044600Y-10998200D02*
G75*
G03*
X19044600Y-10998200I-20000J0D01*
G01*
X19171600Y-8331200D02*
G75*
G03*
X19171600Y-8331200I-20000J0D01*
G01*
X19273200Y-10972800D02*
G75*
G03*
X19273200Y-10972800I-20000J0D01*
G01*
X19349400Y-11582400D02*
G75*
G03*
X19349400Y-11582400I-20000J0D01*
G01*
D13*
X12585500Y-7546000D02*
X12585500Y-7606000D01*
X12555500Y-7576000D02*
X12615500Y-7576000D01*
D10*
X12615500Y-7616000D02*
X12615500Y-7536000D01*
X12615500Y-7536000D02*
G75*
G03*
X12555500Y-7536000I-30000J0D01*
G01*
X12555500Y-7536000D02*
X12555500Y-7616000D01*
X12555500Y-7616000D02*
G75*
G03*
X12615500Y-7616000I30000J0D01*
G01*
D13*
X12585500Y-7964000D02*
X12585500Y-8024000D01*
X12555500Y-7994000D02*
X12615500Y-7994000D01*
D10*
X12615500Y-8049000D02*
X12615500Y-7939000D01*
X12615500Y-7939000D02*
G75*
G03*
X12555500Y-7939000I-30000J0D01*
G01*
X12555500Y-7939000D02*
X12555500Y-8049000D01*
X12555500Y-8049000D02*
G75*
G03*
X12615500Y-8049000I30000J0D01*
G01*
D13*
X13449500Y-7546000D02*
X13449500Y-7606000D01*
X13419500Y-7576000D02*
X13479500Y-7576000D01*
D10*
X13479500Y-7616000D02*
X13479500Y-7536000D01*
X13479500Y-7536000D02*
G75*
G03*
X13419500Y-7536000I-30000J0D01*
G01*
X13419500Y-7536000D02*
X13419500Y-7616000D01*
X13419500Y-7616000D02*
G75*
G03*
X13479500Y-7616000I30000J0D01*
G01*
D13*
X13449500Y-7964000D02*
X13449500Y-8024000D01*
X13419500Y-7994000D02*
X13479500Y-7994000D01*
D10*
X13479500Y-8049000D02*
X13479500Y-7939000D01*
X13479500Y-7939000D02*
G75*
G03*
X13419500Y-7939000I-30000J0D01*
G01*
X13419500Y-7939000D02*
X13419500Y-8049000D01*
X13419500Y-8049000D02*
G75*
G03*
X13479500Y-8049000I30000J0D01*
G01*
D14*
X12412717Y-9451517D02*
X12412717Y-9398483D01*
X12359683Y-9398483D01*
X12359683Y-9451517D01*
X12412717Y-9451517D01*
X12412717Y-9651517D02*
X12412717Y-9598483D01*
X12359683Y-9598483D01*
X12359683Y-9651517D01*
X12412717Y-9651517D01*
D15*
X12243000Y-11661800D02*
X12293000Y-11611800D01*
X12243000Y-11561800D01*
X12193000Y-11611800D01*
X12243000Y-11661800D01*
D10*
X12293000Y-11646800D02*
X12293000Y-11576800D01*
X12293000Y-11576800D02*
G75*
G03*
X12193000Y-11576800I-50000J0D01*
G01*
X12193000Y-11576800D02*
X12193000Y-11646800D01*
X12193000Y-11646800D02*
G75*
G03*
X12293000Y-11646800I50000J0D01*
G01*
D15*
X12243000Y-12461800D02*
X12293000Y-12411800D01*
X12243000Y-12361800D01*
X12193000Y-12411800D01*
X12243000Y-12461800D01*
D10*
X12293000Y-12446800D02*
X12293000Y-12376800D01*
X12293000Y-12376800D02*
G75*
G03*
X12193000Y-12376800I-50000J0D01*
G01*
X12193000Y-12376800D02*
X12193000Y-12446800D01*
X12193000Y-12446800D02*
G75*
G03*
X12293000Y-12446800I50000J0D01*
G01*
D15*
X12573000Y-11581800D02*
X12623000Y-11531800D01*
X12573000Y-11481800D01*
X12523000Y-11531800D01*
X12573000Y-11581800D01*
D10*
X12608000Y-11481800D02*
X12538000Y-11481800D01*
X12538000Y-11481800D02*
G75*
G03*
X12538000Y-11581800I0J-50000D01*
G01*
X12538000Y-11581800D02*
X12608000Y-11581800D01*
X12608000Y-11581800D02*
G75*
G03*
X12608000Y-11481800I0J50000D01*
G01*
D15*
X12903000Y-11661800D02*
X12953000Y-11611800D01*
X12903000Y-11561800D01*
X12853000Y-11611800D01*
X12903000Y-11661800D01*
D10*
X12953000Y-11646800D02*
X12953000Y-11576800D01*
X12953000Y-11576800D02*
G75*
G03*
X12853000Y-11576800I-50000J0D01*
G01*
X12853000Y-11576800D02*
X12853000Y-11646800D01*
X12853000Y-11646800D02*
G75*
G03*
X12953000Y-11646800I50000J0D01*
G01*
D15*
X12903000Y-12461800D02*
X12953000Y-12411800D01*
X12903000Y-12361800D01*
X12853000Y-12411800D01*
X12903000Y-12461800D01*
D10*
X12953000Y-12446800D02*
X12953000Y-12376800D01*
X12953000Y-12376800D02*
G75*
G03*
X12853000Y-12376800I-50000J0D01*
G01*
X12853000Y-12376800D02*
X12853000Y-12446800D01*
X12853000Y-12446800D02*
G75*
G03*
X12953000Y-12446800I50000J0D01*
G01*
D15*
X13792400Y-11661800D02*
X13842400Y-11611800D01*
X13792400Y-11561800D01*
X13742400Y-11611800D01*
X13792400Y-11661800D01*
D10*
X13842400Y-11646800D02*
X13842400Y-11576800D01*
X13842400Y-11576800D02*
G75*
G03*
X13742400Y-11576800I-50000J0D01*
G01*
X13742400Y-11576800D02*
X13742400Y-11646800D01*
X13742400Y-11646800D02*
G75*
G03*
X13842400Y-11646800I50000J0D01*
G01*
D15*
X13792400Y-12461800D02*
X13842400Y-12411800D01*
X13792400Y-12361800D01*
X13742400Y-12411800D01*
X13792400Y-12461800D01*
D10*
X13842400Y-12446800D02*
X13842400Y-12376800D01*
X13842400Y-12376800D02*
G75*
G03*
X13742400Y-12376800I-50000J0D01*
G01*
X13742400Y-12376800D02*
X13742400Y-12446800D01*
X13742400Y-12446800D02*
G75*
G03*
X13842400Y-12446800I50000J0D01*
G01*
D15*
X14122400Y-11581800D02*
X14172400Y-11531800D01*
X14122400Y-11481800D01*
X14072400Y-11531800D01*
X14122400Y-11581800D01*
D10*
X14157400Y-11481800D02*
X14087400Y-11481800D01*
X14087400Y-11481800D02*
G75*
G03*
X14087400Y-11581800I0J-50000D01*
G01*
X14087400Y-11581800D02*
X14157400Y-11581800D01*
X14157400Y-11581800D02*
G75*
G03*
X14157400Y-11481800I0J50000D01*
G01*
D15*
X14452400Y-11661800D02*
X14502400Y-11611800D01*
X14452400Y-11561800D01*
X14402400Y-11611800D01*
X14452400Y-11661800D01*
D10*
X14502400Y-11646800D02*
X14502400Y-11576800D01*
X14502400Y-11576800D02*
G75*
G03*
X14402400Y-11576800I-50000J0D01*
G01*
X14402400Y-11576800D02*
X14402400Y-11646800D01*
X14402400Y-11646800D02*
G75*
G03*
X14502400Y-11646800I50000J0D01*
G01*
D15*
X14452400Y-12461800D02*
X14502400Y-12411800D01*
X14452400Y-12361800D01*
X14402400Y-12411800D01*
X14452400Y-12461800D01*
D10*
X14502400Y-12446800D02*
X14502400Y-12376800D01*
X14502400Y-12376800D02*
G75*
G03*
X14402400Y-12376800I-50000J0D01*
G01*
X14402400Y-12376800D02*
X14402400Y-12446800D01*
X14402400Y-12446800D02*
G75*
G03*
X14502400Y-12446800I50000J0D01*
G01*
D15*
X15291000Y-11661800D02*
X15341000Y-11611800D01*
X15291000Y-11561800D01*
X15241000Y-11611800D01*
X15291000Y-11661800D01*
D10*
X15341000Y-11646800D02*
X15341000Y-11576800D01*
X15341000Y-11576800D02*
G75*
G03*
X15241000Y-11576800I-50000J0D01*
G01*
X15241000Y-11576800D02*
X15241000Y-11646800D01*
X15241000Y-11646800D02*
G75*
G03*
X15341000Y-11646800I50000J0D01*
G01*
D15*
X15291000Y-12461800D02*
X15341000Y-12411800D01*
X15291000Y-12361800D01*
X15241000Y-12411800D01*
X15291000Y-12461800D01*
D10*
X15341000Y-12446800D02*
X15341000Y-12376800D01*
X15341000Y-12376800D02*
G75*
G03*
X15241000Y-12376800I-50000J0D01*
G01*
X15241000Y-12376800D02*
X15241000Y-12446800D01*
X15241000Y-12446800D02*
G75*
G03*
X15341000Y-12446800I50000J0D01*
G01*
D15*
X15621000Y-11581800D02*
X15671000Y-11531800D01*
X15621000Y-11481800D01*
X15571000Y-11531800D01*
X15621000Y-11581800D01*
D10*
X15656000Y-11481800D02*
X15586000Y-11481800D01*
X15586000Y-11481800D02*
G75*
G03*
X15586000Y-11581800I0J-50000D01*
G01*
X15586000Y-11581800D02*
X15656000Y-11581800D01*
X15656000Y-11581800D02*
G75*
G03*
X15656000Y-11481800I0J50000D01*
G01*
D15*
X15951000Y-11661800D02*
X16001000Y-11611800D01*
X15951000Y-11561800D01*
X15901000Y-11611800D01*
X15951000Y-11661800D01*
D10*
X16001000Y-11646800D02*
X16001000Y-11576800D01*
X16001000Y-11576800D02*
G75*
G03*
X15901000Y-11576800I-50000J0D01*
G01*
X15901000Y-11576800D02*
X15901000Y-11646800D01*
X15901000Y-11646800D02*
G75*
G03*
X16001000Y-11646800I50000J0D01*
G01*
D15*
X15951000Y-12461800D02*
X16001000Y-12411800D01*
X15951000Y-12361800D01*
X15901000Y-12411800D01*
X15951000Y-12461800D01*
D10*
X16001000Y-12446800D02*
X16001000Y-12376800D01*
X16001000Y-12376800D02*
G75*
G03*
X15901000Y-12376800I-50000J0D01*
G01*
X15901000Y-12376800D02*
X15901000Y-12446800D01*
X15901000Y-12446800D02*
G75*
G03*
X16001000Y-12446800I50000J0D01*
G01*
D15*
X16815000Y-11661800D02*
X16865000Y-11611800D01*
X16815000Y-11561800D01*
X16765000Y-11611800D01*
X16815000Y-11661800D01*
D10*
X16865000Y-11646800D02*
X16865000Y-11576800D01*
X16865000Y-11576800D02*
G75*
G03*
X16765000Y-11576800I-50000J0D01*
G01*
X16765000Y-11576800D02*
X16765000Y-11646800D01*
X16765000Y-11646800D02*
G75*
G03*
X16865000Y-11646800I50000J0D01*
G01*
D15*
X16815000Y-12461800D02*
X16865000Y-12411800D01*
X16815000Y-12361800D01*
X16765000Y-12411800D01*
X16815000Y-12461800D01*
D10*
X16865000Y-12446800D02*
X16865000Y-12376800D01*
X16865000Y-12376800D02*
G75*
G03*
X16765000Y-12376800I-50000J0D01*
G01*
X16765000Y-12376800D02*
X16765000Y-12446800D01*
X16765000Y-12446800D02*
G75*
G03*
X16865000Y-12446800I50000J0D01*
G01*
D15*
X17145000Y-11581800D02*
X17195000Y-11531800D01*
X17145000Y-11481800D01*
X17095000Y-11531800D01*
X17145000Y-11581800D01*
D10*
X17180000Y-11481800D02*
X17110000Y-11481800D01*
X17110000Y-11481800D02*
G75*
G03*
X17110000Y-11581800I0J-50000D01*
G01*
X17110000Y-11581800D02*
X17180000Y-11581800D01*
X17180000Y-11581800D02*
G75*
G03*
X17180000Y-11481800I0J50000D01*
G01*
D15*
X17475000Y-11661800D02*
X17525000Y-11611800D01*
X17475000Y-11561800D01*
X17425000Y-11611800D01*
X17475000Y-11661800D01*
D10*
X17525000Y-11646800D02*
X17525000Y-11576800D01*
X17525000Y-11576800D02*
G75*
G03*
X17425000Y-11576800I-50000J0D01*
G01*
X17425000Y-11576800D02*
X17425000Y-11646800D01*
X17425000Y-11646800D02*
G75*
G03*
X17525000Y-11646800I50000J0D01*
G01*
D15*
X17475000Y-12461800D02*
X17525000Y-12411800D01*
X17475000Y-12361800D01*
X17425000Y-12411800D01*
X17475000Y-12461800D01*
D10*
X17525000Y-12446800D02*
X17525000Y-12376800D01*
X17525000Y-12376800D02*
G75*
G03*
X17425000Y-12376800I-50000J0D01*
G01*
X17425000Y-12376800D02*
X17425000Y-12446800D01*
X17425000Y-12446800D02*
G75*
G03*
X17525000Y-12446800I50000J0D01*
G01*
D15*
X18414000Y-11289500D02*
X18464000Y-11239500D01*
X18414000Y-11189500D01*
X18364000Y-11239500D01*
X18414000Y-11289500D01*
X18668000Y-11289500D02*
X18718000Y-11239500D01*
X18668000Y-11189500D01*
X18618000Y-11239500D01*
X18668000Y-11289500D01*
X18922000Y-11289500D02*
X18972000Y-11239500D01*
X18922000Y-11189500D01*
X18872000Y-11239500D01*
X18922000Y-11289500D01*
X19176000Y-11289500D02*
X19226000Y-11239500D01*
X19176000Y-11189500D01*
X19126000Y-11239500D01*
X19176000Y-11289500D01*
D10*
X11927777Y-13116484D02*
X11927777Y-12916484D01*
X11927777Y-12916484D02*
X11975396Y-12916484D01*
X11975396Y-12916484D02*
X12003967Y-12926008D01*
X12003967Y-12926008D02*
X12023015Y-12945055D01*
X12023015Y-12945055D02*
X12032539Y-12964103D01*
X12032539Y-12964103D02*
X12042062Y-13002198D01*
X12042062Y-13002198D02*
X12042062Y-13030769D01*
X12042062Y-13030769D02*
X12032539Y-13068865D01*
X12032539Y-13068865D02*
X12023015Y-13087912D01*
X12023015Y-13087912D02*
X12003967Y-13106960D01*
X12003967Y-13106960D02*
X11975396Y-13116484D01*
X11975396Y-13116484D02*
X11927777Y-13116484D01*
X12127777Y-13116484D02*
X12127777Y-12983150D01*
X12127777Y-13021246D02*
X12137301Y-13002198D01*
X12137301Y-13002198D02*
X12146824Y-12992674D01*
X12146824Y-12992674D02*
X12165872Y-12983150D01*
X12165872Y-12983150D02*
X12184920Y-12983150D01*
X12251586Y-13116484D02*
X12251586Y-12983150D01*
X12251586Y-12916484D02*
X12242062Y-12926008D01*
X12242062Y-12926008D02*
X12251586Y-12935531D01*
X12251586Y-12935531D02*
X12261110Y-12926008D01*
X12261110Y-12926008D02*
X12251586Y-12916484D01*
X12251586Y-12916484D02*
X12251586Y-12935531D01*
X12375396Y-13116484D02*
X12356348Y-13106960D01*
X12356348Y-13106960D02*
X12346824Y-13087912D01*
X12346824Y-13087912D02*
X12346824Y-12916484D01*
X12480158Y-13116484D02*
X12461110Y-13106960D01*
X12461110Y-13106960D02*
X12451586Y-13087912D01*
X12451586Y-13087912D02*
X12451586Y-12916484D01*
X12708729Y-13116484D02*
X12708729Y-12916484D01*
X12708729Y-12916484D02*
X12775396Y-13059341D01*
X12775396Y-13059341D02*
X12842062Y-12916484D01*
X12842062Y-12916484D02*
X12842062Y-13116484D01*
X13023015Y-13116484D02*
X13023015Y-13011722D01*
X13023015Y-13011722D02*
X13013491Y-12992674D01*
X13013491Y-12992674D02*
X12994443Y-12983150D01*
X12994443Y-12983150D02*
X12956348Y-12983150D01*
X12956348Y-12983150D02*
X12937301Y-12992674D01*
X13023015Y-13106960D02*
X13003967Y-13116484D01*
X13003967Y-13116484D02*
X12956348Y-13116484D01*
X12956348Y-13116484D02*
X12937301Y-13106960D01*
X12937301Y-13106960D02*
X12927777Y-13087912D01*
X12927777Y-13087912D02*
X12927777Y-13068865D01*
X12927777Y-13068865D02*
X12937301Y-13049817D01*
X12937301Y-13049817D02*
X12956348Y-13040293D01*
X12956348Y-13040293D02*
X13003967Y-13040293D01*
X13003967Y-13040293D02*
X13023015Y-13030769D01*
X13118253Y-12983150D02*
X13118253Y-13183150D01*
X13118253Y-12992674D02*
X13137301Y-12983150D01*
X13137301Y-12983150D02*
X13175396Y-12983150D01*
X13175396Y-12983150D02*
X13194443Y-12992674D01*
X13194443Y-12992674D02*
X13203967Y-13002198D01*
X13203967Y-13002198D02*
X13213491Y-13021246D01*
X13213491Y-13021246D02*
X13213491Y-13078388D01*
X13213491Y-13078388D02*
X13203967Y-13097436D01*
X13203967Y-13097436D02*
X13194443Y-13106960D01*
X13194443Y-13106960D02*
X13175396Y-13116484D01*
X13175396Y-13116484D02*
X13137301Y-13116484D01*
X13137301Y-13116484D02*
X13118253Y-13106960D01*
X13299205Y-13097436D02*
X13308729Y-13106960D01*
X13308729Y-13106960D02*
X13299205Y-13116484D01*
X13299205Y-13116484D02*
X13289682Y-13106960D01*
X13289682Y-13106960D02*
X13299205Y-13097436D01*
X13299205Y-13097436D02*
X13299205Y-13116484D01*
X13299205Y-12992674D02*
X13308729Y-13002198D01*
X13308729Y-13002198D02*
X13299205Y-13011722D01*
X13299205Y-13011722D02*
X13289682Y-13002198D01*
X13289682Y-13002198D02*
X13299205Y-12992674D01*
X13299205Y-12992674D02*
X13299205Y-13011722D01*
D11*
X11657000Y-13440000D02*
X11667000Y-13450000D01*
X11667000Y-13440000D02*
X11657000Y-13450000D01*
D10*
X11965872Y-13336484D02*
X11984920Y-13336484D01*
X11984920Y-13336484D02*
X12003967Y-13346008D01*
X12003967Y-13346008D02*
X12013491Y-13355531D01*
X12013491Y-13355531D02*
X12023015Y-13374579D01*
X12023015Y-13374579D02*
X12032539Y-13412674D01*
X12032539Y-13412674D02*
X12032539Y-13460293D01*
X12032539Y-13460293D02*
X12023015Y-13498388D01*
X12023015Y-13498388D02*
X12013491Y-13517436D01*
X12013491Y-13517436D02*
X12003967Y-13526960D01*
X12003967Y-13526960D02*
X11984920Y-13536484D01*
X11984920Y-13536484D02*
X11965872Y-13536484D01*
X11965872Y-13536484D02*
X11946824Y-13526960D01*
X11946824Y-13526960D02*
X11937301Y-13517436D01*
X11937301Y-13517436D02*
X11927777Y-13498388D01*
X11927777Y-13498388D02*
X11918253Y-13460293D01*
X11918253Y-13460293D02*
X11918253Y-13412674D01*
X11918253Y-13412674D02*
X11927777Y-13374579D01*
X11927777Y-13374579D02*
X11937301Y-13355531D01*
X11937301Y-13355531D02*
X11946824Y-13346008D01*
X11946824Y-13346008D02*
X11965872Y-13336484D01*
X12118253Y-13517436D02*
X12127777Y-13526960D01*
X12127777Y-13526960D02*
X12118253Y-13536484D01*
X12118253Y-13536484D02*
X12108729Y-13526960D01*
X12108729Y-13526960D02*
X12118253Y-13517436D01*
X12118253Y-13517436D02*
X12118253Y-13536484D01*
X12318253Y-13536484D02*
X12203967Y-13536484D01*
X12261110Y-13536484D02*
X12261110Y-13336484D01*
X12261110Y-13336484D02*
X12242062Y-13365055D01*
X12242062Y-13365055D02*
X12223015Y-13384103D01*
X12223015Y-13384103D02*
X12203967Y-13393627D01*
X12442062Y-13336484D02*
X12461110Y-13336484D01*
X12461110Y-13336484D02*
X12480158Y-13346008D01*
X12480158Y-13346008D02*
X12489682Y-13355531D01*
X12489682Y-13355531D02*
X12499205Y-13374579D01*
X12499205Y-13374579D02*
X12508729Y-13412674D01*
X12508729Y-13412674D02*
X12508729Y-13460293D01*
X12508729Y-13460293D02*
X12499205Y-13498388D01*
X12499205Y-13498388D02*
X12489682Y-13517436D01*
X12489682Y-13517436D02*
X12480158Y-13526960D01*
X12480158Y-13526960D02*
X12461110Y-13536484D01*
X12461110Y-13536484D02*
X12442062Y-13536484D01*
X12442062Y-13536484D02*
X12423015Y-13526960D01*
X12423015Y-13526960D02*
X12413491Y-13517436D01*
X12413491Y-13517436D02*
X12403967Y-13498388D01*
X12403967Y-13498388D02*
X12394443Y-13460293D01*
X12394443Y-13460293D02*
X12394443Y-13412674D01*
X12394443Y-13412674D02*
X12403967Y-13374579D01*
X12403967Y-13374579D02*
X12413491Y-13355531D01*
X12413491Y-13355531D02*
X12423015Y-13346008D01*
X12423015Y-13346008D02*
X12442062Y-13336484D01*
X12632539Y-13336484D02*
X12651586Y-13336484D01*
X12651586Y-13336484D02*
X12670634Y-13346008D01*
X12670634Y-13346008D02*
X12680158Y-13355531D01*
X12680158Y-13355531D02*
X12689682Y-13374579D01*
X12689682Y-13374579D02*
X12699205Y-13412674D01*
X12699205Y-13412674D02*
X12699205Y-13460293D01*
X12699205Y-13460293D02*
X12689682Y-13498388D01*
X12689682Y-13498388D02*
X12680158Y-13517436D01*
X12680158Y-13517436D02*
X12670634Y-13526960D01*
X12670634Y-13526960D02*
X12651586Y-13536484D01*
X12651586Y-13536484D02*
X12632539Y-13536484D01*
X12632539Y-13536484D02*
X12613491Y-13526960D01*
X12613491Y-13526960D02*
X12603967Y-13517436D01*
X12603967Y-13517436D02*
X12594443Y-13498388D01*
X12594443Y-13498388D02*
X12584920Y-13460293D01*
X12584920Y-13460293D02*
X12584920Y-13412674D01*
X12584920Y-13412674D02*
X12594443Y-13374579D01*
X12594443Y-13374579D02*
X12603967Y-13355531D01*
X12603967Y-13355531D02*
X12613491Y-13346008D01*
X12613491Y-13346008D02*
X12632539Y-13336484D01*
X12784920Y-13536484D02*
X12784920Y-13403150D01*
X12784920Y-13422198D02*
X12794443Y-13412674D01*
X12794443Y-13412674D02*
X12813491Y-13403150D01*
X12813491Y-13403150D02*
X12842063Y-13403150D01*
X12842063Y-13403150D02*
X12861110Y-13412674D01*
X12861110Y-13412674D02*
X12870634Y-13431722D01*
X12870634Y-13431722D02*
X12870634Y-13536484D01*
X12870634Y-13431722D02*
X12880158Y-13412674D01*
X12880158Y-13412674D02*
X12899205Y-13403150D01*
X12899205Y-13403150D02*
X12927777Y-13403150D01*
X12927777Y-13403150D02*
X12946824Y-13412674D01*
X12946824Y-13412674D02*
X12956348Y-13431722D01*
X12956348Y-13431722D02*
X12956348Y-13536484D01*
X13051586Y-13536484D02*
X13051586Y-13403150D01*
X13051586Y-13422198D02*
X13061110Y-13412674D01*
X13061110Y-13412674D02*
X13080158Y-13403150D01*
X13080158Y-13403150D02*
X13108729Y-13403150D01*
X13108729Y-13403150D02*
X13127777Y-13412674D01*
X13127777Y-13412674D02*
X13137301Y-13431722D01*
X13137301Y-13431722D02*
X13137301Y-13536484D01*
X13137301Y-13431722D02*
X13146824Y-13412674D01*
X13146824Y-13412674D02*
X13165872Y-13403150D01*
X13165872Y-13403150D02*
X13194443Y-13403150D01*
X13194443Y-13403150D02*
X13213491Y-13412674D01*
X13213491Y-13412674D02*
X13223015Y-13431722D01*
X13223015Y-13431722D02*
X13223015Y-13536484D01*
X13613491Y-13326960D02*
X13442063Y-13584103D01*
X13870634Y-13336484D02*
X13889682Y-13336484D01*
X13889682Y-13336484D02*
X13908729Y-13346008D01*
X13908729Y-13346008D02*
X13918253Y-13355531D01*
X13918253Y-13355531D02*
X13927777Y-13374579D01*
X13927777Y-13374579D02*
X13937301Y-13412674D01*
X13937301Y-13412674D02*
X13937301Y-13460293D01*
X13937301Y-13460293D02*
X13927777Y-13498388D01*
X13927777Y-13498388D02*
X13918253Y-13517436D01*
X13918253Y-13517436D02*
X13908729Y-13526960D01*
X13908729Y-13526960D02*
X13889682Y-13536484D01*
X13889682Y-13536484D02*
X13870634Y-13536484D01*
X13870634Y-13536484D02*
X13851586Y-13526960D01*
X13851586Y-13526960D02*
X13842063Y-13517436D01*
X13842063Y-13517436D02*
X13832539Y-13498388D01*
X13832539Y-13498388D02*
X13823015Y-13460293D01*
X13823015Y-13460293D02*
X13823015Y-13412674D01*
X13823015Y-13412674D02*
X13832539Y-13374579D01*
X13832539Y-13374579D02*
X13842063Y-13355531D01*
X13842063Y-13355531D02*
X13851586Y-13346008D01*
X13851586Y-13346008D02*
X13870634Y-13336484D01*
X14023015Y-13517436D02*
X14032539Y-13526960D01*
X14032539Y-13526960D02*
X14023015Y-13536484D01*
X14023015Y-13536484D02*
X14013491Y-13526960D01*
X14013491Y-13526960D02*
X14023015Y-13517436D01*
X14023015Y-13517436D02*
X14023015Y-13536484D01*
X14156348Y-13336484D02*
X14175396Y-13336484D01*
X14175396Y-13336484D02*
X14194444Y-13346008D01*
X14194444Y-13346008D02*
X14203967Y-13355531D01*
X14203967Y-13355531D02*
X14213491Y-13374579D01*
X14213491Y-13374579D02*
X14223015Y-13412674D01*
X14223015Y-13412674D02*
X14223015Y-13460293D01*
X14223015Y-13460293D02*
X14213491Y-13498388D01*
X14213491Y-13498388D02*
X14203967Y-13517436D01*
X14203967Y-13517436D02*
X14194444Y-13526960D01*
X14194444Y-13526960D02*
X14175396Y-13536484D01*
X14175396Y-13536484D02*
X14156348Y-13536484D01*
X14156348Y-13536484D02*
X14137301Y-13526960D01*
X14137301Y-13526960D02*
X14127777Y-13517436D01*
X14127777Y-13517436D02*
X14118253Y-13498388D01*
X14118253Y-13498388D02*
X14108729Y-13460293D01*
X14108729Y-13460293D02*
X14108729Y-13412674D01*
X14108729Y-13412674D02*
X14118253Y-13374579D01*
X14118253Y-13374579D02*
X14127777Y-13355531D01*
X14127777Y-13355531D02*
X14137301Y-13346008D01*
X14137301Y-13346008D02*
X14156348Y-13336484D01*
X14346825Y-13336484D02*
X14365872Y-13336484D01*
X14365872Y-13336484D02*
X14384920Y-13346008D01*
X14384920Y-13346008D02*
X14394444Y-13355531D01*
X14394444Y-13355531D02*
X14403967Y-13374579D01*
X14403967Y-13374579D02*
X14413491Y-13412674D01*
X14413491Y-13412674D02*
X14413491Y-13460293D01*
X14413491Y-13460293D02*
X14403967Y-13498388D01*
X14403967Y-13498388D02*
X14394444Y-13517436D01*
X14394444Y-13517436D02*
X14384920Y-13526960D01*
X14384920Y-13526960D02*
X14365872Y-13536484D01*
X14365872Y-13536484D02*
X14346825Y-13536484D01*
X14346825Y-13536484D02*
X14327777Y-13526960D01*
X14327777Y-13526960D02*
X14318253Y-13517436D01*
X14318253Y-13517436D02*
X14308729Y-13498388D01*
X14308729Y-13498388D02*
X14299206Y-13460293D01*
X14299206Y-13460293D02*
X14299206Y-13412674D01*
X14299206Y-13412674D02*
X14308729Y-13374579D01*
X14308729Y-13374579D02*
X14318253Y-13355531D01*
X14318253Y-13355531D02*
X14327777Y-13346008D01*
X14327777Y-13346008D02*
X14346825Y-13336484D01*
X14480158Y-13336484D02*
X14603967Y-13336484D01*
X14603967Y-13336484D02*
X14537301Y-13412674D01*
X14537301Y-13412674D02*
X14565872Y-13412674D01*
X14565872Y-13412674D02*
X14584920Y-13422198D01*
X14584920Y-13422198D02*
X14594444Y-13431722D01*
X14594444Y-13431722D02*
X14603967Y-13450769D01*
X14603967Y-13450769D02*
X14603967Y-13498388D01*
X14603967Y-13498388D02*
X14594444Y-13517436D01*
X14594444Y-13517436D02*
X14584920Y-13526960D01*
X14584920Y-13526960D02*
X14565872Y-13536484D01*
X14565872Y-13536484D02*
X14508729Y-13536484D01*
X14508729Y-13536484D02*
X14489682Y-13526960D01*
X14489682Y-13526960D02*
X14480158Y-13517436D01*
X14699206Y-13536484D02*
X14737301Y-13536484D01*
X14737301Y-13536484D02*
X14756348Y-13526960D01*
X14756348Y-13526960D02*
X14765872Y-13517436D01*
X14765872Y-13517436D02*
X14784920Y-13488865D01*
X14784920Y-13488865D02*
X14794444Y-13450769D01*
X14794444Y-13450769D02*
X14794444Y-13374579D01*
X14794444Y-13374579D02*
X14784920Y-13355531D01*
X14784920Y-13355531D02*
X14775396Y-13346008D01*
X14775396Y-13346008D02*
X14756348Y-13336484D01*
X14756348Y-13336484D02*
X14718253Y-13336484D01*
X14718253Y-13336484D02*
X14699206Y-13346008D01*
X14699206Y-13346008D02*
X14689682Y-13355531D01*
X14689682Y-13355531D02*
X14680158Y-13374579D01*
X14680158Y-13374579D02*
X14680158Y-13422198D01*
X14680158Y-13422198D02*
X14689682Y-13441246D01*
X14689682Y-13441246D02*
X14699206Y-13450769D01*
X14699206Y-13450769D02*
X14718253Y-13460293D01*
X14718253Y-13460293D02*
X14756348Y-13460293D01*
X14756348Y-13460293D02*
X14775396Y-13450769D01*
X14775396Y-13450769D02*
X14784920Y-13441246D01*
X14784920Y-13441246D02*
X14794444Y-13422198D01*
X14870634Y-13336484D02*
X14870634Y-13374579D01*
X14946825Y-13336484D02*
X14946825Y-13374579D01*
X15242063Y-13612674D02*
X15232539Y-13603150D01*
X15232539Y-13603150D02*
X15213491Y-13574579D01*
X15213491Y-13574579D02*
X15203968Y-13555531D01*
X15203968Y-13555531D02*
X15194444Y-13526960D01*
X15194444Y-13526960D02*
X15184920Y-13479341D01*
X15184920Y-13479341D02*
X15184920Y-13441246D01*
X15184920Y-13441246D02*
X15194444Y-13393627D01*
X15194444Y-13393627D02*
X15203968Y-13365055D01*
X15203968Y-13365055D02*
X15213491Y-13346008D01*
X15213491Y-13346008D02*
X15232539Y-13317436D01*
X15232539Y-13317436D02*
X15242063Y-13307912D01*
X15299206Y-13336484D02*
X15423015Y-13336484D01*
X15423015Y-13336484D02*
X15356348Y-13412674D01*
X15356348Y-13412674D02*
X15384920Y-13412674D01*
X15384920Y-13412674D02*
X15403968Y-13422198D01*
X15403968Y-13422198D02*
X15413491Y-13431722D01*
X15413491Y-13431722D02*
X15423015Y-13450769D01*
X15423015Y-13450769D02*
X15423015Y-13498388D01*
X15423015Y-13498388D02*
X15413491Y-13517436D01*
X15413491Y-13517436D02*
X15403968Y-13526960D01*
X15403968Y-13526960D02*
X15384920Y-13536484D01*
X15384920Y-13536484D02*
X15327777Y-13536484D01*
X15327777Y-13536484D02*
X15308729Y-13526960D01*
X15308729Y-13526960D02*
X15299206Y-13517436D01*
X15594444Y-13336484D02*
X15556348Y-13336484D01*
X15556348Y-13336484D02*
X15537301Y-13346008D01*
X15537301Y-13346008D02*
X15527777Y-13355531D01*
X15527777Y-13355531D02*
X15508729Y-13384103D01*
X15508729Y-13384103D02*
X15499206Y-13422198D01*
X15499206Y-13422198D02*
X15499206Y-13498388D01*
X15499206Y-13498388D02*
X15508729Y-13517436D01*
X15508729Y-13517436D02*
X15518253Y-13526960D01*
X15518253Y-13526960D02*
X15537301Y-13536484D01*
X15537301Y-13536484D02*
X15575396Y-13536484D01*
X15575396Y-13536484D02*
X15594444Y-13526960D01*
X15594444Y-13526960D02*
X15603968Y-13517436D01*
X15603968Y-13517436D02*
X15613491Y-13498388D01*
X15613491Y-13498388D02*
X15613491Y-13450769D01*
X15613491Y-13450769D02*
X15603968Y-13431722D01*
X15603968Y-13431722D02*
X15594444Y-13422198D01*
X15594444Y-13422198D02*
X15575396Y-13412674D01*
X15575396Y-13412674D02*
X15537301Y-13412674D01*
X15537301Y-13412674D02*
X15518253Y-13422198D01*
X15518253Y-13422198D02*
X15508729Y-13431722D01*
X15508729Y-13431722D02*
X15499206Y-13450769D01*
X15851587Y-13536484D02*
X15851587Y-13336484D01*
X15937301Y-13536484D02*
X15937301Y-13431722D01*
X15937301Y-13431722D02*
X15927777Y-13412674D01*
X15927777Y-13412674D02*
X15908730Y-13403150D01*
X15908730Y-13403150D02*
X15880158Y-13403150D01*
X15880158Y-13403150D02*
X15861110Y-13412674D01*
X15861110Y-13412674D02*
X15851587Y-13422198D01*
X16061110Y-13536484D02*
X16042063Y-13526960D01*
X16042063Y-13526960D02*
X16032539Y-13517436D01*
X16032539Y-13517436D02*
X16023015Y-13498388D01*
X16023015Y-13498388D02*
X16023015Y-13441246D01*
X16023015Y-13441246D02*
X16032539Y-13422198D01*
X16032539Y-13422198D02*
X16042063Y-13412674D01*
X16042063Y-13412674D02*
X16061110Y-13403150D01*
X16061110Y-13403150D02*
X16089682Y-13403150D01*
X16089682Y-13403150D02*
X16108730Y-13412674D01*
X16108730Y-13412674D02*
X16118253Y-13422198D01*
X16118253Y-13422198D02*
X16127777Y-13441246D01*
X16127777Y-13441246D02*
X16127777Y-13498388D01*
X16127777Y-13498388D02*
X16118253Y-13517436D01*
X16118253Y-13517436D02*
X16108730Y-13526960D01*
X16108730Y-13526960D02*
X16089682Y-13536484D01*
X16089682Y-13536484D02*
X16061110Y-13536484D01*
X16242063Y-13536484D02*
X16223015Y-13526960D01*
X16223015Y-13526960D02*
X16213491Y-13507912D01*
X16213491Y-13507912D02*
X16213491Y-13336484D01*
X16394444Y-13526960D02*
X16375396Y-13536484D01*
X16375396Y-13536484D02*
X16337301Y-13536484D01*
X16337301Y-13536484D02*
X16318253Y-13526960D01*
X16318253Y-13526960D02*
X16308730Y-13507912D01*
X16308730Y-13507912D02*
X16308730Y-13431722D01*
X16308730Y-13431722D02*
X16318253Y-13412674D01*
X16318253Y-13412674D02*
X16337301Y-13403150D01*
X16337301Y-13403150D02*
X16375396Y-13403150D01*
X16375396Y-13403150D02*
X16394444Y-13412674D01*
X16394444Y-13412674D02*
X16403968Y-13431722D01*
X16403968Y-13431722D02*
X16403968Y-13450769D01*
X16403968Y-13450769D02*
X16308730Y-13469817D01*
X16480158Y-13526960D02*
X16499206Y-13536484D01*
X16499206Y-13536484D02*
X16537301Y-13536484D01*
X16537301Y-13536484D02*
X16556349Y-13526960D01*
X16556349Y-13526960D02*
X16565872Y-13507912D01*
X16565872Y-13507912D02*
X16565872Y-13498388D01*
X16565872Y-13498388D02*
X16556349Y-13479341D01*
X16556349Y-13479341D02*
X16537301Y-13469817D01*
X16537301Y-13469817D02*
X16508730Y-13469817D01*
X16508730Y-13469817D02*
X16489682Y-13460293D01*
X16489682Y-13460293D02*
X16480158Y-13441246D01*
X16480158Y-13441246D02*
X16480158Y-13431722D01*
X16480158Y-13431722D02*
X16489682Y-13412674D01*
X16489682Y-13412674D02*
X16508730Y-13403150D01*
X16508730Y-13403150D02*
X16537301Y-13403150D01*
X16537301Y-13403150D02*
X16556349Y-13412674D01*
X16632539Y-13612674D02*
X16642063Y-13603150D01*
X16642063Y-13603150D02*
X16661111Y-13574579D01*
X16661111Y-13574579D02*
X16670634Y-13555531D01*
X16670634Y-13555531D02*
X16680158Y-13526960D01*
X16680158Y-13526960D02*
X16689682Y-13479341D01*
X16689682Y-13479341D02*
X16689682Y-13441246D01*
X16689682Y-13441246D02*
X16680158Y-13393627D01*
X16680158Y-13393627D02*
X16670634Y-13365055D01*
X16670634Y-13365055D02*
X16661111Y-13346008D01*
X16661111Y-13346008D02*
X16642063Y-13317436D01*
X16642063Y-13317436D02*
X16632539Y-13307912D01*
D12*
X11667000Y-13709000D02*
G75*
G03*
X11667000Y-13709000I-20000J0D01*
G01*
D10*
X11965872Y-13600484D02*
X11984920Y-13600484D01*
X11984920Y-13600484D02*
X12003967Y-13610008D01*
X12003967Y-13610008D02*
X12013491Y-13619531D01*
X12013491Y-13619531D02*
X12023015Y-13638579D01*
X12023015Y-13638579D02*
X12032539Y-13676674D01*
X12032539Y-13676674D02*
X12032539Y-13724293D01*
X12032539Y-13724293D02*
X12023015Y-13762388D01*
X12023015Y-13762388D02*
X12013491Y-13781436D01*
X12013491Y-13781436D02*
X12003967Y-13790960D01*
X12003967Y-13790960D02*
X11984920Y-13800484D01*
X11984920Y-13800484D02*
X11965872Y-13800484D01*
X11965872Y-13800484D02*
X11946824Y-13790960D01*
X11946824Y-13790960D02*
X11937301Y-13781436D01*
X11937301Y-13781436D02*
X11927777Y-13762388D01*
X11927777Y-13762388D02*
X11918253Y-13724293D01*
X11918253Y-13724293D02*
X11918253Y-13676674D01*
X11918253Y-13676674D02*
X11927777Y-13638579D01*
X11927777Y-13638579D02*
X11937301Y-13619531D01*
X11937301Y-13619531D02*
X11946824Y-13610008D01*
X11946824Y-13610008D02*
X11965872Y-13600484D01*
X12118253Y-13781436D02*
X12127777Y-13790960D01*
X12127777Y-13790960D02*
X12118253Y-13800484D01*
X12118253Y-13800484D02*
X12108729Y-13790960D01*
X12108729Y-13790960D02*
X12118253Y-13781436D01*
X12118253Y-13781436D02*
X12118253Y-13800484D01*
X12299205Y-13667150D02*
X12299205Y-13800484D01*
X12251586Y-13590960D02*
X12203967Y-13733817D01*
X12203967Y-13733817D02*
X12327777Y-13733817D01*
X12442062Y-13600484D02*
X12461110Y-13600484D01*
X12461110Y-13600484D02*
X12480158Y-13610008D01*
X12480158Y-13610008D02*
X12489682Y-13619531D01*
X12489682Y-13619531D02*
X12499205Y-13638579D01*
X12499205Y-13638579D02*
X12508729Y-13676674D01*
X12508729Y-13676674D02*
X12508729Y-13724293D01*
X12508729Y-13724293D02*
X12499205Y-13762388D01*
X12499205Y-13762388D02*
X12489682Y-13781436D01*
X12489682Y-13781436D02*
X12480158Y-13790960D01*
X12480158Y-13790960D02*
X12461110Y-13800484D01*
X12461110Y-13800484D02*
X12442062Y-13800484D01*
X12442062Y-13800484D02*
X12423015Y-13790960D01*
X12423015Y-13790960D02*
X12413491Y-13781436D01*
X12413491Y-13781436D02*
X12403967Y-13762388D01*
X12403967Y-13762388D02*
X12394443Y-13724293D01*
X12394443Y-13724293D02*
X12394443Y-13676674D01*
X12394443Y-13676674D02*
X12403967Y-13638579D01*
X12403967Y-13638579D02*
X12413491Y-13619531D01*
X12413491Y-13619531D02*
X12423015Y-13610008D01*
X12423015Y-13610008D02*
X12442062Y-13600484D01*
X12632539Y-13600484D02*
X12651586Y-13600484D01*
X12651586Y-13600484D02*
X12670634Y-13610008D01*
X12670634Y-13610008D02*
X12680158Y-13619531D01*
X12680158Y-13619531D02*
X12689682Y-13638579D01*
X12689682Y-13638579D02*
X12699205Y-13676674D01*
X12699205Y-13676674D02*
X12699205Y-13724293D01*
X12699205Y-13724293D02*
X12689682Y-13762388D01*
X12689682Y-13762388D02*
X12680158Y-13781436D01*
X12680158Y-13781436D02*
X12670634Y-13790960D01*
X12670634Y-13790960D02*
X12651586Y-13800484D01*
X12651586Y-13800484D02*
X12632539Y-13800484D01*
X12632539Y-13800484D02*
X12613491Y-13790960D01*
X12613491Y-13790960D02*
X12603967Y-13781436D01*
X12603967Y-13781436D02*
X12594443Y-13762388D01*
X12594443Y-13762388D02*
X12584920Y-13724293D01*
X12584920Y-13724293D02*
X12584920Y-13676674D01*
X12584920Y-13676674D02*
X12594443Y-13638579D01*
X12594443Y-13638579D02*
X12603967Y-13619531D01*
X12603967Y-13619531D02*
X12613491Y-13610008D01*
X12613491Y-13610008D02*
X12632539Y-13600484D01*
X12784920Y-13800484D02*
X12784920Y-13667150D01*
X12784920Y-13686198D02*
X12794443Y-13676674D01*
X12794443Y-13676674D02*
X12813491Y-13667150D01*
X12813491Y-13667150D02*
X12842063Y-13667150D01*
X12842063Y-13667150D02*
X12861110Y-13676674D01*
X12861110Y-13676674D02*
X12870634Y-13695722D01*
X12870634Y-13695722D02*
X12870634Y-13800484D01*
X12870634Y-13695722D02*
X12880158Y-13676674D01*
X12880158Y-13676674D02*
X12899205Y-13667150D01*
X12899205Y-13667150D02*
X12927777Y-13667150D01*
X12927777Y-13667150D02*
X12946824Y-13676674D01*
X12946824Y-13676674D02*
X12956348Y-13695722D01*
X12956348Y-13695722D02*
X12956348Y-13800484D01*
X13051586Y-13800484D02*
X13051586Y-13667150D01*
X13051586Y-13686198D02*
X13061110Y-13676674D01*
X13061110Y-13676674D02*
X13080158Y-13667150D01*
X13080158Y-13667150D02*
X13108729Y-13667150D01*
X13108729Y-13667150D02*
X13127777Y-13676674D01*
X13127777Y-13676674D02*
X13137301Y-13695722D01*
X13137301Y-13695722D02*
X13137301Y-13800484D01*
X13137301Y-13695722D02*
X13146824Y-13676674D01*
X13146824Y-13676674D02*
X13165872Y-13667150D01*
X13165872Y-13667150D02*
X13194443Y-13667150D01*
X13194443Y-13667150D02*
X13213491Y-13676674D01*
X13213491Y-13676674D02*
X13223015Y-13695722D01*
X13223015Y-13695722D02*
X13223015Y-13800484D01*
X13613491Y-13590960D02*
X13442063Y-13848103D01*
X13870634Y-13600484D02*
X13889682Y-13600484D01*
X13889682Y-13600484D02*
X13908729Y-13610008D01*
X13908729Y-13610008D02*
X13918253Y-13619531D01*
X13918253Y-13619531D02*
X13927777Y-13638579D01*
X13927777Y-13638579D02*
X13937301Y-13676674D01*
X13937301Y-13676674D02*
X13937301Y-13724293D01*
X13937301Y-13724293D02*
X13927777Y-13762388D01*
X13927777Y-13762388D02*
X13918253Y-13781436D01*
X13918253Y-13781436D02*
X13908729Y-13790960D01*
X13908729Y-13790960D02*
X13889682Y-13800484D01*
X13889682Y-13800484D02*
X13870634Y-13800484D01*
X13870634Y-13800484D02*
X13851586Y-13790960D01*
X13851586Y-13790960D02*
X13842063Y-13781436D01*
X13842063Y-13781436D02*
X13832539Y-13762388D01*
X13832539Y-13762388D02*
X13823015Y-13724293D01*
X13823015Y-13724293D02*
X13823015Y-13676674D01*
X13823015Y-13676674D02*
X13832539Y-13638579D01*
X13832539Y-13638579D02*
X13842063Y-13619531D01*
X13842063Y-13619531D02*
X13851586Y-13610008D01*
X13851586Y-13610008D02*
X13870634Y-13600484D01*
X14023015Y-13781436D02*
X14032539Y-13790960D01*
X14032539Y-13790960D02*
X14023015Y-13800484D01*
X14023015Y-13800484D02*
X14013491Y-13790960D01*
X14013491Y-13790960D02*
X14023015Y-13781436D01*
X14023015Y-13781436D02*
X14023015Y-13800484D01*
X14156348Y-13600484D02*
X14175396Y-13600484D01*
X14175396Y-13600484D02*
X14194444Y-13610008D01*
X14194444Y-13610008D02*
X14203967Y-13619531D01*
X14203967Y-13619531D02*
X14213491Y-13638579D01*
X14213491Y-13638579D02*
X14223015Y-13676674D01*
X14223015Y-13676674D02*
X14223015Y-13724293D01*
X14223015Y-13724293D02*
X14213491Y-13762388D01*
X14213491Y-13762388D02*
X14203967Y-13781436D01*
X14203967Y-13781436D02*
X14194444Y-13790960D01*
X14194444Y-13790960D02*
X14175396Y-13800484D01*
X14175396Y-13800484D02*
X14156348Y-13800484D01*
X14156348Y-13800484D02*
X14137301Y-13790960D01*
X14137301Y-13790960D02*
X14127777Y-13781436D01*
X14127777Y-13781436D02*
X14118253Y-13762388D01*
X14118253Y-13762388D02*
X14108729Y-13724293D01*
X14108729Y-13724293D02*
X14108729Y-13676674D01*
X14108729Y-13676674D02*
X14118253Y-13638579D01*
X14118253Y-13638579D02*
X14127777Y-13619531D01*
X14127777Y-13619531D02*
X14137301Y-13610008D01*
X14137301Y-13610008D02*
X14156348Y-13600484D01*
X14413491Y-13800484D02*
X14299206Y-13800484D01*
X14356348Y-13800484D02*
X14356348Y-13600484D01*
X14356348Y-13600484D02*
X14337301Y-13629055D01*
X14337301Y-13629055D02*
X14318253Y-13648103D01*
X14318253Y-13648103D02*
X14299206Y-13657627D01*
X14594444Y-13600484D02*
X14499206Y-13600484D01*
X14499206Y-13600484D02*
X14489682Y-13695722D01*
X14489682Y-13695722D02*
X14499206Y-13686198D01*
X14499206Y-13686198D02*
X14518253Y-13676674D01*
X14518253Y-13676674D02*
X14565872Y-13676674D01*
X14565872Y-13676674D02*
X14584920Y-13686198D01*
X14584920Y-13686198D02*
X14594444Y-13695722D01*
X14594444Y-13695722D02*
X14603967Y-13714769D01*
X14603967Y-13714769D02*
X14603967Y-13762388D01*
X14603967Y-13762388D02*
X14594444Y-13781436D01*
X14594444Y-13781436D02*
X14584920Y-13790960D01*
X14584920Y-13790960D02*
X14565872Y-13800484D01*
X14565872Y-13800484D02*
X14518253Y-13800484D01*
X14518253Y-13800484D02*
X14499206Y-13790960D01*
X14499206Y-13790960D02*
X14489682Y-13781436D01*
X14670634Y-13600484D02*
X14803967Y-13600484D01*
X14803967Y-13600484D02*
X14718253Y-13800484D01*
X14870634Y-13600484D02*
X14870634Y-13638579D01*
X14946825Y-13600484D02*
X14946825Y-13638579D01*
X15242063Y-13876674D02*
X15232539Y-13867150D01*
X15232539Y-13867150D02*
X15213491Y-13838579D01*
X15213491Y-13838579D02*
X15203968Y-13819531D01*
X15203968Y-13819531D02*
X15194444Y-13790960D01*
X15194444Y-13790960D02*
X15184920Y-13743341D01*
X15184920Y-13743341D02*
X15184920Y-13705246D01*
X15184920Y-13705246D02*
X15194444Y-13657627D01*
X15194444Y-13657627D02*
X15203968Y-13629055D01*
X15203968Y-13629055D02*
X15213491Y-13610008D01*
X15213491Y-13610008D02*
X15232539Y-13581436D01*
X15232539Y-13581436D02*
X15242063Y-13571912D01*
X15423015Y-13800484D02*
X15308729Y-13800484D01*
X15365872Y-13800484D02*
X15365872Y-13600484D01*
X15365872Y-13600484D02*
X15346825Y-13629055D01*
X15346825Y-13629055D02*
X15327777Y-13648103D01*
X15327777Y-13648103D02*
X15308729Y-13657627D01*
X15594444Y-13667150D02*
X15594444Y-13800484D01*
X15546825Y-13590960D02*
X15499206Y-13733817D01*
X15499206Y-13733817D02*
X15623015Y-13733817D01*
X15784920Y-13600484D02*
X15746825Y-13600484D01*
X15746825Y-13600484D02*
X15727777Y-13610008D01*
X15727777Y-13610008D02*
X15718253Y-13619531D01*
X15718253Y-13619531D02*
X15699206Y-13648103D01*
X15699206Y-13648103D02*
X15689682Y-13686198D01*
X15689682Y-13686198D02*
X15689682Y-13762388D01*
X15689682Y-13762388D02*
X15699206Y-13781436D01*
X15699206Y-13781436D02*
X15708729Y-13790960D01*
X15708729Y-13790960D02*
X15727777Y-13800484D01*
X15727777Y-13800484D02*
X15765872Y-13800484D01*
X15765872Y-13800484D02*
X15784920Y-13790960D01*
X15784920Y-13790960D02*
X15794444Y-13781436D01*
X15794444Y-13781436D02*
X15803968Y-13762388D01*
X15803968Y-13762388D02*
X15803968Y-13714769D01*
X15803968Y-13714769D02*
X15794444Y-13695722D01*
X15794444Y-13695722D02*
X15784920Y-13686198D01*
X15784920Y-13686198D02*
X15765872Y-13676674D01*
X15765872Y-13676674D02*
X15727777Y-13676674D01*
X15727777Y-13676674D02*
X15708729Y-13686198D01*
X15708729Y-13686198D02*
X15699206Y-13695722D01*
X15699206Y-13695722D02*
X15689682Y-13714769D01*
X16042063Y-13800484D02*
X16042063Y-13600484D01*
X16127777Y-13800484D02*
X16127777Y-13695722D01*
X16127777Y-13695722D02*
X16118253Y-13676674D01*
X16118253Y-13676674D02*
X16099206Y-13667150D01*
X16099206Y-13667150D02*
X16070634Y-13667150D01*
X16070634Y-13667150D02*
X16051587Y-13676674D01*
X16051587Y-13676674D02*
X16042063Y-13686198D01*
X16251587Y-13800484D02*
X16232539Y-13790960D01*
X16232539Y-13790960D02*
X16223015Y-13781436D01*
X16223015Y-13781436D02*
X16213491Y-13762388D01*
X16213491Y-13762388D02*
X16213491Y-13705246D01*
X16213491Y-13705246D02*
X16223015Y-13686198D01*
X16223015Y-13686198D02*
X16232539Y-13676674D01*
X16232539Y-13676674D02*
X16251587Y-13667150D01*
X16251587Y-13667150D02*
X16280158Y-13667150D01*
X16280158Y-13667150D02*
X16299206Y-13676674D01*
X16299206Y-13676674D02*
X16308730Y-13686198D01*
X16308730Y-13686198D02*
X16318253Y-13705246D01*
X16318253Y-13705246D02*
X16318253Y-13762388D01*
X16318253Y-13762388D02*
X16308730Y-13781436D01*
X16308730Y-13781436D02*
X16299206Y-13790960D01*
X16299206Y-13790960D02*
X16280158Y-13800484D01*
X16280158Y-13800484D02*
X16251587Y-13800484D01*
X16432539Y-13800484D02*
X16413491Y-13790960D01*
X16413491Y-13790960D02*
X16403968Y-13771912D01*
X16403968Y-13771912D02*
X16403968Y-13600484D01*
X16584920Y-13790960D02*
X16565872Y-13800484D01*
X16565872Y-13800484D02*
X16527777Y-13800484D01*
X16527777Y-13800484D02*
X16508730Y-13790960D01*
X16508730Y-13790960D02*
X16499206Y-13771912D01*
X16499206Y-13771912D02*
X16499206Y-13695722D01*
X16499206Y-13695722D02*
X16508730Y-13676674D01*
X16508730Y-13676674D02*
X16527777Y-13667150D01*
X16527777Y-13667150D02*
X16565872Y-13667150D01*
X16565872Y-13667150D02*
X16584920Y-13676674D01*
X16584920Y-13676674D02*
X16594444Y-13695722D01*
X16594444Y-13695722D02*
X16594444Y-13714769D01*
X16594444Y-13714769D02*
X16499206Y-13733817D01*
X16670634Y-13790960D02*
X16689682Y-13800484D01*
X16689682Y-13800484D02*
X16727777Y-13800484D01*
X16727777Y-13800484D02*
X16746825Y-13790960D01*
X16746825Y-13790960D02*
X16756349Y-13771912D01*
X16756349Y-13771912D02*
X16756349Y-13762388D01*
X16756349Y-13762388D02*
X16746825Y-13743341D01*
X16746825Y-13743341D02*
X16727777Y-13733817D01*
X16727777Y-13733817D02*
X16699206Y-13733817D01*
X16699206Y-13733817D02*
X16680158Y-13724293D01*
X16680158Y-13724293D02*
X16670634Y-13705246D01*
X16670634Y-13705246D02*
X16670634Y-13695722D01*
X16670634Y-13695722D02*
X16680158Y-13676674D01*
X16680158Y-13676674D02*
X16699206Y-13667150D01*
X16699206Y-13667150D02*
X16727777Y-13667150D01*
X16727777Y-13667150D02*
X16746825Y-13676674D01*
X16823015Y-13876674D02*
X16832539Y-13867150D01*
X16832539Y-13867150D02*
X16851587Y-13838579D01*
X16851587Y-13838579D02*
X16861111Y-13819531D01*
X16861111Y-13819531D02*
X16870634Y-13790960D01*
X16870634Y-13790960D02*
X16880158Y-13743341D01*
X16880158Y-13743341D02*
X16880158Y-13705246D01*
X16880158Y-13705246D02*
X16870634Y-13657627D01*
X16870634Y-13657627D02*
X16861111Y-13629055D01*
X16861111Y-13629055D02*
X16851587Y-13610008D01*
X16851587Y-13610008D02*
X16832539Y-13581436D01*
X16832539Y-13581436D02*
X16823015Y-13571912D01*
D13*
X11637000Y-13943000D02*
X11637000Y-14003000D01*
X11607000Y-13973000D02*
X11667000Y-13973000D01*
D10*
X11965872Y-13864484D02*
X11984920Y-13864484D01*
X11984920Y-13864484D02*
X12003967Y-13874008D01*
X12003967Y-13874008D02*
X12013491Y-13883531D01*
X12013491Y-13883531D02*
X12023015Y-13902579D01*
X12023015Y-13902579D02*
X12032539Y-13940674D01*
X12032539Y-13940674D02*
X12032539Y-13988293D01*
X12032539Y-13988293D02*
X12023015Y-14026388D01*
X12023015Y-14026388D02*
X12013491Y-14045436D01*
X12013491Y-14045436D02*
X12003967Y-14054960D01*
X12003967Y-14054960D02*
X11984920Y-14064484D01*
X11984920Y-14064484D02*
X11965872Y-14064484D01*
X11965872Y-14064484D02*
X11946824Y-14054960D01*
X11946824Y-14054960D02*
X11937301Y-14045436D01*
X11937301Y-14045436D02*
X11927777Y-14026388D01*
X11927777Y-14026388D02*
X11918253Y-13988293D01*
X11918253Y-13988293D02*
X11918253Y-13940674D01*
X11918253Y-13940674D02*
X11927777Y-13902579D01*
X11927777Y-13902579D02*
X11937301Y-13883531D01*
X11937301Y-13883531D02*
X11946824Y-13874008D01*
X11946824Y-13874008D02*
X11965872Y-13864484D01*
X12118253Y-14045436D02*
X12127777Y-14054960D01*
X12127777Y-14054960D02*
X12118253Y-14064484D01*
X12118253Y-14064484D02*
X12108729Y-14054960D01*
X12108729Y-14054960D02*
X12118253Y-14045436D01*
X12118253Y-14045436D02*
X12118253Y-14064484D01*
X12299205Y-13864484D02*
X12261110Y-13864484D01*
X12261110Y-13864484D02*
X12242062Y-13874008D01*
X12242062Y-13874008D02*
X12232539Y-13883531D01*
X12232539Y-13883531D02*
X12213491Y-13912103D01*
X12213491Y-13912103D02*
X12203967Y-13950198D01*
X12203967Y-13950198D02*
X12203967Y-14026388D01*
X12203967Y-14026388D02*
X12213491Y-14045436D01*
X12213491Y-14045436D02*
X12223015Y-14054960D01*
X12223015Y-14054960D02*
X12242062Y-14064484D01*
X12242062Y-14064484D02*
X12280158Y-14064484D01*
X12280158Y-14064484D02*
X12299205Y-14054960D01*
X12299205Y-14054960D02*
X12308729Y-14045436D01*
X12308729Y-14045436D02*
X12318253Y-14026388D01*
X12318253Y-14026388D02*
X12318253Y-13978769D01*
X12318253Y-13978769D02*
X12308729Y-13959722D01*
X12308729Y-13959722D02*
X12299205Y-13950198D01*
X12299205Y-13950198D02*
X12280158Y-13940674D01*
X12280158Y-13940674D02*
X12242062Y-13940674D01*
X12242062Y-13940674D02*
X12223015Y-13950198D01*
X12223015Y-13950198D02*
X12213491Y-13959722D01*
X12213491Y-13959722D02*
X12203967Y-13978769D01*
X12442062Y-13864484D02*
X12461110Y-13864484D01*
X12461110Y-13864484D02*
X12480158Y-13874008D01*
X12480158Y-13874008D02*
X12489682Y-13883531D01*
X12489682Y-13883531D02*
X12499205Y-13902579D01*
X12499205Y-13902579D02*
X12508729Y-13940674D01*
X12508729Y-13940674D02*
X12508729Y-13988293D01*
X12508729Y-13988293D02*
X12499205Y-14026388D01*
X12499205Y-14026388D02*
X12489682Y-14045436D01*
X12489682Y-14045436D02*
X12480158Y-14054960D01*
X12480158Y-14054960D02*
X12461110Y-14064484D01*
X12461110Y-14064484D02*
X12442062Y-14064484D01*
X12442062Y-14064484D02*
X12423015Y-14054960D01*
X12423015Y-14054960D02*
X12413491Y-14045436D01*
X12413491Y-14045436D02*
X12403967Y-14026388D01*
X12403967Y-14026388D02*
X12394443Y-13988293D01*
X12394443Y-13988293D02*
X12394443Y-13940674D01*
X12394443Y-13940674D02*
X12403967Y-13902579D01*
X12403967Y-13902579D02*
X12413491Y-13883531D01*
X12413491Y-13883531D02*
X12423015Y-13874008D01*
X12423015Y-13874008D02*
X12442062Y-13864484D01*
X12632539Y-13864484D02*
X12651586Y-13864484D01*
X12651586Y-13864484D02*
X12670634Y-13874008D01*
X12670634Y-13874008D02*
X12680158Y-13883531D01*
X12680158Y-13883531D02*
X12689682Y-13902579D01*
X12689682Y-13902579D02*
X12699205Y-13940674D01*
X12699205Y-13940674D02*
X12699205Y-13988293D01*
X12699205Y-13988293D02*
X12689682Y-14026388D01*
X12689682Y-14026388D02*
X12680158Y-14045436D01*
X12680158Y-14045436D02*
X12670634Y-14054960D01*
X12670634Y-14054960D02*
X12651586Y-14064484D01*
X12651586Y-14064484D02*
X12632539Y-14064484D01*
X12632539Y-14064484D02*
X12613491Y-14054960D01*
X12613491Y-14054960D02*
X12603967Y-14045436D01*
X12603967Y-14045436D02*
X12594443Y-14026388D01*
X12594443Y-14026388D02*
X12584920Y-13988293D01*
X12584920Y-13988293D02*
X12584920Y-13940674D01*
X12584920Y-13940674D02*
X12594443Y-13902579D01*
X12594443Y-13902579D02*
X12603967Y-13883531D01*
X12603967Y-13883531D02*
X12613491Y-13874008D01*
X12613491Y-13874008D02*
X12632539Y-13864484D01*
X12784920Y-14064484D02*
X12784920Y-13931150D01*
X12784920Y-13950198D02*
X12794443Y-13940674D01*
X12794443Y-13940674D02*
X12813491Y-13931150D01*
X12813491Y-13931150D02*
X12842063Y-13931150D01*
X12842063Y-13931150D02*
X12861110Y-13940674D01*
X12861110Y-13940674D02*
X12870634Y-13959722D01*
X12870634Y-13959722D02*
X12870634Y-14064484D01*
X12870634Y-13959722D02*
X12880158Y-13940674D01*
X12880158Y-13940674D02*
X12899205Y-13931150D01*
X12899205Y-13931150D02*
X12927777Y-13931150D01*
X12927777Y-13931150D02*
X12946824Y-13940674D01*
X12946824Y-13940674D02*
X12956348Y-13959722D01*
X12956348Y-13959722D02*
X12956348Y-14064484D01*
X13051586Y-14064484D02*
X13051586Y-13931150D01*
X13051586Y-13950198D02*
X13061110Y-13940674D01*
X13061110Y-13940674D02*
X13080158Y-13931150D01*
X13080158Y-13931150D02*
X13108729Y-13931150D01*
X13108729Y-13931150D02*
X13127777Y-13940674D01*
X13127777Y-13940674D02*
X13137301Y-13959722D01*
X13137301Y-13959722D02*
X13137301Y-14064484D01*
X13137301Y-13959722D02*
X13146824Y-13940674D01*
X13146824Y-13940674D02*
X13165872Y-13931150D01*
X13165872Y-13931150D02*
X13194443Y-13931150D01*
X13194443Y-13931150D02*
X13213491Y-13940674D01*
X13213491Y-13940674D02*
X13223015Y-13959722D01*
X13223015Y-13959722D02*
X13223015Y-14064484D01*
X13613491Y-13854960D02*
X13442063Y-14112103D01*
X13870634Y-13864484D02*
X13889682Y-13864484D01*
X13889682Y-13864484D02*
X13908729Y-13874008D01*
X13908729Y-13874008D02*
X13918253Y-13883531D01*
X13918253Y-13883531D02*
X13927777Y-13902579D01*
X13927777Y-13902579D02*
X13937301Y-13940674D01*
X13937301Y-13940674D02*
X13937301Y-13988293D01*
X13937301Y-13988293D02*
X13927777Y-14026388D01*
X13927777Y-14026388D02*
X13918253Y-14045436D01*
X13918253Y-14045436D02*
X13908729Y-14054960D01*
X13908729Y-14054960D02*
X13889682Y-14064484D01*
X13889682Y-14064484D02*
X13870634Y-14064484D01*
X13870634Y-14064484D02*
X13851586Y-14054960D01*
X13851586Y-14054960D02*
X13842063Y-14045436D01*
X13842063Y-14045436D02*
X13832539Y-14026388D01*
X13832539Y-14026388D02*
X13823015Y-13988293D01*
X13823015Y-13988293D02*
X13823015Y-13940674D01*
X13823015Y-13940674D02*
X13832539Y-13902579D01*
X13832539Y-13902579D02*
X13842063Y-13883531D01*
X13842063Y-13883531D02*
X13851586Y-13874008D01*
X13851586Y-13874008D02*
X13870634Y-13864484D01*
X14023015Y-14045436D02*
X14032539Y-14054960D01*
X14032539Y-14054960D02*
X14023015Y-14064484D01*
X14023015Y-14064484D02*
X14013491Y-14054960D01*
X14013491Y-14054960D02*
X14023015Y-14045436D01*
X14023015Y-14045436D02*
X14023015Y-14064484D01*
X14156348Y-13864484D02*
X14175396Y-13864484D01*
X14175396Y-13864484D02*
X14194444Y-13874008D01*
X14194444Y-13874008D02*
X14203967Y-13883531D01*
X14203967Y-13883531D02*
X14213491Y-13902579D01*
X14213491Y-13902579D02*
X14223015Y-13940674D01*
X14223015Y-13940674D02*
X14223015Y-13988293D01*
X14223015Y-13988293D02*
X14213491Y-14026388D01*
X14213491Y-14026388D02*
X14203967Y-14045436D01*
X14203967Y-14045436D02*
X14194444Y-14054960D01*
X14194444Y-14054960D02*
X14175396Y-14064484D01*
X14175396Y-14064484D02*
X14156348Y-14064484D01*
X14156348Y-14064484D02*
X14137301Y-14054960D01*
X14137301Y-14054960D02*
X14127777Y-14045436D01*
X14127777Y-14045436D02*
X14118253Y-14026388D01*
X14118253Y-14026388D02*
X14108729Y-13988293D01*
X14108729Y-13988293D02*
X14108729Y-13940674D01*
X14108729Y-13940674D02*
X14118253Y-13902579D01*
X14118253Y-13902579D02*
X14127777Y-13883531D01*
X14127777Y-13883531D02*
X14137301Y-13874008D01*
X14137301Y-13874008D02*
X14156348Y-13864484D01*
X14299206Y-13883531D02*
X14308729Y-13874008D01*
X14308729Y-13874008D02*
X14327777Y-13864484D01*
X14327777Y-13864484D02*
X14375396Y-13864484D01*
X14375396Y-13864484D02*
X14394444Y-13874008D01*
X14394444Y-13874008D02*
X14403967Y-13883531D01*
X14403967Y-13883531D02*
X14413491Y-13902579D01*
X14413491Y-13902579D02*
X14413491Y-13921627D01*
X14413491Y-13921627D02*
X14403967Y-13950198D01*
X14403967Y-13950198D02*
X14289682Y-14064484D01*
X14289682Y-14064484D02*
X14413491Y-14064484D01*
X14480158Y-13864484D02*
X14603967Y-13864484D01*
X14603967Y-13864484D02*
X14537301Y-13940674D01*
X14537301Y-13940674D02*
X14565872Y-13940674D01*
X14565872Y-13940674D02*
X14584920Y-13950198D01*
X14584920Y-13950198D02*
X14594444Y-13959722D01*
X14594444Y-13959722D02*
X14603967Y-13978769D01*
X14603967Y-13978769D02*
X14603967Y-14026388D01*
X14603967Y-14026388D02*
X14594444Y-14045436D01*
X14594444Y-14045436D02*
X14584920Y-14054960D01*
X14584920Y-14054960D02*
X14565872Y-14064484D01*
X14565872Y-14064484D02*
X14508729Y-14064484D01*
X14508729Y-14064484D02*
X14489682Y-14054960D01*
X14489682Y-14054960D02*
X14480158Y-14045436D01*
X14775396Y-13864484D02*
X14737301Y-13864484D01*
X14737301Y-13864484D02*
X14718253Y-13874008D01*
X14718253Y-13874008D02*
X14708729Y-13883531D01*
X14708729Y-13883531D02*
X14689682Y-13912103D01*
X14689682Y-13912103D02*
X14680158Y-13950198D01*
X14680158Y-13950198D02*
X14680158Y-14026388D01*
X14680158Y-14026388D02*
X14689682Y-14045436D01*
X14689682Y-14045436D02*
X14699206Y-14054960D01*
X14699206Y-14054960D02*
X14718253Y-14064484D01*
X14718253Y-14064484D02*
X14756348Y-14064484D01*
X14756348Y-14064484D02*
X14775396Y-14054960D01*
X14775396Y-14054960D02*
X14784920Y-14045436D01*
X14784920Y-14045436D02*
X14794444Y-14026388D01*
X14794444Y-14026388D02*
X14794444Y-13978769D01*
X14794444Y-13978769D02*
X14784920Y-13959722D01*
X14784920Y-13959722D02*
X14775396Y-13950198D01*
X14775396Y-13950198D02*
X14756348Y-13940674D01*
X14756348Y-13940674D02*
X14718253Y-13940674D01*
X14718253Y-13940674D02*
X14699206Y-13950198D01*
X14699206Y-13950198D02*
X14689682Y-13959722D01*
X14689682Y-13959722D02*
X14680158Y-13978769D01*
X14870634Y-13864484D02*
X14870634Y-13902579D01*
X14946825Y-13864484D02*
X14946825Y-13902579D01*
X15242063Y-14140674D02*
X15232539Y-14131150D01*
X15232539Y-14131150D02*
X15213491Y-14102579D01*
X15213491Y-14102579D02*
X15203968Y-14083531D01*
X15203968Y-14083531D02*
X15194444Y-14054960D01*
X15194444Y-14054960D02*
X15184920Y-14007341D01*
X15184920Y-14007341D02*
X15184920Y-13969246D01*
X15184920Y-13969246D02*
X15194444Y-13921627D01*
X15194444Y-13921627D02*
X15203968Y-13893055D01*
X15203968Y-13893055D02*
X15213491Y-13874008D01*
X15213491Y-13874008D02*
X15232539Y-13845436D01*
X15232539Y-13845436D02*
X15242063Y-13835912D01*
X15356348Y-13864484D02*
X15375396Y-13864484D01*
X15375396Y-13864484D02*
X15394444Y-13874008D01*
X15394444Y-13874008D02*
X15403968Y-13883531D01*
X15403968Y-13883531D02*
X15413491Y-13902579D01*
X15413491Y-13902579D02*
X15423015Y-13940674D01*
X15423015Y-13940674D02*
X15423015Y-13988293D01*
X15423015Y-13988293D02*
X15413491Y-14026388D01*
X15413491Y-14026388D02*
X15403968Y-14045436D01*
X15403968Y-14045436D02*
X15394444Y-14054960D01*
X15394444Y-14054960D02*
X15375396Y-14064484D01*
X15375396Y-14064484D02*
X15356348Y-14064484D01*
X15356348Y-14064484D02*
X15337301Y-14054960D01*
X15337301Y-14054960D02*
X15327777Y-14045436D01*
X15327777Y-14045436D02*
X15318253Y-14026388D01*
X15318253Y-14026388D02*
X15308729Y-13988293D01*
X15308729Y-13988293D02*
X15308729Y-13940674D01*
X15308729Y-13940674D02*
X15318253Y-13902579D01*
X15318253Y-13902579D02*
X15327777Y-13883531D01*
X15327777Y-13883531D02*
X15337301Y-13874008D01*
X15337301Y-13874008D02*
X15356348Y-13864484D01*
X15661110Y-14064484D02*
X15661110Y-13864484D01*
X15746825Y-14064484D02*
X15746825Y-13959722D01*
X15746825Y-13959722D02*
X15737301Y-13940674D01*
X15737301Y-13940674D02*
X15718253Y-13931150D01*
X15718253Y-13931150D02*
X15689682Y-13931150D01*
X15689682Y-13931150D02*
X15670634Y-13940674D01*
X15670634Y-13940674D02*
X15661110Y-13950198D01*
X15870634Y-14064484D02*
X15851587Y-14054960D01*
X15851587Y-14054960D02*
X15842063Y-14045436D01*
X15842063Y-14045436D02*
X15832539Y-14026388D01*
X15832539Y-14026388D02*
X15832539Y-13969246D01*
X15832539Y-13969246D02*
X15842063Y-13950198D01*
X15842063Y-13950198D02*
X15851587Y-13940674D01*
X15851587Y-13940674D02*
X15870634Y-13931150D01*
X15870634Y-13931150D02*
X15899206Y-13931150D01*
X15899206Y-13931150D02*
X15918253Y-13940674D01*
X15918253Y-13940674D02*
X15927777Y-13950198D01*
X15927777Y-13950198D02*
X15937301Y-13969246D01*
X15937301Y-13969246D02*
X15937301Y-14026388D01*
X15937301Y-14026388D02*
X15927777Y-14045436D01*
X15927777Y-14045436D02*
X15918253Y-14054960D01*
X15918253Y-14054960D02*
X15899206Y-14064484D01*
X15899206Y-14064484D02*
X15870634Y-14064484D01*
X16051587Y-14064484D02*
X16032539Y-14054960D01*
X16032539Y-14054960D02*
X16023015Y-14035912D01*
X16023015Y-14035912D02*
X16023015Y-13864484D01*
X16203968Y-14054960D02*
X16184920Y-14064484D01*
X16184920Y-14064484D02*
X16146825Y-14064484D01*
X16146825Y-14064484D02*
X16127777Y-14054960D01*
X16127777Y-14054960D02*
X16118253Y-14035912D01*
X16118253Y-14035912D02*
X16118253Y-13959722D01*
X16118253Y-13959722D02*
X16127777Y-13940674D01*
X16127777Y-13940674D02*
X16146825Y-13931150D01*
X16146825Y-13931150D02*
X16184920Y-13931150D01*
X16184920Y-13931150D02*
X16203968Y-13940674D01*
X16203968Y-13940674D02*
X16213491Y-13959722D01*
X16213491Y-13959722D02*
X16213491Y-13978769D01*
X16213491Y-13978769D02*
X16118253Y-13997817D01*
X16289682Y-14054960D02*
X16308730Y-14064484D01*
X16308730Y-14064484D02*
X16346825Y-14064484D01*
X16346825Y-14064484D02*
X16365872Y-14054960D01*
X16365872Y-14054960D02*
X16375396Y-14035912D01*
X16375396Y-14035912D02*
X16375396Y-14026388D01*
X16375396Y-14026388D02*
X16365872Y-14007341D01*
X16365872Y-14007341D02*
X16346825Y-13997817D01*
X16346825Y-13997817D02*
X16318253Y-13997817D01*
X16318253Y-13997817D02*
X16299206Y-13988293D01*
X16299206Y-13988293D02*
X16289682Y-13969246D01*
X16289682Y-13969246D02*
X16289682Y-13959722D01*
X16289682Y-13959722D02*
X16299206Y-13940674D01*
X16299206Y-13940674D02*
X16318253Y-13931150D01*
X16318253Y-13931150D02*
X16346825Y-13931150D01*
X16346825Y-13931150D02*
X16365872Y-13940674D01*
X16613492Y-13988293D02*
X16765873Y-13988293D01*
X16689682Y-14064484D02*
X16689682Y-13912103D01*
X17099206Y-13931150D02*
X17099206Y-14064484D01*
X17051587Y-13854960D02*
X17003968Y-13997817D01*
X17003968Y-13997817D02*
X17127777Y-13997817D01*
X17346825Y-14054960D02*
X17365873Y-14064484D01*
X17365873Y-14064484D02*
X17403968Y-14064484D01*
X17403968Y-14064484D02*
X17423016Y-14054960D01*
X17423016Y-14054960D02*
X17432539Y-14035912D01*
X17432539Y-14035912D02*
X17432539Y-14026388D01*
X17432539Y-14026388D02*
X17423016Y-14007341D01*
X17423016Y-14007341D02*
X17403968Y-13997817D01*
X17403968Y-13997817D02*
X17375396Y-13997817D01*
X17375396Y-13997817D02*
X17356349Y-13988293D01*
X17356349Y-13988293D02*
X17346825Y-13969246D01*
X17346825Y-13969246D02*
X17346825Y-13959722D01*
X17346825Y-13959722D02*
X17356349Y-13940674D01*
X17356349Y-13940674D02*
X17375396Y-13931150D01*
X17375396Y-13931150D02*
X17403968Y-13931150D01*
X17403968Y-13931150D02*
X17423016Y-13940674D01*
X17546825Y-14064484D02*
X17527777Y-14054960D01*
X17527777Y-14054960D02*
X17518254Y-14035912D01*
X17518254Y-14035912D02*
X17518254Y-13864484D01*
X17651587Y-14064484D02*
X17632539Y-14054960D01*
X17632539Y-14054960D02*
X17623016Y-14045436D01*
X17623016Y-14045436D02*
X17613492Y-14026388D01*
X17613492Y-14026388D02*
X17613492Y-13969246D01*
X17613492Y-13969246D02*
X17623016Y-13950198D01*
X17623016Y-13950198D02*
X17632539Y-13940674D01*
X17632539Y-13940674D02*
X17651587Y-13931150D01*
X17651587Y-13931150D02*
X17680158Y-13931150D01*
X17680158Y-13931150D02*
X17699206Y-13940674D01*
X17699206Y-13940674D02*
X17708730Y-13950198D01*
X17708730Y-13950198D02*
X17718254Y-13969246D01*
X17718254Y-13969246D02*
X17718254Y-14026388D01*
X17718254Y-14026388D02*
X17708730Y-14045436D01*
X17708730Y-14045436D02*
X17699206Y-14054960D01*
X17699206Y-14054960D02*
X17680158Y-14064484D01*
X17680158Y-14064484D02*
X17651587Y-14064484D01*
X17775397Y-13931150D02*
X17851587Y-13931150D01*
X17803968Y-13864484D02*
X17803968Y-14035912D01*
X17803968Y-14035912D02*
X17813492Y-14054960D01*
X17813492Y-14054960D02*
X17832539Y-14064484D01*
X17832539Y-14064484D02*
X17851587Y-14064484D01*
X17908730Y-14054960D02*
X17927777Y-14064484D01*
X17927777Y-14064484D02*
X17965873Y-14064484D01*
X17965873Y-14064484D02*
X17984920Y-14054960D01*
X17984920Y-14054960D02*
X17994444Y-14035912D01*
X17994444Y-14035912D02*
X17994444Y-14026388D01*
X17994444Y-14026388D02*
X17984920Y-14007341D01*
X17984920Y-14007341D02*
X17965873Y-13997817D01*
X17965873Y-13997817D02*
X17937301Y-13997817D01*
X17937301Y-13997817D02*
X17918254Y-13988293D01*
X17918254Y-13988293D02*
X17908730Y-13969246D01*
X17908730Y-13969246D02*
X17908730Y-13959722D01*
X17908730Y-13959722D02*
X17918254Y-13940674D01*
X17918254Y-13940674D02*
X17937301Y-13931150D01*
X17937301Y-13931150D02*
X17965873Y-13931150D01*
X17965873Y-13931150D02*
X17984920Y-13940674D01*
X18061111Y-14140674D02*
X18070635Y-14131150D01*
X18070635Y-14131150D02*
X18089682Y-14102579D01*
X18089682Y-14102579D02*
X18099206Y-14083531D01*
X18099206Y-14083531D02*
X18108730Y-14054960D01*
X18108730Y-14054960D02*
X18118254Y-14007341D01*
X18118254Y-14007341D02*
X18118254Y-13969246D01*
X18118254Y-13969246D02*
X18108730Y-13921627D01*
X18108730Y-13921627D02*
X18099206Y-13893055D01*
X18099206Y-13893055D02*
X18089682Y-13874008D01*
X18089682Y-13874008D02*
X18070635Y-13845436D01*
X18070635Y-13845436D02*
X18061111Y-13835912D01*
D14*
X11656017Y-14263517D02*
X11656017Y-14210483D01*
X11602983Y-14210483D01*
X11602983Y-14263517D01*
X11656017Y-14263517D01*
D10*
X11965872Y-14128484D02*
X11984920Y-14128484D01*
X11984920Y-14128484D02*
X12003967Y-14138008D01*
X12003967Y-14138008D02*
X12013491Y-14147531D01*
X12013491Y-14147531D02*
X12023015Y-14166579D01*
X12023015Y-14166579D02*
X12032539Y-14204674D01*
X12032539Y-14204674D02*
X12032539Y-14252293D01*
X12032539Y-14252293D02*
X12023015Y-14290388D01*
X12023015Y-14290388D02*
X12013491Y-14309436D01*
X12013491Y-14309436D02*
X12003967Y-14318960D01*
X12003967Y-14318960D02*
X11984920Y-14328484D01*
X11984920Y-14328484D02*
X11965872Y-14328484D01*
X11965872Y-14328484D02*
X11946824Y-14318960D01*
X11946824Y-14318960D02*
X11937301Y-14309436D01*
X11937301Y-14309436D02*
X11927777Y-14290388D01*
X11927777Y-14290388D02*
X11918253Y-14252293D01*
X11918253Y-14252293D02*
X11918253Y-14204674D01*
X11918253Y-14204674D02*
X11927777Y-14166579D01*
X11927777Y-14166579D02*
X11937301Y-14147531D01*
X11937301Y-14147531D02*
X11946824Y-14138008D01*
X11946824Y-14138008D02*
X11965872Y-14128484D01*
X12118253Y-14309436D02*
X12127777Y-14318960D01*
X12127777Y-14318960D02*
X12118253Y-14328484D01*
X12118253Y-14328484D02*
X12108729Y-14318960D01*
X12108729Y-14318960D02*
X12118253Y-14309436D01*
X12118253Y-14309436D02*
X12118253Y-14328484D01*
X12194443Y-14128484D02*
X12327777Y-14128484D01*
X12327777Y-14128484D02*
X12242062Y-14328484D01*
X12499205Y-14128484D02*
X12403967Y-14128484D01*
X12403967Y-14128484D02*
X12394443Y-14223722D01*
X12394443Y-14223722D02*
X12403967Y-14214198D01*
X12403967Y-14214198D02*
X12423015Y-14204674D01*
X12423015Y-14204674D02*
X12470634Y-14204674D01*
X12470634Y-14204674D02*
X12489682Y-14214198D01*
X12489682Y-14214198D02*
X12499205Y-14223722D01*
X12499205Y-14223722D02*
X12508729Y-14242769D01*
X12508729Y-14242769D02*
X12508729Y-14290388D01*
X12508729Y-14290388D02*
X12499205Y-14309436D01*
X12499205Y-14309436D02*
X12489682Y-14318960D01*
X12489682Y-14318960D02*
X12470634Y-14328484D01*
X12470634Y-14328484D02*
X12423015Y-14328484D01*
X12423015Y-14328484D02*
X12403967Y-14318960D01*
X12403967Y-14318960D02*
X12394443Y-14309436D01*
X12632539Y-14128484D02*
X12651586Y-14128484D01*
X12651586Y-14128484D02*
X12670634Y-14138008D01*
X12670634Y-14138008D02*
X12680158Y-14147531D01*
X12680158Y-14147531D02*
X12689682Y-14166579D01*
X12689682Y-14166579D02*
X12699205Y-14204674D01*
X12699205Y-14204674D02*
X12699205Y-14252293D01*
X12699205Y-14252293D02*
X12689682Y-14290388D01*
X12689682Y-14290388D02*
X12680158Y-14309436D01*
X12680158Y-14309436D02*
X12670634Y-14318960D01*
X12670634Y-14318960D02*
X12651586Y-14328484D01*
X12651586Y-14328484D02*
X12632539Y-14328484D01*
X12632539Y-14328484D02*
X12613491Y-14318960D01*
X12613491Y-14318960D02*
X12603967Y-14309436D01*
X12603967Y-14309436D02*
X12594443Y-14290388D01*
X12594443Y-14290388D02*
X12584920Y-14252293D01*
X12584920Y-14252293D02*
X12584920Y-14204674D01*
X12584920Y-14204674D02*
X12594443Y-14166579D01*
X12594443Y-14166579D02*
X12603967Y-14147531D01*
X12603967Y-14147531D02*
X12613491Y-14138008D01*
X12613491Y-14138008D02*
X12632539Y-14128484D01*
X12784920Y-14328484D02*
X12784920Y-14195150D01*
X12784920Y-14214198D02*
X12794443Y-14204674D01*
X12794443Y-14204674D02*
X12813491Y-14195150D01*
X12813491Y-14195150D02*
X12842063Y-14195150D01*
X12842063Y-14195150D02*
X12861110Y-14204674D01*
X12861110Y-14204674D02*
X12870634Y-14223722D01*
X12870634Y-14223722D02*
X12870634Y-14328484D01*
X12870634Y-14223722D02*
X12880158Y-14204674D01*
X12880158Y-14204674D02*
X12899205Y-14195150D01*
X12899205Y-14195150D02*
X12927777Y-14195150D01*
X12927777Y-14195150D02*
X12946824Y-14204674D01*
X12946824Y-14204674D02*
X12956348Y-14223722D01*
X12956348Y-14223722D02*
X12956348Y-14328484D01*
X13051586Y-14328484D02*
X13051586Y-14195150D01*
X13051586Y-14214198D02*
X13061110Y-14204674D01*
X13061110Y-14204674D02*
X13080158Y-14195150D01*
X13080158Y-14195150D02*
X13108729Y-14195150D01*
X13108729Y-14195150D02*
X13127777Y-14204674D01*
X13127777Y-14204674D02*
X13137301Y-14223722D01*
X13137301Y-14223722D02*
X13137301Y-14328484D01*
X13137301Y-14223722D02*
X13146824Y-14204674D01*
X13146824Y-14204674D02*
X13165872Y-14195150D01*
X13165872Y-14195150D02*
X13194443Y-14195150D01*
X13194443Y-14195150D02*
X13213491Y-14204674D01*
X13213491Y-14204674D02*
X13223015Y-14223722D01*
X13223015Y-14223722D02*
X13223015Y-14328484D01*
X13613491Y-14118960D02*
X13442063Y-14376103D01*
X13870634Y-14128484D02*
X13889682Y-14128484D01*
X13889682Y-14128484D02*
X13908729Y-14138008D01*
X13908729Y-14138008D02*
X13918253Y-14147531D01*
X13918253Y-14147531D02*
X13927777Y-14166579D01*
X13927777Y-14166579D02*
X13937301Y-14204674D01*
X13937301Y-14204674D02*
X13937301Y-14252293D01*
X13937301Y-14252293D02*
X13927777Y-14290388D01*
X13927777Y-14290388D02*
X13918253Y-14309436D01*
X13918253Y-14309436D02*
X13908729Y-14318960D01*
X13908729Y-14318960D02*
X13889682Y-14328484D01*
X13889682Y-14328484D02*
X13870634Y-14328484D01*
X13870634Y-14328484D02*
X13851586Y-14318960D01*
X13851586Y-14318960D02*
X13842063Y-14309436D01*
X13842063Y-14309436D02*
X13832539Y-14290388D01*
X13832539Y-14290388D02*
X13823015Y-14252293D01*
X13823015Y-14252293D02*
X13823015Y-14204674D01*
X13823015Y-14204674D02*
X13832539Y-14166579D01*
X13832539Y-14166579D02*
X13842063Y-14147531D01*
X13842063Y-14147531D02*
X13851586Y-14138008D01*
X13851586Y-14138008D02*
X13870634Y-14128484D01*
X14023015Y-14309436D02*
X14032539Y-14318960D01*
X14032539Y-14318960D02*
X14023015Y-14328484D01*
X14023015Y-14328484D02*
X14013491Y-14318960D01*
X14013491Y-14318960D02*
X14023015Y-14309436D01*
X14023015Y-14309436D02*
X14023015Y-14328484D01*
X14156348Y-14128484D02*
X14175396Y-14128484D01*
X14175396Y-14128484D02*
X14194444Y-14138008D01*
X14194444Y-14138008D02*
X14203967Y-14147531D01*
X14203967Y-14147531D02*
X14213491Y-14166579D01*
X14213491Y-14166579D02*
X14223015Y-14204674D01*
X14223015Y-14204674D02*
X14223015Y-14252293D01*
X14223015Y-14252293D02*
X14213491Y-14290388D01*
X14213491Y-14290388D02*
X14203967Y-14309436D01*
X14203967Y-14309436D02*
X14194444Y-14318960D01*
X14194444Y-14318960D02*
X14175396Y-14328484D01*
X14175396Y-14328484D02*
X14156348Y-14328484D01*
X14156348Y-14328484D02*
X14137301Y-14318960D01*
X14137301Y-14318960D02*
X14127777Y-14309436D01*
X14127777Y-14309436D02*
X14118253Y-14290388D01*
X14118253Y-14290388D02*
X14108729Y-14252293D01*
X14108729Y-14252293D02*
X14108729Y-14204674D01*
X14108729Y-14204674D02*
X14118253Y-14166579D01*
X14118253Y-14166579D02*
X14127777Y-14147531D01*
X14127777Y-14147531D02*
X14137301Y-14138008D01*
X14137301Y-14138008D02*
X14156348Y-14128484D01*
X14299206Y-14147531D02*
X14308729Y-14138008D01*
X14308729Y-14138008D02*
X14327777Y-14128484D01*
X14327777Y-14128484D02*
X14375396Y-14128484D01*
X14375396Y-14128484D02*
X14394444Y-14138008D01*
X14394444Y-14138008D02*
X14403967Y-14147531D01*
X14403967Y-14147531D02*
X14413491Y-14166579D01*
X14413491Y-14166579D02*
X14413491Y-14185627D01*
X14413491Y-14185627D02*
X14403967Y-14214198D01*
X14403967Y-14214198D02*
X14289682Y-14328484D01*
X14289682Y-14328484D02*
X14413491Y-14328484D01*
X14508729Y-14328484D02*
X14546825Y-14328484D01*
X14546825Y-14328484D02*
X14565872Y-14318960D01*
X14565872Y-14318960D02*
X14575396Y-14309436D01*
X14575396Y-14309436D02*
X14594444Y-14280865D01*
X14594444Y-14280865D02*
X14603967Y-14242769D01*
X14603967Y-14242769D02*
X14603967Y-14166579D01*
X14603967Y-14166579D02*
X14594444Y-14147531D01*
X14594444Y-14147531D02*
X14584920Y-14138008D01*
X14584920Y-14138008D02*
X14565872Y-14128484D01*
X14565872Y-14128484D02*
X14527777Y-14128484D01*
X14527777Y-14128484D02*
X14508729Y-14138008D01*
X14508729Y-14138008D02*
X14499206Y-14147531D01*
X14499206Y-14147531D02*
X14489682Y-14166579D01*
X14489682Y-14166579D02*
X14489682Y-14214198D01*
X14489682Y-14214198D02*
X14499206Y-14233246D01*
X14499206Y-14233246D02*
X14508729Y-14242769D01*
X14508729Y-14242769D02*
X14527777Y-14252293D01*
X14527777Y-14252293D02*
X14565872Y-14252293D01*
X14565872Y-14252293D02*
X14584920Y-14242769D01*
X14584920Y-14242769D02*
X14594444Y-14233246D01*
X14594444Y-14233246D02*
X14603967Y-14214198D01*
X14784920Y-14128484D02*
X14689682Y-14128484D01*
X14689682Y-14128484D02*
X14680158Y-14223722D01*
X14680158Y-14223722D02*
X14689682Y-14214198D01*
X14689682Y-14214198D02*
X14708729Y-14204674D01*
X14708729Y-14204674D02*
X14756348Y-14204674D01*
X14756348Y-14204674D02*
X14775396Y-14214198D01*
X14775396Y-14214198D02*
X14784920Y-14223722D01*
X14784920Y-14223722D02*
X14794444Y-14242769D01*
X14794444Y-14242769D02*
X14794444Y-14290388D01*
X14794444Y-14290388D02*
X14784920Y-14309436D01*
X14784920Y-14309436D02*
X14775396Y-14318960D01*
X14775396Y-14318960D02*
X14756348Y-14328484D01*
X14756348Y-14328484D02*
X14708729Y-14328484D01*
X14708729Y-14328484D02*
X14689682Y-14318960D01*
X14689682Y-14318960D02*
X14680158Y-14309436D01*
X14870634Y-14128484D02*
X14870634Y-14166579D01*
X14946825Y-14128484D02*
X14946825Y-14166579D01*
X15242063Y-14404674D02*
X15232539Y-14395150D01*
X15232539Y-14395150D02*
X15213491Y-14366579D01*
X15213491Y-14366579D02*
X15203968Y-14347531D01*
X15203968Y-14347531D02*
X15194444Y-14318960D01*
X15194444Y-14318960D02*
X15184920Y-14271341D01*
X15184920Y-14271341D02*
X15184920Y-14233246D01*
X15184920Y-14233246D02*
X15194444Y-14185627D01*
X15194444Y-14185627D02*
X15203968Y-14157055D01*
X15203968Y-14157055D02*
X15213491Y-14138008D01*
X15213491Y-14138008D02*
X15232539Y-14109436D01*
X15232539Y-14109436D02*
X15242063Y-14099912D01*
X15308729Y-14147531D02*
X15318253Y-14138008D01*
X15318253Y-14138008D02*
X15337301Y-14128484D01*
X15337301Y-14128484D02*
X15384920Y-14128484D01*
X15384920Y-14128484D02*
X15403968Y-14138008D01*
X15403968Y-14138008D02*
X15413491Y-14147531D01*
X15413491Y-14147531D02*
X15423015Y-14166579D01*
X15423015Y-14166579D02*
X15423015Y-14185627D01*
X15423015Y-14185627D02*
X15413491Y-14214198D01*
X15413491Y-14214198D02*
X15299206Y-14328484D01*
X15299206Y-14328484D02*
X15423015Y-14328484D01*
X15661110Y-14328484D02*
X15661110Y-14128484D01*
X15746825Y-14328484D02*
X15746825Y-14223722D01*
X15746825Y-14223722D02*
X15737301Y-14204674D01*
X15737301Y-14204674D02*
X15718253Y-14195150D01*
X15718253Y-14195150D02*
X15689682Y-14195150D01*
X15689682Y-14195150D02*
X15670634Y-14204674D01*
X15670634Y-14204674D02*
X15661110Y-14214198D01*
X15870634Y-14328484D02*
X15851587Y-14318960D01*
X15851587Y-14318960D02*
X15842063Y-14309436D01*
X15842063Y-14309436D02*
X15832539Y-14290388D01*
X15832539Y-14290388D02*
X15832539Y-14233246D01*
X15832539Y-14233246D02*
X15842063Y-14214198D01*
X15842063Y-14214198D02*
X15851587Y-14204674D01*
X15851587Y-14204674D02*
X15870634Y-14195150D01*
X15870634Y-14195150D02*
X15899206Y-14195150D01*
X15899206Y-14195150D02*
X15918253Y-14204674D01*
X15918253Y-14204674D02*
X15927777Y-14214198D01*
X15927777Y-14214198D02*
X15937301Y-14233246D01*
X15937301Y-14233246D02*
X15937301Y-14290388D01*
X15937301Y-14290388D02*
X15927777Y-14309436D01*
X15927777Y-14309436D02*
X15918253Y-14318960D01*
X15918253Y-14318960D02*
X15899206Y-14328484D01*
X15899206Y-14328484D02*
X15870634Y-14328484D01*
X16051587Y-14328484D02*
X16032539Y-14318960D01*
X16032539Y-14318960D02*
X16023015Y-14299912D01*
X16023015Y-14299912D02*
X16023015Y-14128484D01*
X16203968Y-14318960D02*
X16184920Y-14328484D01*
X16184920Y-14328484D02*
X16146825Y-14328484D01*
X16146825Y-14328484D02*
X16127777Y-14318960D01*
X16127777Y-14318960D02*
X16118253Y-14299912D01*
X16118253Y-14299912D02*
X16118253Y-14223722D01*
X16118253Y-14223722D02*
X16127777Y-14204674D01*
X16127777Y-14204674D02*
X16146825Y-14195150D01*
X16146825Y-14195150D02*
X16184920Y-14195150D01*
X16184920Y-14195150D02*
X16203968Y-14204674D01*
X16203968Y-14204674D02*
X16213491Y-14223722D01*
X16213491Y-14223722D02*
X16213491Y-14242769D01*
X16213491Y-14242769D02*
X16118253Y-14261817D01*
X16289682Y-14318960D02*
X16308730Y-14328484D01*
X16308730Y-14328484D02*
X16346825Y-14328484D01*
X16346825Y-14328484D02*
X16365872Y-14318960D01*
X16365872Y-14318960D02*
X16375396Y-14299912D01*
X16375396Y-14299912D02*
X16375396Y-14290388D01*
X16375396Y-14290388D02*
X16365872Y-14271341D01*
X16365872Y-14271341D02*
X16346825Y-14261817D01*
X16346825Y-14261817D02*
X16318253Y-14261817D01*
X16318253Y-14261817D02*
X16299206Y-14252293D01*
X16299206Y-14252293D02*
X16289682Y-14233246D01*
X16289682Y-14233246D02*
X16289682Y-14223722D01*
X16289682Y-14223722D02*
X16299206Y-14204674D01*
X16299206Y-14204674D02*
X16318253Y-14195150D01*
X16318253Y-14195150D02*
X16346825Y-14195150D01*
X16346825Y-14195150D02*
X16365872Y-14204674D01*
X16442063Y-14404674D02*
X16451587Y-14395150D01*
X16451587Y-14395150D02*
X16470634Y-14366579D01*
X16470634Y-14366579D02*
X16480158Y-14347531D01*
X16480158Y-14347531D02*
X16489682Y-14318960D01*
X16489682Y-14318960D02*
X16499206Y-14271341D01*
X16499206Y-14271341D02*
X16499206Y-14233246D01*
X16499206Y-14233246D02*
X16489682Y-14185627D01*
X16489682Y-14185627D02*
X16480158Y-14157055D01*
X16480158Y-14157055D02*
X16470634Y-14138008D01*
X16470634Y-14138008D02*
X16451587Y-14109436D01*
X16451587Y-14109436D02*
X16442063Y-14099912D01*
D15*
X11617000Y-14551000D02*
X11667000Y-14501000D01*
X11617000Y-14451000D01*
X11567000Y-14501000D01*
X11617000Y-14551000D01*
D10*
X12032539Y-14592484D02*
X11918253Y-14592484D01*
X11975396Y-14592484D02*
X11975396Y-14392484D01*
X11975396Y-14392484D02*
X11956348Y-14421055D01*
X11956348Y-14421055D02*
X11937301Y-14440103D01*
X11937301Y-14440103D02*
X11918253Y-14449627D01*
X12118253Y-14573436D02*
X12127777Y-14582960D01*
X12127777Y-14582960D02*
X12118253Y-14592484D01*
X12118253Y-14592484D02*
X12108729Y-14582960D01*
X12108729Y-14582960D02*
X12118253Y-14573436D01*
X12118253Y-14573436D02*
X12118253Y-14592484D01*
X12251586Y-14392484D02*
X12270634Y-14392484D01*
X12270634Y-14392484D02*
X12289682Y-14402008D01*
X12289682Y-14402008D02*
X12299205Y-14411531D01*
X12299205Y-14411531D02*
X12308729Y-14430579D01*
X12308729Y-14430579D02*
X12318253Y-14468674D01*
X12318253Y-14468674D02*
X12318253Y-14516293D01*
X12318253Y-14516293D02*
X12308729Y-14554388D01*
X12308729Y-14554388D02*
X12299205Y-14573436D01*
X12299205Y-14573436D02*
X12289682Y-14582960D01*
X12289682Y-14582960D02*
X12270634Y-14592484D01*
X12270634Y-14592484D02*
X12251586Y-14592484D01*
X12251586Y-14592484D02*
X12232539Y-14582960D01*
X12232539Y-14582960D02*
X12223015Y-14573436D01*
X12223015Y-14573436D02*
X12213491Y-14554388D01*
X12213491Y-14554388D02*
X12203967Y-14516293D01*
X12203967Y-14516293D02*
X12203967Y-14468674D01*
X12203967Y-14468674D02*
X12213491Y-14430579D01*
X12213491Y-14430579D02*
X12223015Y-14411531D01*
X12223015Y-14411531D02*
X12232539Y-14402008D01*
X12232539Y-14402008D02*
X12251586Y-14392484D01*
X12442062Y-14392484D02*
X12461110Y-14392484D01*
X12461110Y-14392484D02*
X12480158Y-14402008D01*
X12480158Y-14402008D02*
X12489682Y-14411531D01*
X12489682Y-14411531D02*
X12499205Y-14430579D01*
X12499205Y-14430579D02*
X12508729Y-14468674D01*
X12508729Y-14468674D02*
X12508729Y-14516293D01*
X12508729Y-14516293D02*
X12499205Y-14554388D01*
X12499205Y-14554388D02*
X12489682Y-14573436D01*
X12489682Y-14573436D02*
X12480158Y-14582960D01*
X12480158Y-14582960D02*
X12461110Y-14592484D01*
X12461110Y-14592484D02*
X12442062Y-14592484D01*
X12442062Y-14592484D02*
X12423015Y-14582960D01*
X12423015Y-14582960D02*
X12413491Y-14573436D01*
X12413491Y-14573436D02*
X12403967Y-14554388D01*
X12403967Y-14554388D02*
X12394443Y-14516293D01*
X12394443Y-14516293D02*
X12394443Y-14468674D01*
X12394443Y-14468674D02*
X12403967Y-14430579D01*
X12403967Y-14430579D02*
X12413491Y-14411531D01*
X12413491Y-14411531D02*
X12423015Y-14402008D01*
X12423015Y-14402008D02*
X12442062Y-14392484D01*
X12632539Y-14392484D02*
X12651586Y-14392484D01*
X12651586Y-14392484D02*
X12670634Y-14402008D01*
X12670634Y-14402008D02*
X12680158Y-14411531D01*
X12680158Y-14411531D02*
X12689682Y-14430579D01*
X12689682Y-14430579D02*
X12699205Y-14468674D01*
X12699205Y-14468674D02*
X12699205Y-14516293D01*
X12699205Y-14516293D02*
X12689682Y-14554388D01*
X12689682Y-14554388D02*
X12680158Y-14573436D01*
X12680158Y-14573436D02*
X12670634Y-14582960D01*
X12670634Y-14582960D02*
X12651586Y-14592484D01*
X12651586Y-14592484D02*
X12632539Y-14592484D01*
X12632539Y-14592484D02*
X12613491Y-14582960D01*
X12613491Y-14582960D02*
X12603967Y-14573436D01*
X12603967Y-14573436D02*
X12594443Y-14554388D01*
X12594443Y-14554388D02*
X12584920Y-14516293D01*
X12584920Y-14516293D02*
X12584920Y-14468674D01*
X12584920Y-14468674D02*
X12594443Y-14430579D01*
X12594443Y-14430579D02*
X12603967Y-14411531D01*
X12603967Y-14411531D02*
X12613491Y-14402008D01*
X12613491Y-14402008D02*
X12632539Y-14392484D01*
X12784920Y-14592484D02*
X12784920Y-14459150D01*
X12784920Y-14478198D02*
X12794443Y-14468674D01*
X12794443Y-14468674D02*
X12813491Y-14459150D01*
X12813491Y-14459150D02*
X12842063Y-14459150D01*
X12842063Y-14459150D02*
X12861110Y-14468674D01*
X12861110Y-14468674D02*
X12870634Y-14487722D01*
X12870634Y-14487722D02*
X12870634Y-14592484D01*
X12870634Y-14487722D02*
X12880158Y-14468674D01*
X12880158Y-14468674D02*
X12899205Y-14459150D01*
X12899205Y-14459150D02*
X12927777Y-14459150D01*
X12927777Y-14459150D02*
X12946824Y-14468674D01*
X12946824Y-14468674D02*
X12956348Y-14487722D01*
X12956348Y-14487722D02*
X12956348Y-14592484D01*
X13051586Y-14592484D02*
X13051586Y-14459150D01*
X13051586Y-14478198D02*
X13061110Y-14468674D01*
X13061110Y-14468674D02*
X13080158Y-14459150D01*
X13080158Y-14459150D02*
X13108729Y-14459150D01*
X13108729Y-14459150D02*
X13127777Y-14468674D01*
X13127777Y-14468674D02*
X13137301Y-14487722D01*
X13137301Y-14487722D02*
X13137301Y-14592484D01*
X13137301Y-14487722D02*
X13146824Y-14468674D01*
X13146824Y-14468674D02*
X13165872Y-14459150D01*
X13165872Y-14459150D02*
X13194443Y-14459150D01*
X13194443Y-14459150D02*
X13213491Y-14468674D01*
X13213491Y-14468674D02*
X13223015Y-14487722D01*
X13223015Y-14487722D02*
X13223015Y-14592484D01*
X13613491Y-14382960D02*
X13442063Y-14640103D01*
X13870634Y-14392484D02*
X13889682Y-14392484D01*
X13889682Y-14392484D02*
X13908729Y-14402008D01*
X13908729Y-14402008D02*
X13918253Y-14411531D01*
X13918253Y-14411531D02*
X13927777Y-14430579D01*
X13927777Y-14430579D02*
X13937301Y-14468674D01*
X13937301Y-14468674D02*
X13937301Y-14516293D01*
X13937301Y-14516293D02*
X13927777Y-14554388D01*
X13927777Y-14554388D02*
X13918253Y-14573436D01*
X13918253Y-14573436D02*
X13908729Y-14582960D01*
X13908729Y-14582960D02*
X13889682Y-14592484D01*
X13889682Y-14592484D02*
X13870634Y-14592484D01*
X13870634Y-14592484D02*
X13851586Y-14582960D01*
X13851586Y-14582960D02*
X13842063Y-14573436D01*
X13842063Y-14573436D02*
X13832539Y-14554388D01*
X13832539Y-14554388D02*
X13823015Y-14516293D01*
X13823015Y-14516293D02*
X13823015Y-14468674D01*
X13823015Y-14468674D02*
X13832539Y-14430579D01*
X13832539Y-14430579D02*
X13842063Y-14411531D01*
X13842063Y-14411531D02*
X13851586Y-14402008D01*
X13851586Y-14402008D02*
X13870634Y-14392484D01*
X14023015Y-14573436D02*
X14032539Y-14582960D01*
X14032539Y-14582960D02*
X14023015Y-14592484D01*
X14023015Y-14592484D02*
X14013491Y-14582960D01*
X14013491Y-14582960D02*
X14023015Y-14573436D01*
X14023015Y-14573436D02*
X14023015Y-14592484D01*
X14156348Y-14392484D02*
X14175396Y-14392484D01*
X14175396Y-14392484D02*
X14194444Y-14402008D01*
X14194444Y-14402008D02*
X14203967Y-14411531D01*
X14203967Y-14411531D02*
X14213491Y-14430579D01*
X14213491Y-14430579D02*
X14223015Y-14468674D01*
X14223015Y-14468674D02*
X14223015Y-14516293D01*
X14223015Y-14516293D02*
X14213491Y-14554388D01*
X14213491Y-14554388D02*
X14203967Y-14573436D01*
X14203967Y-14573436D02*
X14194444Y-14582960D01*
X14194444Y-14582960D02*
X14175396Y-14592484D01*
X14175396Y-14592484D02*
X14156348Y-14592484D01*
X14156348Y-14592484D02*
X14137301Y-14582960D01*
X14137301Y-14582960D02*
X14127777Y-14573436D01*
X14127777Y-14573436D02*
X14118253Y-14554388D01*
X14118253Y-14554388D02*
X14108729Y-14516293D01*
X14108729Y-14516293D02*
X14108729Y-14468674D01*
X14108729Y-14468674D02*
X14118253Y-14430579D01*
X14118253Y-14430579D02*
X14127777Y-14411531D01*
X14127777Y-14411531D02*
X14137301Y-14402008D01*
X14137301Y-14402008D02*
X14156348Y-14392484D01*
X14289682Y-14392484D02*
X14413491Y-14392484D01*
X14413491Y-14392484D02*
X14346825Y-14468674D01*
X14346825Y-14468674D02*
X14375396Y-14468674D01*
X14375396Y-14468674D02*
X14394444Y-14478198D01*
X14394444Y-14478198D02*
X14403967Y-14487722D01*
X14403967Y-14487722D02*
X14413491Y-14506769D01*
X14413491Y-14506769D02*
X14413491Y-14554388D01*
X14413491Y-14554388D02*
X14403967Y-14573436D01*
X14403967Y-14573436D02*
X14394444Y-14582960D01*
X14394444Y-14582960D02*
X14375396Y-14592484D01*
X14375396Y-14592484D02*
X14318253Y-14592484D01*
X14318253Y-14592484D02*
X14299206Y-14582960D01*
X14299206Y-14582960D02*
X14289682Y-14573436D01*
X14508729Y-14592484D02*
X14546825Y-14592484D01*
X14546825Y-14592484D02*
X14565872Y-14582960D01*
X14565872Y-14582960D02*
X14575396Y-14573436D01*
X14575396Y-14573436D02*
X14594444Y-14544865D01*
X14594444Y-14544865D02*
X14603967Y-14506769D01*
X14603967Y-14506769D02*
X14603967Y-14430579D01*
X14603967Y-14430579D02*
X14594444Y-14411531D01*
X14594444Y-14411531D02*
X14584920Y-14402008D01*
X14584920Y-14402008D02*
X14565872Y-14392484D01*
X14565872Y-14392484D02*
X14527777Y-14392484D01*
X14527777Y-14392484D02*
X14508729Y-14402008D01*
X14508729Y-14402008D02*
X14499206Y-14411531D01*
X14499206Y-14411531D02*
X14489682Y-14430579D01*
X14489682Y-14430579D02*
X14489682Y-14478198D01*
X14489682Y-14478198D02*
X14499206Y-14497246D01*
X14499206Y-14497246D02*
X14508729Y-14506769D01*
X14508729Y-14506769D02*
X14527777Y-14516293D01*
X14527777Y-14516293D02*
X14565872Y-14516293D01*
X14565872Y-14516293D02*
X14584920Y-14506769D01*
X14584920Y-14506769D02*
X14594444Y-14497246D01*
X14594444Y-14497246D02*
X14603967Y-14478198D01*
X14775396Y-14459150D02*
X14775396Y-14592484D01*
X14727777Y-14382960D02*
X14680158Y-14525817D01*
X14680158Y-14525817D02*
X14803967Y-14525817D01*
X14870634Y-14392484D02*
X14870634Y-14430579D01*
X14946825Y-14392484D02*
X14946825Y-14430579D01*
X15242063Y-14668674D02*
X15232539Y-14659150D01*
X15232539Y-14659150D02*
X15213491Y-14630579D01*
X15213491Y-14630579D02*
X15203968Y-14611531D01*
X15203968Y-14611531D02*
X15194444Y-14582960D01*
X15194444Y-14582960D02*
X15184920Y-14535341D01*
X15184920Y-14535341D02*
X15184920Y-14497246D01*
X15184920Y-14497246D02*
X15194444Y-14449627D01*
X15194444Y-14449627D02*
X15203968Y-14421055D01*
X15203968Y-14421055D02*
X15213491Y-14402008D01*
X15213491Y-14402008D02*
X15232539Y-14373436D01*
X15232539Y-14373436D02*
X15242063Y-14363912D01*
X15403968Y-14459150D02*
X15403968Y-14592484D01*
X15356348Y-14382960D02*
X15308729Y-14525817D01*
X15308729Y-14525817D02*
X15432539Y-14525817D01*
X15661110Y-14592484D02*
X15661110Y-14392484D01*
X15746825Y-14592484D02*
X15746825Y-14487722D01*
X15746825Y-14487722D02*
X15737301Y-14468674D01*
X15737301Y-14468674D02*
X15718253Y-14459150D01*
X15718253Y-14459150D02*
X15689682Y-14459150D01*
X15689682Y-14459150D02*
X15670634Y-14468674D01*
X15670634Y-14468674D02*
X15661110Y-14478198D01*
X15870634Y-14592484D02*
X15851587Y-14582960D01*
X15851587Y-14582960D02*
X15842063Y-14573436D01*
X15842063Y-14573436D02*
X15832539Y-14554388D01*
X15832539Y-14554388D02*
X15832539Y-14497246D01*
X15832539Y-14497246D02*
X15842063Y-14478198D01*
X15842063Y-14478198D02*
X15851587Y-14468674D01*
X15851587Y-14468674D02*
X15870634Y-14459150D01*
X15870634Y-14459150D02*
X15899206Y-14459150D01*
X15899206Y-14459150D02*
X15918253Y-14468674D01*
X15918253Y-14468674D02*
X15927777Y-14478198D01*
X15927777Y-14478198D02*
X15937301Y-14497246D01*
X15937301Y-14497246D02*
X15937301Y-14554388D01*
X15937301Y-14554388D02*
X15927777Y-14573436D01*
X15927777Y-14573436D02*
X15918253Y-14582960D01*
X15918253Y-14582960D02*
X15899206Y-14592484D01*
X15899206Y-14592484D02*
X15870634Y-14592484D01*
X16051587Y-14592484D02*
X16032539Y-14582960D01*
X16032539Y-14582960D02*
X16023015Y-14563912D01*
X16023015Y-14563912D02*
X16023015Y-14392484D01*
X16203968Y-14582960D02*
X16184920Y-14592484D01*
X16184920Y-14592484D02*
X16146825Y-14592484D01*
X16146825Y-14592484D02*
X16127777Y-14582960D01*
X16127777Y-14582960D02*
X16118253Y-14563912D01*
X16118253Y-14563912D02*
X16118253Y-14487722D01*
X16118253Y-14487722D02*
X16127777Y-14468674D01*
X16127777Y-14468674D02*
X16146825Y-14459150D01*
X16146825Y-14459150D02*
X16184920Y-14459150D01*
X16184920Y-14459150D02*
X16203968Y-14468674D01*
X16203968Y-14468674D02*
X16213491Y-14487722D01*
X16213491Y-14487722D02*
X16213491Y-14506769D01*
X16213491Y-14506769D02*
X16118253Y-14525817D01*
X16289682Y-14582960D02*
X16308730Y-14592484D01*
X16308730Y-14592484D02*
X16346825Y-14592484D01*
X16346825Y-14592484D02*
X16365872Y-14582960D01*
X16365872Y-14582960D02*
X16375396Y-14563912D01*
X16375396Y-14563912D02*
X16375396Y-14554388D01*
X16375396Y-14554388D02*
X16365872Y-14535341D01*
X16365872Y-14535341D02*
X16346825Y-14525817D01*
X16346825Y-14525817D02*
X16318253Y-14525817D01*
X16318253Y-14525817D02*
X16299206Y-14516293D01*
X16299206Y-14516293D02*
X16289682Y-14497246D01*
X16289682Y-14497246D02*
X16289682Y-14487722D01*
X16289682Y-14487722D02*
X16299206Y-14468674D01*
X16299206Y-14468674D02*
X16318253Y-14459150D01*
X16318253Y-14459150D02*
X16346825Y-14459150D01*
X16346825Y-14459150D02*
X16365872Y-14468674D01*
X16613492Y-14516293D02*
X16765873Y-14516293D01*
X16689682Y-14592484D02*
X16689682Y-14440103D01*
X17003968Y-14411531D02*
X17013492Y-14402008D01*
X17013492Y-14402008D02*
X17032539Y-14392484D01*
X17032539Y-14392484D02*
X17080158Y-14392484D01*
X17080158Y-14392484D02*
X17099206Y-14402008D01*
X17099206Y-14402008D02*
X17108730Y-14411531D01*
X17108730Y-14411531D02*
X17118254Y-14430579D01*
X17118254Y-14430579D02*
X17118254Y-14449627D01*
X17118254Y-14449627D02*
X17108730Y-14478198D01*
X17108730Y-14478198D02*
X16994444Y-14592484D01*
X16994444Y-14592484D02*
X17118254Y-14592484D01*
X17242063Y-14392484D02*
X17261111Y-14392484D01*
X17261111Y-14392484D02*
X17280158Y-14402008D01*
X17280158Y-14402008D02*
X17289682Y-14411531D01*
X17289682Y-14411531D02*
X17299206Y-14430579D01*
X17299206Y-14430579D02*
X17308730Y-14468674D01*
X17308730Y-14468674D02*
X17308730Y-14516293D01*
X17308730Y-14516293D02*
X17299206Y-14554388D01*
X17299206Y-14554388D02*
X17289682Y-14573436D01*
X17289682Y-14573436D02*
X17280158Y-14582960D01*
X17280158Y-14582960D02*
X17261111Y-14592484D01*
X17261111Y-14592484D02*
X17242063Y-14592484D01*
X17242063Y-14592484D02*
X17223015Y-14582960D01*
X17223015Y-14582960D02*
X17213492Y-14573436D01*
X17213492Y-14573436D02*
X17203968Y-14554388D01*
X17203968Y-14554388D02*
X17194444Y-14516293D01*
X17194444Y-14516293D02*
X17194444Y-14468674D01*
X17194444Y-14468674D02*
X17203968Y-14430579D01*
X17203968Y-14430579D02*
X17213492Y-14411531D01*
X17213492Y-14411531D02*
X17223015Y-14402008D01*
X17223015Y-14402008D02*
X17242063Y-14392484D01*
X17537301Y-14582960D02*
X17556349Y-14592484D01*
X17556349Y-14592484D02*
X17594444Y-14592484D01*
X17594444Y-14592484D02*
X17613492Y-14582960D01*
X17613492Y-14582960D02*
X17623016Y-14563912D01*
X17623016Y-14563912D02*
X17623016Y-14554388D01*
X17623016Y-14554388D02*
X17613492Y-14535341D01*
X17613492Y-14535341D02*
X17594444Y-14525817D01*
X17594444Y-14525817D02*
X17565873Y-14525817D01*
X17565873Y-14525817D02*
X17546825Y-14516293D01*
X17546825Y-14516293D02*
X17537301Y-14497246D01*
X17537301Y-14497246D02*
X17537301Y-14487722D01*
X17537301Y-14487722D02*
X17546825Y-14468674D01*
X17546825Y-14468674D02*
X17565873Y-14459150D01*
X17565873Y-14459150D02*
X17594444Y-14459150D01*
X17594444Y-14459150D02*
X17613492Y-14468674D01*
X17737301Y-14592484D02*
X17718254Y-14582960D01*
X17718254Y-14582960D02*
X17708730Y-14563912D01*
X17708730Y-14563912D02*
X17708730Y-14392484D01*
X17842063Y-14592484D02*
X17823016Y-14582960D01*
X17823016Y-14582960D02*
X17813492Y-14573436D01*
X17813492Y-14573436D02*
X17803968Y-14554388D01*
X17803968Y-14554388D02*
X17803968Y-14497246D01*
X17803968Y-14497246D02*
X17813492Y-14478198D01*
X17813492Y-14478198D02*
X17823016Y-14468674D01*
X17823016Y-14468674D02*
X17842063Y-14459150D01*
X17842063Y-14459150D02*
X17870635Y-14459150D01*
X17870635Y-14459150D02*
X17889682Y-14468674D01*
X17889682Y-14468674D02*
X17899206Y-14478198D01*
X17899206Y-14478198D02*
X17908730Y-14497246D01*
X17908730Y-14497246D02*
X17908730Y-14554388D01*
X17908730Y-14554388D02*
X17899206Y-14573436D01*
X17899206Y-14573436D02*
X17889682Y-14582960D01*
X17889682Y-14582960D02*
X17870635Y-14592484D01*
X17870635Y-14592484D02*
X17842063Y-14592484D01*
X17965873Y-14459150D02*
X18042063Y-14459150D01*
X17994444Y-14392484D02*
X17994444Y-14563912D01*
X17994444Y-14563912D02*
X18003968Y-14582960D01*
X18003968Y-14582960D02*
X18023016Y-14592484D01*
X18023016Y-14592484D02*
X18042063Y-14592484D01*
X18099206Y-14582960D02*
X18118254Y-14592484D01*
X18118254Y-14592484D02*
X18156349Y-14592484D01*
X18156349Y-14592484D02*
X18175397Y-14582960D01*
X18175397Y-14582960D02*
X18184920Y-14563912D01*
X18184920Y-14563912D02*
X18184920Y-14554388D01*
X18184920Y-14554388D02*
X18175397Y-14535341D01*
X18175397Y-14535341D02*
X18156349Y-14525817D01*
X18156349Y-14525817D02*
X18127777Y-14525817D01*
X18127777Y-14525817D02*
X18108730Y-14516293D01*
X18108730Y-14516293D02*
X18099206Y-14497246D01*
X18099206Y-14497246D02*
X18099206Y-14487722D01*
X18099206Y-14487722D02*
X18108730Y-14468674D01*
X18108730Y-14468674D02*
X18127777Y-14459150D01*
X18127777Y-14459150D02*
X18156349Y-14459150D01*
X18156349Y-14459150D02*
X18175397Y-14468674D01*
X18251587Y-14668674D02*
X18261111Y-14659150D01*
X18261111Y-14659150D02*
X18280158Y-14630579D01*
X18280158Y-14630579D02*
X18289682Y-14611531D01*
X18289682Y-14611531D02*
X18299206Y-14582960D01*
X18299206Y-14582960D02*
X18308730Y-14535341D01*
X18308730Y-14535341D02*
X18308730Y-14497246D01*
X18308730Y-14497246D02*
X18299206Y-14449627D01*
X18299206Y-14449627D02*
X18289682Y-14421055D01*
X18289682Y-14421055D02*
X18280158Y-14402008D01*
X18280158Y-14402008D02*
X18261111Y-14373436D01*
X18261111Y-14373436D02*
X18251587Y-14363912D01*
M02*
