M48
; DRILL file {KiCad 7.0.8} date Tue Dec  5 20:53:13 2023
; FORMAT={-:-/ absolute / inch / decimal}
; #@! TF.CreationDate,2023-12-05T20:53:13+01:00
; #@! TF.GenerationSoftware,Kicad,Pcbnew,7.0.8
; #@! TF.FileFunction,Plated,1,2,PTH
FMAT,2
INCH
; #@! TA.AperFunction,Plated,PTH,ViaDrill
T1C0.0039
; #@! TA.AperFunction,Plated,PTH,ViaDrill
T2C0.0157
; #@! TA.AperFunction,Plated,PTH,ComponentDrill
T3C0.0236
; #@! TA.AperFunction,Plated,PTH,ComponentDrill
T4C0.0295
; #@! TA.AperFunction,Plated,PTH,ComponentDrill
T5C0.0394
%
G90
G05
T1
X5.17Y-3.81
X5.215Y-3.875
X5.26Y-3.72
X5.32Y-3.77
X5.82Y-3.6292
X5.82Y-3.6508
X5.84Y-3.69
X5.84Y-3.73
X5.923Y-3.7848
X5.983Y-3.7848
X6.01Y-4.08
X6.02Y-3.93
X6.02Y-3.98
X6.03Y-3.6292
X6.03Y-3.6489
X6.03Y-3.69
X6.03Y-3.73
X6.09Y-4.05
X6.1913Y-3.77
X6.23Y-3.77
X6.32Y-3.75
X6.32Y-3.9
X6.32Y-4.05
X6.32Y-4.08
X6.339Y-3.77
X6.34Y-3.92
X6.59Y-3.6292
X6.59Y-3.6508
X6.6Y-3.69
X6.6Y-3.73
X6.753Y-3.6292
X6.753Y-3.6508
X6.76Y-4.32
X7.01Y-4.51
X7.19Y-3.72
X7.25Y-3.65
T2
X4.65Y-3.95
X4.65Y-4.07
X4.7Y-3.58
X4.71Y-4.03
X4.79Y-3.37
X4.79Y-4.19
X4.8Y-3.12
X4.82Y-3.58
X4.83Y-3.9
X4.92Y-4.12
X4.94Y-4.81
X4.96Y-3.47
X4.98Y-4.33
X5.0188Y-3.2209
X5.08Y-3.04
X5.09Y-4.09
X5.11Y-3.63
X5.12Y-3.81
X5.18Y-3.04
X5.2Y-4.0
X5.21Y-3.68
X5.22Y-4.31
X5.2215Y-3.3152
X5.23Y-4.51
X5.2447Y-3.2253
X5.35Y-3.88
X5.35Y-3.96
X5.35Y-4.11
X5.4Y-3.81
X5.43Y-3.07
X5.45Y-3.77
X5.463Y-4.0148
X5.47Y-4.24
X5.5Y-3.6
X5.51Y-3.7115
X5.533Y-3.8248
X5.55Y-3.47
X5.56Y-3.08
X5.56Y-4.82
X5.58Y-3.34
X5.6Y-3.77
X5.65Y-3.46
X5.66Y-4.24
X5.6751Y-3.28
X5.7Y-3.57
X5.76Y-3.04
X5.77Y-3.51
X5.79Y-3.2
X5.83Y-3.46
X5.83Y-4.24
X5.84Y-3.32
X5.853Y-4.1448
X5.87Y-3.53
X5.95Y-3.55
X5.95Y-4.47
X5.9655Y-4.01
X6.0Y-3.82
X6.0Y-4.24
X6.04Y-3.54
X6.05Y-3.19
X6.07Y-4.35
X6.11Y-3.54
X6.14Y-3.47
X6.15Y-3.34
X6.15Y-4.81
X6.16Y-3.52
X6.16Y-3.8894
X6.18Y-3.96
X6.21Y-3.53
X6.21Y-4.29
X6.23Y-3.26
X6.27Y-3.82
X6.29Y-3.18
X6.34Y-4.29
X6.37Y-3.12
X6.4Y-3.33
X6.4Y-3.45
X6.4Y-3.59
X6.45Y-4.2785
X6.45Y-4.51
X6.45Y-4.64
X6.45Y-4.79
X6.46Y-3.28
X6.46Y-3.803
X6.46Y-4.94
X6.47Y-3.11
X6.48Y-3.94
X6.49Y-3.59
X6.5Y-3.45
X6.55Y-4.27
X6.55Y-4.61
X6.57Y-3.27
X6.59Y-4.46
X6.6Y-3.42
X6.6Y-3.58
X6.61Y-3.83
X6.62Y-4.27
X6.67Y-3.05
X6.71Y-3.42
X6.74Y-3.12
X6.74Y-3.22
X6.74Y-4.81
X6.78Y-2.96
X6.78Y-3.29
X6.79Y-3.77
X6.79Y-3.93
X6.79Y-4.08
X6.8Y-3.17
X6.82Y-4.46
X6.84Y-3.35
X6.86Y-3.12
X6.86Y-3.22
X6.86Y-3.65
X6.95Y-3.14
X6.98Y-4.08
X7.01Y-4.7
X7.02Y-4.86
X7.06Y-3.28
X7.06Y-3.65
X7.07Y-4.46
X7.08Y-3.04
X7.15Y-2.96
X7.15Y-4.08
X7.18Y-4.35
X7.2Y-4.59
X7.22Y-3.24
X7.22Y-3.31
X7.22Y-3.37
X7.22Y-3.42
X7.33Y-4.08
X7.34Y-3.65
X7.35Y-3.21
X7.3559Y-3.49
X7.38Y-4.33
X7.4Y-4.56
X7.41Y-4.8
X7.42Y-3.03
X7.42Y-3.4
X7.43Y-4.16
X7.44Y-3.3
X7.45Y-3.21
X7.48Y-3.51
X7.49Y-4.33
X7.54Y-3.28
X7.58Y-4.32
X7.61Y-4.56
T4
X4.8765Y-3.7106
X4.8765Y-3.7894
T5
X7.2496Y-4.425
X7.3496Y-4.425
X7.4496Y-4.425
X7.5496Y-4.425
T3
G00X4.9549Y-2.9984
M15
G01X4.9549Y-2.9669
M16
G05
G00X4.9549Y-3.1689
M15
G01X4.9549Y-3.1256
M16
G05
G00X5.2951Y-2.9984
M15
G01X5.2951Y-2.9669
M16
G05
G00X5.2951Y-3.1689
M15
G01X5.2951Y-3.1256
M16
G05
T5
G00X4.8201Y-4.5854
M15
G01X4.8201Y-4.5578
M16
G05
G00X4.8201Y-4.9003
M15
G01X4.8201Y-4.8728
M16
G05
G00X4.9638Y-4.5401
M15
G01X4.9362Y-4.5401
M16
G05
G00X5.0799Y-4.5854
M15
G01X5.0799Y-4.5578
M16
G05
G00X5.0799Y-4.9003
M15
G01X5.0799Y-4.8728
M16
G05
G00X5.4301Y-4.5854
M15
G01X5.4301Y-4.5578
M16
G05
G00X5.4301Y-4.9003
M15
G01X5.4301Y-4.8728
M16
G05
G00X5.5738Y-4.5401
M15
G01X5.5462Y-4.5401
M16
G05
G00X5.6899Y-4.5854
M15
G01X5.6899Y-4.5578
M16
G05
G00X5.6899Y-4.9003
M15
G01X5.6899Y-4.8728
M16
G05
G00X6.0201Y-4.5854
M15
G01X6.0201Y-4.5578
M16
G05
G00X6.0201Y-4.9003
M15
G01X6.0201Y-4.8728
M16
G05
G00X6.1638Y-4.5401
M15
G01X6.1362Y-4.5401
M16
G05
G00X6.2799Y-4.5854
M15
G01X6.2799Y-4.5578
M16
G05
G00X6.2799Y-4.9003
M15
G01X6.2799Y-4.8728
M16
G05
G00X6.6201Y-4.5854
M15
G01X6.6201Y-4.5578
M16
G05
G00X6.6201Y-4.9003
M15
G01X6.6201Y-4.8728
M16
G05
G00X6.7638Y-4.5401
M15
G01X6.7362Y-4.5401
M16
G05
G00X6.8799Y-4.5854
M15
G01X6.8799Y-4.5578
M16
G05
G00X6.8799Y-4.9003
M15
G01X6.8799Y-4.8728
M16
G05
T0
M30
