%TF.GenerationSoftware,KiCad,Pcbnew,7.0.8*%
%TF.CreationDate,2023-12-05T20:53:18+01:00*%
%TF.ProjectId,HM_mainboard,484d5f6d-6169-46e6-926f-6172642e6b69,rev?*%
%TF.SameCoordinates,Original*%
%TF.FileFunction,Drillmap*%
%TF.FilePolarity,Positive*%
%FSLAX45Y45*%
G04 Gerber Fmt 4.5, Leading zero omitted, Abs format (unit mm)*
G04 Created by KiCad (PCBNEW 7.0.8) date 2023-12-05 20:53:18*
%MOMM*%
%LPD*%
G01*
G04 APERTURE LIST*
%ADD10C,0.200000*%
%ADD11C,0.065000*%
%ADD12C,0.120000*%
G04 APERTURE END LIST*
D10*
X11677000Y-7295000D02*
X19677000Y-7295000D01*
X19677000Y-12795000D01*
X11677000Y-12795000D01*
X11677000Y-7295000D01*
D11*
X12696000Y-7911500D02*
X12761000Y-7976500D01*
X12761000Y-7911500D02*
X12696000Y-7976500D01*
X13274000Y-7911500D02*
X13339000Y-7976500D01*
X13339000Y-7911500D02*
X13274000Y-7976500D01*
D12*
X12633000Y-11861800D02*
G75*
G03*
X12633000Y-11861800I-60000J0D01*
G01*
X12633000Y-12561800D02*
G75*
G03*
X12633000Y-12561800I-60000J0D01*
G01*
X14182400Y-11861800D02*
G75*
G03*
X14182400Y-11861800I-60000J0D01*
G01*
X14182400Y-12561800D02*
G75*
G03*
X14182400Y-12561800I-60000J0D01*
G01*
X15288500Y-7588000D02*
G75*
G03*
X15288500Y-7588000I-60000J0D01*
G01*
X15588500Y-7588000D02*
G75*
G03*
X15588500Y-7588000I-60000J0D01*
G01*
X15681000Y-11861800D02*
G75*
G03*
X15681000Y-11861800I-60000J0D01*
G01*
X15681000Y-12561800D02*
G75*
G03*
X15681000Y-12561800I-60000J0D01*
G01*
X17205000Y-11861800D02*
G75*
G03*
X17205000Y-11861800I-60000J0D01*
G01*
X17205000Y-12561800D02*
G75*
G03*
X17205000Y-12561800I-60000J0D01*
G01*
D10*
X11927777Y-13116484D02*
X11927777Y-12916484D01*
X11927777Y-12916484D02*
X11975396Y-12916484D01*
X11975396Y-12916484D02*
X12003967Y-12926008D01*
X12003967Y-12926008D02*
X12023015Y-12945055D01*
X12023015Y-12945055D02*
X12032539Y-12964103D01*
X12032539Y-12964103D02*
X12042062Y-13002198D01*
X12042062Y-13002198D02*
X12042062Y-13030769D01*
X12042062Y-13030769D02*
X12032539Y-13068865D01*
X12032539Y-13068865D02*
X12023015Y-13087912D01*
X12023015Y-13087912D02*
X12003967Y-13106960D01*
X12003967Y-13106960D02*
X11975396Y-13116484D01*
X11975396Y-13116484D02*
X11927777Y-13116484D01*
X12127777Y-13116484D02*
X12127777Y-12983150D01*
X12127777Y-13021246D02*
X12137301Y-13002198D01*
X12137301Y-13002198D02*
X12146824Y-12992674D01*
X12146824Y-12992674D02*
X12165872Y-12983150D01*
X12165872Y-12983150D02*
X12184920Y-12983150D01*
X12251586Y-13116484D02*
X12251586Y-12983150D01*
X12251586Y-12916484D02*
X12242062Y-12926008D01*
X12242062Y-12926008D02*
X12251586Y-12935531D01*
X12251586Y-12935531D02*
X12261110Y-12926008D01*
X12261110Y-12926008D02*
X12251586Y-12916484D01*
X12251586Y-12916484D02*
X12251586Y-12935531D01*
X12375396Y-13116484D02*
X12356348Y-13106960D01*
X12356348Y-13106960D02*
X12346824Y-13087912D01*
X12346824Y-13087912D02*
X12346824Y-12916484D01*
X12480158Y-13116484D02*
X12461110Y-13106960D01*
X12461110Y-13106960D02*
X12451586Y-13087912D01*
X12451586Y-13087912D02*
X12451586Y-12916484D01*
X12708729Y-13116484D02*
X12708729Y-12916484D01*
X12708729Y-12916484D02*
X12775396Y-13059341D01*
X12775396Y-13059341D02*
X12842062Y-12916484D01*
X12842062Y-12916484D02*
X12842062Y-13116484D01*
X13023015Y-13116484D02*
X13023015Y-13011722D01*
X13023015Y-13011722D02*
X13013491Y-12992674D01*
X13013491Y-12992674D02*
X12994443Y-12983150D01*
X12994443Y-12983150D02*
X12956348Y-12983150D01*
X12956348Y-12983150D02*
X12937301Y-12992674D01*
X13023015Y-13106960D02*
X13003967Y-13116484D01*
X13003967Y-13116484D02*
X12956348Y-13116484D01*
X12956348Y-13116484D02*
X12937301Y-13106960D01*
X12937301Y-13106960D02*
X12927777Y-13087912D01*
X12927777Y-13087912D02*
X12927777Y-13068865D01*
X12927777Y-13068865D02*
X12937301Y-13049817D01*
X12937301Y-13049817D02*
X12956348Y-13040293D01*
X12956348Y-13040293D02*
X13003967Y-13040293D01*
X13003967Y-13040293D02*
X13023015Y-13030769D01*
X13118253Y-12983150D02*
X13118253Y-13183150D01*
X13118253Y-12992674D02*
X13137301Y-12983150D01*
X13137301Y-12983150D02*
X13175396Y-12983150D01*
X13175396Y-12983150D02*
X13194443Y-12992674D01*
X13194443Y-12992674D02*
X13203967Y-13002198D01*
X13203967Y-13002198D02*
X13213491Y-13021246D01*
X13213491Y-13021246D02*
X13213491Y-13078388D01*
X13213491Y-13078388D02*
X13203967Y-13097436D01*
X13203967Y-13097436D02*
X13194443Y-13106960D01*
X13194443Y-13106960D02*
X13175396Y-13116484D01*
X13175396Y-13116484D02*
X13137301Y-13116484D01*
X13137301Y-13116484D02*
X13118253Y-13106960D01*
X13299205Y-13097436D02*
X13308729Y-13106960D01*
X13308729Y-13106960D02*
X13299205Y-13116484D01*
X13299205Y-13116484D02*
X13289682Y-13106960D01*
X13289682Y-13106960D02*
X13299205Y-13097436D01*
X13299205Y-13097436D02*
X13299205Y-13116484D01*
X13299205Y-12992674D02*
X13308729Y-13002198D01*
X13308729Y-13002198D02*
X13299205Y-13011722D01*
X13299205Y-13011722D02*
X13289682Y-13002198D01*
X13289682Y-13002198D02*
X13299205Y-12992674D01*
X13299205Y-12992674D02*
X13299205Y-13011722D01*
D11*
X11602000Y-13412500D02*
X11667000Y-13477500D01*
X11667000Y-13412500D02*
X11602000Y-13477500D01*
D10*
X11965872Y-13336484D02*
X11984920Y-13336484D01*
X11984920Y-13336484D02*
X12003967Y-13346008D01*
X12003967Y-13346008D02*
X12013491Y-13355531D01*
X12013491Y-13355531D02*
X12023015Y-13374579D01*
X12023015Y-13374579D02*
X12032539Y-13412674D01*
X12032539Y-13412674D02*
X12032539Y-13460293D01*
X12032539Y-13460293D02*
X12023015Y-13498388D01*
X12023015Y-13498388D02*
X12013491Y-13517436D01*
X12013491Y-13517436D02*
X12003967Y-13526960D01*
X12003967Y-13526960D02*
X11984920Y-13536484D01*
X11984920Y-13536484D02*
X11965872Y-13536484D01*
X11965872Y-13536484D02*
X11946824Y-13526960D01*
X11946824Y-13526960D02*
X11937301Y-13517436D01*
X11937301Y-13517436D02*
X11927777Y-13498388D01*
X11927777Y-13498388D02*
X11918253Y-13460293D01*
X11918253Y-13460293D02*
X11918253Y-13412674D01*
X11918253Y-13412674D02*
X11927777Y-13374579D01*
X11927777Y-13374579D02*
X11937301Y-13355531D01*
X11937301Y-13355531D02*
X11946824Y-13346008D01*
X11946824Y-13346008D02*
X11965872Y-13336484D01*
X12118253Y-13517436D02*
X12127777Y-13526960D01*
X12127777Y-13526960D02*
X12118253Y-13536484D01*
X12118253Y-13536484D02*
X12108729Y-13526960D01*
X12108729Y-13526960D02*
X12118253Y-13517436D01*
X12118253Y-13517436D02*
X12118253Y-13536484D01*
X12299205Y-13336484D02*
X12261110Y-13336484D01*
X12261110Y-13336484D02*
X12242062Y-13346008D01*
X12242062Y-13346008D02*
X12232539Y-13355531D01*
X12232539Y-13355531D02*
X12213491Y-13384103D01*
X12213491Y-13384103D02*
X12203967Y-13422198D01*
X12203967Y-13422198D02*
X12203967Y-13498388D01*
X12203967Y-13498388D02*
X12213491Y-13517436D01*
X12213491Y-13517436D02*
X12223015Y-13526960D01*
X12223015Y-13526960D02*
X12242062Y-13536484D01*
X12242062Y-13536484D02*
X12280158Y-13536484D01*
X12280158Y-13536484D02*
X12299205Y-13526960D01*
X12299205Y-13526960D02*
X12308729Y-13517436D01*
X12308729Y-13517436D02*
X12318253Y-13498388D01*
X12318253Y-13498388D02*
X12318253Y-13450769D01*
X12318253Y-13450769D02*
X12308729Y-13431722D01*
X12308729Y-13431722D02*
X12299205Y-13422198D01*
X12299205Y-13422198D02*
X12280158Y-13412674D01*
X12280158Y-13412674D02*
X12242062Y-13412674D01*
X12242062Y-13412674D02*
X12223015Y-13422198D01*
X12223015Y-13422198D02*
X12213491Y-13431722D01*
X12213491Y-13431722D02*
X12203967Y-13450769D01*
X12499205Y-13336484D02*
X12403967Y-13336484D01*
X12403967Y-13336484D02*
X12394443Y-13431722D01*
X12394443Y-13431722D02*
X12403967Y-13422198D01*
X12403967Y-13422198D02*
X12423015Y-13412674D01*
X12423015Y-13412674D02*
X12470634Y-13412674D01*
X12470634Y-13412674D02*
X12489682Y-13422198D01*
X12489682Y-13422198D02*
X12499205Y-13431722D01*
X12499205Y-13431722D02*
X12508729Y-13450769D01*
X12508729Y-13450769D02*
X12508729Y-13498388D01*
X12508729Y-13498388D02*
X12499205Y-13517436D01*
X12499205Y-13517436D02*
X12489682Y-13526960D01*
X12489682Y-13526960D02*
X12470634Y-13536484D01*
X12470634Y-13536484D02*
X12423015Y-13536484D01*
X12423015Y-13536484D02*
X12403967Y-13526960D01*
X12403967Y-13526960D02*
X12394443Y-13517436D01*
X12632539Y-13336484D02*
X12651586Y-13336484D01*
X12651586Y-13336484D02*
X12670634Y-13346008D01*
X12670634Y-13346008D02*
X12680158Y-13355531D01*
X12680158Y-13355531D02*
X12689682Y-13374579D01*
X12689682Y-13374579D02*
X12699205Y-13412674D01*
X12699205Y-13412674D02*
X12699205Y-13460293D01*
X12699205Y-13460293D02*
X12689682Y-13498388D01*
X12689682Y-13498388D02*
X12680158Y-13517436D01*
X12680158Y-13517436D02*
X12670634Y-13526960D01*
X12670634Y-13526960D02*
X12651586Y-13536484D01*
X12651586Y-13536484D02*
X12632539Y-13536484D01*
X12632539Y-13536484D02*
X12613491Y-13526960D01*
X12613491Y-13526960D02*
X12603967Y-13517436D01*
X12603967Y-13517436D02*
X12594443Y-13498388D01*
X12594443Y-13498388D02*
X12584920Y-13460293D01*
X12584920Y-13460293D02*
X12584920Y-13412674D01*
X12584920Y-13412674D02*
X12594443Y-13374579D01*
X12594443Y-13374579D02*
X12603967Y-13355531D01*
X12603967Y-13355531D02*
X12613491Y-13346008D01*
X12613491Y-13346008D02*
X12632539Y-13336484D01*
X12784920Y-13536484D02*
X12784920Y-13403150D01*
X12784920Y-13422198D02*
X12794443Y-13412674D01*
X12794443Y-13412674D02*
X12813491Y-13403150D01*
X12813491Y-13403150D02*
X12842063Y-13403150D01*
X12842063Y-13403150D02*
X12861110Y-13412674D01*
X12861110Y-13412674D02*
X12870634Y-13431722D01*
X12870634Y-13431722D02*
X12870634Y-13536484D01*
X12870634Y-13431722D02*
X12880158Y-13412674D01*
X12880158Y-13412674D02*
X12899205Y-13403150D01*
X12899205Y-13403150D02*
X12927777Y-13403150D01*
X12927777Y-13403150D02*
X12946824Y-13412674D01*
X12946824Y-13412674D02*
X12956348Y-13431722D01*
X12956348Y-13431722D02*
X12956348Y-13536484D01*
X13051586Y-13536484D02*
X13051586Y-13403150D01*
X13051586Y-13422198D02*
X13061110Y-13412674D01*
X13061110Y-13412674D02*
X13080158Y-13403150D01*
X13080158Y-13403150D02*
X13108729Y-13403150D01*
X13108729Y-13403150D02*
X13127777Y-13412674D01*
X13127777Y-13412674D02*
X13137301Y-13431722D01*
X13137301Y-13431722D02*
X13137301Y-13536484D01*
X13137301Y-13431722D02*
X13146824Y-13412674D01*
X13146824Y-13412674D02*
X13165872Y-13403150D01*
X13165872Y-13403150D02*
X13194443Y-13403150D01*
X13194443Y-13403150D02*
X13213491Y-13412674D01*
X13213491Y-13412674D02*
X13223015Y-13431722D01*
X13223015Y-13431722D02*
X13223015Y-13536484D01*
X13613491Y-13326960D02*
X13442063Y-13584103D01*
X13870634Y-13336484D02*
X13889682Y-13336484D01*
X13889682Y-13336484D02*
X13908729Y-13346008D01*
X13908729Y-13346008D02*
X13918253Y-13355531D01*
X13918253Y-13355531D02*
X13927777Y-13374579D01*
X13927777Y-13374579D02*
X13937301Y-13412674D01*
X13937301Y-13412674D02*
X13937301Y-13460293D01*
X13937301Y-13460293D02*
X13927777Y-13498388D01*
X13927777Y-13498388D02*
X13918253Y-13517436D01*
X13918253Y-13517436D02*
X13908729Y-13526960D01*
X13908729Y-13526960D02*
X13889682Y-13536484D01*
X13889682Y-13536484D02*
X13870634Y-13536484D01*
X13870634Y-13536484D02*
X13851586Y-13526960D01*
X13851586Y-13526960D02*
X13842063Y-13517436D01*
X13842063Y-13517436D02*
X13832539Y-13498388D01*
X13832539Y-13498388D02*
X13823015Y-13460293D01*
X13823015Y-13460293D02*
X13823015Y-13412674D01*
X13823015Y-13412674D02*
X13832539Y-13374579D01*
X13832539Y-13374579D02*
X13842063Y-13355531D01*
X13842063Y-13355531D02*
X13851586Y-13346008D01*
X13851586Y-13346008D02*
X13870634Y-13336484D01*
X14023015Y-13517436D02*
X14032539Y-13526960D01*
X14032539Y-13526960D02*
X14023015Y-13536484D01*
X14023015Y-13536484D02*
X14013491Y-13526960D01*
X14013491Y-13526960D02*
X14023015Y-13517436D01*
X14023015Y-13517436D02*
X14023015Y-13536484D01*
X14156348Y-13336484D02*
X14175396Y-13336484D01*
X14175396Y-13336484D02*
X14194444Y-13346008D01*
X14194444Y-13346008D02*
X14203967Y-13355531D01*
X14203967Y-13355531D02*
X14213491Y-13374579D01*
X14213491Y-13374579D02*
X14223015Y-13412674D01*
X14223015Y-13412674D02*
X14223015Y-13460293D01*
X14223015Y-13460293D02*
X14213491Y-13498388D01*
X14213491Y-13498388D02*
X14203967Y-13517436D01*
X14203967Y-13517436D02*
X14194444Y-13526960D01*
X14194444Y-13526960D02*
X14175396Y-13536484D01*
X14175396Y-13536484D02*
X14156348Y-13536484D01*
X14156348Y-13536484D02*
X14137301Y-13526960D01*
X14137301Y-13526960D02*
X14127777Y-13517436D01*
X14127777Y-13517436D02*
X14118253Y-13498388D01*
X14118253Y-13498388D02*
X14108729Y-13460293D01*
X14108729Y-13460293D02*
X14108729Y-13412674D01*
X14108729Y-13412674D02*
X14118253Y-13374579D01*
X14118253Y-13374579D02*
X14127777Y-13355531D01*
X14127777Y-13355531D02*
X14137301Y-13346008D01*
X14137301Y-13346008D02*
X14156348Y-13336484D01*
X14299206Y-13355531D02*
X14308729Y-13346008D01*
X14308729Y-13346008D02*
X14327777Y-13336484D01*
X14327777Y-13336484D02*
X14375396Y-13336484D01*
X14375396Y-13336484D02*
X14394444Y-13346008D01*
X14394444Y-13346008D02*
X14403967Y-13355531D01*
X14403967Y-13355531D02*
X14413491Y-13374579D01*
X14413491Y-13374579D02*
X14413491Y-13393627D01*
X14413491Y-13393627D02*
X14403967Y-13422198D01*
X14403967Y-13422198D02*
X14289682Y-13536484D01*
X14289682Y-13536484D02*
X14413491Y-13536484D01*
X14594444Y-13336484D02*
X14499206Y-13336484D01*
X14499206Y-13336484D02*
X14489682Y-13431722D01*
X14489682Y-13431722D02*
X14499206Y-13422198D01*
X14499206Y-13422198D02*
X14518253Y-13412674D01*
X14518253Y-13412674D02*
X14565872Y-13412674D01*
X14565872Y-13412674D02*
X14584920Y-13422198D01*
X14584920Y-13422198D02*
X14594444Y-13431722D01*
X14594444Y-13431722D02*
X14603967Y-13450769D01*
X14603967Y-13450769D02*
X14603967Y-13498388D01*
X14603967Y-13498388D02*
X14594444Y-13517436D01*
X14594444Y-13517436D02*
X14584920Y-13526960D01*
X14584920Y-13526960D02*
X14565872Y-13536484D01*
X14565872Y-13536484D02*
X14518253Y-13536484D01*
X14518253Y-13536484D02*
X14499206Y-13526960D01*
X14499206Y-13526960D02*
X14489682Y-13517436D01*
X14775396Y-13336484D02*
X14737301Y-13336484D01*
X14737301Y-13336484D02*
X14718253Y-13346008D01*
X14718253Y-13346008D02*
X14708729Y-13355531D01*
X14708729Y-13355531D02*
X14689682Y-13384103D01*
X14689682Y-13384103D02*
X14680158Y-13422198D01*
X14680158Y-13422198D02*
X14680158Y-13498388D01*
X14680158Y-13498388D02*
X14689682Y-13517436D01*
X14689682Y-13517436D02*
X14699206Y-13526960D01*
X14699206Y-13526960D02*
X14718253Y-13536484D01*
X14718253Y-13536484D02*
X14756348Y-13536484D01*
X14756348Y-13536484D02*
X14775396Y-13526960D01*
X14775396Y-13526960D02*
X14784920Y-13517436D01*
X14784920Y-13517436D02*
X14794444Y-13498388D01*
X14794444Y-13498388D02*
X14794444Y-13450769D01*
X14794444Y-13450769D02*
X14784920Y-13431722D01*
X14784920Y-13431722D02*
X14775396Y-13422198D01*
X14775396Y-13422198D02*
X14756348Y-13412674D01*
X14756348Y-13412674D02*
X14718253Y-13412674D01*
X14718253Y-13412674D02*
X14699206Y-13422198D01*
X14699206Y-13422198D02*
X14689682Y-13431722D01*
X14689682Y-13431722D02*
X14680158Y-13450769D01*
X14870634Y-13336484D02*
X14870634Y-13374579D01*
X14946825Y-13336484D02*
X14946825Y-13374579D01*
X15242063Y-13612674D02*
X15232539Y-13603150D01*
X15232539Y-13603150D02*
X15213491Y-13574579D01*
X15213491Y-13574579D02*
X15203968Y-13555531D01*
X15203968Y-13555531D02*
X15194444Y-13526960D01*
X15194444Y-13526960D02*
X15184920Y-13479341D01*
X15184920Y-13479341D02*
X15184920Y-13441246D01*
X15184920Y-13441246D02*
X15194444Y-13393627D01*
X15194444Y-13393627D02*
X15203968Y-13365055D01*
X15203968Y-13365055D02*
X15213491Y-13346008D01*
X15213491Y-13346008D02*
X15232539Y-13317436D01*
X15232539Y-13317436D02*
X15242063Y-13307912D01*
X15308729Y-13355531D02*
X15318253Y-13346008D01*
X15318253Y-13346008D02*
X15337301Y-13336484D01*
X15337301Y-13336484D02*
X15384920Y-13336484D01*
X15384920Y-13336484D02*
X15403968Y-13346008D01*
X15403968Y-13346008D02*
X15413491Y-13355531D01*
X15413491Y-13355531D02*
X15423015Y-13374579D01*
X15423015Y-13374579D02*
X15423015Y-13393627D01*
X15423015Y-13393627D02*
X15413491Y-13422198D01*
X15413491Y-13422198D02*
X15299206Y-13536484D01*
X15299206Y-13536484D02*
X15423015Y-13536484D01*
X15661110Y-13536484D02*
X15661110Y-13336484D01*
X15746825Y-13536484D02*
X15746825Y-13431722D01*
X15746825Y-13431722D02*
X15737301Y-13412674D01*
X15737301Y-13412674D02*
X15718253Y-13403150D01*
X15718253Y-13403150D02*
X15689682Y-13403150D01*
X15689682Y-13403150D02*
X15670634Y-13412674D01*
X15670634Y-13412674D02*
X15661110Y-13422198D01*
X15870634Y-13536484D02*
X15851587Y-13526960D01*
X15851587Y-13526960D02*
X15842063Y-13517436D01*
X15842063Y-13517436D02*
X15832539Y-13498388D01*
X15832539Y-13498388D02*
X15832539Y-13441246D01*
X15832539Y-13441246D02*
X15842063Y-13422198D01*
X15842063Y-13422198D02*
X15851587Y-13412674D01*
X15851587Y-13412674D02*
X15870634Y-13403150D01*
X15870634Y-13403150D02*
X15899206Y-13403150D01*
X15899206Y-13403150D02*
X15918253Y-13412674D01*
X15918253Y-13412674D02*
X15927777Y-13422198D01*
X15927777Y-13422198D02*
X15937301Y-13441246D01*
X15937301Y-13441246D02*
X15937301Y-13498388D01*
X15937301Y-13498388D02*
X15927777Y-13517436D01*
X15927777Y-13517436D02*
X15918253Y-13526960D01*
X15918253Y-13526960D02*
X15899206Y-13536484D01*
X15899206Y-13536484D02*
X15870634Y-13536484D01*
X16051587Y-13536484D02*
X16032539Y-13526960D01*
X16032539Y-13526960D02*
X16023015Y-13507912D01*
X16023015Y-13507912D02*
X16023015Y-13336484D01*
X16203968Y-13526960D02*
X16184920Y-13536484D01*
X16184920Y-13536484D02*
X16146825Y-13536484D01*
X16146825Y-13536484D02*
X16127777Y-13526960D01*
X16127777Y-13526960D02*
X16118253Y-13507912D01*
X16118253Y-13507912D02*
X16118253Y-13431722D01*
X16118253Y-13431722D02*
X16127777Y-13412674D01*
X16127777Y-13412674D02*
X16146825Y-13403150D01*
X16146825Y-13403150D02*
X16184920Y-13403150D01*
X16184920Y-13403150D02*
X16203968Y-13412674D01*
X16203968Y-13412674D02*
X16213491Y-13431722D01*
X16213491Y-13431722D02*
X16213491Y-13450769D01*
X16213491Y-13450769D02*
X16118253Y-13469817D01*
X16289682Y-13526960D02*
X16308730Y-13536484D01*
X16308730Y-13536484D02*
X16346825Y-13536484D01*
X16346825Y-13536484D02*
X16365872Y-13526960D01*
X16365872Y-13526960D02*
X16375396Y-13507912D01*
X16375396Y-13507912D02*
X16375396Y-13498388D01*
X16375396Y-13498388D02*
X16365872Y-13479341D01*
X16365872Y-13479341D02*
X16346825Y-13469817D01*
X16346825Y-13469817D02*
X16318253Y-13469817D01*
X16318253Y-13469817D02*
X16299206Y-13460293D01*
X16299206Y-13460293D02*
X16289682Y-13441246D01*
X16289682Y-13441246D02*
X16289682Y-13431722D01*
X16289682Y-13431722D02*
X16299206Y-13412674D01*
X16299206Y-13412674D02*
X16318253Y-13403150D01*
X16318253Y-13403150D02*
X16346825Y-13403150D01*
X16346825Y-13403150D02*
X16365872Y-13412674D01*
X16442063Y-13612674D02*
X16451587Y-13603150D01*
X16451587Y-13603150D02*
X16470634Y-13574579D01*
X16470634Y-13574579D02*
X16480158Y-13555531D01*
X16480158Y-13555531D02*
X16489682Y-13526960D01*
X16489682Y-13526960D02*
X16499206Y-13479341D01*
X16499206Y-13479341D02*
X16499206Y-13441246D01*
X16499206Y-13441246D02*
X16489682Y-13393627D01*
X16489682Y-13393627D02*
X16480158Y-13365055D01*
X16480158Y-13365055D02*
X16470634Y-13346008D01*
X16470634Y-13346008D02*
X16451587Y-13317436D01*
X16451587Y-13317436D02*
X16442063Y-13307912D01*
X16803968Y-13612674D02*
X16794444Y-13603150D01*
X16794444Y-13603150D02*
X16775396Y-13574579D01*
X16775396Y-13574579D02*
X16765872Y-13555531D01*
X16765872Y-13555531D02*
X16756349Y-13526960D01*
X16756349Y-13526960D02*
X16746825Y-13479341D01*
X16746825Y-13479341D02*
X16746825Y-13441246D01*
X16746825Y-13441246D02*
X16756349Y-13393627D01*
X16756349Y-13393627D02*
X16765872Y-13365055D01*
X16765872Y-13365055D02*
X16775396Y-13346008D01*
X16775396Y-13346008D02*
X16794444Y-13317436D01*
X16794444Y-13317436D02*
X16803968Y-13307912D01*
X16880158Y-13403150D02*
X16880158Y-13536484D01*
X16880158Y-13422198D02*
X16889682Y-13412674D01*
X16889682Y-13412674D02*
X16908730Y-13403150D01*
X16908730Y-13403150D02*
X16937301Y-13403150D01*
X16937301Y-13403150D02*
X16956349Y-13412674D01*
X16956349Y-13412674D02*
X16965873Y-13431722D01*
X16965873Y-13431722D02*
X16965873Y-13536484D01*
X17089682Y-13536484D02*
X17070634Y-13526960D01*
X17070634Y-13526960D02*
X17061111Y-13517436D01*
X17061111Y-13517436D02*
X17051587Y-13498388D01*
X17051587Y-13498388D02*
X17051587Y-13441246D01*
X17051587Y-13441246D02*
X17061111Y-13422198D01*
X17061111Y-13422198D02*
X17070634Y-13412674D01*
X17070634Y-13412674D02*
X17089682Y-13403150D01*
X17089682Y-13403150D02*
X17118254Y-13403150D01*
X17118254Y-13403150D02*
X17137301Y-13412674D01*
X17137301Y-13412674D02*
X17146825Y-13422198D01*
X17146825Y-13422198D02*
X17156349Y-13441246D01*
X17156349Y-13441246D02*
X17156349Y-13498388D01*
X17156349Y-13498388D02*
X17146825Y-13517436D01*
X17146825Y-13517436D02*
X17137301Y-13526960D01*
X17137301Y-13526960D02*
X17118254Y-13536484D01*
X17118254Y-13536484D02*
X17089682Y-13536484D01*
X17213492Y-13403150D02*
X17289682Y-13403150D01*
X17242063Y-13336484D02*
X17242063Y-13507912D01*
X17242063Y-13507912D02*
X17251587Y-13526960D01*
X17251587Y-13526960D02*
X17270634Y-13536484D01*
X17270634Y-13536484D02*
X17289682Y-13536484D01*
X17508730Y-13403150D02*
X17508730Y-13603150D01*
X17508730Y-13412674D02*
X17527777Y-13403150D01*
X17527777Y-13403150D02*
X17565873Y-13403150D01*
X17565873Y-13403150D02*
X17584920Y-13412674D01*
X17584920Y-13412674D02*
X17594444Y-13422198D01*
X17594444Y-13422198D02*
X17603968Y-13441246D01*
X17603968Y-13441246D02*
X17603968Y-13498388D01*
X17603968Y-13498388D02*
X17594444Y-13517436D01*
X17594444Y-13517436D02*
X17584920Y-13526960D01*
X17584920Y-13526960D02*
X17565873Y-13536484D01*
X17565873Y-13536484D02*
X17527777Y-13536484D01*
X17527777Y-13536484D02*
X17508730Y-13526960D01*
X17718254Y-13536484D02*
X17699206Y-13526960D01*
X17699206Y-13526960D02*
X17689682Y-13507912D01*
X17689682Y-13507912D02*
X17689682Y-13336484D01*
X17880158Y-13536484D02*
X17880158Y-13431722D01*
X17880158Y-13431722D02*
X17870635Y-13412674D01*
X17870635Y-13412674D02*
X17851587Y-13403150D01*
X17851587Y-13403150D02*
X17813492Y-13403150D01*
X17813492Y-13403150D02*
X17794444Y-13412674D01*
X17880158Y-13526960D02*
X17861111Y-13536484D01*
X17861111Y-13536484D02*
X17813492Y-13536484D01*
X17813492Y-13536484D02*
X17794444Y-13526960D01*
X17794444Y-13526960D02*
X17784920Y-13507912D01*
X17784920Y-13507912D02*
X17784920Y-13488865D01*
X17784920Y-13488865D02*
X17794444Y-13469817D01*
X17794444Y-13469817D02*
X17813492Y-13460293D01*
X17813492Y-13460293D02*
X17861111Y-13460293D01*
X17861111Y-13460293D02*
X17880158Y-13450769D01*
X17946825Y-13403150D02*
X18023015Y-13403150D01*
X17975396Y-13336484D02*
X17975396Y-13507912D01*
X17975396Y-13507912D02*
X17984920Y-13526960D01*
X17984920Y-13526960D02*
X18003968Y-13536484D01*
X18003968Y-13536484D02*
X18023015Y-13536484D01*
X18165873Y-13526960D02*
X18146825Y-13536484D01*
X18146825Y-13536484D02*
X18108730Y-13536484D01*
X18108730Y-13536484D02*
X18089682Y-13526960D01*
X18089682Y-13526960D02*
X18080158Y-13507912D01*
X18080158Y-13507912D02*
X18080158Y-13431722D01*
X18080158Y-13431722D02*
X18089682Y-13412674D01*
X18089682Y-13412674D02*
X18108730Y-13403150D01*
X18108730Y-13403150D02*
X18146825Y-13403150D01*
X18146825Y-13403150D02*
X18165873Y-13412674D01*
X18165873Y-13412674D02*
X18175396Y-13431722D01*
X18175396Y-13431722D02*
X18175396Y-13450769D01*
X18175396Y-13450769D02*
X18080158Y-13469817D01*
X18346825Y-13536484D02*
X18346825Y-13336484D01*
X18346825Y-13526960D02*
X18327777Y-13536484D01*
X18327777Y-13536484D02*
X18289682Y-13536484D01*
X18289682Y-13536484D02*
X18270635Y-13526960D01*
X18270635Y-13526960D02*
X18261111Y-13517436D01*
X18261111Y-13517436D02*
X18251587Y-13498388D01*
X18251587Y-13498388D02*
X18251587Y-13441246D01*
X18251587Y-13441246D02*
X18261111Y-13422198D01*
X18261111Y-13422198D02*
X18270635Y-13412674D01*
X18270635Y-13412674D02*
X18289682Y-13403150D01*
X18289682Y-13403150D02*
X18327777Y-13403150D01*
X18327777Y-13403150D02*
X18346825Y-13412674D01*
X18423016Y-13612674D02*
X18432539Y-13603150D01*
X18432539Y-13603150D02*
X18451587Y-13574579D01*
X18451587Y-13574579D02*
X18461111Y-13555531D01*
X18461111Y-13555531D02*
X18470635Y-13526960D01*
X18470635Y-13526960D02*
X18480158Y-13479341D01*
X18480158Y-13479341D02*
X18480158Y-13441246D01*
X18480158Y-13441246D02*
X18470635Y-13393627D01*
X18470635Y-13393627D02*
X18461111Y-13365055D01*
X18461111Y-13365055D02*
X18451587Y-13346008D01*
X18451587Y-13346008D02*
X18432539Y-13317436D01*
X18432539Y-13317436D02*
X18423016Y-13307912D01*
D12*
X11667000Y-13709000D02*
G75*
G03*
X11667000Y-13709000I-60000J0D01*
G01*
D10*
X12032539Y-13800484D02*
X11918253Y-13800484D01*
X11975396Y-13800484D02*
X11975396Y-13600484D01*
X11975396Y-13600484D02*
X11956348Y-13629055D01*
X11956348Y-13629055D02*
X11937301Y-13648103D01*
X11937301Y-13648103D02*
X11918253Y-13657627D01*
X12118253Y-13781436D02*
X12127777Y-13790960D01*
X12127777Y-13790960D02*
X12118253Y-13800484D01*
X12118253Y-13800484D02*
X12108729Y-13790960D01*
X12108729Y-13790960D02*
X12118253Y-13781436D01*
X12118253Y-13781436D02*
X12118253Y-13800484D01*
X12203967Y-13619531D02*
X12213491Y-13610008D01*
X12213491Y-13610008D02*
X12232539Y-13600484D01*
X12232539Y-13600484D02*
X12280158Y-13600484D01*
X12280158Y-13600484D02*
X12299205Y-13610008D01*
X12299205Y-13610008D02*
X12308729Y-13619531D01*
X12308729Y-13619531D02*
X12318253Y-13638579D01*
X12318253Y-13638579D02*
X12318253Y-13657627D01*
X12318253Y-13657627D02*
X12308729Y-13686198D01*
X12308729Y-13686198D02*
X12194443Y-13800484D01*
X12194443Y-13800484D02*
X12318253Y-13800484D01*
X12442062Y-13600484D02*
X12461110Y-13600484D01*
X12461110Y-13600484D02*
X12480158Y-13610008D01*
X12480158Y-13610008D02*
X12489682Y-13619531D01*
X12489682Y-13619531D02*
X12499205Y-13638579D01*
X12499205Y-13638579D02*
X12508729Y-13676674D01*
X12508729Y-13676674D02*
X12508729Y-13724293D01*
X12508729Y-13724293D02*
X12499205Y-13762388D01*
X12499205Y-13762388D02*
X12489682Y-13781436D01*
X12489682Y-13781436D02*
X12480158Y-13790960D01*
X12480158Y-13790960D02*
X12461110Y-13800484D01*
X12461110Y-13800484D02*
X12442062Y-13800484D01*
X12442062Y-13800484D02*
X12423015Y-13790960D01*
X12423015Y-13790960D02*
X12413491Y-13781436D01*
X12413491Y-13781436D02*
X12403967Y-13762388D01*
X12403967Y-13762388D02*
X12394443Y-13724293D01*
X12394443Y-13724293D02*
X12394443Y-13676674D01*
X12394443Y-13676674D02*
X12403967Y-13638579D01*
X12403967Y-13638579D02*
X12413491Y-13619531D01*
X12413491Y-13619531D02*
X12423015Y-13610008D01*
X12423015Y-13610008D02*
X12442062Y-13600484D01*
X12632539Y-13600484D02*
X12651586Y-13600484D01*
X12651586Y-13600484D02*
X12670634Y-13610008D01*
X12670634Y-13610008D02*
X12680158Y-13619531D01*
X12680158Y-13619531D02*
X12689682Y-13638579D01*
X12689682Y-13638579D02*
X12699205Y-13676674D01*
X12699205Y-13676674D02*
X12699205Y-13724293D01*
X12699205Y-13724293D02*
X12689682Y-13762388D01*
X12689682Y-13762388D02*
X12680158Y-13781436D01*
X12680158Y-13781436D02*
X12670634Y-13790960D01*
X12670634Y-13790960D02*
X12651586Y-13800484D01*
X12651586Y-13800484D02*
X12632539Y-13800484D01*
X12632539Y-13800484D02*
X12613491Y-13790960D01*
X12613491Y-13790960D02*
X12603967Y-13781436D01*
X12603967Y-13781436D02*
X12594443Y-13762388D01*
X12594443Y-13762388D02*
X12584920Y-13724293D01*
X12584920Y-13724293D02*
X12584920Y-13676674D01*
X12584920Y-13676674D02*
X12594443Y-13638579D01*
X12594443Y-13638579D02*
X12603967Y-13619531D01*
X12603967Y-13619531D02*
X12613491Y-13610008D01*
X12613491Y-13610008D02*
X12632539Y-13600484D01*
X12784920Y-13800484D02*
X12784920Y-13667150D01*
X12784920Y-13686198D02*
X12794443Y-13676674D01*
X12794443Y-13676674D02*
X12813491Y-13667150D01*
X12813491Y-13667150D02*
X12842063Y-13667150D01*
X12842063Y-13667150D02*
X12861110Y-13676674D01*
X12861110Y-13676674D02*
X12870634Y-13695722D01*
X12870634Y-13695722D02*
X12870634Y-13800484D01*
X12870634Y-13695722D02*
X12880158Y-13676674D01*
X12880158Y-13676674D02*
X12899205Y-13667150D01*
X12899205Y-13667150D02*
X12927777Y-13667150D01*
X12927777Y-13667150D02*
X12946824Y-13676674D01*
X12946824Y-13676674D02*
X12956348Y-13695722D01*
X12956348Y-13695722D02*
X12956348Y-13800484D01*
X13051586Y-13800484D02*
X13051586Y-13667150D01*
X13051586Y-13686198D02*
X13061110Y-13676674D01*
X13061110Y-13676674D02*
X13080158Y-13667150D01*
X13080158Y-13667150D02*
X13108729Y-13667150D01*
X13108729Y-13667150D02*
X13127777Y-13676674D01*
X13127777Y-13676674D02*
X13137301Y-13695722D01*
X13137301Y-13695722D02*
X13137301Y-13800484D01*
X13137301Y-13695722D02*
X13146824Y-13676674D01*
X13146824Y-13676674D02*
X13165872Y-13667150D01*
X13165872Y-13667150D02*
X13194443Y-13667150D01*
X13194443Y-13667150D02*
X13213491Y-13676674D01*
X13213491Y-13676674D02*
X13223015Y-13695722D01*
X13223015Y-13695722D02*
X13223015Y-13800484D01*
X13613491Y-13590960D02*
X13442063Y-13848103D01*
X13870634Y-13600484D02*
X13889682Y-13600484D01*
X13889682Y-13600484D02*
X13908729Y-13610008D01*
X13908729Y-13610008D02*
X13918253Y-13619531D01*
X13918253Y-13619531D02*
X13927777Y-13638579D01*
X13927777Y-13638579D02*
X13937301Y-13676674D01*
X13937301Y-13676674D02*
X13937301Y-13724293D01*
X13937301Y-13724293D02*
X13927777Y-13762388D01*
X13927777Y-13762388D02*
X13918253Y-13781436D01*
X13918253Y-13781436D02*
X13908729Y-13790960D01*
X13908729Y-13790960D02*
X13889682Y-13800484D01*
X13889682Y-13800484D02*
X13870634Y-13800484D01*
X13870634Y-13800484D02*
X13851586Y-13790960D01*
X13851586Y-13790960D02*
X13842063Y-13781436D01*
X13842063Y-13781436D02*
X13832539Y-13762388D01*
X13832539Y-13762388D02*
X13823015Y-13724293D01*
X13823015Y-13724293D02*
X13823015Y-13676674D01*
X13823015Y-13676674D02*
X13832539Y-13638579D01*
X13832539Y-13638579D02*
X13842063Y-13619531D01*
X13842063Y-13619531D02*
X13851586Y-13610008D01*
X13851586Y-13610008D02*
X13870634Y-13600484D01*
X14023015Y-13781436D02*
X14032539Y-13790960D01*
X14032539Y-13790960D02*
X14023015Y-13800484D01*
X14023015Y-13800484D02*
X14013491Y-13790960D01*
X14013491Y-13790960D02*
X14023015Y-13781436D01*
X14023015Y-13781436D02*
X14023015Y-13800484D01*
X14156348Y-13600484D02*
X14175396Y-13600484D01*
X14175396Y-13600484D02*
X14194444Y-13610008D01*
X14194444Y-13610008D02*
X14203967Y-13619531D01*
X14203967Y-13619531D02*
X14213491Y-13638579D01*
X14213491Y-13638579D02*
X14223015Y-13676674D01*
X14223015Y-13676674D02*
X14223015Y-13724293D01*
X14223015Y-13724293D02*
X14213491Y-13762388D01*
X14213491Y-13762388D02*
X14203967Y-13781436D01*
X14203967Y-13781436D02*
X14194444Y-13790960D01*
X14194444Y-13790960D02*
X14175396Y-13800484D01*
X14175396Y-13800484D02*
X14156348Y-13800484D01*
X14156348Y-13800484D02*
X14137301Y-13790960D01*
X14137301Y-13790960D02*
X14127777Y-13781436D01*
X14127777Y-13781436D02*
X14118253Y-13762388D01*
X14118253Y-13762388D02*
X14108729Y-13724293D01*
X14108729Y-13724293D02*
X14108729Y-13676674D01*
X14108729Y-13676674D02*
X14118253Y-13638579D01*
X14118253Y-13638579D02*
X14127777Y-13619531D01*
X14127777Y-13619531D02*
X14137301Y-13610008D01*
X14137301Y-13610008D02*
X14156348Y-13600484D01*
X14394444Y-13667150D02*
X14394444Y-13800484D01*
X14346825Y-13590960D02*
X14299206Y-13733817D01*
X14299206Y-13733817D02*
X14423015Y-13733817D01*
X14480158Y-13600484D02*
X14613491Y-13600484D01*
X14613491Y-13600484D02*
X14527777Y-13800484D01*
X14680158Y-13619531D02*
X14689682Y-13610008D01*
X14689682Y-13610008D02*
X14708729Y-13600484D01*
X14708729Y-13600484D02*
X14756348Y-13600484D01*
X14756348Y-13600484D02*
X14775396Y-13610008D01*
X14775396Y-13610008D02*
X14784920Y-13619531D01*
X14784920Y-13619531D02*
X14794444Y-13638579D01*
X14794444Y-13638579D02*
X14794444Y-13657627D01*
X14794444Y-13657627D02*
X14784920Y-13686198D01*
X14784920Y-13686198D02*
X14670634Y-13800484D01*
X14670634Y-13800484D02*
X14794444Y-13800484D01*
X14870634Y-13600484D02*
X14870634Y-13638579D01*
X14946825Y-13600484D02*
X14946825Y-13638579D01*
X15242063Y-13876674D02*
X15232539Y-13867150D01*
X15232539Y-13867150D02*
X15213491Y-13838579D01*
X15213491Y-13838579D02*
X15203968Y-13819531D01*
X15203968Y-13819531D02*
X15194444Y-13790960D01*
X15194444Y-13790960D02*
X15184920Y-13743341D01*
X15184920Y-13743341D02*
X15184920Y-13705246D01*
X15184920Y-13705246D02*
X15194444Y-13657627D01*
X15194444Y-13657627D02*
X15203968Y-13629055D01*
X15203968Y-13629055D02*
X15213491Y-13610008D01*
X15213491Y-13610008D02*
X15232539Y-13581436D01*
X15232539Y-13581436D02*
X15242063Y-13571912D01*
X15423015Y-13800484D02*
X15308729Y-13800484D01*
X15365872Y-13800484D02*
X15365872Y-13600484D01*
X15365872Y-13600484D02*
X15346825Y-13629055D01*
X15346825Y-13629055D02*
X15327777Y-13648103D01*
X15327777Y-13648103D02*
X15308729Y-13657627D01*
X15546825Y-13600484D02*
X15565872Y-13600484D01*
X15565872Y-13600484D02*
X15584920Y-13610008D01*
X15584920Y-13610008D02*
X15594444Y-13619531D01*
X15594444Y-13619531D02*
X15603968Y-13638579D01*
X15603968Y-13638579D02*
X15613491Y-13676674D01*
X15613491Y-13676674D02*
X15613491Y-13724293D01*
X15613491Y-13724293D02*
X15603968Y-13762388D01*
X15603968Y-13762388D02*
X15594444Y-13781436D01*
X15594444Y-13781436D02*
X15584920Y-13790960D01*
X15584920Y-13790960D02*
X15565872Y-13800484D01*
X15565872Y-13800484D02*
X15546825Y-13800484D01*
X15546825Y-13800484D02*
X15527777Y-13790960D01*
X15527777Y-13790960D02*
X15518253Y-13781436D01*
X15518253Y-13781436D02*
X15508729Y-13762388D01*
X15508729Y-13762388D02*
X15499206Y-13724293D01*
X15499206Y-13724293D02*
X15499206Y-13676674D01*
X15499206Y-13676674D02*
X15508729Y-13638579D01*
X15508729Y-13638579D02*
X15518253Y-13619531D01*
X15518253Y-13619531D02*
X15527777Y-13610008D01*
X15527777Y-13610008D02*
X15546825Y-13600484D01*
X15851587Y-13800484D02*
X15851587Y-13600484D01*
X15937301Y-13800484D02*
X15937301Y-13695722D01*
X15937301Y-13695722D02*
X15927777Y-13676674D01*
X15927777Y-13676674D02*
X15908730Y-13667150D01*
X15908730Y-13667150D02*
X15880158Y-13667150D01*
X15880158Y-13667150D02*
X15861110Y-13676674D01*
X15861110Y-13676674D02*
X15851587Y-13686198D01*
X16061110Y-13800484D02*
X16042063Y-13790960D01*
X16042063Y-13790960D02*
X16032539Y-13781436D01*
X16032539Y-13781436D02*
X16023015Y-13762388D01*
X16023015Y-13762388D02*
X16023015Y-13705246D01*
X16023015Y-13705246D02*
X16032539Y-13686198D01*
X16032539Y-13686198D02*
X16042063Y-13676674D01*
X16042063Y-13676674D02*
X16061110Y-13667150D01*
X16061110Y-13667150D02*
X16089682Y-13667150D01*
X16089682Y-13667150D02*
X16108730Y-13676674D01*
X16108730Y-13676674D02*
X16118253Y-13686198D01*
X16118253Y-13686198D02*
X16127777Y-13705246D01*
X16127777Y-13705246D02*
X16127777Y-13762388D01*
X16127777Y-13762388D02*
X16118253Y-13781436D01*
X16118253Y-13781436D02*
X16108730Y-13790960D01*
X16108730Y-13790960D02*
X16089682Y-13800484D01*
X16089682Y-13800484D02*
X16061110Y-13800484D01*
X16242063Y-13800484D02*
X16223015Y-13790960D01*
X16223015Y-13790960D02*
X16213491Y-13771912D01*
X16213491Y-13771912D02*
X16213491Y-13600484D01*
X16394444Y-13790960D02*
X16375396Y-13800484D01*
X16375396Y-13800484D02*
X16337301Y-13800484D01*
X16337301Y-13800484D02*
X16318253Y-13790960D01*
X16318253Y-13790960D02*
X16308730Y-13771912D01*
X16308730Y-13771912D02*
X16308730Y-13695722D01*
X16308730Y-13695722D02*
X16318253Y-13676674D01*
X16318253Y-13676674D02*
X16337301Y-13667150D01*
X16337301Y-13667150D02*
X16375396Y-13667150D01*
X16375396Y-13667150D02*
X16394444Y-13676674D01*
X16394444Y-13676674D02*
X16403968Y-13695722D01*
X16403968Y-13695722D02*
X16403968Y-13714769D01*
X16403968Y-13714769D02*
X16308730Y-13733817D01*
X16480158Y-13790960D02*
X16499206Y-13800484D01*
X16499206Y-13800484D02*
X16537301Y-13800484D01*
X16537301Y-13800484D02*
X16556349Y-13790960D01*
X16556349Y-13790960D02*
X16565872Y-13771912D01*
X16565872Y-13771912D02*
X16565872Y-13762388D01*
X16565872Y-13762388D02*
X16556349Y-13743341D01*
X16556349Y-13743341D02*
X16537301Y-13733817D01*
X16537301Y-13733817D02*
X16508730Y-13733817D01*
X16508730Y-13733817D02*
X16489682Y-13724293D01*
X16489682Y-13724293D02*
X16480158Y-13705246D01*
X16480158Y-13705246D02*
X16480158Y-13695722D01*
X16480158Y-13695722D02*
X16489682Y-13676674D01*
X16489682Y-13676674D02*
X16508730Y-13667150D01*
X16508730Y-13667150D02*
X16537301Y-13667150D01*
X16537301Y-13667150D02*
X16556349Y-13676674D01*
X16632539Y-13876674D02*
X16642063Y-13867150D01*
X16642063Y-13867150D02*
X16661111Y-13838579D01*
X16661111Y-13838579D02*
X16670634Y-13819531D01*
X16670634Y-13819531D02*
X16680158Y-13790960D01*
X16680158Y-13790960D02*
X16689682Y-13743341D01*
X16689682Y-13743341D02*
X16689682Y-13705246D01*
X16689682Y-13705246D02*
X16680158Y-13657627D01*
X16680158Y-13657627D02*
X16670634Y-13629055D01*
X16670634Y-13629055D02*
X16661111Y-13610008D01*
X16661111Y-13610008D02*
X16642063Y-13581436D01*
X16642063Y-13581436D02*
X16632539Y-13571912D01*
X16994444Y-13876674D02*
X16984920Y-13867150D01*
X16984920Y-13867150D02*
X16965873Y-13838579D01*
X16965873Y-13838579D02*
X16956349Y-13819531D01*
X16956349Y-13819531D02*
X16946825Y-13790960D01*
X16946825Y-13790960D02*
X16937301Y-13743341D01*
X16937301Y-13743341D02*
X16937301Y-13705246D01*
X16937301Y-13705246D02*
X16946825Y-13657627D01*
X16946825Y-13657627D02*
X16956349Y-13629055D01*
X16956349Y-13629055D02*
X16965873Y-13610008D01*
X16965873Y-13610008D02*
X16984920Y-13581436D01*
X16984920Y-13581436D02*
X16994444Y-13571912D01*
X17070634Y-13667150D02*
X17070634Y-13800484D01*
X17070634Y-13686198D02*
X17080158Y-13676674D01*
X17080158Y-13676674D02*
X17099206Y-13667150D01*
X17099206Y-13667150D02*
X17127777Y-13667150D01*
X17127777Y-13667150D02*
X17146825Y-13676674D01*
X17146825Y-13676674D02*
X17156349Y-13695722D01*
X17156349Y-13695722D02*
X17156349Y-13800484D01*
X17280158Y-13800484D02*
X17261111Y-13790960D01*
X17261111Y-13790960D02*
X17251587Y-13781436D01*
X17251587Y-13781436D02*
X17242063Y-13762388D01*
X17242063Y-13762388D02*
X17242063Y-13705246D01*
X17242063Y-13705246D02*
X17251587Y-13686198D01*
X17251587Y-13686198D02*
X17261111Y-13676674D01*
X17261111Y-13676674D02*
X17280158Y-13667150D01*
X17280158Y-13667150D02*
X17308730Y-13667150D01*
X17308730Y-13667150D02*
X17327777Y-13676674D01*
X17327777Y-13676674D02*
X17337301Y-13686198D01*
X17337301Y-13686198D02*
X17346825Y-13705246D01*
X17346825Y-13705246D02*
X17346825Y-13762388D01*
X17346825Y-13762388D02*
X17337301Y-13781436D01*
X17337301Y-13781436D02*
X17327777Y-13790960D01*
X17327777Y-13790960D02*
X17308730Y-13800484D01*
X17308730Y-13800484D02*
X17280158Y-13800484D01*
X17403968Y-13667150D02*
X17480158Y-13667150D01*
X17432539Y-13600484D02*
X17432539Y-13771912D01*
X17432539Y-13771912D02*
X17442063Y-13790960D01*
X17442063Y-13790960D02*
X17461111Y-13800484D01*
X17461111Y-13800484D02*
X17480158Y-13800484D01*
X17699206Y-13667150D02*
X17699206Y-13867150D01*
X17699206Y-13676674D02*
X17718254Y-13667150D01*
X17718254Y-13667150D02*
X17756349Y-13667150D01*
X17756349Y-13667150D02*
X17775396Y-13676674D01*
X17775396Y-13676674D02*
X17784920Y-13686198D01*
X17784920Y-13686198D02*
X17794444Y-13705246D01*
X17794444Y-13705246D02*
X17794444Y-13762388D01*
X17794444Y-13762388D02*
X17784920Y-13781436D01*
X17784920Y-13781436D02*
X17775396Y-13790960D01*
X17775396Y-13790960D02*
X17756349Y-13800484D01*
X17756349Y-13800484D02*
X17718254Y-13800484D01*
X17718254Y-13800484D02*
X17699206Y-13790960D01*
X17908730Y-13800484D02*
X17889682Y-13790960D01*
X17889682Y-13790960D02*
X17880158Y-13771912D01*
X17880158Y-13771912D02*
X17880158Y-13600484D01*
X18070635Y-13800484D02*
X18070635Y-13695722D01*
X18070635Y-13695722D02*
X18061111Y-13676674D01*
X18061111Y-13676674D02*
X18042063Y-13667150D01*
X18042063Y-13667150D02*
X18003968Y-13667150D01*
X18003968Y-13667150D02*
X17984920Y-13676674D01*
X18070635Y-13790960D02*
X18051587Y-13800484D01*
X18051587Y-13800484D02*
X18003968Y-13800484D01*
X18003968Y-13800484D02*
X17984920Y-13790960D01*
X17984920Y-13790960D02*
X17975396Y-13771912D01*
X17975396Y-13771912D02*
X17975396Y-13752865D01*
X17975396Y-13752865D02*
X17984920Y-13733817D01*
X17984920Y-13733817D02*
X18003968Y-13724293D01*
X18003968Y-13724293D02*
X18051587Y-13724293D01*
X18051587Y-13724293D02*
X18070635Y-13714769D01*
X18137301Y-13667150D02*
X18213492Y-13667150D01*
X18165873Y-13600484D02*
X18165873Y-13771912D01*
X18165873Y-13771912D02*
X18175396Y-13790960D01*
X18175396Y-13790960D02*
X18194444Y-13800484D01*
X18194444Y-13800484D02*
X18213492Y-13800484D01*
X18356349Y-13790960D02*
X18337301Y-13800484D01*
X18337301Y-13800484D02*
X18299206Y-13800484D01*
X18299206Y-13800484D02*
X18280158Y-13790960D01*
X18280158Y-13790960D02*
X18270635Y-13771912D01*
X18270635Y-13771912D02*
X18270635Y-13695722D01*
X18270635Y-13695722D02*
X18280158Y-13676674D01*
X18280158Y-13676674D02*
X18299206Y-13667150D01*
X18299206Y-13667150D02*
X18337301Y-13667150D01*
X18337301Y-13667150D02*
X18356349Y-13676674D01*
X18356349Y-13676674D02*
X18365873Y-13695722D01*
X18365873Y-13695722D02*
X18365873Y-13714769D01*
X18365873Y-13714769D02*
X18270635Y-13733817D01*
X18537301Y-13800484D02*
X18537301Y-13600484D01*
X18537301Y-13790960D02*
X18518254Y-13800484D01*
X18518254Y-13800484D02*
X18480158Y-13800484D01*
X18480158Y-13800484D02*
X18461111Y-13790960D01*
X18461111Y-13790960D02*
X18451587Y-13781436D01*
X18451587Y-13781436D02*
X18442063Y-13762388D01*
X18442063Y-13762388D02*
X18442063Y-13705246D01*
X18442063Y-13705246D02*
X18451587Y-13686198D01*
X18451587Y-13686198D02*
X18461111Y-13676674D01*
X18461111Y-13676674D02*
X18480158Y-13667150D01*
X18480158Y-13667150D02*
X18518254Y-13667150D01*
X18518254Y-13667150D02*
X18537301Y-13676674D01*
X18613492Y-13876674D02*
X18623016Y-13867150D01*
X18623016Y-13867150D02*
X18642063Y-13838579D01*
X18642063Y-13838579D02*
X18651587Y-13819531D01*
X18651587Y-13819531D02*
X18661111Y-13790960D01*
X18661111Y-13790960D02*
X18670635Y-13743341D01*
X18670635Y-13743341D02*
X18670635Y-13705246D01*
X18670635Y-13705246D02*
X18661111Y-13657627D01*
X18661111Y-13657627D02*
X18651587Y-13629055D01*
X18651587Y-13629055D02*
X18642063Y-13610008D01*
X18642063Y-13610008D02*
X18623016Y-13581436D01*
X18623016Y-13581436D02*
X18613492Y-13571912D01*
M02*
