%TF.GenerationSoftware,KiCad,Pcbnew,7.0.8*%
%TF.CreationDate,2023-12-05T20:52:07+01:00*%
%TF.ProjectId,HM_mainboard,484d5f6d-6169-46e6-926f-6172642e6b69,rev?*%
%TF.SameCoordinates,Original*%
%TF.FileFunction,Legend,Top*%
%TF.FilePolarity,Positive*%
%FSLAX46Y46*%
G04 Gerber Fmt 4.6, Leading zero omitted, Abs format (unit mm)*
G04 Created by KiCad (PCBNEW 7.0.8) date 2023-12-05 20:52:07*
%MOMM*%
%LPD*%
G01*
G04 APERTURE LIST*
%ADD10C,0.150000*%
%ADD11C,0.254000*%
%ADD12C,0.120000*%
%ADD13C,0.200000*%
%ADD14C,0.100000*%
G04 APERTURE END LIST*
D10*
X120984819Y-120451333D02*
X121699104Y-120451333D01*
X121699104Y-120451333D02*
X121841961Y-120498952D01*
X121841961Y-120498952D02*
X121937200Y-120594190D01*
X121937200Y-120594190D02*
X121984819Y-120737047D01*
X121984819Y-120737047D02*
X121984819Y-120832285D01*
X120984819Y-120070380D02*
X120984819Y-119403714D01*
X120984819Y-119403714D02*
X121984819Y-119832285D01*
X136478819Y-120451333D02*
X137193104Y-120451333D01*
X137193104Y-120451333D02*
X137335961Y-120498952D01*
X137335961Y-120498952D02*
X137431200Y-120594190D01*
X137431200Y-120594190D02*
X137478819Y-120737047D01*
X137478819Y-120737047D02*
X137478819Y-120832285D01*
X136478819Y-119546571D02*
X136478819Y-119737047D01*
X136478819Y-119737047D02*
X136526438Y-119832285D01*
X136526438Y-119832285D02*
X136574057Y-119879904D01*
X136574057Y-119879904D02*
X136716914Y-119975142D01*
X136716914Y-119975142D02*
X136907390Y-120022761D01*
X136907390Y-120022761D02*
X137288342Y-120022761D01*
X137288342Y-120022761D02*
X137383580Y-119975142D01*
X137383580Y-119975142D02*
X137431200Y-119927523D01*
X137431200Y-119927523D02*
X137478819Y-119832285D01*
X137478819Y-119832285D02*
X137478819Y-119641809D01*
X137478819Y-119641809D02*
X137431200Y-119546571D01*
X137431200Y-119546571D02*
X137383580Y-119498952D01*
X137383580Y-119498952D02*
X137288342Y-119451333D01*
X137288342Y-119451333D02*
X137050247Y-119451333D01*
X137050247Y-119451333D02*
X136955009Y-119498952D01*
X136955009Y-119498952D02*
X136907390Y-119546571D01*
X136907390Y-119546571D02*
X136859771Y-119641809D01*
X136859771Y-119641809D02*
X136859771Y-119832285D01*
X136859771Y-119832285D02*
X136907390Y-119927523D01*
X136907390Y-119927523D02*
X136955009Y-119975142D01*
X136955009Y-119975142D02*
X137050247Y-120022761D01*
X151464819Y-120451333D02*
X152179104Y-120451333D01*
X152179104Y-120451333D02*
X152321961Y-120498952D01*
X152321961Y-120498952D02*
X152417200Y-120594190D01*
X152417200Y-120594190D02*
X152464819Y-120737047D01*
X152464819Y-120737047D02*
X152464819Y-120832285D01*
X151464819Y-119498952D02*
X151464819Y-119975142D01*
X151464819Y-119975142D02*
X151941009Y-120022761D01*
X151941009Y-120022761D02*
X151893390Y-119975142D01*
X151893390Y-119975142D02*
X151845771Y-119879904D01*
X151845771Y-119879904D02*
X151845771Y-119641809D01*
X151845771Y-119641809D02*
X151893390Y-119546571D01*
X151893390Y-119546571D02*
X151941009Y-119498952D01*
X151941009Y-119498952D02*
X152036247Y-119451333D01*
X152036247Y-119451333D02*
X152274342Y-119451333D01*
X152274342Y-119451333D02*
X152369580Y-119498952D01*
X152369580Y-119498952D02*
X152417200Y-119546571D01*
X152417200Y-119546571D02*
X152464819Y-119641809D01*
X152464819Y-119641809D02*
X152464819Y-119879904D01*
X152464819Y-119879904D02*
X152417200Y-119975142D01*
X152417200Y-119975142D02*
X152369580Y-120022761D01*
X166704819Y-120451333D02*
X167419104Y-120451333D01*
X167419104Y-120451333D02*
X167561961Y-120498952D01*
X167561961Y-120498952D02*
X167657200Y-120594190D01*
X167657200Y-120594190D02*
X167704819Y-120737047D01*
X167704819Y-120737047D02*
X167704819Y-120832285D01*
X167038152Y-119546571D02*
X167704819Y-119546571D01*
X166657200Y-119784666D02*
X167371485Y-120022761D01*
X167371485Y-120022761D02*
X167371485Y-119403714D01*
X166475580Y-102877857D02*
X166523200Y-102925476D01*
X166523200Y-102925476D02*
X166570819Y-103068333D01*
X166570819Y-103068333D02*
X166570819Y-103163571D01*
X166570819Y-103163571D02*
X166523200Y-103306428D01*
X166523200Y-103306428D02*
X166427961Y-103401666D01*
X166427961Y-103401666D02*
X166332723Y-103449285D01*
X166332723Y-103449285D02*
X166142247Y-103496904D01*
X166142247Y-103496904D02*
X165999390Y-103496904D01*
X165999390Y-103496904D02*
X165808914Y-103449285D01*
X165808914Y-103449285D02*
X165713676Y-103401666D01*
X165713676Y-103401666D02*
X165618438Y-103306428D01*
X165618438Y-103306428D02*
X165570819Y-103163571D01*
X165570819Y-103163571D02*
X165570819Y-103068333D01*
X165570819Y-103068333D02*
X165618438Y-102925476D01*
X165618438Y-102925476D02*
X165666057Y-102877857D01*
X166570819Y-101925476D02*
X166570819Y-102496904D01*
X166570819Y-102211190D02*
X165570819Y-102211190D01*
X165570819Y-102211190D02*
X165713676Y-102306428D01*
X165713676Y-102306428D02*
X165808914Y-102401666D01*
X165808914Y-102401666D02*
X165856533Y-102496904D01*
X165570819Y-101068333D02*
X165570819Y-101258809D01*
X165570819Y-101258809D02*
X165618438Y-101354047D01*
X165618438Y-101354047D02*
X165666057Y-101401666D01*
X165666057Y-101401666D02*
X165808914Y-101496904D01*
X165808914Y-101496904D02*
X165999390Y-101544523D01*
X165999390Y-101544523D02*
X166380342Y-101544523D01*
X166380342Y-101544523D02*
X166475580Y-101496904D01*
X166475580Y-101496904D02*
X166523200Y-101449285D01*
X166523200Y-101449285D02*
X166570819Y-101354047D01*
X166570819Y-101354047D02*
X166570819Y-101163571D01*
X166570819Y-101163571D02*
X166523200Y-101068333D01*
X166523200Y-101068333D02*
X166475580Y-101020714D01*
X166475580Y-101020714D02*
X166380342Y-100973095D01*
X166380342Y-100973095D02*
X166142247Y-100973095D01*
X166142247Y-100973095D02*
X166047009Y-101020714D01*
X166047009Y-101020714D02*
X165999390Y-101068333D01*
X165999390Y-101068333D02*
X165951771Y-101163571D01*
X165951771Y-101163571D02*
X165951771Y-101354047D01*
X165951771Y-101354047D02*
X165999390Y-101449285D01*
X165999390Y-101449285D02*
X166047009Y-101496904D01*
X166047009Y-101496904D02*
X166142247Y-101544523D01*
X159617580Y-102877857D02*
X159665200Y-102925476D01*
X159665200Y-102925476D02*
X159712819Y-103068333D01*
X159712819Y-103068333D02*
X159712819Y-103163571D01*
X159712819Y-103163571D02*
X159665200Y-103306428D01*
X159665200Y-103306428D02*
X159569961Y-103401666D01*
X159569961Y-103401666D02*
X159474723Y-103449285D01*
X159474723Y-103449285D02*
X159284247Y-103496904D01*
X159284247Y-103496904D02*
X159141390Y-103496904D01*
X159141390Y-103496904D02*
X158950914Y-103449285D01*
X158950914Y-103449285D02*
X158855676Y-103401666D01*
X158855676Y-103401666D02*
X158760438Y-103306428D01*
X158760438Y-103306428D02*
X158712819Y-103163571D01*
X158712819Y-103163571D02*
X158712819Y-103068333D01*
X158712819Y-103068333D02*
X158760438Y-102925476D01*
X158760438Y-102925476D02*
X158808057Y-102877857D01*
X159712819Y-101925476D02*
X159712819Y-102496904D01*
X159712819Y-102211190D02*
X158712819Y-102211190D01*
X158712819Y-102211190D02*
X158855676Y-102306428D01*
X158855676Y-102306428D02*
X158950914Y-102401666D01*
X158950914Y-102401666D02*
X158998533Y-102496904D01*
X158712819Y-101020714D02*
X158712819Y-101496904D01*
X158712819Y-101496904D02*
X159189009Y-101544523D01*
X159189009Y-101544523D02*
X159141390Y-101496904D01*
X159141390Y-101496904D02*
X159093771Y-101401666D01*
X159093771Y-101401666D02*
X159093771Y-101163571D01*
X159093771Y-101163571D02*
X159141390Y-101068333D01*
X159141390Y-101068333D02*
X159189009Y-101020714D01*
X159189009Y-101020714D02*
X159284247Y-100973095D01*
X159284247Y-100973095D02*
X159522342Y-100973095D01*
X159522342Y-100973095D02*
X159617580Y-101020714D01*
X159617580Y-101020714D02*
X159665200Y-101068333D01*
X159665200Y-101068333D02*
X159712819Y-101163571D01*
X159712819Y-101163571D02*
X159712819Y-101401666D01*
X159712819Y-101401666D02*
X159665200Y-101496904D01*
X159665200Y-101496904D02*
X159617580Y-101544523D01*
D11*
X163021461Y-104277142D02*
X163021461Y-103672380D01*
X163384318Y-104398094D02*
X162114318Y-103974761D01*
X162114318Y-103974761D02*
X163384318Y-103551427D01*
X163263365Y-102402380D02*
X163323842Y-102462856D01*
X163323842Y-102462856D02*
X163384318Y-102644285D01*
X163384318Y-102644285D02*
X163384318Y-102765237D01*
X163384318Y-102765237D02*
X163323842Y-102946666D01*
X163323842Y-102946666D02*
X163202889Y-103067618D01*
X163202889Y-103067618D02*
X163081937Y-103128095D01*
X163081937Y-103128095D02*
X162840032Y-103188571D01*
X162840032Y-103188571D02*
X162658603Y-103188571D01*
X162658603Y-103188571D02*
X162416699Y-103128095D01*
X162416699Y-103128095D02*
X162295746Y-103067618D01*
X162295746Y-103067618D02*
X162174794Y-102946666D01*
X162174794Y-102946666D02*
X162114318Y-102765237D01*
X162114318Y-102765237D02*
X162114318Y-102644285D01*
X162114318Y-102644285D02*
X162174794Y-102462856D01*
X162174794Y-102462856D02*
X162235270Y-102402380D01*
X163384318Y-101192856D02*
X163384318Y-101918571D01*
X163384318Y-101555714D02*
X162114318Y-101555714D01*
X162114318Y-101555714D02*
X162295746Y-101676666D01*
X162295746Y-101676666D02*
X162416699Y-101797618D01*
X162416699Y-101797618D02*
X162477175Y-101918571D01*
X128047618Y-87764318D02*
X128047618Y-86494318D01*
X128047618Y-86494318D02*
X128349999Y-86494318D01*
X128349999Y-86494318D02*
X128531428Y-86554794D01*
X128531428Y-86554794D02*
X128652380Y-86675746D01*
X128652380Y-86675746D02*
X128712857Y-86796699D01*
X128712857Y-86796699D02*
X128773333Y-87038603D01*
X128773333Y-87038603D02*
X128773333Y-87220032D01*
X128773333Y-87220032D02*
X128712857Y-87461937D01*
X128712857Y-87461937D02*
X128652380Y-87582889D01*
X128652380Y-87582889D02*
X128531428Y-87703842D01*
X128531428Y-87703842D02*
X128349999Y-87764318D01*
X128349999Y-87764318D02*
X128047618Y-87764318D01*
X129257142Y-86615270D02*
X129317618Y-86554794D01*
X129317618Y-86554794D02*
X129438571Y-86494318D01*
X129438571Y-86494318D02*
X129740952Y-86494318D01*
X129740952Y-86494318D02*
X129861904Y-86554794D01*
X129861904Y-86554794D02*
X129922380Y-86615270D01*
X129922380Y-86615270D02*
X129982857Y-86736222D01*
X129982857Y-86736222D02*
X129982857Y-86857175D01*
X129982857Y-86857175D02*
X129922380Y-87038603D01*
X129922380Y-87038603D02*
X129196666Y-87764318D01*
X129196666Y-87764318D02*
X129982857Y-87764318D01*
X130888619Y-90079080D02*
X130465285Y-90079080D01*
X130465285Y-90744318D02*
X130465285Y-89474318D01*
X130465285Y-89474318D02*
X131070047Y-89474318D01*
X132158618Y-90744318D02*
X131553856Y-90744318D01*
X131553856Y-90744318D02*
X131553856Y-89474318D01*
X133247190Y-90744318D02*
X132521475Y-90744318D01*
X132884332Y-90744318D02*
X132884332Y-89474318D01*
X132884332Y-89474318D02*
X132763380Y-89655746D01*
X132763380Y-89655746D02*
X132642428Y-89776699D01*
X132642428Y-89776699D02*
X132521475Y-89837175D01*
D10*
X136424819Y-84181666D02*
X135948628Y-84514999D01*
X136424819Y-84753094D02*
X135424819Y-84753094D01*
X135424819Y-84753094D02*
X135424819Y-84372142D01*
X135424819Y-84372142D02*
X135472438Y-84276904D01*
X135472438Y-84276904D02*
X135520057Y-84229285D01*
X135520057Y-84229285D02*
X135615295Y-84181666D01*
X135615295Y-84181666D02*
X135758152Y-84181666D01*
X135758152Y-84181666D02*
X135853390Y-84229285D01*
X135853390Y-84229285D02*
X135901009Y-84276904D01*
X135901009Y-84276904D02*
X135948628Y-84372142D01*
X135948628Y-84372142D02*
X135948628Y-84753094D01*
X135424819Y-83276904D02*
X135424819Y-83753094D01*
X135424819Y-83753094D02*
X135901009Y-83800713D01*
X135901009Y-83800713D02*
X135853390Y-83753094D01*
X135853390Y-83753094D02*
X135805771Y-83657856D01*
X135805771Y-83657856D02*
X135805771Y-83419761D01*
X135805771Y-83419761D02*
X135853390Y-83324523D01*
X135853390Y-83324523D02*
X135901009Y-83276904D01*
X135901009Y-83276904D02*
X135996247Y-83229285D01*
X135996247Y-83229285D02*
X136234342Y-83229285D01*
X136234342Y-83229285D02*
X136329580Y-83276904D01*
X136329580Y-83276904D02*
X136377200Y-83324523D01*
X136377200Y-83324523D02*
X136424819Y-83419761D01*
X136424819Y-83419761D02*
X136424819Y-83657856D01*
X136424819Y-83657856D02*
X136377200Y-83753094D01*
X136377200Y-83753094D02*
X136329580Y-83800713D01*
X136938333Y-78845180D02*
X136938333Y-78130895D01*
X136938333Y-78130895D02*
X136985952Y-77988038D01*
X136985952Y-77988038D02*
X137081190Y-77892800D01*
X137081190Y-77892800D02*
X137224047Y-77845180D01*
X137224047Y-77845180D02*
X137319285Y-77845180D01*
X136509761Y-78749942D02*
X136462142Y-78797561D01*
X136462142Y-78797561D02*
X136366904Y-78845180D01*
X136366904Y-78845180D02*
X136128809Y-78845180D01*
X136128809Y-78845180D02*
X136033571Y-78797561D01*
X136033571Y-78797561D02*
X135985952Y-78749942D01*
X135985952Y-78749942D02*
X135938333Y-78654704D01*
X135938333Y-78654704D02*
X135938333Y-78559466D01*
X135938333Y-78559466D02*
X135985952Y-78416609D01*
X135985952Y-78416609D02*
X136557380Y-77845180D01*
X136557380Y-77845180D02*
X135938333Y-77845180D01*
X124834819Y-84181666D02*
X124358628Y-84514999D01*
X124834819Y-84753094D02*
X123834819Y-84753094D01*
X123834819Y-84753094D02*
X123834819Y-84372142D01*
X123834819Y-84372142D02*
X123882438Y-84276904D01*
X123882438Y-84276904D02*
X123930057Y-84229285D01*
X123930057Y-84229285D02*
X124025295Y-84181666D01*
X124025295Y-84181666D02*
X124168152Y-84181666D01*
X124168152Y-84181666D02*
X124263390Y-84229285D01*
X124263390Y-84229285D02*
X124311009Y-84276904D01*
X124311009Y-84276904D02*
X124358628Y-84372142D01*
X124358628Y-84372142D02*
X124358628Y-84753094D01*
X123834819Y-83324523D02*
X123834819Y-83514999D01*
X123834819Y-83514999D02*
X123882438Y-83610237D01*
X123882438Y-83610237D02*
X123930057Y-83657856D01*
X123930057Y-83657856D02*
X124072914Y-83753094D01*
X124072914Y-83753094D02*
X124263390Y-83800713D01*
X124263390Y-83800713D02*
X124644342Y-83800713D01*
X124644342Y-83800713D02*
X124739580Y-83753094D01*
X124739580Y-83753094D02*
X124787200Y-83705475D01*
X124787200Y-83705475D02*
X124834819Y-83610237D01*
X124834819Y-83610237D02*
X124834819Y-83419761D01*
X124834819Y-83419761D02*
X124787200Y-83324523D01*
X124787200Y-83324523D02*
X124739580Y-83276904D01*
X124739580Y-83276904D02*
X124644342Y-83229285D01*
X124644342Y-83229285D02*
X124406247Y-83229285D01*
X124406247Y-83229285D02*
X124311009Y-83276904D01*
X124311009Y-83276904D02*
X124263390Y-83324523D01*
X124263390Y-83324523D02*
X124215771Y-83419761D01*
X124215771Y-83419761D02*
X124215771Y-83610237D01*
X124215771Y-83610237D02*
X124263390Y-83705475D01*
X124263390Y-83705475D02*
X124311009Y-83753094D01*
X124311009Y-83753094D02*
X124406247Y-83800713D01*
X171650819Y-81160857D02*
X171174628Y-81494190D01*
X171650819Y-81732285D02*
X170650819Y-81732285D01*
X170650819Y-81732285D02*
X170650819Y-81351333D01*
X170650819Y-81351333D02*
X170698438Y-81256095D01*
X170698438Y-81256095D02*
X170746057Y-81208476D01*
X170746057Y-81208476D02*
X170841295Y-81160857D01*
X170841295Y-81160857D02*
X170984152Y-81160857D01*
X170984152Y-81160857D02*
X171079390Y-81208476D01*
X171079390Y-81208476D02*
X171127009Y-81256095D01*
X171127009Y-81256095D02*
X171174628Y-81351333D01*
X171174628Y-81351333D02*
X171174628Y-81732285D01*
X171650819Y-80208476D02*
X171650819Y-80779904D01*
X171650819Y-80494190D02*
X170650819Y-80494190D01*
X170650819Y-80494190D02*
X170793676Y-80589428D01*
X170793676Y-80589428D02*
X170888914Y-80684666D01*
X170888914Y-80684666D02*
X170936533Y-80779904D01*
X171650819Y-79256095D02*
X171650819Y-79827523D01*
X171650819Y-79541809D02*
X170650819Y-79541809D01*
X170650819Y-79541809D02*
X170793676Y-79637047D01*
X170793676Y-79637047D02*
X170888914Y-79732285D01*
X170888914Y-79732285D02*
X170936533Y-79827523D01*
X166062819Y-81160857D02*
X165586628Y-81494190D01*
X166062819Y-81732285D02*
X165062819Y-81732285D01*
X165062819Y-81732285D02*
X165062819Y-81351333D01*
X165062819Y-81351333D02*
X165110438Y-81256095D01*
X165110438Y-81256095D02*
X165158057Y-81208476D01*
X165158057Y-81208476D02*
X165253295Y-81160857D01*
X165253295Y-81160857D02*
X165396152Y-81160857D01*
X165396152Y-81160857D02*
X165491390Y-81208476D01*
X165491390Y-81208476D02*
X165539009Y-81256095D01*
X165539009Y-81256095D02*
X165586628Y-81351333D01*
X165586628Y-81351333D02*
X165586628Y-81732285D01*
X166062819Y-80208476D02*
X166062819Y-80779904D01*
X166062819Y-80494190D02*
X165062819Y-80494190D01*
X165062819Y-80494190D02*
X165205676Y-80589428D01*
X165205676Y-80589428D02*
X165300914Y-80684666D01*
X165300914Y-80684666D02*
X165348533Y-80779904D01*
X165062819Y-79589428D02*
X165062819Y-79494190D01*
X165062819Y-79494190D02*
X165110438Y-79398952D01*
X165110438Y-79398952D02*
X165158057Y-79351333D01*
X165158057Y-79351333D02*
X165253295Y-79303714D01*
X165253295Y-79303714D02*
X165443771Y-79256095D01*
X165443771Y-79256095D02*
X165681866Y-79256095D01*
X165681866Y-79256095D02*
X165872342Y-79303714D01*
X165872342Y-79303714D02*
X165967580Y-79351333D01*
X165967580Y-79351333D02*
X166015200Y-79398952D01*
X166015200Y-79398952D02*
X166062819Y-79494190D01*
X166062819Y-79494190D02*
X166062819Y-79589428D01*
X166062819Y-79589428D02*
X166015200Y-79684666D01*
X166015200Y-79684666D02*
X165967580Y-79732285D01*
X165967580Y-79732285D02*
X165872342Y-79779904D01*
X165872342Y-79779904D02*
X165681866Y-79827523D01*
X165681866Y-79827523D02*
X165443771Y-79827523D01*
X165443771Y-79827523D02*
X165253295Y-79779904D01*
X165253295Y-79779904D02*
X165158057Y-79732285D01*
X165158057Y-79732285D02*
X165110438Y-79684666D01*
X165110438Y-79684666D02*
X165062819Y-79589428D01*
D11*
X161622618Y-76774318D02*
X161622618Y-75504318D01*
X161622618Y-75504318D02*
X161924999Y-75504318D01*
X161924999Y-75504318D02*
X162106428Y-75564794D01*
X162106428Y-75564794D02*
X162227380Y-75685746D01*
X162227380Y-75685746D02*
X162287857Y-75806699D01*
X162287857Y-75806699D02*
X162348333Y-76048603D01*
X162348333Y-76048603D02*
X162348333Y-76230032D01*
X162348333Y-76230032D02*
X162287857Y-76471937D01*
X162287857Y-76471937D02*
X162227380Y-76592889D01*
X162227380Y-76592889D02*
X162106428Y-76713842D01*
X162106428Y-76713842D02*
X161924999Y-76774318D01*
X161924999Y-76774318D02*
X161622618Y-76774318D01*
X163436904Y-75927651D02*
X163436904Y-76774318D01*
X163134523Y-75443842D02*
X162832142Y-76350984D01*
X162832142Y-76350984D02*
X163618333Y-76350984D01*
D10*
X160384819Y-112013904D02*
X161194342Y-112013904D01*
X161194342Y-112013904D02*
X161289580Y-111966285D01*
X161289580Y-111966285D02*
X161337200Y-111918666D01*
X161337200Y-111918666D02*
X161384819Y-111823428D01*
X161384819Y-111823428D02*
X161384819Y-111632952D01*
X161384819Y-111632952D02*
X161337200Y-111537714D01*
X161337200Y-111537714D02*
X161289580Y-111490095D01*
X161289580Y-111490095D02*
X161194342Y-111442476D01*
X161194342Y-111442476D02*
X160384819Y-111442476D01*
X160718152Y-110537714D02*
X161384819Y-110537714D01*
X160337200Y-110775809D02*
X161051485Y-111013904D01*
X161051485Y-111013904D02*
X161051485Y-110394857D01*
X148777293Y-105102582D02*
X148301102Y-105435915D01*
X148777293Y-105674010D02*
X147777293Y-105674010D01*
X147777293Y-105674010D02*
X147777293Y-105293058D01*
X147777293Y-105293058D02*
X147824912Y-105197820D01*
X147824912Y-105197820D02*
X147872531Y-105150201D01*
X147872531Y-105150201D02*
X147967769Y-105102582D01*
X147967769Y-105102582D02*
X148110626Y-105102582D01*
X148110626Y-105102582D02*
X148205864Y-105150201D01*
X148205864Y-105150201D02*
X148253483Y-105197820D01*
X148253483Y-105197820D02*
X148301102Y-105293058D01*
X148301102Y-105293058D02*
X148301102Y-105674010D01*
X148777293Y-104150201D02*
X148777293Y-104721629D01*
X148777293Y-104435915D02*
X147777293Y-104435915D01*
X147777293Y-104435915D02*
X147920150Y-104531153D01*
X147920150Y-104531153D02*
X148015388Y-104626391D01*
X148015388Y-104626391D02*
X148063007Y-104721629D01*
X148110626Y-103293058D02*
X148777293Y-103293058D01*
X147729674Y-103531153D02*
X148443959Y-103769248D01*
X148443959Y-103769248D02*
X148443959Y-103150201D01*
X139899616Y-102534544D02*
X139566283Y-102058353D01*
X139328188Y-102534544D02*
X139328188Y-101534544D01*
X139328188Y-101534544D02*
X139709140Y-101534544D01*
X139709140Y-101534544D02*
X139804378Y-101582163D01*
X139804378Y-101582163D02*
X139851997Y-101629782D01*
X139851997Y-101629782D02*
X139899616Y-101725020D01*
X139899616Y-101725020D02*
X139899616Y-101867877D01*
X139899616Y-101867877D02*
X139851997Y-101963115D01*
X139851997Y-101963115D02*
X139804378Y-102010734D01*
X139804378Y-102010734D02*
X139709140Y-102058353D01*
X139709140Y-102058353D02*
X139328188Y-102058353D01*
X140851997Y-102534544D02*
X140280569Y-102534544D01*
X140566283Y-102534544D02*
X140566283Y-101534544D01*
X140566283Y-101534544D02*
X140471045Y-101677401D01*
X140471045Y-101677401D02*
X140375807Y-101772639D01*
X140375807Y-101772639D02*
X140280569Y-101820258D01*
X141185331Y-101534544D02*
X141804378Y-101534544D01*
X141804378Y-101534544D02*
X141471045Y-101915496D01*
X141471045Y-101915496D02*
X141613902Y-101915496D01*
X141613902Y-101915496D02*
X141709140Y-101963115D01*
X141709140Y-101963115D02*
X141756759Y-102010734D01*
X141756759Y-102010734D02*
X141804378Y-102105972D01*
X141804378Y-102105972D02*
X141804378Y-102344067D01*
X141804378Y-102344067D02*
X141756759Y-102439305D01*
X141756759Y-102439305D02*
X141709140Y-102486925D01*
X141709140Y-102486925D02*
X141613902Y-102534544D01*
X141613902Y-102534544D02*
X141328188Y-102534544D01*
X141328188Y-102534544D02*
X141232950Y-102486925D01*
X141232950Y-102486925D02*
X141185331Y-102439305D01*
X150547819Y-100197857D02*
X150071628Y-100531190D01*
X150547819Y-100769285D02*
X149547819Y-100769285D01*
X149547819Y-100769285D02*
X149547819Y-100388333D01*
X149547819Y-100388333D02*
X149595438Y-100293095D01*
X149595438Y-100293095D02*
X149643057Y-100245476D01*
X149643057Y-100245476D02*
X149738295Y-100197857D01*
X149738295Y-100197857D02*
X149881152Y-100197857D01*
X149881152Y-100197857D02*
X149976390Y-100245476D01*
X149976390Y-100245476D02*
X150024009Y-100293095D01*
X150024009Y-100293095D02*
X150071628Y-100388333D01*
X150071628Y-100388333D02*
X150071628Y-100769285D01*
X150547819Y-99245476D02*
X150547819Y-99816904D01*
X150547819Y-99531190D02*
X149547819Y-99531190D01*
X149547819Y-99531190D02*
X149690676Y-99626428D01*
X149690676Y-99626428D02*
X149785914Y-99721666D01*
X149785914Y-99721666D02*
X149833533Y-99816904D01*
X149643057Y-98864523D02*
X149595438Y-98816904D01*
X149595438Y-98816904D02*
X149547819Y-98721666D01*
X149547819Y-98721666D02*
X149547819Y-98483571D01*
X149547819Y-98483571D02*
X149595438Y-98388333D01*
X149595438Y-98388333D02*
X149643057Y-98340714D01*
X149643057Y-98340714D02*
X149738295Y-98293095D01*
X149738295Y-98293095D02*
X149833533Y-98293095D01*
X149833533Y-98293095D02*
X149976390Y-98340714D01*
X149976390Y-98340714D02*
X150547819Y-98912142D01*
X150547819Y-98912142D02*
X150547819Y-98293095D01*
X179110819Y-80430666D02*
X178634628Y-80763999D01*
X179110819Y-81002094D02*
X178110819Y-81002094D01*
X178110819Y-81002094D02*
X178110819Y-80621142D01*
X178110819Y-80621142D02*
X178158438Y-80525904D01*
X178158438Y-80525904D02*
X178206057Y-80478285D01*
X178206057Y-80478285D02*
X178301295Y-80430666D01*
X178301295Y-80430666D02*
X178444152Y-80430666D01*
X178444152Y-80430666D02*
X178539390Y-80478285D01*
X178539390Y-80478285D02*
X178587009Y-80525904D01*
X178587009Y-80525904D02*
X178634628Y-80621142D01*
X178634628Y-80621142D02*
X178634628Y-81002094D01*
X178539390Y-79859237D02*
X178491771Y-79954475D01*
X178491771Y-79954475D02*
X178444152Y-80002094D01*
X178444152Y-80002094D02*
X178348914Y-80049713D01*
X178348914Y-80049713D02*
X178301295Y-80049713D01*
X178301295Y-80049713D02*
X178206057Y-80002094D01*
X178206057Y-80002094D02*
X178158438Y-79954475D01*
X178158438Y-79954475D02*
X178110819Y-79859237D01*
X178110819Y-79859237D02*
X178110819Y-79668761D01*
X178110819Y-79668761D02*
X178158438Y-79573523D01*
X178158438Y-79573523D02*
X178206057Y-79525904D01*
X178206057Y-79525904D02*
X178301295Y-79478285D01*
X178301295Y-79478285D02*
X178348914Y-79478285D01*
X178348914Y-79478285D02*
X178444152Y-79525904D01*
X178444152Y-79525904D02*
X178491771Y-79573523D01*
X178491771Y-79573523D02*
X178539390Y-79668761D01*
X178539390Y-79668761D02*
X178539390Y-79859237D01*
X178539390Y-79859237D02*
X178587009Y-79954475D01*
X178587009Y-79954475D02*
X178634628Y-80002094D01*
X178634628Y-80002094D02*
X178729866Y-80049713D01*
X178729866Y-80049713D02*
X178920342Y-80049713D01*
X178920342Y-80049713D02*
X179015580Y-80002094D01*
X179015580Y-80002094D02*
X179063200Y-79954475D01*
X179063200Y-79954475D02*
X179110819Y-79859237D01*
X179110819Y-79859237D02*
X179110819Y-79668761D01*
X179110819Y-79668761D02*
X179063200Y-79573523D01*
X179063200Y-79573523D02*
X179015580Y-79525904D01*
X179015580Y-79525904D02*
X178920342Y-79478285D01*
X178920342Y-79478285D02*
X178729866Y-79478285D01*
X178729866Y-79478285D02*
X178634628Y-79525904D01*
X178634628Y-79525904D02*
X178587009Y-79573523D01*
X178587009Y-79573523D02*
X178539390Y-79668761D01*
X146731594Y-96488519D02*
X146731594Y-97298042D01*
X146731594Y-97298042D02*
X146779213Y-97393280D01*
X146779213Y-97393280D02*
X146826832Y-97440900D01*
X146826832Y-97440900D02*
X146922070Y-97488519D01*
X146922070Y-97488519D02*
X147112546Y-97488519D01*
X147112546Y-97488519D02*
X147207784Y-97440900D01*
X147207784Y-97440900D02*
X147255403Y-97393280D01*
X147255403Y-97393280D02*
X147303022Y-97298042D01*
X147303022Y-97298042D02*
X147303022Y-96488519D01*
X148207784Y-96488519D02*
X148017308Y-96488519D01*
X148017308Y-96488519D02*
X147922070Y-96536138D01*
X147922070Y-96536138D02*
X147874451Y-96583757D01*
X147874451Y-96583757D02*
X147779213Y-96726614D01*
X147779213Y-96726614D02*
X147731594Y-96917090D01*
X147731594Y-96917090D02*
X147731594Y-97298042D01*
X147731594Y-97298042D02*
X147779213Y-97393280D01*
X147779213Y-97393280D02*
X147826832Y-97440900D01*
X147826832Y-97440900D02*
X147922070Y-97488519D01*
X147922070Y-97488519D02*
X148112546Y-97488519D01*
X148112546Y-97488519D02*
X148207784Y-97440900D01*
X148207784Y-97440900D02*
X148255403Y-97393280D01*
X148255403Y-97393280D02*
X148303022Y-97298042D01*
X148303022Y-97298042D02*
X148303022Y-97059947D01*
X148303022Y-97059947D02*
X148255403Y-96964709D01*
X148255403Y-96964709D02*
X148207784Y-96917090D01*
X148207784Y-96917090D02*
X148112546Y-96869471D01*
X148112546Y-96869471D02*
X147922070Y-96869471D01*
X147922070Y-96869471D02*
X147826832Y-96917090D01*
X147826832Y-96917090D02*
X147779213Y-96964709D01*
X147779213Y-96964709D02*
X147731594Y-97059947D01*
X143545999Y-96838419D02*
X143545999Y-97076514D01*
X143307904Y-96981276D02*
X143545999Y-97076514D01*
X143545999Y-97076514D02*
X143784094Y-96981276D01*
X143403142Y-97266990D02*
X143545999Y-97076514D01*
X143545999Y-97076514D02*
X143688856Y-97266990D01*
X143545999Y-96838419D02*
X143545999Y-97076514D01*
X143307904Y-96981276D02*
X143545999Y-97076514D01*
X143545999Y-97076514D02*
X143784094Y-96981276D01*
X143403142Y-97266990D02*
X143545999Y-97076514D01*
X143545999Y-97076514D02*
X143688856Y-97266990D01*
X156460819Y-100107904D02*
X157270342Y-100107904D01*
X157270342Y-100107904D02*
X157365580Y-100060285D01*
X157365580Y-100060285D02*
X157413200Y-100012666D01*
X157413200Y-100012666D02*
X157460819Y-99917428D01*
X157460819Y-99917428D02*
X157460819Y-99726952D01*
X157460819Y-99726952D02*
X157413200Y-99631714D01*
X157413200Y-99631714D02*
X157365580Y-99584095D01*
X157365580Y-99584095D02*
X157270342Y-99536476D01*
X157270342Y-99536476D02*
X156460819Y-99536476D01*
X156460819Y-98584095D02*
X156460819Y-99060285D01*
X156460819Y-99060285D02*
X156937009Y-99107904D01*
X156937009Y-99107904D02*
X156889390Y-99060285D01*
X156889390Y-99060285D02*
X156841771Y-98965047D01*
X156841771Y-98965047D02*
X156841771Y-98726952D01*
X156841771Y-98726952D02*
X156889390Y-98631714D01*
X156889390Y-98631714D02*
X156937009Y-98584095D01*
X156937009Y-98584095D02*
X157032247Y-98536476D01*
X157032247Y-98536476D02*
X157270342Y-98536476D01*
X157270342Y-98536476D02*
X157365580Y-98584095D01*
X157365580Y-98584095D02*
X157413200Y-98631714D01*
X157413200Y-98631714D02*
X157460819Y-98726952D01*
X157460819Y-98726952D02*
X157460819Y-98965047D01*
X157460819Y-98965047D02*
X157413200Y-99060285D01*
X157413200Y-99060285D02*
X157365580Y-99107904D01*
X184320819Y-80430666D02*
X183844628Y-80763999D01*
X184320819Y-81002094D02*
X183320819Y-81002094D01*
X183320819Y-81002094D02*
X183320819Y-80621142D01*
X183320819Y-80621142D02*
X183368438Y-80525904D01*
X183368438Y-80525904D02*
X183416057Y-80478285D01*
X183416057Y-80478285D02*
X183511295Y-80430666D01*
X183511295Y-80430666D02*
X183654152Y-80430666D01*
X183654152Y-80430666D02*
X183749390Y-80478285D01*
X183749390Y-80478285D02*
X183797009Y-80525904D01*
X183797009Y-80525904D02*
X183844628Y-80621142D01*
X183844628Y-80621142D02*
X183844628Y-81002094D01*
X184320819Y-79954475D02*
X184320819Y-79763999D01*
X184320819Y-79763999D02*
X184273200Y-79668761D01*
X184273200Y-79668761D02*
X184225580Y-79621142D01*
X184225580Y-79621142D02*
X184082723Y-79525904D01*
X184082723Y-79525904D02*
X183892247Y-79478285D01*
X183892247Y-79478285D02*
X183511295Y-79478285D01*
X183511295Y-79478285D02*
X183416057Y-79525904D01*
X183416057Y-79525904D02*
X183368438Y-79573523D01*
X183368438Y-79573523D02*
X183320819Y-79668761D01*
X183320819Y-79668761D02*
X183320819Y-79859237D01*
X183320819Y-79859237D02*
X183368438Y-79954475D01*
X183368438Y-79954475D02*
X183416057Y-80002094D01*
X183416057Y-80002094D02*
X183511295Y-80049713D01*
X183511295Y-80049713D02*
X183749390Y-80049713D01*
X183749390Y-80049713D02*
X183844628Y-80002094D01*
X183844628Y-80002094D02*
X183892247Y-79954475D01*
X183892247Y-79954475D02*
X183939866Y-79859237D01*
X183939866Y-79859237D02*
X183939866Y-79668761D01*
X183939866Y-79668761D02*
X183892247Y-79573523D01*
X183892247Y-79573523D02*
X183844628Y-79525904D01*
X183844628Y-79525904D02*
X183749390Y-79478285D01*
X174476580Y-83124166D02*
X174524200Y-83171785D01*
X174524200Y-83171785D02*
X174571819Y-83314642D01*
X174571819Y-83314642D02*
X174571819Y-83409880D01*
X174571819Y-83409880D02*
X174524200Y-83552737D01*
X174524200Y-83552737D02*
X174428961Y-83647975D01*
X174428961Y-83647975D02*
X174333723Y-83695594D01*
X174333723Y-83695594D02*
X174143247Y-83743213D01*
X174143247Y-83743213D02*
X174000390Y-83743213D01*
X174000390Y-83743213D02*
X173809914Y-83695594D01*
X173809914Y-83695594D02*
X173714676Y-83647975D01*
X173714676Y-83647975D02*
X173619438Y-83552737D01*
X173619438Y-83552737D02*
X173571819Y-83409880D01*
X173571819Y-83409880D02*
X173571819Y-83314642D01*
X173571819Y-83314642D02*
X173619438Y-83171785D01*
X173619438Y-83171785D02*
X173667057Y-83124166D01*
X173571819Y-82267023D02*
X173571819Y-82457499D01*
X173571819Y-82457499D02*
X173619438Y-82552737D01*
X173619438Y-82552737D02*
X173667057Y-82600356D01*
X173667057Y-82600356D02*
X173809914Y-82695594D01*
X173809914Y-82695594D02*
X174000390Y-82743213D01*
X174000390Y-82743213D02*
X174381342Y-82743213D01*
X174381342Y-82743213D02*
X174476580Y-82695594D01*
X174476580Y-82695594D02*
X174524200Y-82647975D01*
X174524200Y-82647975D02*
X174571819Y-82552737D01*
X174571819Y-82552737D02*
X174571819Y-82362261D01*
X174571819Y-82362261D02*
X174524200Y-82267023D01*
X174524200Y-82267023D02*
X174476580Y-82219404D01*
X174476580Y-82219404D02*
X174381342Y-82171785D01*
X174381342Y-82171785D02*
X174143247Y-82171785D01*
X174143247Y-82171785D02*
X174048009Y-82219404D01*
X174048009Y-82219404D02*
X174000390Y-82267023D01*
X174000390Y-82267023D02*
X173952771Y-82362261D01*
X173952771Y-82362261D02*
X173952771Y-82552737D01*
X173952771Y-82552737D02*
X174000390Y-82647975D01*
X174000390Y-82647975D02*
X174048009Y-82695594D01*
X174048009Y-82695594D02*
X174143247Y-82743213D01*
X125946819Y-98631333D02*
X126661104Y-98631333D01*
X126661104Y-98631333D02*
X126803961Y-98678952D01*
X126803961Y-98678952D02*
X126899200Y-98774190D01*
X126899200Y-98774190D02*
X126946819Y-98917047D01*
X126946819Y-98917047D02*
X126946819Y-99012285D01*
X126946819Y-97631333D02*
X126946819Y-98202761D01*
X126946819Y-97917047D02*
X125946819Y-97917047D01*
X125946819Y-97917047D02*
X126089676Y-98012285D01*
X126089676Y-98012285D02*
X126184914Y-98107523D01*
X126184914Y-98107523D02*
X126232533Y-98202761D01*
X194056095Y-88354819D02*
X194056095Y-89164342D01*
X194056095Y-89164342D02*
X194103714Y-89259580D01*
X194103714Y-89259580D02*
X194151333Y-89307200D01*
X194151333Y-89307200D02*
X194246571Y-89354819D01*
X194246571Y-89354819D02*
X194437047Y-89354819D01*
X194437047Y-89354819D02*
X194532285Y-89307200D01*
X194532285Y-89307200D02*
X194579904Y-89259580D01*
X194579904Y-89259580D02*
X194627523Y-89164342D01*
X194627523Y-89164342D02*
X194627523Y-88354819D01*
X195008476Y-88354819D02*
X195627523Y-88354819D01*
X195627523Y-88354819D02*
X195294190Y-88735771D01*
X195294190Y-88735771D02*
X195437047Y-88735771D01*
X195437047Y-88735771D02*
X195532285Y-88783390D01*
X195532285Y-88783390D02*
X195579904Y-88831009D01*
X195579904Y-88831009D02*
X195627523Y-88926247D01*
X195627523Y-88926247D02*
X195627523Y-89164342D01*
X195627523Y-89164342D02*
X195579904Y-89259580D01*
X195579904Y-89259580D02*
X195532285Y-89307200D01*
X195532285Y-89307200D02*
X195437047Y-89354819D01*
X195437047Y-89354819D02*
X195151333Y-89354819D01*
X195151333Y-89354819D02*
X195056095Y-89307200D01*
X195056095Y-89307200D02*
X195008476Y-89259580D01*
X192769104Y-103961905D02*
X192769104Y-103485715D01*
X193054819Y-104057143D02*
X192054819Y-103723810D01*
X192054819Y-103723810D02*
X193054819Y-103390477D01*
X192388152Y-103057143D02*
X193054819Y-103057143D01*
X192483390Y-103057143D02*
X192435771Y-103009524D01*
X192435771Y-103009524D02*
X192388152Y-102914286D01*
X192388152Y-102914286D02*
X192388152Y-102771429D01*
X192388152Y-102771429D02*
X192435771Y-102676191D01*
X192435771Y-102676191D02*
X192531009Y-102628572D01*
X192531009Y-102628572D02*
X193054819Y-102628572D01*
X192388152Y-102295238D02*
X192388152Y-101914286D01*
X192054819Y-102152381D02*
X192911961Y-102152381D01*
X192911961Y-102152381D02*
X193007200Y-102104762D01*
X193007200Y-102104762D02*
X193054819Y-102009524D01*
X193054819Y-102009524D02*
X193054819Y-101914286D01*
X193007200Y-101200000D02*
X193054819Y-101295238D01*
X193054819Y-101295238D02*
X193054819Y-101485714D01*
X193054819Y-101485714D02*
X193007200Y-101580952D01*
X193007200Y-101580952D02*
X192911961Y-101628571D01*
X192911961Y-101628571D02*
X192531009Y-101628571D01*
X192531009Y-101628571D02*
X192435771Y-101580952D01*
X192435771Y-101580952D02*
X192388152Y-101485714D01*
X192388152Y-101485714D02*
X192388152Y-101295238D01*
X192388152Y-101295238D02*
X192435771Y-101200000D01*
X192435771Y-101200000D02*
X192531009Y-101152381D01*
X192531009Y-101152381D02*
X192626247Y-101152381D01*
X192626247Y-101152381D02*
X192721485Y-101628571D01*
X192388152Y-100723809D02*
X193054819Y-100723809D01*
X192483390Y-100723809D02*
X192435771Y-100676190D01*
X192435771Y-100676190D02*
X192388152Y-100580952D01*
X192388152Y-100580952D02*
X192388152Y-100438095D01*
X192388152Y-100438095D02*
X192435771Y-100342857D01*
X192435771Y-100342857D02*
X192531009Y-100295238D01*
X192531009Y-100295238D02*
X193054819Y-100295238D01*
X192388152Y-99819047D02*
X193054819Y-99819047D01*
X192483390Y-99819047D02*
X192435771Y-99771428D01*
X192435771Y-99771428D02*
X192388152Y-99676190D01*
X192388152Y-99676190D02*
X192388152Y-99533333D01*
X192388152Y-99533333D02*
X192435771Y-99438095D01*
X192435771Y-99438095D02*
X192531009Y-99390476D01*
X192531009Y-99390476D02*
X193054819Y-99390476D01*
X193054819Y-98485714D02*
X192531009Y-98485714D01*
X192531009Y-98485714D02*
X192435771Y-98533333D01*
X192435771Y-98533333D02*
X192388152Y-98628571D01*
X192388152Y-98628571D02*
X192388152Y-98819047D01*
X192388152Y-98819047D02*
X192435771Y-98914285D01*
X193007200Y-98485714D02*
X193054819Y-98580952D01*
X193054819Y-98580952D02*
X193054819Y-98819047D01*
X193054819Y-98819047D02*
X193007200Y-98914285D01*
X193007200Y-98914285D02*
X192911961Y-98961904D01*
X192911961Y-98961904D02*
X192816723Y-98961904D01*
X192816723Y-98961904D02*
X192721485Y-98914285D01*
X192721485Y-98914285D02*
X192673866Y-98819047D01*
X192673866Y-98819047D02*
X192673866Y-98580952D01*
X192673866Y-98580952D02*
X192626247Y-98485714D01*
X192769104Y-97295237D02*
X192769104Y-96819047D01*
X193054819Y-97390475D02*
X192054819Y-97057142D01*
X192054819Y-97057142D02*
X193054819Y-96723809D01*
X193054819Y-96390475D02*
X192388152Y-96390475D01*
X192578628Y-96390475D02*
X192483390Y-96342856D01*
X192483390Y-96342856D02*
X192435771Y-96295237D01*
X192435771Y-96295237D02*
X192388152Y-96199999D01*
X192388152Y-96199999D02*
X192388152Y-96104761D01*
X193007200Y-95390475D02*
X193054819Y-95485713D01*
X193054819Y-95485713D02*
X193054819Y-95676189D01*
X193054819Y-95676189D02*
X193007200Y-95771427D01*
X193007200Y-95771427D02*
X192911961Y-95819046D01*
X192911961Y-95819046D02*
X192531009Y-95819046D01*
X192531009Y-95819046D02*
X192435771Y-95771427D01*
X192435771Y-95771427D02*
X192388152Y-95676189D01*
X192388152Y-95676189D02*
X192388152Y-95485713D01*
X192388152Y-95485713D02*
X192435771Y-95390475D01*
X192435771Y-95390475D02*
X192531009Y-95342856D01*
X192531009Y-95342856D02*
X192626247Y-95342856D01*
X192626247Y-95342856D02*
X192721485Y-95819046D01*
X193054819Y-94485713D02*
X192531009Y-94485713D01*
X192531009Y-94485713D02*
X192435771Y-94533332D01*
X192435771Y-94533332D02*
X192388152Y-94628570D01*
X192388152Y-94628570D02*
X192388152Y-94819046D01*
X192388152Y-94819046D02*
X192435771Y-94914284D01*
X193007200Y-94485713D02*
X193054819Y-94580951D01*
X193054819Y-94580951D02*
X193054819Y-94819046D01*
X193054819Y-94819046D02*
X193007200Y-94914284D01*
X193007200Y-94914284D02*
X192911961Y-94961903D01*
X192911961Y-94961903D02*
X192816723Y-94961903D01*
X192816723Y-94961903D02*
X192721485Y-94914284D01*
X192721485Y-94914284D02*
X192673866Y-94819046D01*
X192673866Y-94819046D02*
X192673866Y-94580951D01*
X192673866Y-94580951D02*
X192626247Y-94485713D01*
X194389819Y-112728333D02*
X195104104Y-112728333D01*
X195104104Y-112728333D02*
X195246961Y-112775952D01*
X195246961Y-112775952D02*
X195342200Y-112871190D01*
X195342200Y-112871190D02*
X195389819Y-113014047D01*
X195389819Y-113014047D02*
X195389819Y-113109285D01*
X194389819Y-112347380D02*
X194389819Y-111728333D01*
X194389819Y-111728333D02*
X194770771Y-112061666D01*
X194770771Y-112061666D02*
X194770771Y-111918809D01*
X194770771Y-111918809D02*
X194818390Y-111823571D01*
X194818390Y-111823571D02*
X194866009Y-111775952D01*
X194866009Y-111775952D02*
X194961247Y-111728333D01*
X194961247Y-111728333D02*
X195199342Y-111728333D01*
X195199342Y-111728333D02*
X195294580Y-111775952D01*
X195294580Y-111775952D02*
X195342200Y-111823571D01*
X195342200Y-111823571D02*
X195389819Y-111918809D01*
X195389819Y-111918809D02*
X195389819Y-112204523D01*
X195389819Y-112204523D02*
X195342200Y-112299761D01*
X195342200Y-112299761D02*
X195294580Y-112347380D01*
X176815809Y-88243628D02*
X176815809Y-88719819D01*
X176482476Y-87719819D02*
X176815809Y-88243628D01*
X176815809Y-88243628D02*
X177149142Y-87719819D01*
X178006285Y-88719819D02*
X177434857Y-88719819D01*
X177720571Y-88719819D02*
X177720571Y-87719819D01*
X177720571Y-87719819D02*
X177625333Y-87862676D01*
X177625333Y-87862676D02*
X177530095Y-87957914D01*
X177530095Y-87957914D02*
X177434857Y-88005533D01*
X150059580Y-88219166D02*
X150107200Y-88266785D01*
X150107200Y-88266785D02*
X150154819Y-88409642D01*
X150154819Y-88409642D02*
X150154819Y-88504880D01*
X150154819Y-88504880D02*
X150107200Y-88647737D01*
X150107200Y-88647737D02*
X150011961Y-88742975D01*
X150011961Y-88742975D02*
X149916723Y-88790594D01*
X149916723Y-88790594D02*
X149726247Y-88838213D01*
X149726247Y-88838213D02*
X149583390Y-88838213D01*
X149583390Y-88838213D02*
X149392914Y-88790594D01*
X149392914Y-88790594D02*
X149297676Y-88742975D01*
X149297676Y-88742975D02*
X149202438Y-88647737D01*
X149202438Y-88647737D02*
X149154819Y-88504880D01*
X149154819Y-88504880D02*
X149154819Y-88409642D01*
X149154819Y-88409642D02*
X149202438Y-88266785D01*
X149202438Y-88266785D02*
X149250057Y-88219166D01*
X149154819Y-87885832D02*
X149154819Y-87266785D01*
X149154819Y-87266785D02*
X149535771Y-87600118D01*
X149535771Y-87600118D02*
X149535771Y-87457261D01*
X149535771Y-87457261D02*
X149583390Y-87362023D01*
X149583390Y-87362023D02*
X149631009Y-87314404D01*
X149631009Y-87314404D02*
X149726247Y-87266785D01*
X149726247Y-87266785D02*
X149964342Y-87266785D01*
X149964342Y-87266785D02*
X150059580Y-87314404D01*
X150059580Y-87314404D02*
X150107200Y-87362023D01*
X150107200Y-87362023D02*
X150154819Y-87457261D01*
X150154819Y-87457261D02*
X150154819Y-87742975D01*
X150154819Y-87742975D02*
X150107200Y-87838213D01*
X150107200Y-87838213D02*
X150059580Y-87885832D01*
D11*
X152956380Y-81539842D02*
X153137809Y-81600318D01*
X153137809Y-81600318D02*
X153440190Y-81600318D01*
X153440190Y-81600318D02*
X153561142Y-81539842D01*
X153561142Y-81539842D02*
X153621618Y-81479365D01*
X153621618Y-81479365D02*
X153682095Y-81358413D01*
X153682095Y-81358413D02*
X153682095Y-81237461D01*
X153682095Y-81237461D02*
X153621618Y-81116508D01*
X153621618Y-81116508D02*
X153561142Y-81056032D01*
X153561142Y-81056032D02*
X153440190Y-80995556D01*
X153440190Y-80995556D02*
X153198285Y-80935080D01*
X153198285Y-80935080D02*
X153077333Y-80874603D01*
X153077333Y-80874603D02*
X153016856Y-80814127D01*
X153016856Y-80814127D02*
X152956380Y-80693175D01*
X152956380Y-80693175D02*
X152956380Y-80572222D01*
X152956380Y-80572222D02*
X153016856Y-80451270D01*
X153016856Y-80451270D02*
X153077333Y-80390794D01*
X153077333Y-80390794D02*
X153198285Y-80330318D01*
X153198285Y-80330318D02*
X153500666Y-80330318D01*
X153500666Y-80330318D02*
X153682095Y-80390794D01*
X154105428Y-80330318D02*
X154891619Y-80330318D01*
X154891619Y-80330318D02*
X154468285Y-80814127D01*
X154468285Y-80814127D02*
X154649714Y-80814127D01*
X154649714Y-80814127D02*
X154770666Y-80874603D01*
X154770666Y-80874603D02*
X154831142Y-80935080D01*
X154831142Y-80935080D02*
X154891619Y-81056032D01*
X154891619Y-81056032D02*
X154891619Y-81358413D01*
X154891619Y-81358413D02*
X154831142Y-81479365D01*
X154831142Y-81479365D02*
X154770666Y-81539842D01*
X154770666Y-81539842D02*
X154649714Y-81600318D01*
X154649714Y-81600318D02*
X154286857Y-81600318D01*
X154286857Y-81600318D02*
X154165904Y-81539842D01*
X154165904Y-81539842D02*
X154105428Y-81479365D01*
D10*
X153880142Y-95957580D02*
X153832523Y-96005200D01*
X153832523Y-96005200D02*
X153689666Y-96052819D01*
X153689666Y-96052819D02*
X153594428Y-96052819D01*
X153594428Y-96052819D02*
X153451571Y-96005200D01*
X153451571Y-96005200D02*
X153356333Y-95909961D01*
X153356333Y-95909961D02*
X153308714Y-95814723D01*
X153308714Y-95814723D02*
X153261095Y-95624247D01*
X153261095Y-95624247D02*
X153261095Y-95481390D01*
X153261095Y-95481390D02*
X153308714Y-95290914D01*
X153308714Y-95290914D02*
X153356333Y-95195676D01*
X153356333Y-95195676D02*
X153451571Y-95100438D01*
X153451571Y-95100438D02*
X153594428Y-95052819D01*
X153594428Y-95052819D02*
X153689666Y-95052819D01*
X153689666Y-95052819D02*
X153832523Y-95100438D01*
X153832523Y-95100438D02*
X153880142Y-95148057D01*
X154832523Y-96052819D02*
X154261095Y-96052819D01*
X154546809Y-96052819D02*
X154546809Y-95052819D01*
X154546809Y-95052819D02*
X154451571Y-95195676D01*
X154451571Y-95195676D02*
X154356333Y-95290914D01*
X154356333Y-95290914D02*
X154261095Y-95338533D01*
X155165857Y-95052819D02*
X155832523Y-95052819D01*
X155832523Y-95052819D02*
X155403952Y-96052819D01*
X187198095Y-81941200D02*
X187340952Y-81988819D01*
X187340952Y-81988819D02*
X187579047Y-81988819D01*
X187579047Y-81988819D02*
X187674285Y-81941200D01*
X187674285Y-81941200D02*
X187721904Y-81893580D01*
X187721904Y-81893580D02*
X187769523Y-81798342D01*
X187769523Y-81798342D02*
X187769523Y-81703104D01*
X187769523Y-81703104D02*
X187721904Y-81607866D01*
X187721904Y-81607866D02*
X187674285Y-81560247D01*
X187674285Y-81560247D02*
X187579047Y-81512628D01*
X187579047Y-81512628D02*
X187388571Y-81465009D01*
X187388571Y-81465009D02*
X187293333Y-81417390D01*
X187293333Y-81417390D02*
X187245714Y-81369771D01*
X187245714Y-81369771D02*
X187198095Y-81274533D01*
X187198095Y-81274533D02*
X187198095Y-81179295D01*
X187198095Y-81179295D02*
X187245714Y-81084057D01*
X187245714Y-81084057D02*
X187293333Y-81036438D01*
X187293333Y-81036438D02*
X187388571Y-80988819D01*
X187388571Y-80988819D02*
X187626666Y-80988819D01*
X187626666Y-80988819D02*
X187769523Y-81036438D01*
X188150476Y-81084057D02*
X188198095Y-81036438D01*
X188198095Y-81036438D02*
X188293333Y-80988819D01*
X188293333Y-80988819D02*
X188531428Y-80988819D01*
X188531428Y-80988819D02*
X188626666Y-81036438D01*
X188626666Y-81036438D02*
X188674285Y-81084057D01*
X188674285Y-81084057D02*
X188721904Y-81179295D01*
X188721904Y-81179295D02*
X188721904Y-81274533D01*
X188721904Y-81274533D02*
X188674285Y-81417390D01*
X188674285Y-81417390D02*
X188102857Y-81988819D01*
X188102857Y-81988819D02*
X188721904Y-81988819D01*
X145712819Y-90146666D02*
X145236628Y-90479999D01*
X145712819Y-90718094D02*
X144712819Y-90718094D01*
X144712819Y-90718094D02*
X144712819Y-90337142D01*
X144712819Y-90337142D02*
X144760438Y-90241904D01*
X144760438Y-90241904D02*
X144808057Y-90194285D01*
X144808057Y-90194285D02*
X144903295Y-90146666D01*
X144903295Y-90146666D02*
X145046152Y-90146666D01*
X145046152Y-90146666D02*
X145141390Y-90194285D01*
X145141390Y-90194285D02*
X145189009Y-90241904D01*
X145189009Y-90241904D02*
X145236628Y-90337142D01*
X145236628Y-90337142D02*
X145236628Y-90718094D01*
X145712819Y-89194285D02*
X145712819Y-89765713D01*
X145712819Y-89479999D02*
X144712819Y-89479999D01*
X144712819Y-89479999D02*
X144855676Y-89575237D01*
X144855676Y-89575237D02*
X144950914Y-89670475D01*
X144950914Y-89670475D02*
X144998533Y-89765713D01*
X127444833Y-89942819D02*
X127111500Y-89466628D01*
X126873405Y-89942819D02*
X126873405Y-88942819D01*
X126873405Y-88942819D02*
X127254357Y-88942819D01*
X127254357Y-88942819D02*
X127349595Y-88990438D01*
X127349595Y-88990438D02*
X127397214Y-89038057D01*
X127397214Y-89038057D02*
X127444833Y-89133295D01*
X127444833Y-89133295D02*
X127444833Y-89276152D01*
X127444833Y-89276152D02*
X127397214Y-89371390D01*
X127397214Y-89371390D02*
X127349595Y-89419009D01*
X127349595Y-89419009D02*
X127254357Y-89466628D01*
X127254357Y-89466628D02*
X126873405Y-89466628D01*
X127825786Y-89038057D02*
X127873405Y-88990438D01*
X127873405Y-88990438D02*
X127968643Y-88942819D01*
X127968643Y-88942819D02*
X128206738Y-88942819D01*
X128206738Y-88942819D02*
X128301976Y-88990438D01*
X128301976Y-88990438D02*
X128349595Y-89038057D01*
X128349595Y-89038057D02*
X128397214Y-89133295D01*
X128397214Y-89133295D02*
X128397214Y-89228533D01*
X128397214Y-89228533D02*
X128349595Y-89371390D01*
X128349595Y-89371390D02*
X127778167Y-89942819D01*
X127778167Y-89942819D02*
X128397214Y-89942819D01*
X147059905Y-85354819D02*
X147059905Y-84354819D01*
X147059905Y-84354819D02*
X147298000Y-84354819D01*
X147298000Y-84354819D02*
X147440857Y-84402438D01*
X147440857Y-84402438D02*
X147536095Y-84497676D01*
X147536095Y-84497676D02*
X147583714Y-84592914D01*
X147583714Y-84592914D02*
X147631333Y-84783390D01*
X147631333Y-84783390D02*
X147631333Y-84926247D01*
X147631333Y-84926247D02*
X147583714Y-85116723D01*
X147583714Y-85116723D02*
X147536095Y-85211961D01*
X147536095Y-85211961D02*
X147440857Y-85307200D01*
X147440857Y-85307200D02*
X147298000Y-85354819D01*
X147298000Y-85354819D02*
X147059905Y-85354819D01*
X148583714Y-85354819D02*
X148012286Y-85354819D01*
X148298000Y-85354819D02*
X148298000Y-84354819D01*
X148298000Y-84354819D02*
X148202762Y-84497676D01*
X148202762Y-84497676D02*
X148107524Y-84592914D01*
X148107524Y-84592914D02*
X148012286Y-84640533D01*
X120690333Y-101009580D02*
X120642714Y-101057200D01*
X120642714Y-101057200D02*
X120499857Y-101104819D01*
X120499857Y-101104819D02*
X120404619Y-101104819D01*
X120404619Y-101104819D02*
X120261762Y-101057200D01*
X120261762Y-101057200D02*
X120166524Y-100961961D01*
X120166524Y-100961961D02*
X120118905Y-100866723D01*
X120118905Y-100866723D02*
X120071286Y-100676247D01*
X120071286Y-100676247D02*
X120071286Y-100533390D01*
X120071286Y-100533390D02*
X120118905Y-100342914D01*
X120118905Y-100342914D02*
X120166524Y-100247676D01*
X120166524Y-100247676D02*
X120261762Y-100152438D01*
X120261762Y-100152438D02*
X120404619Y-100104819D01*
X120404619Y-100104819D02*
X120499857Y-100104819D01*
X120499857Y-100104819D02*
X120642714Y-100152438D01*
X120642714Y-100152438D02*
X120690333Y-100200057D01*
X121642714Y-101104819D02*
X121071286Y-101104819D01*
X121357000Y-101104819D02*
X121357000Y-100104819D01*
X121357000Y-100104819D02*
X121261762Y-100247676D01*
X121261762Y-100247676D02*
X121166524Y-100342914D01*
X121166524Y-100342914D02*
X121071286Y-100390533D01*
X182317142Y-85769580D02*
X182269523Y-85817200D01*
X182269523Y-85817200D02*
X182126666Y-85864819D01*
X182126666Y-85864819D02*
X182031428Y-85864819D01*
X182031428Y-85864819D02*
X181888571Y-85817200D01*
X181888571Y-85817200D02*
X181793333Y-85721961D01*
X181793333Y-85721961D02*
X181745714Y-85626723D01*
X181745714Y-85626723D02*
X181698095Y-85436247D01*
X181698095Y-85436247D02*
X181698095Y-85293390D01*
X181698095Y-85293390D02*
X181745714Y-85102914D01*
X181745714Y-85102914D02*
X181793333Y-85007676D01*
X181793333Y-85007676D02*
X181888571Y-84912438D01*
X181888571Y-84912438D02*
X182031428Y-84864819D01*
X182031428Y-84864819D02*
X182126666Y-84864819D01*
X182126666Y-84864819D02*
X182269523Y-84912438D01*
X182269523Y-84912438D02*
X182317142Y-84960057D01*
X183269523Y-85864819D02*
X182698095Y-85864819D01*
X182983809Y-85864819D02*
X182983809Y-84864819D01*
X182983809Y-84864819D02*
X182888571Y-85007676D01*
X182888571Y-85007676D02*
X182793333Y-85102914D01*
X182793333Y-85102914D02*
X182698095Y-85150533D01*
X183888571Y-84864819D02*
X183983809Y-84864819D01*
X183983809Y-84864819D02*
X184079047Y-84912438D01*
X184079047Y-84912438D02*
X184126666Y-84960057D01*
X184126666Y-84960057D02*
X184174285Y-85055295D01*
X184174285Y-85055295D02*
X184221904Y-85245771D01*
X184221904Y-85245771D02*
X184221904Y-85483866D01*
X184221904Y-85483866D02*
X184174285Y-85674342D01*
X184174285Y-85674342D02*
X184126666Y-85769580D01*
X184126666Y-85769580D02*
X184079047Y-85817200D01*
X184079047Y-85817200D02*
X183983809Y-85864819D01*
X183983809Y-85864819D02*
X183888571Y-85864819D01*
X183888571Y-85864819D02*
X183793333Y-85817200D01*
X183793333Y-85817200D02*
X183745714Y-85769580D01*
X183745714Y-85769580D02*
X183698095Y-85674342D01*
X183698095Y-85674342D02*
X183650476Y-85483866D01*
X183650476Y-85483866D02*
X183650476Y-85245771D01*
X183650476Y-85245771D02*
X183698095Y-85055295D01*
X183698095Y-85055295D02*
X183745714Y-84960057D01*
X183745714Y-84960057D02*
X183793333Y-84912438D01*
X183793333Y-84912438D02*
X183888571Y-84864819D01*
X128486819Y-98805904D02*
X129296342Y-98805904D01*
X129296342Y-98805904D02*
X129391580Y-98758285D01*
X129391580Y-98758285D02*
X129439200Y-98710666D01*
X129439200Y-98710666D02*
X129486819Y-98615428D01*
X129486819Y-98615428D02*
X129486819Y-98424952D01*
X129486819Y-98424952D02*
X129439200Y-98329714D01*
X129439200Y-98329714D02*
X129391580Y-98282095D01*
X129391580Y-98282095D02*
X129296342Y-98234476D01*
X129296342Y-98234476D02*
X128486819Y-98234476D01*
X129486819Y-97234476D02*
X129486819Y-97805904D01*
X129486819Y-97520190D02*
X128486819Y-97520190D01*
X128486819Y-97520190D02*
X128629676Y-97615428D01*
X128629676Y-97615428D02*
X128724914Y-97710666D01*
X128724914Y-97710666D02*
X128772533Y-97805904D01*
X192645833Y-87674580D02*
X192598214Y-87722200D01*
X192598214Y-87722200D02*
X192455357Y-87769819D01*
X192455357Y-87769819D02*
X192360119Y-87769819D01*
X192360119Y-87769819D02*
X192217262Y-87722200D01*
X192217262Y-87722200D02*
X192122024Y-87626961D01*
X192122024Y-87626961D02*
X192074405Y-87531723D01*
X192074405Y-87531723D02*
X192026786Y-87341247D01*
X192026786Y-87341247D02*
X192026786Y-87198390D01*
X192026786Y-87198390D02*
X192074405Y-87007914D01*
X192074405Y-87007914D02*
X192122024Y-86912676D01*
X192122024Y-86912676D02*
X192217262Y-86817438D01*
X192217262Y-86817438D02*
X192360119Y-86769819D01*
X192360119Y-86769819D02*
X192455357Y-86769819D01*
X192455357Y-86769819D02*
X192598214Y-86817438D01*
X192598214Y-86817438D02*
X192645833Y-86865057D01*
X193217262Y-87198390D02*
X193122024Y-87150771D01*
X193122024Y-87150771D02*
X193074405Y-87103152D01*
X193074405Y-87103152D02*
X193026786Y-87007914D01*
X193026786Y-87007914D02*
X193026786Y-86960295D01*
X193026786Y-86960295D02*
X193074405Y-86865057D01*
X193074405Y-86865057D02*
X193122024Y-86817438D01*
X193122024Y-86817438D02*
X193217262Y-86769819D01*
X193217262Y-86769819D02*
X193407738Y-86769819D01*
X193407738Y-86769819D02*
X193502976Y-86817438D01*
X193502976Y-86817438D02*
X193550595Y-86865057D01*
X193550595Y-86865057D02*
X193598214Y-86960295D01*
X193598214Y-86960295D02*
X193598214Y-87007914D01*
X193598214Y-87007914D02*
X193550595Y-87103152D01*
X193550595Y-87103152D02*
X193502976Y-87150771D01*
X193502976Y-87150771D02*
X193407738Y-87198390D01*
X193407738Y-87198390D02*
X193217262Y-87198390D01*
X193217262Y-87198390D02*
X193122024Y-87246009D01*
X193122024Y-87246009D02*
X193074405Y-87293628D01*
X193074405Y-87293628D02*
X193026786Y-87388866D01*
X193026786Y-87388866D02*
X193026786Y-87579342D01*
X193026786Y-87579342D02*
X193074405Y-87674580D01*
X193074405Y-87674580D02*
X193122024Y-87722200D01*
X193122024Y-87722200D02*
X193217262Y-87769819D01*
X193217262Y-87769819D02*
X193407738Y-87769819D01*
X193407738Y-87769819D02*
X193502976Y-87722200D01*
X193502976Y-87722200D02*
X193550595Y-87674580D01*
X193550595Y-87674580D02*
X193598214Y-87579342D01*
X193598214Y-87579342D02*
X193598214Y-87388866D01*
X193598214Y-87388866D02*
X193550595Y-87293628D01*
X193550595Y-87293628D02*
X193502976Y-87246009D01*
X193502976Y-87246009D02*
X193407738Y-87198390D01*
X183428333Y-83864580D02*
X183380714Y-83912200D01*
X183380714Y-83912200D02*
X183237857Y-83959819D01*
X183237857Y-83959819D02*
X183142619Y-83959819D01*
X183142619Y-83959819D02*
X182999762Y-83912200D01*
X182999762Y-83912200D02*
X182904524Y-83816961D01*
X182904524Y-83816961D02*
X182856905Y-83721723D01*
X182856905Y-83721723D02*
X182809286Y-83531247D01*
X182809286Y-83531247D02*
X182809286Y-83388390D01*
X182809286Y-83388390D02*
X182856905Y-83197914D01*
X182856905Y-83197914D02*
X182904524Y-83102676D01*
X182904524Y-83102676D02*
X182999762Y-83007438D01*
X182999762Y-83007438D02*
X183142619Y-82959819D01*
X183142619Y-82959819D02*
X183237857Y-82959819D01*
X183237857Y-82959819D02*
X183380714Y-83007438D01*
X183380714Y-83007438D02*
X183428333Y-83055057D01*
X183904524Y-83959819D02*
X184095000Y-83959819D01*
X184095000Y-83959819D02*
X184190238Y-83912200D01*
X184190238Y-83912200D02*
X184237857Y-83864580D01*
X184237857Y-83864580D02*
X184333095Y-83721723D01*
X184333095Y-83721723D02*
X184380714Y-83531247D01*
X184380714Y-83531247D02*
X184380714Y-83150295D01*
X184380714Y-83150295D02*
X184333095Y-83055057D01*
X184333095Y-83055057D02*
X184285476Y-83007438D01*
X184285476Y-83007438D02*
X184190238Y-82959819D01*
X184190238Y-82959819D02*
X183999762Y-82959819D01*
X183999762Y-82959819D02*
X183904524Y-83007438D01*
X183904524Y-83007438D02*
X183856905Y-83055057D01*
X183856905Y-83055057D02*
X183809286Y-83150295D01*
X183809286Y-83150295D02*
X183809286Y-83388390D01*
X183809286Y-83388390D02*
X183856905Y-83483628D01*
X183856905Y-83483628D02*
X183904524Y-83531247D01*
X183904524Y-83531247D02*
X183999762Y-83578866D01*
X183999762Y-83578866D02*
X184190238Y-83578866D01*
X184190238Y-83578866D02*
X184285476Y-83531247D01*
X184285476Y-83531247D02*
X184333095Y-83483628D01*
X184333095Y-83483628D02*
X184380714Y-83388390D01*
X146169580Y-120565357D02*
X146217200Y-120612976D01*
X146217200Y-120612976D02*
X146264819Y-120755833D01*
X146264819Y-120755833D02*
X146264819Y-120851071D01*
X146264819Y-120851071D02*
X146217200Y-120993928D01*
X146217200Y-120993928D02*
X146121961Y-121089166D01*
X146121961Y-121089166D02*
X146026723Y-121136785D01*
X146026723Y-121136785D02*
X145836247Y-121184404D01*
X145836247Y-121184404D02*
X145693390Y-121184404D01*
X145693390Y-121184404D02*
X145502914Y-121136785D01*
X145502914Y-121136785D02*
X145407676Y-121089166D01*
X145407676Y-121089166D02*
X145312438Y-120993928D01*
X145312438Y-120993928D02*
X145264819Y-120851071D01*
X145264819Y-120851071D02*
X145264819Y-120755833D01*
X145264819Y-120755833D02*
X145312438Y-120612976D01*
X145312438Y-120612976D02*
X145360057Y-120565357D01*
X146264819Y-119612976D02*
X146264819Y-120184404D01*
X146264819Y-119898690D02*
X145264819Y-119898690D01*
X145264819Y-119898690D02*
X145407676Y-119993928D01*
X145407676Y-119993928D02*
X145502914Y-120089166D01*
X145502914Y-120089166D02*
X145550533Y-120184404D01*
X145264819Y-119279642D02*
X145264819Y-118660595D01*
X145264819Y-118660595D02*
X145645771Y-118993928D01*
X145645771Y-118993928D02*
X145645771Y-118851071D01*
X145645771Y-118851071D02*
X145693390Y-118755833D01*
X145693390Y-118755833D02*
X145741009Y-118708214D01*
X145741009Y-118708214D02*
X145836247Y-118660595D01*
X145836247Y-118660595D02*
X146074342Y-118660595D01*
X146074342Y-118660595D02*
X146169580Y-118708214D01*
X146169580Y-118708214D02*
X146217200Y-118755833D01*
X146217200Y-118755833D02*
X146264819Y-118851071D01*
X146264819Y-118851071D02*
X146264819Y-119136785D01*
X146264819Y-119136785D02*
X146217200Y-119232023D01*
X146217200Y-119232023D02*
X146169580Y-119279642D01*
X132792580Y-94574666D02*
X132840200Y-94622285D01*
X132840200Y-94622285D02*
X132887819Y-94765142D01*
X132887819Y-94765142D02*
X132887819Y-94860380D01*
X132887819Y-94860380D02*
X132840200Y-95003237D01*
X132840200Y-95003237D02*
X132744961Y-95098475D01*
X132744961Y-95098475D02*
X132649723Y-95146094D01*
X132649723Y-95146094D02*
X132459247Y-95193713D01*
X132459247Y-95193713D02*
X132316390Y-95193713D01*
X132316390Y-95193713D02*
X132125914Y-95146094D01*
X132125914Y-95146094D02*
X132030676Y-95098475D01*
X132030676Y-95098475D02*
X131935438Y-95003237D01*
X131935438Y-95003237D02*
X131887819Y-94860380D01*
X131887819Y-94860380D02*
X131887819Y-94765142D01*
X131887819Y-94765142D02*
X131935438Y-94622285D01*
X131935438Y-94622285D02*
X131983057Y-94574666D01*
X132221152Y-93717523D02*
X132887819Y-93717523D01*
X131840200Y-93955618D02*
X132554485Y-94193713D01*
X132554485Y-94193713D02*
X132554485Y-93574666D01*
X144975342Y-95224580D02*
X144927723Y-95272200D01*
X144927723Y-95272200D02*
X144784866Y-95319819D01*
X144784866Y-95319819D02*
X144689628Y-95319819D01*
X144689628Y-95319819D02*
X144546771Y-95272200D01*
X144546771Y-95272200D02*
X144451533Y-95176961D01*
X144451533Y-95176961D02*
X144403914Y-95081723D01*
X144403914Y-95081723D02*
X144356295Y-94891247D01*
X144356295Y-94891247D02*
X144356295Y-94748390D01*
X144356295Y-94748390D02*
X144403914Y-94557914D01*
X144403914Y-94557914D02*
X144451533Y-94462676D01*
X144451533Y-94462676D02*
X144546771Y-94367438D01*
X144546771Y-94367438D02*
X144689628Y-94319819D01*
X144689628Y-94319819D02*
X144784866Y-94319819D01*
X144784866Y-94319819D02*
X144927723Y-94367438D01*
X144927723Y-94367438D02*
X144975342Y-94415057D01*
X145356295Y-94415057D02*
X145403914Y-94367438D01*
X145403914Y-94367438D02*
X145499152Y-94319819D01*
X145499152Y-94319819D02*
X145737247Y-94319819D01*
X145737247Y-94319819D02*
X145832485Y-94367438D01*
X145832485Y-94367438D02*
X145880104Y-94415057D01*
X145880104Y-94415057D02*
X145927723Y-94510295D01*
X145927723Y-94510295D02*
X145927723Y-94605533D01*
X145927723Y-94605533D02*
X145880104Y-94748390D01*
X145880104Y-94748390D02*
X145308676Y-95319819D01*
X145308676Y-95319819D02*
X145927723Y-95319819D01*
X146546771Y-94319819D02*
X146642009Y-94319819D01*
X146642009Y-94319819D02*
X146737247Y-94367438D01*
X146737247Y-94367438D02*
X146784866Y-94415057D01*
X146784866Y-94415057D02*
X146832485Y-94510295D01*
X146832485Y-94510295D02*
X146880104Y-94700771D01*
X146880104Y-94700771D02*
X146880104Y-94938866D01*
X146880104Y-94938866D02*
X146832485Y-95129342D01*
X146832485Y-95129342D02*
X146784866Y-95224580D01*
X146784866Y-95224580D02*
X146737247Y-95272200D01*
X146737247Y-95272200D02*
X146642009Y-95319819D01*
X146642009Y-95319819D02*
X146546771Y-95319819D01*
X146546771Y-95319819D02*
X146451533Y-95272200D01*
X146451533Y-95272200D02*
X146403914Y-95224580D01*
X146403914Y-95224580D02*
X146356295Y-95129342D01*
X146356295Y-95129342D02*
X146308676Y-94938866D01*
X146308676Y-94938866D02*
X146308676Y-94700771D01*
X146308676Y-94700771D02*
X146356295Y-94510295D01*
X146356295Y-94510295D02*
X146403914Y-94415057D01*
X146403914Y-94415057D02*
X146451533Y-94367438D01*
X146451533Y-94367438D02*
X146546771Y-94319819D01*
X137713057Y-90125238D02*
X137665438Y-90220476D01*
X137665438Y-90220476D02*
X137570200Y-90315714D01*
X137570200Y-90315714D02*
X137427342Y-90458571D01*
X137427342Y-90458571D02*
X137379723Y-90553809D01*
X137379723Y-90553809D02*
X137379723Y-90649047D01*
X137617819Y-90601428D02*
X137570200Y-90696666D01*
X137570200Y-90696666D02*
X137474961Y-90791904D01*
X137474961Y-90791904D02*
X137284485Y-90839523D01*
X137284485Y-90839523D02*
X136951152Y-90839523D01*
X136951152Y-90839523D02*
X136760676Y-90791904D01*
X136760676Y-90791904D02*
X136665438Y-90696666D01*
X136665438Y-90696666D02*
X136617819Y-90601428D01*
X136617819Y-90601428D02*
X136617819Y-90410952D01*
X136617819Y-90410952D02*
X136665438Y-90315714D01*
X136665438Y-90315714D02*
X136760676Y-90220476D01*
X136760676Y-90220476D02*
X136951152Y-90172857D01*
X136951152Y-90172857D02*
X137284485Y-90172857D01*
X137284485Y-90172857D02*
X137474961Y-90220476D01*
X137474961Y-90220476D02*
X137570200Y-90315714D01*
X137570200Y-90315714D02*
X137617819Y-90410952D01*
X137617819Y-90410952D02*
X137617819Y-90601428D01*
X137617819Y-89220476D02*
X137617819Y-89791904D01*
X137617819Y-89506190D02*
X136617819Y-89506190D01*
X136617819Y-89506190D02*
X136760676Y-89601428D01*
X136760676Y-89601428D02*
X136855914Y-89696666D01*
X136855914Y-89696666D02*
X136903533Y-89791904D01*
X164791580Y-120972857D02*
X164839200Y-121020476D01*
X164839200Y-121020476D02*
X164886819Y-121163333D01*
X164886819Y-121163333D02*
X164886819Y-121258571D01*
X164886819Y-121258571D02*
X164839200Y-121401428D01*
X164839200Y-121401428D02*
X164743961Y-121496666D01*
X164743961Y-121496666D02*
X164648723Y-121544285D01*
X164648723Y-121544285D02*
X164458247Y-121591904D01*
X164458247Y-121591904D02*
X164315390Y-121591904D01*
X164315390Y-121591904D02*
X164124914Y-121544285D01*
X164124914Y-121544285D02*
X164029676Y-121496666D01*
X164029676Y-121496666D02*
X163934438Y-121401428D01*
X163934438Y-121401428D02*
X163886819Y-121258571D01*
X163886819Y-121258571D02*
X163886819Y-121163333D01*
X163886819Y-121163333D02*
X163934438Y-121020476D01*
X163934438Y-121020476D02*
X163982057Y-120972857D01*
X164886819Y-120020476D02*
X164886819Y-120591904D01*
X164886819Y-120306190D02*
X163886819Y-120306190D01*
X163886819Y-120306190D02*
X164029676Y-120401428D01*
X164029676Y-120401428D02*
X164124914Y-120496666D01*
X164124914Y-120496666D02*
X164172533Y-120591904D01*
X164886819Y-119068095D02*
X164886819Y-119639523D01*
X164886819Y-119353809D02*
X163886819Y-119353809D01*
X163886819Y-119353809D02*
X164029676Y-119449047D01*
X164029676Y-119449047D02*
X164124914Y-119544285D01*
X164124914Y-119544285D02*
X164172533Y-119639523D01*
X118658333Y-103324819D02*
X118325000Y-102848628D01*
X118086905Y-103324819D02*
X118086905Y-102324819D01*
X118086905Y-102324819D02*
X118467857Y-102324819D01*
X118467857Y-102324819D02*
X118563095Y-102372438D01*
X118563095Y-102372438D02*
X118610714Y-102420057D01*
X118610714Y-102420057D02*
X118658333Y-102515295D01*
X118658333Y-102515295D02*
X118658333Y-102658152D01*
X118658333Y-102658152D02*
X118610714Y-102753390D01*
X118610714Y-102753390D02*
X118563095Y-102801009D01*
X118563095Y-102801009D02*
X118467857Y-102848628D01*
X118467857Y-102848628D02*
X118086905Y-102848628D01*
X118991667Y-102324819D02*
X119610714Y-102324819D01*
X119610714Y-102324819D02*
X119277381Y-102705771D01*
X119277381Y-102705771D02*
X119420238Y-102705771D01*
X119420238Y-102705771D02*
X119515476Y-102753390D01*
X119515476Y-102753390D02*
X119563095Y-102801009D01*
X119563095Y-102801009D02*
X119610714Y-102896247D01*
X119610714Y-102896247D02*
X119610714Y-103134342D01*
X119610714Y-103134342D02*
X119563095Y-103229580D01*
X119563095Y-103229580D02*
X119515476Y-103277200D01*
X119515476Y-103277200D02*
X119420238Y-103324819D01*
X119420238Y-103324819D02*
X119134524Y-103324819D01*
X119134524Y-103324819D02*
X119039286Y-103277200D01*
X119039286Y-103277200D02*
X118991667Y-103229580D01*
X138117342Y-97764580D02*
X138069723Y-97812200D01*
X138069723Y-97812200D02*
X137926866Y-97859819D01*
X137926866Y-97859819D02*
X137831628Y-97859819D01*
X137831628Y-97859819D02*
X137688771Y-97812200D01*
X137688771Y-97812200D02*
X137593533Y-97716961D01*
X137593533Y-97716961D02*
X137545914Y-97621723D01*
X137545914Y-97621723D02*
X137498295Y-97431247D01*
X137498295Y-97431247D02*
X137498295Y-97288390D01*
X137498295Y-97288390D02*
X137545914Y-97097914D01*
X137545914Y-97097914D02*
X137593533Y-97002676D01*
X137593533Y-97002676D02*
X137688771Y-96907438D01*
X137688771Y-96907438D02*
X137831628Y-96859819D01*
X137831628Y-96859819D02*
X137926866Y-96859819D01*
X137926866Y-96859819D02*
X138069723Y-96907438D01*
X138069723Y-96907438D02*
X138117342Y-96955057D01*
X139069723Y-97859819D02*
X138498295Y-97859819D01*
X138784009Y-97859819D02*
X138784009Y-96859819D01*
X138784009Y-96859819D02*
X138688771Y-97002676D01*
X138688771Y-97002676D02*
X138593533Y-97097914D01*
X138593533Y-97097914D02*
X138498295Y-97145533D01*
X139641152Y-97288390D02*
X139545914Y-97240771D01*
X139545914Y-97240771D02*
X139498295Y-97193152D01*
X139498295Y-97193152D02*
X139450676Y-97097914D01*
X139450676Y-97097914D02*
X139450676Y-97050295D01*
X139450676Y-97050295D02*
X139498295Y-96955057D01*
X139498295Y-96955057D02*
X139545914Y-96907438D01*
X139545914Y-96907438D02*
X139641152Y-96859819D01*
X139641152Y-96859819D02*
X139831628Y-96859819D01*
X139831628Y-96859819D02*
X139926866Y-96907438D01*
X139926866Y-96907438D02*
X139974485Y-96955057D01*
X139974485Y-96955057D02*
X140022104Y-97050295D01*
X140022104Y-97050295D02*
X140022104Y-97097914D01*
X140022104Y-97097914D02*
X139974485Y-97193152D01*
X139974485Y-97193152D02*
X139926866Y-97240771D01*
X139926866Y-97240771D02*
X139831628Y-97288390D01*
X139831628Y-97288390D02*
X139641152Y-97288390D01*
X139641152Y-97288390D02*
X139545914Y-97336009D01*
X139545914Y-97336009D02*
X139498295Y-97383628D01*
X139498295Y-97383628D02*
X139450676Y-97478866D01*
X139450676Y-97478866D02*
X139450676Y-97669342D01*
X139450676Y-97669342D02*
X139498295Y-97764580D01*
X139498295Y-97764580D02*
X139545914Y-97812200D01*
X139545914Y-97812200D02*
X139641152Y-97859819D01*
X139641152Y-97859819D02*
X139831628Y-97859819D01*
X139831628Y-97859819D02*
X139926866Y-97812200D01*
X139926866Y-97812200D02*
X139974485Y-97764580D01*
X139974485Y-97764580D02*
X140022104Y-97669342D01*
X140022104Y-97669342D02*
X140022104Y-97478866D01*
X140022104Y-97478866D02*
X139974485Y-97383628D01*
X139974485Y-97383628D02*
X139926866Y-97336009D01*
X139926866Y-97336009D02*
X139831628Y-97288390D01*
X183428333Y-87769819D02*
X183095000Y-87293628D01*
X182856905Y-87769819D02*
X182856905Y-86769819D01*
X182856905Y-86769819D02*
X183237857Y-86769819D01*
X183237857Y-86769819D02*
X183333095Y-86817438D01*
X183333095Y-86817438D02*
X183380714Y-86865057D01*
X183380714Y-86865057D02*
X183428333Y-86960295D01*
X183428333Y-86960295D02*
X183428333Y-87103152D01*
X183428333Y-87103152D02*
X183380714Y-87198390D01*
X183380714Y-87198390D02*
X183333095Y-87246009D01*
X183333095Y-87246009D02*
X183237857Y-87293628D01*
X183237857Y-87293628D02*
X182856905Y-87293628D01*
X183761667Y-86769819D02*
X184428333Y-86769819D01*
X184428333Y-86769819D02*
X183999762Y-87769819D01*
D11*
X171782618Y-76774318D02*
X171782618Y-75504318D01*
X171782618Y-75504318D02*
X172084999Y-75504318D01*
X172084999Y-75504318D02*
X172266428Y-75564794D01*
X172266428Y-75564794D02*
X172387380Y-75685746D01*
X172387380Y-75685746D02*
X172447857Y-75806699D01*
X172447857Y-75806699D02*
X172508333Y-76048603D01*
X172508333Y-76048603D02*
X172508333Y-76230032D01*
X172508333Y-76230032D02*
X172447857Y-76471937D01*
X172447857Y-76471937D02*
X172387380Y-76592889D01*
X172387380Y-76592889D02*
X172266428Y-76713842D01*
X172266428Y-76713842D02*
X172084999Y-76774318D01*
X172084999Y-76774318D02*
X171782618Y-76774318D01*
X172931666Y-75504318D02*
X173717857Y-75504318D01*
X173717857Y-75504318D02*
X173294523Y-75988127D01*
X173294523Y-75988127D02*
X173475952Y-75988127D01*
X173475952Y-75988127D02*
X173596904Y-76048603D01*
X173596904Y-76048603D02*
X173657380Y-76109080D01*
X173657380Y-76109080D02*
X173717857Y-76230032D01*
X173717857Y-76230032D02*
X173717857Y-76532413D01*
X173717857Y-76532413D02*
X173657380Y-76653365D01*
X173657380Y-76653365D02*
X173596904Y-76713842D01*
X173596904Y-76713842D02*
X173475952Y-76774318D01*
X173475952Y-76774318D02*
X173113095Y-76774318D01*
X173113095Y-76774318D02*
X172992142Y-76713842D01*
X172992142Y-76713842D02*
X172931666Y-76653365D01*
D10*
X156083095Y-90454819D02*
X156083095Y-91264342D01*
X156083095Y-91264342D02*
X156130714Y-91359580D01*
X156130714Y-91359580D02*
X156178333Y-91407200D01*
X156178333Y-91407200D02*
X156273571Y-91454819D01*
X156273571Y-91454819D02*
X156464047Y-91454819D01*
X156464047Y-91454819D02*
X156559285Y-91407200D01*
X156559285Y-91407200D02*
X156606904Y-91359580D01*
X156606904Y-91359580D02*
X156654523Y-91264342D01*
X156654523Y-91264342D02*
X156654523Y-90454819D01*
X157083095Y-90550057D02*
X157130714Y-90502438D01*
X157130714Y-90502438D02*
X157225952Y-90454819D01*
X157225952Y-90454819D02*
X157464047Y-90454819D01*
X157464047Y-90454819D02*
X157559285Y-90502438D01*
X157559285Y-90502438D02*
X157606904Y-90550057D01*
X157606904Y-90550057D02*
X157654523Y-90645295D01*
X157654523Y-90645295D02*
X157654523Y-90740533D01*
X157654523Y-90740533D02*
X157606904Y-90883390D01*
X157606904Y-90883390D02*
X157035476Y-91454819D01*
X157035476Y-91454819D02*
X157654523Y-91454819D01*
X160981580Y-120972857D02*
X161029200Y-121020476D01*
X161029200Y-121020476D02*
X161076819Y-121163333D01*
X161076819Y-121163333D02*
X161076819Y-121258571D01*
X161076819Y-121258571D02*
X161029200Y-121401428D01*
X161029200Y-121401428D02*
X160933961Y-121496666D01*
X160933961Y-121496666D02*
X160838723Y-121544285D01*
X160838723Y-121544285D02*
X160648247Y-121591904D01*
X160648247Y-121591904D02*
X160505390Y-121591904D01*
X160505390Y-121591904D02*
X160314914Y-121544285D01*
X160314914Y-121544285D02*
X160219676Y-121496666D01*
X160219676Y-121496666D02*
X160124438Y-121401428D01*
X160124438Y-121401428D02*
X160076819Y-121258571D01*
X160076819Y-121258571D02*
X160076819Y-121163333D01*
X160076819Y-121163333D02*
X160124438Y-121020476D01*
X160124438Y-121020476D02*
X160172057Y-120972857D01*
X161076819Y-120020476D02*
X161076819Y-120591904D01*
X161076819Y-120306190D02*
X160076819Y-120306190D01*
X160076819Y-120306190D02*
X160219676Y-120401428D01*
X160219676Y-120401428D02*
X160314914Y-120496666D01*
X160314914Y-120496666D02*
X160362533Y-120591904D01*
X160172057Y-119639523D02*
X160124438Y-119591904D01*
X160124438Y-119591904D02*
X160076819Y-119496666D01*
X160076819Y-119496666D02*
X160076819Y-119258571D01*
X160076819Y-119258571D02*
X160124438Y-119163333D01*
X160124438Y-119163333D02*
X160172057Y-119115714D01*
X160172057Y-119115714D02*
X160267295Y-119068095D01*
X160267295Y-119068095D02*
X160362533Y-119068095D01*
X160362533Y-119068095D02*
X160505390Y-119115714D01*
X160505390Y-119115714D02*
X161076819Y-119687142D01*
X161076819Y-119687142D02*
X161076819Y-119068095D01*
X187198095Y-126137200D02*
X187340952Y-126184819D01*
X187340952Y-126184819D02*
X187579047Y-126184819D01*
X187579047Y-126184819D02*
X187674285Y-126137200D01*
X187674285Y-126137200D02*
X187721904Y-126089580D01*
X187721904Y-126089580D02*
X187769523Y-125994342D01*
X187769523Y-125994342D02*
X187769523Y-125899104D01*
X187769523Y-125899104D02*
X187721904Y-125803866D01*
X187721904Y-125803866D02*
X187674285Y-125756247D01*
X187674285Y-125756247D02*
X187579047Y-125708628D01*
X187579047Y-125708628D02*
X187388571Y-125661009D01*
X187388571Y-125661009D02*
X187293333Y-125613390D01*
X187293333Y-125613390D02*
X187245714Y-125565771D01*
X187245714Y-125565771D02*
X187198095Y-125470533D01*
X187198095Y-125470533D02*
X187198095Y-125375295D01*
X187198095Y-125375295D02*
X187245714Y-125280057D01*
X187245714Y-125280057D02*
X187293333Y-125232438D01*
X187293333Y-125232438D02*
X187388571Y-125184819D01*
X187388571Y-125184819D02*
X187626666Y-125184819D01*
X187626666Y-125184819D02*
X187769523Y-125232438D01*
X188721904Y-126184819D02*
X188150476Y-126184819D01*
X188436190Y-126184819D02*
X188436190Y-125184819D01*
X188436190Y-125184819D02*
X188340952Y-125327676D01*
X188340952Y-125327676D02*
X188245714Y-125422914D01*
X188245714Y-125422914D02*
X188150476Y-125470533D01*
X118380833Y-104914819D02*
X118047500Y-104438628D01*
X117809405Y-104914819D02*
X117809405Y-103914819D01*
X117809405Y-103914819D02*
X118190357Y-103914819D01*
X118190357Y-103914819D02*
X118285595Y-103962438D01*
X118285595Y-103962438D02*
X118333214Y-104010057D01*
X118333214Y-104010057D02*
X118380833Y-104105295D01*
X118380833Y-104105295D02*
X118380833Y-104248152D01*
X118380833Y-104248152D02*
X118333214Y-104343390D01*
X118333214Y-104343390D02*
X118285595Y-104391009D01*
X118285595Y-104391009D02*
X118190357Y-104438628D01*
X118190357Y-104438628D02*
X117809405Y-104438628D01*
X119237976Y-104248152D02*
X119237976Y-104914819D01*
X118999881Y-103867200D02*
X118761786Y-104581485D01*
X118761786Y-104581485D02*
X119380833Y-104581485D01*
X192645833Y-85769580D02*
X192598214Y-85817200D01*
X192598214Y-85817200D02*
X192455357Y-85864819D01*
X192455357Y-85864819D02*
X192360119Y-85864819D01*
X192360119Y-85864819D02*
X192217262Y-85817200D01*
X192217262Y-85817200D02*
X192122024Y-85721961D01*
X192122024Y-85721961D02*
X192074405Y-85626723D01*
X192074405Y-85626723D02*
X192026786Y-85436247D01*
X192026786Y-85436247D02*
X192026786Y-85293390D01*
X192026786Y-85293390D02*
X192074405Y-85102914D01*
X192074405Y-85102914D02*
X192122024Y-85007676D01*
X192122024Y-85007676D02*
X192217262Y-84912438D01*
X192217262Y-84912438D02*
X192360119Y-84864819D01*
X192360119Y-84864819D02*
X192455357Y-84864819D01*
X192455357Y-84864819D02*
X192598214Y-84912438D01*
X192598214Y-84912438D02*
X192645833Y-84960057D01*
X192979167Y-84864819D02*
X193645833Y-84864819D01*
X193645833Y-84864819D02*
X193217262Y-85864819D01*
X179716580Y-83124166D02*
X179764200Y-83171785D01*
X179764200Y-83171785D02*
X179811819Y-83314642D01*
X179811819Y-83314642D02*
X179811819Y-83409880D01*
X179811819Y-83409880D02*
X179764200Y-83552737D01*
X179764200Y-83552737D02*
X179668961Y-83647975D01*
X179668961Y-83647975D02*
X179573723Y-83695594D01*
X179573723Y-83695594D02*
X179383247Y-83743213D01*
X179383247Y-83743213D02*
X179240390Y-83743213D01*
X179240390Y-83743213D02*
X179049914Y-83695594D01*
X179049914Y-83695594D02*
X178954676Y-83647975D01*
X178954676Y-83647975D02*
X178859438Y-83552737D01*
X178859438Y-83552737D02*
X178811819Y-83409880D01*
X178811819Y-83409880D02*
X178811819Y-83314642D01*
X178811819Y-83314642D02*
X178859438Y-83171785D01*
X178859438Y-83171785D02*
X178907057Y-83124166D01*
X178811819Y-82219404D02*
X178811819Y-82695594D01*
X178811819Y-82695594D02*
X179288009Y-82743213D01*
X179288009Y-82743213D02*
X179240390Y-82695594D01*
X179240390Y-82695594D02*
X179192771Y-82600356D01*
X179192771Y-82600356D02*
X179192771Y-82362261D01*
X179192771Y-82362261D02*
X179240390Y-82267023D01*
X179240390Y-82267023D02*
X179288009Y-82219404D01*
X179288009Y-82219404D02*
X179383247Y-82171785D01*
X179383247Y-82171785D02*
X179621342Y-82171785D01*
X179621342Y-82171785D02*
X179716580Y-82219404D01*
X179716580Y-82219404D02*
X179764200Y-82267023D01*
X179764200Y-82267023D02*
X179811819Y-82362261D01*
X179811819Y-82362261D02*
X179811819Y-82600356D01*
X179811819Y-82600356D02*
X179764200Y-82695594D01*
X179764200Y-82695594D02*
X179716580Y-82743213D01*
X150219580Y-84409166D02*
X150267200Y-84456785D01*
X150267200Y-84456785D02*
X150314819Y-84599642D01*
X150314819Y-84599642D02*
X150314819Y-84694880D01*
X150314819Y-84694880D02*
X150267200Y-84837737D01*
X150267200Y-84837737D02*
X150171961Y-84932975D01*
X150171961Y-84932975D02*
X150076723Y-84980594D01*
X150076723Y-84980594D02*
X149886247Y-85028213D01*
X149886247Y-85028213D02*
X149743390Y-85028213D01*
X149743390Y-85028213D02*
X149552914Y-84980594D01*
X149552914Y-84980594D02*
X149457676Y-84932975D01*
X149457676Y-84932975D02*
X149362438Y-84837737D01*
X149362438Y-84837737D02*
X149314819Y-84694880D01*
X149314819Y-84694880D02*
X149314819Y-84599642D01*
X149314819Y-84599642D02*
X149362438Y-84456785D01*
X149362438Y-84456785D02*
X149410057Y-84409166D01*
X149410057Y-84028213D02*
X149362438Y-83980594D01*
X149362438Y-83980594D02*
X149314819Y-83885356D01*
X149314819Y-83885356D02*
X149314819Y-83647261D01*
X149314819Y-83647261D02*
X149362438Y-83552023D01*
X149362438Y-83552023D02*
X149410057Y-83504404D01*
X149410057Y-83504404D02*
X149505295Y-83456785D01*
X149505295Y-83456785D02*
X149600533Y-83456785D01*
X149600533Y-83456785D02*
X149743390Y-83504404D01*
X149743390Y-83504404D02*
X150314819Y-84075832D01*
X150314819Y-84075832D02*
X150314819Y-83456785D01*
X130929580Y-120565357D02*
X130977200Y-120612976D01*
X130977200Y-120612976D02*
X131024819Y-120755833D01*
X131024819Y-120755833D02*
X131024819Y-120851071D01*
X131024819Y-120851071D02*
X130977200Y-120993928D01*
X130977200Y-120993928D02*
X130881961Y-121089166D01*
X130881961Y-121089166D02*
X130786723Y-121136785D01*
X130786723Y-121136785D02*
X130596247Y-121184404D01*
X130596247Y-121184404D02*
X130453390Y-121184404D01*
X130453390Y-121184404D02*
X130262914Y-121136785D01*
X130262914Y-121136785D02*
X130167676Y-121089166D01*
X130167676Y-121089166D02*
X130072438Y-120993928D01*
X130072438Y-120993928D02*
X130024819Y-120851071D01*
X130024819Y-120851071D02*
X130024819Y-120755833D01*
X130024819Y-120755833D02*
X130072438Y-120612976D01*
X130072438Y-120612976D02*
X130120057Y-120565357D01*
X131024819Y-119612976D02*
X131024819Y-120184404D01*
X131024819Y-119898690D02*
X130024819Y-119898690D01*
X130024819Y-119898690D02*
X130167676Y-119993928D01*
X130167676Y-119993928D02*
X130262914Y-120089166D01*
X130262914Y-120089166D02*
X130310533Y-120184404D01*
X130358152Y-118755833D02*
X131024819Y-118755833D01*
X129977200Y-118993928D02*
X130691485Y-119232023D01*
X130691485Y-119232023D02*
X130691485Y-118612976D01*
X144077054Y-105102582D02*
X144124674Y-105150201D01*
X144124674Y-105150201D02*
X144172293Y-105293058D01*
X144172293Y-105293058D02*
X144172293Y-105388296D01*
X144172293Y-105388296D02*
X144124674Y-105531153D01*
X144124674Y-105531153D02*
X144029435Y-105626391D01*
X144029435Y-105626391D02*
X143934197Y-105674010D01*
X143934197Y-105674010D02*
X143743721Y-105721629D01*
X143743721Y-105721629D02*
X143600864Y-105721629D01*
X143600864Y-105721629D02*
X143410388Y-105674010D01*
X143410388Y-105674010D02*
X143315150Y-105626391D01*
X143315150Y-105626391D02*
X143219912Y-105531153D01*
X143219912Y-105531153D02*
X143172293Y-105388296D01*
X143172293Y-105388296D02*
X143172293Y-105293058D01*
X143172293Y-105293058D02*
X143219912Y-105150201D01*
X143219912Y-105150201D02*
X143267531Y-105102582D01*
X144172293Y-104150201D02*
X144172293Y-104721629D01*
X144172293Y-104435915D02*
X143172293Y-104435915D01*
X143172293Y-104435915D02*
X143315150Y-104531153D01*
X143315150Y-104531153D02*
X143410388Y-104626391D01*
X143410388Y-104626391D02*
X143458007Y-104721629D01*
X144172293Y-103674010D02*
X144172293Y-103483534D01*
X144172293Y-103483534D02*
X144124674Y-103388296D01*
X144124674Y-103388296D02*
X144077054Y-103340677D01*
X144077054Y-103340677D02*
X143934197Y-103245439D01*
X143934197Y-103245439D02*
X143743721Y-103197820D01*
X143743721Y-103197820D02*
X143362769Y-103197820D01*
X143362769Y-103197820D02*
X143267531Y-103245439D01*
X143267531Y-103245439D02*
X143219912Y-103293058D01*
X143219912Y-103293058D02*
X143172293Y-103388296D01*
X143172293Y-103388296D02*
X143172293Y-103578772D01*
X143172293Y-103578772D02*
X143219912Y-103674010D01*
X143219912Y-103674010D02*
X143267531Y-103721629D01*
X143267531Y-103721629D02*
X143362769Y-103769248D01*
X143362769Y-103769248D02*
X143600864Y-103769248D01*
X143600864Y-103769248D02*
X143696102Y-103721629D01*
X143696102Y-103721629D02*
X143743721Y-103674010D01*
X143743721Y-103674010D02*
X143791340Y-103578772D01*
X143791340Y-103578772D02*
X143791340Y-103388296D01*
X143791340Y-103388296D02*
X143743721Y-103293058D01*
X143743721Y-103293058D02*
X143696102Y-103245439D01*
X143696102Y-103245439D02*
X143600864Y-103197820D01*
%TO.C,J7*%
X122230000Y-127618000D02*
X129230000Y-127618000D01*
X122230000Y-127618000D02*
X122230000Y-115118000D01*
X122230000Y-115118000D02*
X129230000Y-115118000D01*
X129230000Y-115118000D02*
X129230000Y-127618000D01*
%TO.C,J6*%
X137724000Y-127618000D02*
X144724000Y-127618000D01*
X137724000Y-127618000D02*
X137724000Y-115118000D01*
X137724000Y-115118000D02*
X144724000Y-115118000D01*
X144724000Y-115118000D02*
X144724000Y-127618000D01*
%TO.C,J5*%
X152710000Y-127618000D02*
X159710000Y-127618000D01*
X152710000Y-127618000D02*
X152710000Y-115118000D01*
X152710000Y-115118000D02*
X159710000Y-115118000D01*
X159710000Y-115118000D02*
X159710000Y-127618000D01*
%TO.C,J4*%
X167950000Y-127618000D02*
X174950000Y-127618000D01*
X167950000Y-127618000D02*
X167950000Y-115118000D01*
X167950000Y-115118000D02*
X174950000Y-115118000D01*
X174950000Y-115118000D02*
X174950000Y-127618000D01*
D12*
%TO.C,C16*%
X165606000Y-99206267D02*
X165606000Y-98913733D01*
X166626000Y-99206267D02*
X166626000Y-98913733D01*
%TO.C,C15*%
X159768000Y-98913733D02*
X159768000Y-99206267D01*
X158748000Y-98913733D02*
X158748000Y-99206267D01*
D11*
%TO.C,AC1*%
X161816000Y-100875000D02*
G75*
G03*
X161816000Y-100875000I-12000J0D01*
G01*
D13*
%TO.C,D2*%
X130580000Y-85465000D02*
X129930000Y-85465000D01*
X130580000Y-82565000D02*
X130580000Y-85465000D01*
X129930000Y-85465000D02*
X129930000Y-82565000D01*
X129930000Y-82565000D02*
X130580000Y-82565000D01*
X128430000Y-82415000D02*
X129580000Y-82415000D01*
D11*
%TO.C,FL1*%
X130537430Y-88906000D02*
G75*
G03*
X130537430Y-88906000I-42430J0D01*
G01*
X131187670Y-88530000D02*
X132477330Y-88530000D01*
X131163670Y-86730000D02*
X132489000Y-86730000D01*
D12*
%TO.C,R5*%
X135222500Y-84269724D02*
X135222500Y-83760276D01*
X134177500Y-84269724D02*
X134177500Y-83760276D01*
%TO.C,J2*%
X125505000Y-76935000D02*
X125505000Y-78635000D01*
X134845000Y-76935000D02*
X134845000Y-78635000D01*
%TO.C,R6*%
X126332500Y-84269724D02*
X126332500Y-83760276D01*
X125287500Y-84269724D02*
X125287500Y-83760276D01*
%TO.C,R11*%
X168895500Y-80772724D02*
X168895500Y-80263276D01*
X169940500Y-80772724D02*
X169940500Y-80263276D01*
%TO.C,R10*%
X166863500Y-80772724D02*
X166863500Y-80263276D01*
X167908500Y-80772724D02*
X167908500Y-80263276D01*
D14*
%TO.C,D4*%
X166005000Y-74540000D02*
X166005000Y-74540000D01*
X166005000Y-74540000D02*
X166005000Y-74540000D01*
X166005000Y-74540000D02*
X166005000Y-74700000D01*
X166005000Y-74540000D02*
X168005000Y-74540000D01*
X166005000Y-74700000D02*
X166005000Y-74540000D01*
X166005000Y-74700000D02*
X166005000Y-74700000D01*
X166755000Y-75560000D02*
X166755000Y-75560000D01*
X166755000Y-75560000D02*
X167255000Y-75560000D01*
D13*
X167005000Y-77100000D02*
X167005000Y-77100000D01*
X167005000Y-77200000D02*
X167005000Y-77200000D01*
X167005000Y-77200000D02*
X167005000Y-77200000D01*
D14*
X167255000Y-75560000D02*
X166755000Y-75560000D01*
X167255000Y-75560000D02*
X167255000Y-75560000D01*
X168005000Y-74540000D02*
X166005000Y-74540000D01*
X168005000Y-74540000D02*
X168005000Y-74540000D01*
X168005000Y-74540000D02*
X168005000Y-74540000D01*
X168005000Y-74540000D02*
X168005000Y-74700000D01*
X168005000Y-74700000D02*
X168005000Y-74540000D01*
X168005000Y-74700000D02*
X168005000Y-74700000D01*
D13*
X167005000Y-77200000D02*
G75*
G03*
X167005000Y-77100000I0J50000D01*
G01*
X167005000Y-77200000D02*
G75*
G03*
X167005000Y-77100000I0J50000D01*
G01*
X167005000Y-77100000D02*
G75*
G03*
X167005000Y-77200000I0J-50000D01*
G01*
D12*
%TO.C,U4*%
X165440000Y-112152000D02*
X165440000Y-110352000D01*
X162220000Y-110352000D02*
X162220000Y-113302000D01*
%TO.C,R14*%
X147414974Y-104205001D02*
X147414974Y-104714449D01*
X146369974Y-104205001D02*
X146369974Y-104714449D01*
%TO.C,R13*%
X140797198Y-101172225D02*
X140287750Y-101172225D01*
X140797198Y-100127225D02*
X140287750Y-100127225D01*
%TO.C,R12*%
X152045500Y-99809724D02*
X152045500Y-99300276D01*
X151000500Y-99809724D02*
X151000500Y-99300276D01*
%TO.C,R8*%
X180608500Y-80518724D02*
X180608500Y-80009276D01*
X179563500Y-80518724D02*
X179563500Y-80009276D01*
%TO.C,U6*%
G36*
X145736501Y-102133400D02*
G01*
X145355500Y-102133400D01*
X145355500Y-101879400D01*
X145736501Y-101879400D01*
X145736501Y-102133400D01*
G37*
D13*
%TO.C,U5*%
X155593000Y-97980000D02*
G75*
G03*
X155593000Y-97980000I-100000J0D01*
G01*
D12*
%TO.C,R9*%
X182483500Y-80518724D02*
X182483500Y-80009276D01*
X181438500Y-80518724D02*
X181438500Y-80009276D01*
%TO.C,C6*%
X176532000Y-82811233D02*
X176532000Y-83103767D01*
X175512000Y-82811233D02*
X175512000Y-83103767D01*
%TO.C,J1*%
X125322000Y-92190000D02*
X117502000Y-92190000D01*
X123722000Y-92190000D02*
X123722000Y-93110000D01*
X117502000Y-92190000D02*
X117502000Y-98310000D01*
X121362000Y-92950000D02*
X119762000Y-92950000D01*
X119762000Y-92950000D02*
X119762000Y-93950000D01*
X125322000Y-93110000D02*
X125322000Y-92190000D01*
X123722000Y-93110000D02*
X125322000Y-93110000D01*
X123722000Y-93390000D02*
X123722000Y-93110000D01*
X123722000Y-93390000D02*
X124937000Y-93390000D01*
X119762000Y-93450000D02*
X117502000Y-93450000D01*
X121362000Y-93950000D02*
X121362000Y-92950000D01*
X119762000Y-93950000D02*
X121362000Y-93950000D01*
X119762000Y-93950000D02*
X117502000Y-93950000D01*
X121862000Y-94750000D02*
X121862000Y-95750000D01*
X117502000Y-94750000D02*
X121862000Y-94750000D01*
X121862000Y-95750000D02*
X117502000Y-95750000D01*
X121362000Y-96550000D02*
X121362000Y-97550000D01*
X119762000Y-96550000D02*
X121362000Y-96550000D01*
X125322000Y-97390000D02*
X123722000Y-97390000D01*
X123722000Y-97390000D02*
X123722000Y-97110000D01*
X121362000Y-97550000D02*
X119762000Y-97550000D01*
X119762000Y-97550000D02*
X119762000Y-96550000D01*
X125322000Y-98310000D02*
X125322000Y-97390000D01*
X123722000Y-98310000D02*
X123722000Y-97390000D01*
X117502000Y-98310000D02*
X125322000Y-98310000D01*
%TO.C,U3*%
X195600000Y-90200000D02*
X188850000Y-90200000D01*
X195600000Y-90200000D02*
X195600000Y-108200000D01*
X170850000Y-90200000D02*
X170100000Y-90200000D01*
X170100000Y-90200000D02*
X170100000Y-91200000D01*
X195600000Y-108200000D02*
X188850000Y-108200000D01*
X189660000Y-108200000D02*
X189660000Y-90200000D01*
X170850000Y-108200000D02*
X170100000Y-108200000D01*
X170100000Y-108200000D02*
X170100000Y-107200000D01*
%TO.C,J3*%
X193090000Y-111065000D02*
X193090000Y-112395000D01*
X191760000Y-111065000D02*
X193090000Y-111065000D01*
X190490000Y-111065000D02*
X182810000Y-111065000D01*
X190490000Y-111065000D02*
X190490000Y-113725000D01*
X182810000Y-111065000D02*
X182810000Y-113725000D01*
X190490000Y-113725000D02*
X182810000Y-113725000D01*
%TO.C,Y1*%
X174592000Y-85460000D02*
X174592000Y-87260000D01*
X176742000Y-85410000D02*
X177842000Y-85410000D01*
X176742000Y-87310000D02*
X177842000Y-87310000D01*
%TO.C,C3*%
X150620000Y-88198767D02*
X150620000Y-87906233D01*
X151640000Y-88198767D02*
X151640000Y-87906233D01*
D13*
%TO.C,S3*%
X156085000Y-78880000D02*
G75*
G03*
X156085000Y-78980000I0J-50000D01*
G01*
X156085000Y-78880000D02*
G75*
G03*
X156085000Y-78980000I0J-50000D01*
G01*
X156085000Y-78980000D02*
G75*
G03*
X156085000Y-78880000I0J50000D01*
G01*
D14*
X156285000Y-74530000D02*
X156285000Y-74530000D01*
X156285000Y-74530000D02*
X151285000Y-74530000D01*
D13*
X156085000Y-78980000D02*
X156085000Y-78980000D01*
X156085000Y-78880000D02*
X156085000Y-78880000D01*
X156085000Y-78880000D02*
X156085000Y-78880000D01*
D14*
X155035000Y-77230000D02*
X155035000Y-77230000D01*
X155035000Y-77230000D02*
X154035000Y-77230000D01*
X154035000Y-77230000D02*
X155035000Y-77230000D01*
X154035000Y-77230000D02*
X154035000Y-77230000D01*
X151285000Y-74530000D02*
X156285000Y-74530000D01*
X151285000Y-74530000D02*
X151285000Y-74530000D01*
D12*
%TO.C,C17*%
X154376733Y-97538000D02*
X154669267Y-97538000D01*
X154376733Y-96518000D02*
X154669267Y-96518000D01*
%TO.C,S2*%
X185365000Y-74240000D02*
X191825000Y-74240000D01*
X185365000Y-74270000D02*
X185365000Y-74240000D01*
X185365000Y-76170000D02*
X185365000Y-78770000D01*
X185365000Y-80700000D02*
X185365000Y-80670000D01*
X185365000Y-80700000D02*
X191825000Y-80700000D01*
X191825000Y-74240000D02*
X191825000Y-74270000D01*
X191825000Y-76170000D02*
X191825000Y-78770000D01*
X191825000Y-80700000D02*
X191825000Y-80670000D01*
%TO.C,R1*%
X142830500Y-90234724D02*
X142830500Y-89725276D01*
X143875500Y-90234724D02*
X143875500Y-89725276D01*
%TO.C,R2*%
X127866224Y-91454500D02*
X127356776Y-91454500D01*
X127866224Y-90409500D02*
X127356776Y-90409500D01*
%TO.C,D1*%
X136738000Y-82750000D02*
X136738000Y-87050000D01*
X136738000Y-82750000D02*
X144148000Y-82750000D01*
X136738000Y-87050000D02*
X144148000Y-87050000D01*
%TO.C,C1*%
X123870767Y-100840000D02*
X123578233Y-100840000D01*
X123870767Y-99820000D02*
X123578233Y-99820000D01*
%TO.C,C10*%
X186688767Y-85920000D02*
X186396233Y-85920000D01*
X186688767Y-84900000D02*
X186396233Y-84900000D01*
%TO.C,U1*%
X129692000Y-95562000D02*
X129692000Y-93762000D01*
X126472000Y-93762000D02*
X126472000Y-96212000D01*
%TO.C,C8*%
X190418767Y-87825000D02*
X190126233Y-87825000D01*
X190418767Y-86805000D02*
X190126233Y-86805000D01*
%TO.C,C9*%
X186688767Y-84015000D02*
X186396233Y-84015000D01*
X186688767Y-82995000D02*
X186396233Y-82995000D01*
%TO.C,C13*%
X146730000Y-120068767D02*
X146730000Y-119776233D01*
X147750000Y-120068767D02*
X147750000Y-119776233D01*
%TO.C,C4*%
X131513000Y-94261733D02*
X131513000Y-94554267D01*
X130493000Y-94261733D02*
X130493000Y-94554267D01*
%TO.C,C20*%
X144172232Y-95888700D02*
X144464766Y-95888700D01*
X144172232Y-96908700D02*
X144464766Y-96908700D01*
%TO.C,Q1*%
X139875500Y-91590000D02*
X141550500Y-91590000D01*
X139875500Y-91590000D02*
X139225500Y-91590000D01*
X139875500Y-88470000D02*
X140525500Y-88470000D01*
X139875500Y-88470000D02*
X139225500Y-88470000D01*
%TO.C,C11*%
X165352000Y-120476267D02*
X165352000Y-120183733D01*
X166372000Y-120476267D02*
X166372000Y-120183733D01*
%TO.C,R3*%
X121977224Y-103077500D02*
X121467776Y-103077500D01*
X121977224Y-102032500D02*
X121467776Y-102032500D01*
%TO.C,C18*%
X140688741Y-99254725D02*
X140396207Y-99254725D01*
X140688741Y-98234725D02*
X140396207Y-98234725D01*
%TO.C,R7*%
X186287776Y-86792500D02*
X186797224Y-86792500D01*
X186287776Y-87837500D02*
X186797224Y-87837500D01*
D13*
%TO.C,D3*%
X177165000Y-77100000D02*
G75*
G03*
X177165000Y-77200000I0J-50000D01*
G01*
X177165000Y-77200000D02*
G75*
G03*
X177165000Y-77100000I0J50000D01*
G01*
X177165000Y-77200000D02*
G75*
G03*
X177165000Y-77100000I0J50000D01*
G01*
D14*
X178165000Y-74700000D02*
X178165000Y-74700000D01*
X178165000Y-74700000D02*
X178165000Y-74540000D01*
X178165000Y-74540000D02*
X178165000Y-74700000D01*
X178165000Y-74540000D02*
X178165000Y-74540000D01*
X178165000Y-74540000D02*
X178165000Y-74540000D01*
X178165000Y-74540000D02*
X176165000Y-74540000D01*
X177415000Y-75560000D02*
X177415000Y-75560000D01*
X177415000Y-75560000D02*
X176915000Y-75560000D01*
D13*
X177165000Y-77200000D02*
X177165000Y-77200000D01*
X177165000Y-77200000D02*
X177165000Y-77200000D01*
X177165000Y-77100000D02*
X177165000Y-77100000D01*
D14*
X176915000Y-75560000D02*
X177415000Y-75560000D01*
X176915000Y-75560000D02*
X176915000Y-75560000D01*
X176165000Y-74700000D02*
X176165000Y-74700000D01*
X176165000Y-74700000D02*
X176165000Y-74540000D01*
X176165000Y-74540000D02*
X178165000Y-74540000D01*
X176165000Y-74540000D02*
X176165000Y-74700000D01*
X176165000Y-74540000D02*
X176165000Y-74540000D01*
X176165000Y-74540000D02*
X176165000Y-74540000D01*
D12*
%TO.C,U2*%
X152745000Y-82510000D02*
X158755000Y-82510000D01*
X154995000Y-89330000D02*
X158755000Y-89330000D01*
X158755000Y-82510000D02*
X158755000Y-83770000D01*
X158755000Y-89330000D02*
X158755000Y-88070000D01*
%TO.C,C12*%
X161542000Y-120476267D02*
X161542000Y-120183733D01*
X162562000Y-120476267D02*
X162562000Y-120183733D01*
%TO.C,S1*%
X191190000Y-124515000D02*
X184730000Y-124515000D01*
X191190000Y-124485000D02*
X191190000Y-124515000D01*
X191190000Y-122585000D02*
X191190000Y-119985000D01*
X191190000Y-118055000D02*
X191190000Y-118085000D01*
X191190000Y-118055000D02*
X184730000Y-118055000D01*
X184730000Y-124515000D02*
X184730000Y-124485000D01*
X184730000Y-122585000D02*
X184730000Y-119985000D01*
X184730000Y-118055000D02*
X184730000Y-118085000D01*
%TO.C,R4*%
X121467776Y-103937500D02*
X121977224Y-103937500D01*
X121467776Y-104982500D02*
X121977224Y-104982500D01*
%TO.C,C7*%
X190418767Y-85920000D02*
X190126233Y-85920000D01*
X190418767Y-84900000D02*
X190126233Y-84900000D01*
%TO.C,C5*%
X178437000Y-82811233D02*
X178437000Y-83103767D01*
X177417000Y-82811233D02*
X177417000Y-83103767D01*
%TO.C,C2*%
X151640000Y-84096233D02*
X151640000Y-84388767D01*
X150620000Y-84096233D02*
X150620000Y-84388767D01*
%TO.C,C14*%
X131490000Y-120068767D02*
X131490000Y-119776233D01*
X132510000Y-120068767D02*
X132510000Y-119776233D01*
%TO.C,C19*%
X144477474Y-104605992D02*
X144477474Y-104313458D01*
X145497474Y-104605992D02*
X145497474Y-104313458D01*
%TD*%
M02*
