%TF.GenerationSoftware,KiCad,Pcbnew,7.0.8*%
%TF.CreationDate,2023-12-05T20:52:07+01:00*%
%TF.ProjectId,HM_mainboard,484d5f6d-6169-46e6-926f-6172642e6b69,rev?*%
%TF.SameCoordinates,Original*%
%TF.FileFunction,Soldermask,Top*%
%TF.FilePolarity,Negative*%
%FSLAX46Y46*%
G04 Gerber Fmt 4.6, Leading zero omitted, Abs format (unit mm)*
G04 Created by KiCad (PCBNEW 7.0.8) date 2023-12-05 20:52:07*
%MOMM*%
%LPD*%
G01*
G04 APERTURE LIST*
G04 Aperture macros list*
%AMRoundRect*
0 Rectangle with rounded corners*
0 $1 Rounding radius*
0 $2 $3 $4 $5 $6 $7 $8 $9 X,Y pos of 4 corners*
0 Add a 4 corners polygon primitive as box body*
4,1,4,$2,$3,$4,$5,$6,$7,$8,$9,$2,$3,0*
0 Add four circle primitives for the rounded corners*
1,1,$1+$1,$2,$3*
1,1,$1+$1,$4,$5*
1,1,$1+$1,$6,$7*
1,1,$1+$1,$8,$9*
0 Add four rect primitives between the rounded corners*
20,1,$1+$1,$2,$3,$4,$5,0*
20,1,$1+$1,$4,$5,$6,$7,0*
20,1,$1+$1,$6,$7,$8,$9,0*
20,1,$1+$1,$8,$9,$2,$3,0*%
G04 Aperture macros list end*
%ADD10C,0.010000*%
%ADD11C,1.200000*%
%ADD12O,2.700000X2.000000*%
%ADD13O,2.000000X2.700000*%
%ADD14RoundRect,0.237500X0.237500X-0.300000X0.237500X0.300000X-0.237500X0.300000X-0.237500X-0.300000X0*%
%ADD15RoundRect,0.237500X-0.237500X0.300000X-0.237500X-0.300000X0.237500X-0.300000X0.237500X0.300000X0*%
%ADD16R,0.300000X0.600000*%
%ADD17R,0.600000X0.300000*%
%ADD18R,1.150000X0.600000*%
%ADD19R,1.100000X0.600000*%
%ADD20RoundRect,0.237500X0.237500X-0.250000X0.237500X0.250000X-0.237500X0.250000X-0.237500X-0.250000X0*%
%ADD21O,1.000000X1.800000*%
%ADD22O,1.000000X2.100000*%
%ADD23RoundRect,0.150000X0.150000X0.425000X-0.150000X0.425000X-0.150000X-0.425000X0.150000X-0.425000X0*%
%ADD24RoundRect,0.075000X0.075000X0.500000X-0.075000X0.500000X-0.075000X-0.500000X0.075000X-0.500000X0*%
%ADD25C,0.650000*%
%ADD26R,0.900000X0.700000*%
%ADD27R,1.200000X0.700000*%
%ADD28R,0.650000X1.560000*%
%ADD29RoundRect,0.237500X-0.237500X0.250000X-0.237500X-0.250000X0.237500X-0.250000X0.237500X0.250000X0*%
%ADD30RoundRect,0.237500X0.250000X0.237500X-0.250000X0.237500X-0.250000X-0.237500X0.250000X-0.237500X0*%
%ADD31R,0.304800X0.533400*%
%ADD32R,0.431800X0.304800*%
%ADD33RoundRect,0.250000X-0.625000X0.350000X-0.625000X-0.350000X0.625000X-0.350000X0.625000X0.350000X0*%
%ADD34O,1.750000X1.200000*%
%ADD35R,0.900000X1.500000*%
%ADD36R,1.500000X0.900000*%
%ADD37R,0.900000X0.900000*%
%ADD38R,1.700000X1.700000*%
%ADD39O,1.700000X1.700000*%
%ADD40R,1.750000X1.800000*%
%ADD41R,1.000000X0.800000*%
%ADD42R,0.700000X1.000000*%
%ADD43RoundRect,0.237500X-0.300000X-0.237500X0.300000X-0.237500X0.300000X0.237500X-0.300000X0.237500X0*%
%ADD44R,1.550000X1.300000*%
%ADD45RoundRect,0.250000X-1.500000X-0.900000X1.500000X-0.900000X1.500000X0.900000X-1.500000X0.900000X0*%
%ADD46RoundRect,0.237500X0.300000X0.237500X-0.300000X0.237500X-0.300000X-0.237500X0.300000X-0.237500X0*%
%ADD47RoundRect,0.150000X0.587500X0.150000X-0.587500X0.150000X-0.587500X-0.150000X0.587500X-0.150000X0*%
%ADD48RoundRect,0.237500X-0.250000X-0.237500X0.250000X-0.237500X0.250000X0.237500X-0.250000X0.237500X0*%
%ADD49R,2.000000X1.500000*%
%ADD50R,2.000000X3.800000*%
G04 APERTURE END LIST*
%TO.C,U5*%
D10*
X154080000Y-100081000D02*
X154086000Y-100082000D01*
X154092000Y-100083000D01*
X154097000Y-100084000D01*
X154102000Y-100086000D01*
X154108000Y-100088000D01*
X154113000Y-100091000D01*
X154118000Y-100093000D01*
X154123000Y-100096000D01*
X154127000Y-100099000D01*
X154132000Y-100103000D01*
X154136000Y-100106000D01*
X154140000Y-100110000D01*
X154144000Y-100114000D01*
X154148000Y-100118000D01*
X154152000Y-100123000D01*
X154155000Y-100127000D01*
X154158000Y-100132000D01*
X154161000Y-100137000D01*
X154163000Y-100142000D01*
X154165000Y-100147000D01*
X154167000Y-100152000D01*
X154169000Y-100158000D01*
X154170000Y-100163000D01*
X154172000Y-100169000D01*
X154172000Y-100174000D01*
X154173000Y-100180000D01*
X154173000Y-100480000D01*
X154172000Y-100486000D01*
X154172000Y-100491000D01*
X154170000Y-100497000D01*
X154169000Y-100502000D01*
X154167000Y-100508000D01*
X154165000Y-100513000D01*
X154163000Y-100518000D01*
X154161000Y-100523000D01*
X154158000Y-100528000D01*
X154155000Y-100533000D01*
X154152000Y-100537000D01*
X154148000Y-100542000D01*
X154144000Y-100546000D01*
X154140000Y-100550000D01*
X154136000Y-100554000D01*
X154132000Y-100557000D01*
X154127000Y-100561000D01*
X154123000Y-100564000D01*
X154118000Y-100567000D01*
X154113000Y-100569000D01*
X154108000Y-100572000D01*
X154102000Y-100574000D01*
X154097000Y-100576000D01*
X154092000Y-100577000D01*
X154086000Y-100578000D01*
X154080000Y-100579000D01*
X154075000Y-100580000D01*
X154069000Y-100580000D01*
X154064000Y-100580000D01*
X154058000Y-100580000D01*
X153838000Y-100580000D01*
X153832000Y-100580000D01*
X153827000Y-100580000D01*
X153821000Y-100580000D01*
X153816000Y-100579000D01*
X153810000Y-100578000D01*
X153804000Y-100577000D01*
X153799000Y-100576000D01*
X153794000Y-100574000D01*
X153788000Y-100572000D01*
X153783000Y-100569000D01*
X153778000Y-100567000D01*
X153773000Y-100564000D01*
X153769000Y-100561000D01*
X153764000Y-100557000D01*
X153760000Y-100554000D01*
X153756000Y-100550000D01*
X153752000Y-100546000D01*
X153748000Y-100542000D01*
X153744000Y-100537000D01*
X153741000Y-100533000D01*
X153738000Y-100528000D01*
X153735000Y-100523000D01*
X153733000Y-100518000D01*
X153731000Y-100513000D01*
X153729000Y-100508000D01*
X153727000Y-100502000D01*
X153726000Y-100497000D01*
X153724000Y-100491000D01*
X153724000Y-100486000D01*
X153723000Y-100480000D01*
X153723000Y-100180000D01*
X153724000Y-100174000D01*
X153724000Y-100169000D01*
X153726000Y-100163000D01*
X153727000Y-100158000D01*
X153729000Y-100152000D01*
X153731000Y-100147000D01*
X153733000Y-100142000D01*
X153735000Y-100137000D01*
X153738000Y-100132000D01*
X153741000Y-100127000D01*
X153744000Y-100123000D01*
X153748000Y-100118000D01*
X153752000Y-100114000D01*
X153756000Y-100110000D01*
X153760000Y-100106000D01*
X153764000Y-100103000D01*
X153769000Y-100099000D01*
X153773000Y-100096000D01*
X153778000Y-100093000D01*
X153783000Y-100091000D01*
X153788000Y-100088000D01*
X153794000Y-100086000D01*
X153799000Y-100084000D01*
X153804000Y-100083000D01*
X153810000Y-100082000D01*
X153816000Y-100081000D01*
X153821000Y-100080000D01*
X153827000Y-100080000D01*
X153832000Y-100080000D01*
X153838000Y-100080000D01*
X154058000Y-100080000D01*
X154064000Y-100080000D01*
X154069000Y-100080000D01*
X154075000Y-100080000D01*
X154080000Y-100081000D01*
G36*
X154080000Y-100081000D02*
G01*
X154086000Y-100082000D01*
X154092000Y-100083000D01*
X154097000Y-100084000D01*
X154102000Y-100086000D01*
X154108000Y-100088000D01*
X154113000Y-100091000D01*
X154118000Y-100093000D01*
X154123000Y-100096000D01*
X154127000Y-100099000D01*
X154132000Y-100103000D01*
X154136000Y-100106000D01*
X154140000Y-100110000D01*
X154144000Y-100114000D01*
X154148000Y-100118000D01*
X154152000Y-100123000D01*
X154155000Y-100127000D01*
X154158000Y-100132000D01*
X154161000Y-100137000D01*
X154163000Y-100142000D01*
X154165000Y-100147000D01*
X154167000Y-100152000D01*
X154169000Y-100158000D01*
X154170000Y-100163000D01*
X154172000Y-100169000D01*
X154172000Y-100174000D01*
X154173000Y-100180000D01*
X154173000Y-100480000D01*
X154172000Y-100486000D01*
X154172000Y-100491000D01*
X154170000Y-100497000D01*
X154169000Y-100502000D01*
X154167000Y-100508000D01*
X154165000Y-100513000D01*
X154163000Y-100518000D01*
X154161000Y-100523000D01*
X154158000Y-100528000D01*
X154155000Y-100533000D01*
X154152000Y-100537000D01*
X154148000Y-100542000D01*
X154144000Y-100546000D01*
X154140000Y-100550000D01*
X154136000Y-100554000D01*
X154132000Y-100557000D01*
X154127000Y-100561000D01*
X154123000Y-100564000D01*
X154118000Y-100567000D01*
X154113000Y-100569000D01*
X154108000Y-100572000D01*
X154102000Y-100574000D01*
X154097000Y-100576000D01*
X154092000Y-100577000D01*
X154086000Y-100578000D01*
X154080000Y-100579000D01*
X154075000Y-100580000D01*
X154069000Y-100580000D01*
X154064000Y-100580000D01*
X154058000Y-100580000D01*
X153838000Y-100580000D01*
X153832000Y-100580000D01*
X153827000Y-100580000D01*
X153821000Y-100580000D01*
X153816000Y-100579000D01*
X153810000Y-100578000D01*
X153804000Y-100577000D01*
X153799000Y-100576000D01*
X153794000Y-100574000D01*
X153788000Y-100572000D01*
X153783000Y-100569000D01*
X153778000Y-100567000D01*
X153773000Y-100564000D01*
X153769000Y-100561000D01*
X153764000Y-100557000D01*
X153760000Y-100554000D01*
X153756000Y-100550000D01*
X153752000Y-100546000D01*
X153748000Y-100542000D01*
X153744000Y-100537000D01*
X153741000Y-100533000D01*
X153738000Y-100528000D01*
X153735000Y-100523000D01*
X153733000Y-100518000D01*
X153731000Y-100513000D01*
X153729000Y-100508000D01*
X153727000Y-100502000D01*
X153726000Y-100497000D01*
X153724000Y-100491000D01*
X153724000Y-100486000D01*
X153723000Y-100480000D01*
X153723000Y-100180000D01*
X153724000Y-100174000D01*
X153724000Y-100169000D01*
X153726000Y-100163000D01*
X153727000Y-100158000D01*
X153729000Y-100152000D01*
X153731000Y-100147000D01*
X153733000Y-100142000D01*
X153735000Y-100137000D01*
X153738000Y-100132000D01*
X153741000Y-100127000D01*
X153744000Y-100123000D01*
X153748000Y-100118000D01*
X153752000Y-100114000D01*
X153756000Y-100110000D01*
X153760000Y-100106000D01*
X153764000Y-100103000D01*
X153769000Y-100099000D01*
X153773000Y-100096000D01*
X153778000Y-100093000D01*
X153783000Y-100091000D01*
X153788000Y-100088000D01*
X153794000Y-100086000D01*
X153799000Y-100084000D01*
X153804000Y-100083000D01*
X153810000Y-100082000D01*
X153816000Y-100081000D01*
X153821000Y-100080000D01*
X153827000Y-100080000D01*
X153832000Y-100080000D01*
X153838000Y-100080000D01*
X154058000Y-100080000D01*
X154064000Y-100080000D01*
X154069000Y-100080000D01*
X154075000Y-100080000D01*
X154080000Y-100081000D01*
G37*
X155580000Y-100081000D02*
X155586000Y-100082000D01*
X155592000Y-100083000D01*
X155597000Y-100084000D01*
X155602000Y-100086000D01*
X155608000Y-100088000D01*
X155613000Y-100091000D01*
X155618000Y-100093000D01*
X155623000Y-100096000D01*
X155627000Y-100099000D01*
X155632000Y-100103000D01*
X155636000Y-100106000D01*
X155640000Y-100110000D01*
X155644000Y-100114000D01*
X155648000Y-100118000D01*
X155652000Y-100123000D01*
X155655000Y-100127000D01*
X155658000Y-100132000D01*
X155661000Y-100137000D01*
X155663000Y-100142000D01*
X155665000Y-100147000D01*
X155667000Y-100152000D01*
X155669000Y-100158000D01*
X155670000Y-100163000D01*
X155672000Y-100169000D01*
X155672000Y-100174000D01*
X155673000Y-100180000D01*
X155673000Y-100480000D01*
X155672000Y-100486000D01*
X155672000Y-100491000D01*
X155670000Y-100497000D01*
X155669000Y-100502000D01*
X155667000Y-100508000D01*
X155665000Y-100513000D01*
X155663000Y-100518000D01*
X155661000Y-100523000D01*
X155658000Y-100528000D01*
X155655000Y-100533000D01*
X155652000Y-100537000D01*
X155648000Y-100542000D01*
X155644000Y-100546000D01*
X155640000Y-100550000D01*
X155636000Y-100554000D01*
X155632000Y-100557000D01*
X155627000Y-100561000D01*
X155623000Y-100564000D01*
X155618000Y-100567000D01*
X155613000Y-100569000D01*
X155608000Y-100572000D01*
X155602000Y-100574000D01*
X155597000Y-100576000D01*
X155592000Y-100577000D01*
X155586000Y-100578000D01*
X155580000Y-100579000D01*
X155575000Y-100580000D01*
X155569000Y-100580000D01*
X155564000Y-100580000D01*
X155558000Y-100580000D01*
X155338000Y-100580000D01*
X155332000Y-100580000D01*
X155327000Y-100580000D01*
X155321000Y-100580000D01*
X155316000Y-100579000D01*
X155310000Y-100578000D01*
X155304000Y-100577000D01*
X155299000Y-100576000D01*
X155294000Y-100574000D01*
X155288000Y-100572000D01*
X155283000Y-100569000D01*
X155278000Y-100567000D01*
X155273000Y-100564000D01*
X155269000Y-100561000D01*
X155264000Y-100557000D01*
X155260000Y-100554000D01*
X155256000Y-100550000D01*
X155252000Y-100546000D01*
X155248000Y-100542000D01*
X155244000Y-100537000D01*
X155241000Y-100533000D01*
X155238000Y-100528000D01*
X155235000Y-100523000D01*
X155233000Y-100518000D01*
X155231000Y-100513000D01*
X155229000Y-100508000D01*
X155227000Y-100502000D01*
X155226000Y-100497000D01*
X155224000Y-100491000D01*
X155224000Y-100486000D01*
X155223000Y-100480000D01*
X155223000Y-100180000D01*
X155224000Y-100174000D01*
X155224000Y-100169000D01*
X155226000Y-100163000D01*
X155227000Y-100158000D01*
X155229000Y-100152000D01*
X155231000Y-100147000D01*
X155233000Y-100142000D01*
X155235000Y-100137000D01*
X155238000Y-100132000D01*
X155241000Y-100127000D01*
X155244000Y-100123000D01*
X155248000Y-100118000D01*
X155252000Y-100114000D01*
X155256000Y-100110000D01*
X155260000Y-100106000D01*
X155264000Y-100103000D01*
X155269000Y-100099000D01*
X155273000Y-100096000D01*
X155278000Y-100093000D01*
X155283000Y-100091000D01*
X155288000Y-100088000D01*
X155294000Y-100086000D01*
X155299000Y-100084000D01*
X155304000Y-100083000D01*
X155310000Y-100082000D01*
X155316000Y-100081000D01*
X155321000Y-100080000D01*
X155327000Y-100080000D01*
X155332000Y-100080000D01*
X155338000Y-100080000D01*
X155558000Y-100080000D01*
X155564000Y-100080000D01*
X155569000Y-100080000D01*
X155575000Y-100080000D01*
X155580000Y-100081000D01*
G36*
X155580000Y-100081000D02*
G01*
X155586000Y-100082000D01*
X155592000Y-100083000D01*
X155597000Y-100084000D01*
X155602000Y-100086000D01*
X155608000Y-100088000D01*
X155613000Y-100091000D01*
X155618000Y-100093000D01*
X155623000Y-100096000D01*
X155627000Y-100099000D01*
X155632000Y-100103000D01*
X155636000Y-100106000D01*
X155640000Y-100110000D01*
X155644000Y-100114000D01*
X155648000Y-100118000D01*
X155652000Y-100123000D01*
X155655000Y-100127000D01*
X155658000Y-100132000D01*
X155661000Y-100137000D01*
X155663000Y-100142000D01*
X155665000Y-100147000D01*
X155667000Y-100152000D01*
X155669000Y-100158000D01*
X155670000Y-100163000D01*
X155672000Y-100169000D01*
X155672000Y-100174000D01*
X155673000Y-100180000D01*
X155673000Y-100480000D01*
X155672000Y-100486000D01*
X155672000Y-100491000D01*
X155670000Y-100497000D01*
X155669000Y-100502000D01*
X155667000Y-100508000D01*
X155665000Y-100513000D01*
X155663000Y-100518000D01*
X155661000Y-100523000D01*
X155658000Y-100528000D01*
X155655000Y-100533000D01*
X155652000Y-100537000D01*
X155648000Y-100542000D01*
X155644000Y-100546000D01*
X155640000Y-100550000D01*
X155636000Y-100554000D01*
X155632000Y-100557000D01*
X155627000Y-100561000D01*
X155623000Y-100564000D01*
X155618000Y-100567000D01*
X155613000Y-100569000D01*
X155608000Y-100572000D01*
X155602000Y-100574000D01*
X155597000Y-100576000D01*
X155592000Y-100577000D01*
X155586000Y-100578000D01*
X155580000Y-100579000D01*
X155575000Y-100580000D01*
X155569000Y-100580000D01*
X155564000Y-100580000D01*
X155558000Y-100580000D01*
X155338000Y-100580000D01*
X155332000Y-100580000D01*
X155327000Y-100580000D01*
X155321000Y-100580000D01*
X155316000Y-100579000D01*
X155310000Y-100578000D01*
X155304000Y-100577000D01*
X155299000Y-100576000D01*
X155294000Y-100574000D01*
X155288000Y-100572000D01*
X155283000Y-100569000D01*
X155278000Y-100567000D01*
X155273000Y-100564000D01*
X155269000Y-100561000D01*
X155264000Y-100557000D01*
X155260000Y-100554000D01*
X155256000Y-100550000D01*
X155252000Y-100546000D01*
X155248000Y-100542000D01*
X155244000Y-100537000D01*
X155241000Y-100533000D01*
X155238000Y-100528000D01*
X155235000Y-100523000D01*
X155233000Y-100518000D01*
X155231000Y-100513000D01*
X155229000Y-100508000D01*
X155227000Y-100502000D01*
X155226000Y-100497000D01*
X155224000Y-100491000D01*
X155224000Y-100486000D01*
X155223000Y-100480000D01*
X155223000Y-100180000D01*
X155224000Y-100174000D01*
X155224000Y-100169000D01*
X155226000Y-100163000D01*
X155227000Y-100158000D01*
X155229000Y-100152000D01*
X155231000Y-100147000D01*
X155233000Y-100142000D01*
X155235000Y-100137000D01*
X155238000Y-100132000D01*
X155241000Y-100127000D01*
X155244000Y-100123000D01*
X155248000Y-100118000D01*
X155252000Y-100114000D01*
X155256000Y-100110000D01*
X155260000Y-100106000D01*
X155264000Y-100103000D01*
X155269000Y-100099000D01*
X155273000Y-100096000D01*
X155278000Y-100093000D01*
X155283000Y-100091000D01*
X155288000Y-100088000D01*
X155294000Y-100086000D01*
X155299000Y-100084000D01*
X155304000Y-100083000D01*
X155310000Y-100082000D01*
X155316000Y-100081000D01*
X155321000Y-100080000D01*
X155327000Y-100080000D01*
X155332000Y-100080000D01*
X155338000Y-100080000D01*
X155558000Y-100080000D01*
X155564000Y-100080000D01*
X155569000Y-100080000D01*
X155575000Y-100080000D01*
X155580000Y-100081000D01*
G37*
X154580000Y-100071000D02*
X154586000Y-100072000D01*
X154592000Y-100073000D01*
X154597000Y-100074000D01*
X154602000Y-100076000D01*
X154608000Y-100078000D01*
X154613000Y-100081000D01*
X154618000Y-100083000D01*
X154623000Y-100086000D01*
X154627000Y-100089000D01*
X154632000Y-100093000D01*
X154636000Y-100096000D01*
X154640000Y-100100000D01*
X154644000Y-100104000D01*
X154648000Y-100108000D01*
X154652000Y-100113000D01*
X154655000Y-100117000D01*
X154658000Y-100122000D01*
X154661000Y-100127000D01*
X154663000Y-100132000D01*
X154665000Y-100137000D01*
X154667000Y-100142000D01*
X154669000Y-100148000D01*
X154670000Y-100153000D01*
X154672000Y-100159000D01*
X154672000Y-100164000D01*
X154673000Y-100170000D01*
X154673000Y-100470000D01*
X154672000Y-100476000D01*
X154672000Y-100481000D01*
X154670000Y-100487000D01*
X154669000Y-100492000D01*
X154667000Y-100498000D01*
X154665000Y-100503000D01*
X154663000Y-100508000D01*
X154661000Y-100513000D01*
X154658000Y-100518000D01*
X154655000Y-100523000D01*
X154652000Y-100527000D01*
X154648000Y-100532000D01*
X154644000Y-100536000D01*
X154640000Y-100540000D01*
X154636000Y-100544000D01*
X154632000Y-100547000D01*
X154627000Y-100551000D01*
X154623000Y-100554000D01*
X154618000Y-100557000D01*
X154613000Y-100559000D01*
X154608000Y-100562000D01*
X154602000Y-100564000D01*
X154597000Y-100566000D01*
X154592000Y-100567000D01*
X154586000Y-100568000D01*
X154580000Y-100569000D01*
X154575000Y-100570000D01*
X154569000Y-100570000D01*
X154564000Y-100570000D01*
X154558000Y-100570000D01*
X154338000Y-100570000D01*
X154332000Y-100570000D01*
X154327000Y-100570000D01*
X154321000Y-100570000D01*
X154316000Y-100569000D01*
X154310000Y-100568000D01*
X154304000Y-100567000D01*
X154299000Y-100566000D01*
X154294000Y-100564000D01*
X154288000Y-100562000D01*
X154283000Y-100559000D01*
X154278000Y-100557000D01*
X154273000Y-100554000D01*
X154269000Y-100551000D01*
X154264000Y-100547000D01*
X154260000Y-100544000D01*
X154256000Y-100540000D01*
X154252000Y-100536000D01*
X154248000Y-100532000D01*
X154244000Y-100527000D01*
X154241000Y-100523000D01*
X154238000Y-100518000D01*
X154235000Y-100513000D01*
X154233000Y-100508000D01*
X154231000Y-100503000D01*
X154229000Y-100498000D01*
X154227000Y-100492000D01*
X154226000Y-100487000D01*
X154224000Y-100481000D01*
X154224000Y-100476000D01*
X154223000Y-100470000D01*
X154223000Y-100170000D01*
X154224000Y-100164000D01*
X154224000Y-100159000D01*
X154226000Y-100153000D01*
X154227000Y-100148000D01*
X154229000Y-100142000D01*
X154231000Y-100137000D01*
X154233000Y-100132000D01*
X154235000Y-100127000D01*
X154238000Y-100122000D01*
X154241000Y-100117000D01*
X154244000Y-100113000D01*
X154248000Y-100108000D01*
X154252000Y-100104000D01*
X154256000Y-100100000D01*
X154260000Y-100096000D01*
X154264000Y-100093000D01*
X154269000Y-100089000D01*
X154273000Y-100086000D01*
X154278000Y-100083000D01*
X154283000Y-100081000D01*
X154288000Y-100078000D01*
X154294000Y-100076000D01*
X154299000Y-100074000D01*
X154304000Y-100073000D01*
X154310000Y-100072000D01*
X154316000Y-100071000D01*
X154321000Y-100070000D01*
X154327000Y-100070000D01*
X154332000Y-100070000D01*
X154338000Y-100070000D01*
X154558000Y-100070000D01*
X154564000Y-100070000D01*
X154569000Y-100070000D01*
X154575000Y-100070000D01*
X154580000Y-100071000D01*
G36*
X154580000Y-100071000D02*
G01*
X154586000Y-100072000D01*
X154592000Y-100073000D01*
X154597000Y-100074000D01*
X154602000Y-100076000D01*
X154608000Y-100078000D01*
X154613000Y-100081000D01*
X154618000Y-100083000D01*
X154623000Y-100086000D01*
X154627000Y-100089000D01*
X154632000Y-100093000D01*
X154636000Y-100096000D01*
X154640000Y-100100000D01*
X154644000Y-100104000D01*
X154648000Y-100108000D01*
X154652000Y-100113000D01*
X154655000Y-100117000D01*
X154658000Y-100122000D01*
X154661000Y-100127000D01*
X154663000Y-100132000D01*
X154665000Y-100137000D01*
X154667000Y-100142000D01*
X154669000Y-100148000D01*
X154670000Y-100153000D01*
X154672000Y-100159000D01*
X154672000Y-100164000D01*
X154673000Y-100170000D01*
X154673000Y-100470000D01*
X154672000Y-100476000D01*
X154672000Y-100481000D01*
X154670000Y-100487000D01*
X154669000Y-100492000D01*
X154667000Y-100498000D01*
X154665000Y-100503000D01*
X154663000Y-100508000D01*
X154661000Y-100513000D01*
X154658000Y-100518000D01*
X154655000Y-100523000D01*
X154652000Y-100527000D01*
X154648000Y-100532000D01*
X154644000Y-100536000D01*
X154640000Y-100540000D01*
X154636000Y-100544000D01*
X154632000Y-100547000D01*
X154627000Y-100551000D01*
X154623000Y-100554000D01*
X154618000Y-100557000D01*
X154613000Y-100559000D01*
X154608000Y-100562000D01*
X154602000Y-100564000D01*
X154597000Y-100566000D01*
X154592000Y-100567000D01*
X154586000Y-100568000D01*
X154580000Y-100569000D01*
X154575000Y-100570000D01*
X154569000Y-100570000D01*
X154564000Y-100570000D01*
X154558000Y-100570000D01*
X154338000Y-100570000D01*
X154332000Y-100570000D01*
X154327000Y-100570000D01*
X154321000Y-100570000D01*
X154316000Y-100569000D01*
X154310000Y-100568000D01*
X154304000Y-100567000D01*
X154299000Y-100566000D01*
X154294000Y-100564000D01*
X154288000Y-100562000D01*
X154283000Y-100559000D01*
X154278000Y-100557000D01*
X154273000Y-100554000D01*
X154269000Y-100551000D01*
X154264000Y-100547000D01*
X154260000Y-100544000D01*
X154256000Y-100540000D01*
X154252000Y-100536000D01*
X154248000Y-100532000D01*
X154244000Y-100527000D01*
X154241000Y-100523000D01*
X154238000Y-100518000D01*
X154235000Y-100513000D01*
X154233000Y-100508000D01*
X154231000Y-100503000D01*
X154229000Y-100498000D01*
X154227000Y-100492000D01*
X154226000Y-100487000D01*
X154224000Y-100481000D01*
X154224000Y-100476000D01*
X154223000Y-100470000D01*
X154223000Y-100170000D01*
X154224000Y-100164000D01*
X154224000Y-100159000D01*
X154226000Y-100153000D01*
X154227000Y-100148000D01*
X154229000Y-100142000D01*
X154231000Y-100137000D01*
X154233000Y-100132000D01*
X154235000Y-100127000D01*
X154238000Y-100122000D01*
X154241000Y-100117000D01*
X154244000Y-100113000D01*
X154248000Y-100108000D01*
X154252000Y-100104000D01*
X154256000Y-100100000D01*
X154260000Y-100096000D01*
X154264000Y-100093000D01*
X154269000Y-100089000D01*
X154273000Y-100086000D01*
X154278000Y-100083000D01*
X154283000Y-100081000D01*
X154288000Y-100078000D01*
X154294000Y-100076000D01*
X154299000Y-100074000D01*
X154304000Y-100073000D01*
X154310000Y-100072000D01*
X154316000Y-100071000D01*
X154321000Y-100070000D01*
X154327000Y-100070000D01*
X154332000Y-100070000D01*
X154338000Y-100070000D01*
X154558000Y-100070000D01*
X154564000Y-100070000D01*
X154569000Y-100070000D01*
X154575000Y-100070000D01*
X154580000Y-100071000D01*
G37*
X155080000Y-100071000D02*
X155086000Y-100072000D01*
X155092000Y-100073000D01*
X155097000Y-100074000D01*
X155102000Y-100076000D01*
X155108000Y-100078000D01*
X155113000Y-100081000D01*
X155118000Y-100083000D01*
X155123000Y-100086000D01*
X155127000Y-100089000D01*
X155132000Y-100093000D01*
X155136000Y-100096000D01*
X155140000Y-100100000D01*
X155144000Y-100104000D01*
X155148000Y-100108000D01*
X155152000Y-100113000D01*
X155155000Y-100117000D01*
X155158000Y-100122000D01*
X155161000Y-100127000D01*
X155163000Y-100132000D01*
X155165000Y-100137000D01*
X155167000Y-100142000D01*
X155169000Y-100148000D01*
X155170000Y-100153000D01*
X155172000Y-100159000D01*
X155172000Y-100164000D01*
X155173000Y-100170000D01*
X155173000Y-100470000D01*
X155172000Y-100476000D01*
X155172000Y-100481000D01*
X155170000Y-100487000D01*
X155169000Y-100492000D01*
X155167000Y-100498000D01*
X155165000Y-100503000D01*
X155163000Y-100508000D01*
X155161000Y-100513000D01*
X155158000Y-100518000D01*
X155155000Y-100523000D01*
X155152000Y-100527000D01*
X155148000Y-100532000D01*
X155144000Y-100536000D01*
X155140000Y-100540000D01*
X155136000Y-100544000D01*
X155132000Y-100547000D01*
X155127000Y-100551000D01*
X155123000Y-100554000D01*
X155118000Y-100557000D01*
X155113000Y-100559000D01*
X155108000Y-100562000D01*
X155102000Y-100564000D01*
X155097000Y-100566000D01*
X155092000Y-100567000D01*
X155086000Y-100568000D01*
X155080000Y-100569000D01*
X155075000Y-100570000D01*
X155069000Y-100570000D01*
X155064000Y-100570000D01*
X155058000Y-100570000D01*
X154838000Y-100570000D01*
X154832000Y-100570000D01*
X154827000Y-100570000D01*
X154821000Y-100570000D01*
X154816000Y-100569000D01*
X154810000Y-100568000D01*
X154804000Y-100567000D01*
X154799000Y-100566000D01*
X154794000Y-100564000D01*
X154788000Y-100562000D01*
X154783000Y-100559000D01*
X154778000Y-100557000D01*
X154773000Y-100554000D01*
X154769000Y-100551000D01*
X154764000Y-100547000D01*
X154760000Y-100544000D01*
X154756000Y-100540000D01*
X154752000Y-100536000D01*
X154748000Y-100532000D01*
X154744000Y-100527000D01*
X154741000Y-100523000D01*
X154738000Y-100518000D01*
X154735000Y-100513000D01*
X154733000Y-100508000D01*
X154731000Y-100503000D01*
X154729000Y-100498000D01*
X154727000Y-100492000D01*
X154726000Y-100487000D01*
X154724000Y-100481000D01*
X154724000Y-100476000D01*
X154723000Y-100470000D01*
X154723000Y-100170000D01*
X154724000Y-100164000D01*
X154724000Y-100159000D01*
X154726000Y-100153000D01*
X154727000Y-100148000D01*
X154729000Y-100142000D01*
X154731000Y-100137000D01*
X154733000Y-100132000D01*
X154735000Y-100127000D01*
X154738000Y-100122000D01*
X154741000Y-100117000D01*
X154744000Y-100113000D01*
X154748000Y-100108000D01*
X154752000Y-100104000D01*
X154756000Y-100100000D01*
X154760000Y-100096000D01*
X154764000Y-100093000D01*
X154769000Y-100089000D01*
X154773000Y-100086000D01*
X154778000Y-100083000D01*
X154783000Y-100081000D01*
X154788000Y-100078000D01*
X154794000Y-100076000D01*
X154799000Y-100074000D01*
X154804000Y-100073000D01*
X154810000Y-100072000D01*
X154816000Y-100071000D01*
X154821000Y-100070000D01*
X154827000Y-100070000D01*
X154832000Y-100070000D01*
X154838000Y-100070000D01*
X155058000Y-100070000D01*
X155064000Y-100070000D01*
X155069000Y-100070000D01*
X155075000Y-100070000D01*
X155080000Y-100071000D01*
G36*
X155080000Y-100071000D02*
G01*
X155086000Y-100072000D01*
X155092000Y-100073000D01*
X155097000Y-100074000D01*
X155102000Y-100076000D01*
X155108000Y-100078000D01*
X155113000Y-100081000D01*
X155118000Y-100083000D01*
X155123000Y-100086000D01*
X155127000Y-100089000D01*
X155132000Y-100093000D01*
X155136000Y-100096000D01*
X155140000Y-100100000D01*
X155144000Y-100104000D01*
X155148000Y-100108000D01*
X155152000Y-100113000D01*
X155155000Y-100117000D01*
X155158000Y-100122000D01*
X155161000Y-100127000D01*
X155163000Y-100132000D01*
X155165000Y-100137000D01*
X155167000Y-100142000D01*
X155169000Y-100148000D01*
X155170000Y-100153000D01*
X155172000Y-100159000D01*
X155172000Y-100164000D01*
X155173000Y-100170000D01*
X155173000Y-100470000D01*
X155172000Y-100476000D01*
X155172000Y-100481000D01*
X155170000Y-100487000D01*
X155169000Y-100492000D01*
X155167000Y-100498000D01*
X155165000Y-100503000D01*
X155163000Y-100508000D01*
X155161000Y-100513000D01*
X155158000Y-100518000D01*
X155155000Y-100523000D01*
X155152000Y-100527000D01*
X155148000Y-100532000D01*
X155144000Y-100536000D01*
X155140000Y-100540000D01*
X155136000Y-100544000D01*
X155132000Y-100547000D01*
X155127000Y-100551000D01*
X155123000Y-100554000D01*
X155118000Y-100557000D01*
X155113000Y-100559000D01*
X155108000Y-100562000D01*
X155102000Y-100564000D01*
X155097000Y-100566000D01*
X155092000Y-100567000D01*
X155086000Y-100568000D01*
X155080000Y-100569000D01*
X155075000Y-100570000D01*
X155069000Y-100570000D01*
X155064000Y-100570000D01*
X155058000Y-100570000D01*
X154838000Y-100570000D01*
X154832000Y-100570000D01*
X154827000Y-100570000D01*
X154821000Y-100570000D01*
X154816000Y-100569000D01*
X154810000Y-100568000D01*
X154804000Y-100567000D01*
X154799000Y-100566000D01*
X154794000Y-100564000D01*
X154788000Y-100562000D01*
X154783000Y-100559000D01*
X154778000Y-100557000D01*
X154773000Y-100554000D01*
X154769000Y-100551000D01*
X154764000Y-100547000D01*
X154760000Y-100544000D01*
X154756000Y-100540000D01*
X154752000Y-100536000D01*
X154748000Y-100532000D01*
X154744000Y-100527000D01*
X154741000Y-100523000D01*
X154738000Y-100518000D01*
X154735000Y-100513000D01*
X154733000Y-100508000D01*
X154731000Y-100503000D01*
X154729000Y-100498000D01*
X154727000Y-100492000D01*
X154726000Y-100487000D01*
X154724000Y-100481000D01*
X154724000Y-100476000D01*
X154723000Y-100470000D01*
X154723000Y-100170000D01*
X154724000Y-100164000D01*
X154724000Y-100159000D01*
X154726000Y-100153000D01*
X154727000Y-100148000D01*
X154729000Y-100142000D01*
X154731000Y-100137000D01*
X154733000Y-100132000D01*
X154735000Y-100127000D01*
X154738000Y-100122000D01*
X154741000Y-100117000D01*
X154744000Y-100113000D01*
X154748000Y-100108000D01*
X154752000Y-100104000D01*
X154756000Y-100100000D01*
X154760000Y-100096000D01*
X154764000Y-100093000D01*
X154769000Y-100089000D01*
X154773000Y-100086000D01*
X154778000Y-100083000D01*
X154783000Y-100081000D01*
X154788000Y-100078000D01*
X154794000Y-100076000D01*
X154799000Y-100074000D01*
X154804000Y-100073000D01*
X154810000Y-100072000D01*
X154816000Y-100071000D01*
X154821000Y-100070000D01*
X154827000Y-100070000D01*
X154832000Y-100070000D01*
X154838000Y-100070000D01*
X155058000Y-100070000D01*
X155064000Y-100070000D01*
X155069000Y-100070000D01*
X155075000Y-100070000D01*
X155080000Y-100071000D01*
G37*
X154089000Y-99581000D02*
X154094000Y-99581000D01*
X154100000Y-99583000D01*
X154105000Y-99584000D01*
X154111000Y-99586000D01*
X154116000Y-99588000D01*
X154121000Y-99590000D01*
X154126000Y-99592000D01*
X154131000Y-99595000D01*
X154136000Y-99598000D01*
X154140000Y-99601000D01*
X154145000Y-99605000D01*
X154149000Y-99609000D01*
X154153000Y-99613000D01*
X154157000Y-99617000D01*
X154160000Y-99621000D01*
X154164000Y-99626000D01*
X154167000Y-99630000D01*
X154170000Y-99635000D01*
X154172000Y-99640000D01*
X154175000Y-99645000D01*
X154177000Y-99651000D01*
X154179000Y-99656000D01*
X154180000Y-99661000D01*
X154181000Y-99667000D01*
X154182000Y-99673000D01*
X154183000Y-99678000D01*
X154183000Y-99684000D01*
X154183000Y-99689000D01*
X154183000Y-99695000D01*
X154183000Y-99915000D01*
X154183000Y-99921000D01*
X154183000Y-99926000D01*
X154183000Y-99932000D01*
X154182000Y-99937000D01*
X154181000Y-99943000D01*
X154180000Y-99949000D01*
X154179000Y-99954000D01*
X154177000Y-99959000D01*
X154175000Y-99965000D01*
X154172000Y-99970000D01*
X154170000Y-99975000D01*
X154167000Y-99980000D01*
X154164000Y-99984000D01*
X154160000Y-99989000D01*
X154157000Y-99993000D01*
X154153000Y-99997000D01*
X154149000Y-100001000D01*
X154145000Y-100005000D01*
X154140000Y-100009000D01*
X154136000Y-100012000D01*
X154131000Y-100015000D01*
X154126000Y-100018000D01*
X154121000Y-100020000D01*
X154116000Y-100022000D01*
X154111000Y-100024000D01*
X154105000Y-100026000D01*
X154100000Y-100027000D01*
X154094000Y-100029000D01*
X154089000Y-100029000D01*
X154083000Y-100030000D01*
X153783000Y-100030000D01*
X153777000Y-100029000D01*
X153772000Y-100029000D01*
X153766000Y-100027000D01*
X153761000Y-100026000D01*
X153755000Y-100024000D01*
X153750000Y-100022000D01*
X153745000Y-100020000D01*
X153740000Y-100018000D01*
X153735000Y-100015000D01*
X153730000Y-100012000D01*
X153726000Y-100009000D01*
X153721000Y-100005000D01*
X153717000Y-100001000D01*
X153713000Y-99997000D01*
X153709000Y-99993000D01*
X153706000Y-99989000D01*
X153702000Y-99984000D01*
X153699000Y-99980000D01*
X153696000Y-99975000D01*
X153694000Y-99970000D01*
X153691000Y-99965000D01*
X153689000Y-99959000D01*
X153687000Y-99954000D01*
X153686000Y-99949000D01*
X153685000Y-99943000D01*
X153684000Y-99937000D01*
X153683000Y-99932000D01*
X153683000Y-99926000D01*
X153683000Y-99921000D01*
X153683000Y-99915000D01*
X153683000Y-99695000D01*
X153683000Y-99689000D01*
X153683000Y-99684000D01*
X153683000Y-99678000D01*
X153684000Y-99673000D01*
X153685000Y-99667000D01*
X153686000Y-99661000D01*
X153687000Y-99656000D01*
X153689000Y-99651000D01*
X153691000Y-99645000D01*
X153694000Y-99640000D01*
X153696000Y-99635000D01*
X153699000Y-99630000D01*
X153702000Y-99626000D01*
X153706000Y-99621000D01*
X153709000Y-99617000D01*
X153713000Y-99613000D01*
X153717000Y-99609000D01*
X153721000Y-99605000D01*
X153726000Y-99601000D01*
X153730000Y-99598000D01*
X153735000Y-99595000D01*
X153740000Y-99592000D01*
X153745000Y-99590000D01*
X153750000Y-99588000D01*
X153755000Y-99586000D01*
X153761000Y-99584000D01*
X153766000Y-99583000D01*
X153772000Y-99581000D01*
X153777000Y-99581000D01*
X153783000Y-99580000D01*
X154083000Y-99580000D01*
X154089000Y-99581000D01*
G36*
X154089000Y-99581000D02*
G01*
X154094000Y-99581000D01*
X154100000Y-99583000D01*
X154105000Y-99584000D01*
X154111000Y-99586000D01*
X154116000Y-99588000D01*
X154121000Y-99590000D01*
X154126000Y-99592000D01*
X154131000Y-99595000D01*
X154136000Y-99598000D01*
X154140000Y-99601000D01*
X154145000Y-99605000D01*
X154149000Y-99609000D01*
X154153000Y-99613000D01*
X154157000Y-99617000D01*
X154160000Y-99621000D01*
X154164000Y-99626000D01*
X154167000Y-99630000D01*
X154170000Y-99635000D01*
X154172000Y-99640000D01*
X154175000Y-99645000D01*
X154177000Y-99651000D01*
X154179000Y-99656000D01*
X154180000Y-99661000D01*
X154181000Y-99667000D01*
X154182000Y-99673000D01*
X154183000Y-99678000D01*
X154183000Y-99684000D01*
X154183000Y-99689000D01*
X154183000Y-99695000D01*
X154183000Y-99915000D01*
X154183000Y-99921000D01*
X154183000Y-99926000D01*
X154183000Y-99932000D01*
X154182000Y-99937000D01*
X154181000Y-99943000D01*
X154180000Y-99949000D01*
X154179000Y-99954000D01*
X154177000Y-99959000D01*
X154175000Y-99965000D01*
X154172000Y-99970000D01*
X154170000Y-99975000D01*
X154167000Y-99980000D01*
X154164000Y-99984000D01*
X154160000Y-99989000D01*
X154157000Y-99993000D01*
X154153000Y-99997000D01*
X154149000Y-100001000D01*
X154145000Y-100005000D01*
X154140000Y-100009000D01*
X154136000Y-100012000D01*
X154131000Y-100015000D01*
X154126000Y-100018000D01*
X154121000Y-100020000D01*
X154116000Y-100022000D01*
X154111000Y-100024000D01*
X154105000Y-100026000D01*
X154100000Y-100027000D01*
X154094000Y-100029000D01*
X154089000Y-100029000D01*
X154083000Y-100030000D01*
X153783000Y-100030000D01*
X153777000Y-100029000D01*
X153772000Y-100029000D01*
X153766000Y-100027000D01*
X153761000Y-100026000D01*
X153755000Y-100024000D01*
X153750000Y-100022000D01*
X153745000Y-100020000D01*
X153740000Y-100018000D01*
X153735000Y-100015000D01*
X153730000Y-100012000D01*
X153726000Y-100009000D01*
X153721000Y-100005000D01*
X153717000Y-100001000D01*
X153713000Y-99997000D01*
X153709000Y-99993000D01*
X153706000Y-99989000D01*
X153702000Y-99984000D01*
X153699000Y-99980000D01*
X153696000Y-99975000D01*
X153694000Y-99970000D01*
X153691000Y-99965000D01*
X153689000Y-99959000D01*
X153687000Y-99954000D01*
X153686000Y-99949000D01*
X153685000Y-99943000D01*
X153684000Y-99937000D01*
X153683000Y-99932000D01*
X153683000Y-99926000D01*
X153683000Y-99921000D01*
X153683000Y-99915000D01*
X153683000Y-99695000D01*
X153683000Y-99689000D01*
X153683000Y-99684000D01*
X153683000Y-99678000D01*
X153684000Y-99673000D01*
X153685000Y-99667000D01*
X153686000Y-99661000D01*
X153687000Y-99656000D01*
X153689000Y-99651000D01*
X153691000Y-99645000D01*
X153694000Y-99640000D01*
X153696000Y-99635000D01*
X153699000Y-99630000D01*
X153702000Y-99626000D01*
X153706000Y-99621000D01*
X153709000Y-99617000D01*
X153713000Y-99613000D01*
X153717000Y-99609000D01*
X153721000Y-99605000D01*
X153726000Y-99601000D01*
X153730000Y-99598000D01*
X153735000Y-99595000D01*
X153740000Y-99592000D01*
X153745000Y-99590000D01*
X153750000Y-99588000D01*
X153755000Y-99586000D01*
X153761000Y-99584000D01*
X153766000Y-99583000D01*
X153772000Y-99581000D01*
X153777000Y-99581000D01*
X153783000Y-99580000D01*
X154083000Y-99580000D01*
X154089000Y-99581000D01*
G37*
X155619000Y-99581000D02*
X155624000Y-99581000D01*
X155630000Y-99583000D01*
X155635000Y-99584000D01*
X155641000Y-99586000D01*
X155646000Y-99588000D01*
X155651000Y-99590000D01*
X155656000Y-99592000D01*
X155661000Y-99595000D01*
X155666000Y-99598000D01*
X155670000Y-99601000D01*
X155675000Y-99605000D01*
X155679000Y-99609000D01*
X155683000Y-99613000D01*
X155687000Y-99617000D01*
X155690000Y-99621000D01*
X155694000Y-99626000D01*
X155697000Y-99630000D01*
X155700000Y-99635000D01*
X155702000Y-99640000D01*
X155705000Y-99645000D01*
X155707000Y-99651000D01*
X155709000Y-99656000D01*
X155710000Y-99661000D01*
X155711000Y-99667000D01*
X155712000Y-99673000D01*
X155713000Y-99678000D01*
X155713000Y-99684000D01*
X155713000Y-99689000D01*
X155713000Y-99695000D01*
X155713000Y-99915000D01*
X155713000Y-99921000D01*
X155713000Y-99926000D01*
X155713000Y-99932000D01*
X155712000Y-99937000D01*
X155711000Y-99943000D01*
X155710000Y-99949000D01*
X155709000Y-99954000D01*
X155707000Y-99959000D01*
X155705000Y-99965000D01*
X155702000Y-99970000D01*
X155700000Y-99975000D01*
X155697000Y-99980000D01*
X155694000Y-99984000D01*
X155690000Y-99989000D01*
X155687000Y-99993000D01*
X155683000Y-99997000D01*
X155679000Y-100001000D01*
X155675000Y-100005000D01*
X155670000Y-100009000D01*
X155666000Y-100012000D01*
X155661000Y-100015000D01*
X155656000Y-100018000D01*
X155651000Y-100020000D01*
X155646000Y-100022000D01*
X155641000Y-100024000D01*
X155635000Y-100026000D01*
X155630000Y-100027000D01*
X155624000Y-100029000D01*
X155619000Y-100029000D01*
X155613000Y-100030000D01*
X155313000Y-100030000D01*
X155307000Y-100029000D01*
X155302000Y-100029000D01*
X155296000Y-100027000D01*
X155291000Y-100026000D01*
X155285000Y-100024000D01*
X155280000Y-100022000D01*
X155275000Y-100020000D01*
X155270000Y-100018000D01*
X155265000Y-100015000D01*
X155260000Y-100012000D01*
X155256000Y-100009000D01*
X155251000Y-100005000D01*
X155247000Y-100001000D01*
X155243000Y-99997000D01*
X155239000Y-99993000D01*
X155236000Y-99989000D01*
X155232000Y-99984000D01*
X155229000Y-99980000D01*
X155226000Y-99975000D01*
X155224000Y-99970000D01*
X155221000Y-99965000D01*
X155219000Y-99959000D01*
X155217000Y-99954000D01*
X155216000Y-99949000D01*
X155215000Y-99943000D01*
X155214000Y-99937000D01*
X155213000Y-99932000D01*
X155213000Y-99926000D01*
X155213000Y-99921000D01*
X155213000Y-99915000D01*
X155213000Y-99695000D01*
X155213000Y-99689000D01*
X155213000Y-99684000D01*
X155213000Y-99678000D01*
X155214000Y-99673000D01*
X155215000Y-99667000D01*
X155216000Y-99661000D01*
X155217000Y-99656000D01*
X155219000Y-99651000D01*
X155221000Y-99645000D01*
X155224000Y-99640000D01*
X155226000Y-99635000D01*
X155229000Y-99630000D01*
X155232000Y-99626000D01*
X155236000Y-99621000D01*
X155239000Y-99617000D01*
X155243000Y-99613000D01*
X155247000Y-99609000D01*
X155251000Y-99605000D01*
X155256000Y-99601000D01*
X155260000Y-99598000D01*
X155265000Y-99595000D01*
X155270000Y-99592000D01*
X155275000Y-99590000D01*
X155280000Y-99588000D01*
X155285000Y-99586000D01*
X155291000Y-99584000D01*
X155296000Y-99583000D01*
X155302000Y-99581000D01*
X155307000Y-99581000D01*
X155313000Y-99580000D01*
X155613000Y-99580000D01*
X155619000Y-99581000D01*
G36*
X155619000Y-99581000D02*
G01*
X155624000Y-99581000D01*
X155630000Y-99583000D01*
X155635000Y-99584000D01*
X155641000Y-99586000D01*
X155646000Y-99588000D01*
X155651000Y-99590000D01*
X155656000Y-99592000D01*
X155661000Y-99595000D01*
X155666000Y-99598000D01*
X155670000Y-99601000D01*
X155675000Y-99605000D01*
X155679000Y-99609000D01*
X155683000Y-99613000D01*
X155687000Y-99617000D01*
X155690000Y-99621000D01*
X155694000Y-99626000D01*
X155697000Y-99630000D01*
X155700000Y-99635000D01*
X155702000Y-99640000D01*
X155705000Y-99645000D01*
X155707000Y-99651000D01*
X155709000Y-99656000D01*
X155710000Y-99661000D01*
X155711000Y-99667000D01*
X155712000Y-99673000D01*
X155713000Y-99678000D01*
X155713000Y-99684000D01*
X155713000Y-99689000D01*
X155713000Y-99695000D01*
X155713000Y-99915000D01*
X155713000Y-99921000D01*
X155713000Y-99926000D01*
X155713000Y-99932000D01*
X155712000Y-99937000D01*
X155711000Y-99943000D01*
X155710000Y-99949000D01*
X155709000Y-99954000D01*
X155707000Y-99959000D01*
X155705000Y-99965000D01*
X155702000Y-99970000D01*
X155700000Y-99975000D01*
X155697000Y-99980000D01*
X155694000Y-99984000D01*
X155690000Y-99989000D01*
X155687000Y-99993000D01*
X155683000Y-99997000D01*
X155679000Y-100001000D01*
X155675000Y-100005000D01*
X155670000Y-100009000D01*
X155666000Y-100012000D01*
X155661000Y-100015000D01*
X155656000Y-100018000D01*
X155651000Y-100020000D01*
X155646000Y-100022000D01*
X155641000Y-100024000D01*
X155635000Y-100026000D01*
X155630000Y-100027000D01*
X155624000Y-100029000D01*
X155619000Y-100029000D01*
X155613000Y-100030000D01*
X155313000Y-100030000D01*
X155307000Y-100029000D01*
X155302000Y-100029000D01*
X155296000Y-100027000D01*
X155291000Y-100026000D01*
X155285000Y-100024000D01*
X155280000Y-100022000D01*
X155275000Y-100020000D01*
X155270000Y-100018000D01*
X155265000Y-100015000D01*
X155260000Y-100012000D01*
X155256000Y-100009000D01*
X155251000Y-100005000D01*
X155247000Y-100001000D01*
X155243000Y-99997000D01*
X155239000Y-99993000D01*
X155236000Y-99989000D01*
X155232000Y-99984000D01*
X155229000Y-99980000D01*
X155226000Y-99975000D01*
X155224000Y-99970000D01*
X155221000Y-99965000D01*
X155219000Y-99959000D01*
X155217000Y-99954000D01*
X155216000Y-99949000D01*
X155215000Y-99943000D01*
X155214000Y-99937000D01*
X155213000Y-99932000D01*
X155213000Y-99926000D01*
X155213000Y-99921000D01*
X155213000Y-99915000D01*
X155213000Y-99695000D01*
X155213000Y-99689000D01*
X155213000Y-99684000D01*
X155213000Y-99678000D01*
X155214000Y-99673000D01*
X155215000Y-99667000D01*
X155216000Y-99661000D01*
X155217000Y-99656000D01*
X155219000Y-99651000D01*
X155221000Y-99645000D01*
X155224000Y-99640000D01*
X155226000Y-99635000D01*
X155229000Y-99630000D01*
X155232000Y-99626000D01*
X155236000Y-99621000D01*
X155239000Y-99617000D01*
X155243000Y-99613000D01*
X155247000Y-99609000D01*
X155251000Y-99605000D01*
X155256000Y-99601000D01*
X155260000Y-99598000D01*
X155265000Y-99595000D01*
X155270000Y-99592000D01*
X155275000Y-99590000D01*
X155280000Y-99588000D01*
X155285000Y-99586000D01*
X155291000Y-99584000D01*
X155296000Y-99583000D01*
X155302000Y-99581000D01*
X155307000Y-99581000D01*
X155313000Y-99580000D01*
X155613000Y-99580000D01*
X155619000Y-99581000D01*
G37*
X154089000Y-99081000D02*
X154094000Y-99081000D01*
X154100000Y-99083000D01*
X154105000Y-99084000D01*
X154111000Y-99086000D01*
X154116000Y-99088000D01*
X154121000Y-99090000D01*
X154126000Y-99092000D01*
X154131000Y-99095000D01*
X154136000Y-99098000D01*
X154140000Y-99101000D01*
X154145000Y-99105000D01*
X154149000Y-99109000D01*
X154153000Y-99113000D01*
X154157000Y-99117000D01*
X154160000Y-99121000D01*
X154164000Y-99126000D01*
X154167000Y-99130000D01*
X154170000Y-99135000D01*
X154172000Y-99140000D01*
X154175000Y-99145000D01*
X154177000Y-99151000D01*
X154179000Y-99156000D01*
X154180000Y-99161000D01*
X154181000Y-99167000D01*
X154182000Y-99173000D01*
X154183000Y-99178000D01*
X154183000Y-99184000D01*
X154183000Y-99189000D01*
X154183000Y-99195000D01*
X154183000Y-99415000D01*
X154183000Y-99421000D01*
X154183000Y-99426000D01*
X154183000Y-99432000D01*
X154182000Y-99437000D01*
X154181000Y-99443000D01*
X154180000Y-99449000D01*
X154179000Y-99454000D01*
X154177000Y-99459000D01*
X154175000Y-99465000D01*
X154172000Y-99470000D01*
X154170000Y-99475000D01*
X154167000Y-99480000D01*
X154164000Y-99484000D01*
X154160000Y-99489000D01*
X154157000Y-99493000D01*
X154153000Y-99497000D01*
X154149000Y-99501000D01*
X154145000Y-99505000D01*
X154140000Y-99509000D01*
X154136000Y-99512000D01*
X154131000Y-99515000D01*
X154126000Y-99518000D01*
X154121000Y-99520000D01*
X154116000Y-99522000D01*
X154111000Y-99524000D01*
X154105000Y-99526000D01*
X154100000Y-99527000D01*
X154094000Y-99529000D01*
X154089000Y-99529000D01*
X154083000Y-99530000D01*
X153783000Y-99530000D01*
X153777000Y-99529000D01*
X153772000Y-99529000D01*
X153766000Y-99527000D01*
X153761000Y-99526000D01*
X153755000Y-99524000D01*
X153750000Y-99522000D01*
X153745000Y-99520000D01*
X153740000Y-99518000D01*
X153735000Y-99515000D01*
X153730000Y-99512000D01*
X153726000Y-99509000D01*
X153721000Y-99505000D01*
X153717000Y-99501000D01*
X153713000Y-99497000D01*
X153709000Y-99493000D01*
X153706000Y-99489000D01*
X153702000Y-99484000D01*
X153699000Y-99480000D01*
X153696000Y-99475000D01*
X153694000Y-99470000D01*
X153691000Y-99465000D01*
X153689000Y-99459000D01*
X153687000Y-99454000D01*
X153686000Y-99449000D01*
X153685000Y-99443000D01*
X153684000Y-99437000D01*
X153683000Y-99432000D01*
X153683000Y-99426000D01*
X153683000Y-99421000D01*
X153683000Y-99415000D01*
X153683000Y-99195000D01*
X153683000Y-99189000D01*
X153683000Y-99184000D01*
X153683000Y-99178000D01*
X153684000Y-99173000D01*
X153685000Y-99167000D01*
X153686000Y-99161000D01*
X153687000Y-99156000D01*
X153689000Y-99151000D01*
X153691000Y-99145000D01*
X153694000Y-99140000D01*
X153696000Y-99135000D01*
X153699000Y-99130000D01*
X153702000Y-99126000D01*
X153706000Y-99121000D01*
X153709000Y-99117000D01*
X153713000Y-99113000D01*
X153717000Y-99109000D01*
X153721000Y-99105000D01*
X153726000Y-99101000D01*
X153730000Y-99098000D01*
X153735000Y-99095000D01*
X153740000Y-99092000D01*
X153745000Y-99090000D01*
X153750000Y-99088000D01*
X153755000Y-99086000D01*
X153761000Y-99084000D01*
X153766000Y-99083000D01*
X153772000Y-99081000D01*
X153777000Y-99081000D01*
X153783000Y-99080000D01*
X154083000Y-99080000D01*
X154089000Y-99081000D01*
G36*
X154089000Y-99081000D02*
G01*
X154094000Y-99081000D01*
X154100000Y-99083000D01*
X154105000Y-99084000D01*
X154111000Y-99086000D01*
X154116000Y-99088000D01*
X154121000Y-99090000D01*
X154126000Y-99092000D01*
X154131000Y-99095000D01*
X154136000Y-99098000D01*
X154140000Y-99101000D01*
X154145000Y-99105000D01*
X154149000Y-99109000D01*
X154153000Y-99113000D01*
X154157000Y-99117000D01*
X154160000Y-99121000D01*
X154164000Y-99126000D01*
X154167000Y-99130000D01*
X154170000Y-99135000D01*
X154172000Y-99140000D01*
X154175000Y-99145000D01*
X154177000Y-99151000D01*
X154179000Y-99156000D01*
X154180000Y-99161000D01*
X154181000Y-99167000D01*
X154182000Y-99173000D01*
X154183000Y-99178000D01*
X154183000Y-99184000D01*
X154183000Y-99189000D01*
X154183000Y-99195000D01*
X154183000Y-99415000D01*
X154183000Y-99421000D01*
X154183000Y-99426000D01*
X154183000Y-99432000D01*
X154182000Y-99437000D01*
X154181000Y-99443000D01*
X154180000Y-99449000D01*
X154179000Y-99454000D01*
X154177000Y-99459000D01*
X154175000Y-99465000D01*
X154172000Y-99470000D01*
X154170000Y-99475000D01*
X154167000Y-99480000D01*
X154164000Y-99484000D01*
X154160000Y-99489000D01*
X154157000Y-99493000D01*
X154153000Y-99497000D01*
X154149000Y-99501000D01*
X154145000Y-99505000D01*
X154140000Y-99509000D01*
X154136000Y-99512000D01*
X154131000Y-99515000D01*
X154126000Y-99518000D01*
X154121000Y-99520000D01*
X154116000Y-99522000D01*
X154111000Y-99524000D01*
X154105000Y-99526000D01*
X154100000Y-99527000D01*
X154094000Y-99529000D01*
X154089000Y-99529000D01*
X154083000Y-99530000D01*
X153783000Y-99530000D01*
X153777000Y-99529000D01*
X153772000Y-99529000D01*
X153766000Y-99527000D01*
X153761000Y-99526000D01*
X153755000Y-99524000D01*
X153750000Y-99522000D01*
X153745000Y-99520000D01*
X153740000Y-99518000D01*
X153735000Y-99515000D01*
X153730000Y-99512000D01*
X153726000Y-99509000D01*
X153721000Y-99505000D01*
X153717000Y-99501000D01*
X153713000Y-99497000D01*
X153709000Y-99493000D01*
X153706000Y-99489000D01*
X153702000Y-99484000D01*
X153699000Y-99480000D01*
X153696000Y-99475000D01*
X153694000Y-99470000D01*
X153691000Y-99465000D01*
X153689000Y-99459000D01*
X153687000Y-99454000D01*
X153686000Y-99449000D01*
X153685000Y-99443000D01*
X153684000Y-99437000D01*
X153683000Y-99432000D01*
X153683000Y-99426000D01*
X153683000Y-99421000D01*
X153683000Y-99415000D01*
X153683000Y-99195000D01*
X153683000Y-99189000D01*
X153683000Y-99184000D01*
X153683000Y-99178000D01*
X153684000Y-99173000D01*
X153685000Y-99167000D01*
X153686000Y-99161000D01*
X153687000Y-99156000D01*
X153689000Y-99151000D01*
X153691000Y-99145000D01*
X153694000Y-99140000D01*
X153696000Y-99135000D01*
X153699000Y-99130000D01*
X153702000Y-99126000D01*
X153706000Y-99121000D01*
X153709000Y-99117000D01*
X153713000Y-99113000D01*
X153717000Y-99109000D01*
X153721000Y-99105000D01*
X153726000Y-99101000D01*
X153730000Y-99098000D01*
X153735000Y-99095000D01*
X153740000Y-99092000D01*
X153745000Y-99090000D01*
X153750000Y-99088000D01*
X153755000Y-99086000D01*
X153761000Y-99084000D01*
X153766000Y-99083000D01*
X153772000Y-99081000D01*
X153777000Y-99081000D01*
X153783000Y-99080000D01*
X154083000Y-99080000D01*
X154089000Y-99081000D01*
G37*
X155619000Y-99081000D02*
X155624000Y-99081000D01*
X155630000Y-99083000D01*
X155635000Y-99084000D01*
X155641000Y-99086000D01*
X155646000Y-99088000D01*
X155651000Y-99090000D01*
X155656000Y-99092000D01*
X155661000Y-99095000D01*
X155666000Y-99098000D01*
X155670000Y-99101000D01*
X155675000Y-99105000D01*
X155679000Y-99109000D01*
X155683000Y-99113000D01*
X155687000Y-99117000D01*
X155690000Y-99121000D01*
X155694000Y-99126000D01*
X155697000Y-99130000D01*
X155700000Y-99135000D01*
X155702000Y-99140000D01*
X155705000Y-99145000D01*
X155707000Y-99151000D01*
X155709000Y-99156000D01*
X155710000Y-99161000D01*
X155711000Y-99167000D01*
X155712000Y-99173000D01*
X155713000Y-99178000D01*
X155713000Y-99184000D01*
X155713000Y-99189000D01*
X155713000Y-99195000D01*
X155713000Y-99415000D01*
X155713000Y-99421000D01*
X155713000Y-99426000D01*
X155713000Y-99432000D01*
X155712000Y-99437000D01*
X155711000Y-99443000D01*
X155710000Y-99449000D01*
X155709000Y-99454000D01*
X155707000Y-99459000D01*
X155705000Y-99465000D01*
X155702000Y-99470000D01*
X155700000Y-99475000D01*
X155697000Y-99480000D01*
X155694000Y-99484000D01*
X155690000Y-99489000D01*
X155687000Y-99493000D01*
X155683000Y-99497000D01*
X155679000Y-99501000D01*
X155675000Y-99505000D01*
X155670000Y-99509000D01*
X155666000Y-99512000D01*
X155661000Y-99515000D01*
X155656000Y-99518000D01*
X155651000Y-99520000D01*
X155646000Y-99522000D01*
X155641000Y-99524000D01*
X155635000Y-99526000D01*
X155630000Y-99527000D01*
X155624000Y-99529000D01*
X155619000Y-99529000D01*
X155613000Y-99530000D01*
X155313000Y-99530000D01*
X155307000Y-99529000D01*
X155302000Y-99529000D01*
X155296000Y-99527000D01*
X155291000Y-99526000D01*
X155285000Y-99524000D01*
X155280000Y-99522000D01*
X155275000Y-99520000D01*
X155270000Y-99518000D01*
X155265000Y-99515000D01*
X155260000Y-99512000D01*
X155256000Y-99509000D01*
X155251000Y-99505000D01*
X155247000Y-99501000D01*
X155243000Y-99497000D01*
X155239000Y-99493000D01*
X155236000Y-99489000D01*
X155232000Y-99484000D01*
X155229000Y-99480000D01*
X155226000Y-99475000D01*
X155224000Y-99470000D01*
X155221000Y-99465000D01*
X155219000Y-99459000D01*
X155217000Y-99454000D01*
X155216000Y-99449000D01*
X155215000Y-99443000D01*
X155214000Y-99437000D01*
X155213000Y-99432000D01*
X155213000Y-99426000D01*
X155213000Y-99421000D01*
X155213000Y-99415000D01*
X155213000Y-99195000D01*
X155213000Y-99189000D01*
X155213000Y-99184000D01*
X155213000Y-99178000D01*
X155214000Y-99173000D01*
X155215000Y-99167000D01*
X155216000Y-99161000D01*
X155217000Y-99156000D01*
X155219000Y-99151000D01*
X155221000Y-99145000D01*
X155224000Y-99140000D01*
X155226000Y-99135000D01*
X155229000Y-99130000D01*
X155232000Y-99126000D01*
X155236000Y-99121000D01*
X155239000Y-99117000D01*
X155243000Y-99113000D01*
X155247000Y-99109000D01*
X155251000Y-99105000D01*
X155256000Y-99101000D01*
X155260000Y-99098000D01*
X155265000Y-99095000D01*
X155270000Y-99092000D01*
X155275000Y-99090000D01*
X155280000Y-99088000D01*
X155285000Y-99086000D01*
X155291000Y-99084000D01*
X155296000Y-99083000D01*
X155302000Y-99081000D01*
X155307000Y-99081000D01*
X155313000Y-99080000D01*
X155613000Y-99080000D01*
X155619000Y-99081000D01*
G36*
X155619000Y-99081000D02*
G01*
X155624000Y-99081000D01*
X155630000Y-99083000D01*
X155635000Y-99084000D01*
X155641000Y-99086000D01*
X155646000Y-99088000D01*
X155651000Y-99090000D01*
X155656000Y-99092000D01*
X155661000Y-99095000D01*
X155666000Y-99098000D01*
X155670000Y-99101000D01*
X155675000Y-99105000D01*
X155679000Y-99109000D01*
X155683000Y-99113000D01*
X155687000Y-99117000D01*
X155690000Y-99121000D01*
X155694000Y-99126000D01*
X155697000Y-99130000D01*
X155700000Y-99135000D01*
X155702000Y-99140000D01*
X155705000Y-99145000D01*
X155707000Y-99151000D01*
X155709000Y-99156000D01*
X155710000Y-99161000D01*
X155711000Y-99167000D01*
X155712000Y-99173000D01*
X155713000Y-99178000D01*
X155713000Y-99184000D01*
X155713000Y-99189000D01*
X155713000Y-99195000D01*
X155713000Y-99415000D01*
X155713000Y-99421000D01*
X155713000Y-99426000D01*
X155713000Y-99432000D01*
X155712000Y-99437000D01*
X155711000Y-99443000D01*
X155710000Y-99449000D01*
X155709000Y-99454000D01*
X155707000Y-99459000D01*
X155705000Y-99465000D01*
X155702000Y-99470000D01*
X155700000Y-99475000D01*
X155697000Y-99480000D01*
X155694000Y-99484000D01*
X155690000Y-99489000D01*
X155687000Y-99493000D01*
X155683000Y-99497000D01*
X155679000Y-99501000D01*
X155675000Y-99505000D01*
X155670000Y-99509000D01*
X155666000Y-99512000D01*
X155661000Y-99515000D01*
X155656000Y-99518000D01*
X155651000Y-99520000D01*
X155646000Y-99522000D01*
X155641000Y-99524000D01*
X155635000Y-99526000D01*
X155630000Y-99527000D01*
X155624000Y-99529000D01*
X155619000Y-99529000D01*
X155613000Y-99530000D01*
X155313000Y-99530000D01*
X155307000Y-99529000D01*
X155302000Y-99529000D01*
X155296000Y-99527000D01*
X155291000Y-99526000D01*
X155285000Y-99524000D01*
X155280000Y-99522000D01*
X155275000Y-99520000D01*
X155270000Y-99518000D01*
X155265000Y-99515000D01*
X155260000Y-99512000D01*
X155256000Y-99509000D01*
X155251000Y-99505000D01*
X155247000Y-99501000D01*
X155243000Y-99497000D01*
X155239000Y-99493000D01*
X155236000Y-99489000D01*
X155232000Y-99484000D01*
X155229000Y-99480000D01*
X155226000Y-99475000D01*
X155224000Y-99470000D01*
X155221000Y-99465000D01*
X155219000Y-99459000D01*
X155217000Y-99454000D01*
X155216000Y-99449000D01*
X155215000Y-99443000D01*
X155214000Y-99437000D01*
X155213000Y-99432000D01*
X155213000Y-99426000D01*
X155213000Y-99421000D01*
X155213000Y-99415000D01*
X155213000Y-99195000D01*
X155213000Y-99189000D01*
X155213000Y-99184000D01*
X155213000Y-99178000D01*
X155214000Y-99173000D01*
X155215000Y-99167000D01*
X155216000Y-99161000D01*
X155217000Y-99156000D01*
X155219000Y-99151000D01*
X155221000Y-99145000D01*
X155224000Y-99140000D01*
X155226000Y-99135000D01*
X155229000Y-99130000D01*
X155232000Y-99126000D01*
X155236000Y-99121000D01*
X155239000Y-99117000D01*
X155243000Y-99113000D01*
X155247000Y-99109000D01*
X155251000Y-99105000D01*
X155256000Y-99101000D01*
X155260000Y-99098000D01*
X155265000Y-99095000D01*
X155270000Y-99092000D01*
X155275000Y-99090000D01*
X155280000Y-99088000D01*
X155285000Y-99086000D01*
X155291000Y-99084000D01*
X155296000Y-99083000D01*
X155302000Y-99081000D01*
X155307000Y-99081000D01*
X155313000Y-99080000D01*
X155613000Y-99080000D01*
X155619000Y-99081000D01*
G37*
X154580000Y-98541000D02*
X154586000Y-98542000D01*
X154592000Y-98543000D01*
X154597000Y-98544000D01*
X154602000Y-98546000D01*
X154608000Y-98548000D01*
X154613000Y-98551000D01*
X154618000Y-98553000D01*
X154623000Y-98556000D01*
X154627000Y-98559000D01*
X154632000Y-98563000D01*
X154636000Y-98566000D01*
X154640000Y-98570000D01*
X154644000Y-98574000D01*
X154648000Y-98578000D01*
X154652000Y-98583000D01*
X154655000Y-98587000D01*
X154658000Y-98592000D01*
X154661000Y-98597000D01*
X154663000Y-98602000D01*
X154665000Y-98607000D01*
X154667000Y-98612000D01*
X154669000Y-98618000D01*
X154670000Y-98623000D01*
X154672000Y-98629000D01*
X154672000Y-98634000D01*
X154673000Y-98640000D01*
X154673000Y-98940000D01*
X154672000Y-98946000D01*
X154672000Y-98951000D01*
X154670000Y-98957000D01*
X154669000Y-98962000D01*
X154667000Y-98968000D01*
X154665000Y-98973000D01*
X154663000Y-98978000D01*
X154661000Y-98983000D01*
X154658000Y-98988000D01*
X154655000Y-98993000D01*
X154652000Y-98997000D01*
X154648000Y-99002000D01*
X154644000Y-99006000D01*
X154640000Y-99010000D01*
X154636000Y-99014000D01*
X154632000Y-99017000D01*
X154627000Y-99021000D01*
X154623000Y-99024000D01*
X154618000Y-99027000D01*
X154613000Y-99029000D01*
X154608000Y-99032000D01*
X154602000Y-99034000D01*
X154597000Y-99036000D01*
X154592000Y-99037000D01*
X154586000Y-99038000D01*
X154580000Y-99039000D01*
X154575000Y-99040000D01*
X154569000Y-99040000D01*
X154564000Y-99040000D01*
X154558000Y-99040000D01*
X154338000Y-99040000D01*
X154332000Y-99040000D01*
X154327000Y-99040000D01*
X154321000Y-99040000D01*
X154316000Y-99039000D01*
X154310000Y-99038000D01*
X154304000Y-99037000D01*
X154299000Y-99036000D01*
X154294000Y-99034000D01*
X154288000Y-99032000D01*
X154283000Y-99029000D01*
X154278000Y-99027000D01*
X154273000Y-99024000D01*
X154269000Y-99021000D01*
X154264000Y-99017000D01*
X154260000Y-99014000D01*
X154256000Y-99010000D01*
X154252000Y-99006000D01*
X154248000Y-99002000D01*
X154244000Y-98997000D01*
X154241000Y-98993000D01*
X154238000Y-98988000D01*
X154235000Y-98983000D01*
X154233000Y-98978000D01*
X154231000Y-98973000D01*
X154229000Y-98968000D01*
X154227000Y-98962000D01*
X154226000Y-98957000D01*
X154224000Y-98951000D01*
X154224000Y-98946000D01*
X154223000Y-98940000D01*
X154223000Y-98640000D01*
X154224000Y-98634000D01*
X154224000Y-98629000D01*
X154226000Y-98623000D01*
X154227000Y-98618000D01*
X154229000Y-98612000D01*
X154231000Y-98607000D01*
X154233000Y-98602000D01*
X154235000Y-98597000D01*
X154238000Y-98592000D01*
X154241000Y-98587000D01*
X154244000Y-98583000D01*
X154248000Y-98578000D01*
X154252000Y-98574000D01*
X154256000Y-98570000D01*
X154260000Y-98566000D01*
X154264000Y-98563000D01*
X154269000Y-98559000D01*
X154273000Y-98556000D01*
X154278000Y-98553000D01*
X154283000Y-98551000D01*
X154288000Y-98548000D01*
X154294000Y-98546000D01*
X154299000Y-98544000D01*
X154304000Y-98543000D01*
X154310000Y-98542000D01*
X154316000Y-98541000D01*
X154321000Y-98540000D01*
X154327000Y-98540000D01*
X154332000Y-98540000D01*
X154338000Y-98540000D01*
X154558000Y-98540000D01*
X154564000Y-98540000D01*
X154569000Y-98540000D01*
X154575000Y-98540000D01*
X154580000Y-98541000D01*
G36*
X154580000Y-98541000D02*
G01*
X154586000Y-98542000D01*
X154592000Y-98543000D01*
X154597000Y-98544000D01*
X154602000Y-98546000D01*
X154608000Y-98548000D01*
X154613000Y-98551000D01*
X154618000Y-98553000D01*
X154623000Y-98556000D01*
X154627000Y-98559000D01*
X154632000Y-98563000D01*
X154636000Y-98566000D01*
X154640000Y-98570000D01*
X154644000Y-98574000D01*
X154648000Y-98578000D01*
X154652000Y-98583000D01*
X154655000Y-98587000D01*
X154658000Y-98592000D01*
X154661000Y-98597000D01*
X154663000Y-98602000D01*
X154665000Y-98607000D01*
X154667000Y-98612000D01*
X154669000Y-98618000D01*
X154670000Y-98623000D01*
X154672000Y-98629000D01*
X154672000Y-98634000D01*
X154673000Y-98640000D01*
X154673000Y-98940000D01*
X154672000Y-98946000D01*
X154672000Y-98951000D01*
X154670000Y-98957000D01*
X154669000Y-98962000D01*
X154667000Y-98968000D01*
X154665000Y-98973000D01*
X154663000Y-98978000D01*
X154661000Y-98983000D01*
X154658000Y-98988000D01*
X154655000Y-98993000D01*
X154652000Y-98997000D01*
X154648000Y-99002000D01*
X154644000Y-99006000D01*
X154640000Y-99010000D01*
X154636000Y-99014000D01*
X154632000Y-99017000D01*
X154627000Y-99021000D01*
X154623000Y-99024000D01*
X154618000Y-99027000D01*
X154613000Y-99029000D01*
X154608000Y-99032000D01*
X154602000Y-99034000D01*
X154597000Y-99036000D01*
X154592000Y-99037000D01*
X154586000Y-99038000D01*
X154580000Y-99039000D01*
X154575000Y-99040000D01*
X154569000Y-99040000D01*
X154564000Y-99040000D01*
X154558000Y-99040000D01*
X154338000Y-99040000D01*
X154332000Y-99040000D01*
X154327000Y-99040000D01*
X154321000Y-99040000D01*
X154316000Y-99039000D01*
X154310000Y-99038000D01*
X154304000Y-99037000D01*
X154299000Y-99036000D01*
X154294000Y-99034000D01*
X154288000Y-99032000D01*
X154283000Y-99029000D01*
X154278000Y-99027000D01*
X154273000Y-99024000D01*
X154269000Y-99021000D01*
X154264000Y-99017000D01*
X154260000Y-99014000D01*
X154256000Y-99010000D01*
X154252000Y-99006000D01*
X154248000Y-99002000D01*
X154244000Y-98997000D01*
X154241000Y-98993000D01*
X154238000Y-98988000D01*
X154235000Y-98983000D01*
X154233000Y-98978000D01*
X154231000Y-98973000D01*
X154229000Y-98968000D01*
X154227000Y-98962000D01*
X154226000Y-98957000D01*
X154224000Y-98951000D01*
X154224000Y-98946000D01*
X154223000Y-98940000D01*
X154223000Y-98640000D01*
X154224000Y-98634000D01*
X154224000Y-98629000D01*
X154226000Y-98623000D01*
X154227000Y-98618000D01*
X154229000Y-98612000D01*
X154231000Y-98607000D01*
X154233000Y-98602000D01*
X154235000Y-98597000D01*
X154238000Y-98592000D01*
X154241000Y-98587000D01*
X154244000Y-98583000D01*
X154248000Y-98578000D01*
X154252000Y-98574000D01*
X154256000Y-98570000D01*
X154260000Y-98566000D01*
X154264000Y-98563000D01*
X154269000Y-98559000D01*
X154273000Y-98556000D01*
X154278000Y-98553000D01*
X154283000Y-98551000D01*
X154288000Y-98548000D01*
X154294000Y-98546000D01*
X154299000Y-98544000D01*
X154304000Y-98543000D01*
X154310000Y-98542000D01*
X154316000Y-98541000D01*
X154321000Y-98540000D01*
X154327000Y-98540000D01*
X154332000Y-98540000D01*
X154338000Y-98540000D01*
X154558000Y-98540000D01*
X154564000Y-98540000D01*
X154569000Y-98540000D01*
X154575000Y-98540000D01*
X154580000Y-98541000D01*
G37*
X155080000Y-98541000D02*
X155086000Y-98542000D01*
X155092000Y-98543000D01*
X155097000Y-98544000D01*
X155102000Y-98546000D01*
X155108000Y-98548000D01*
X155113000Y-98551000D01*
X155118000Y-98553000D01*
X155123000Y-98556000D01*
X155127000Y-98559000D01*
X155132000Y-98563000D01*
X155136000Y-98566000D01*
X155140000Y-98570000D01*
X155144000Y-98574000D01*
X155148000Y-98578000D01*
X155152000Y-98583000D01*
X155155000Y-98587000D01*
X155158000Y-98592000D01*
X155161000Y-98597000D01*
X155163000Y-98602000D01*
X155165000Y-98607000D01*
X155167000Y-98612000D01*
X155169000Y-98618000D01*
X155170000Y-98623000D01*
X155172000Y-98629000D01*
X155172000Y-98634000D01*
X155173000Y-98640000D01*
X155173000Y-98940000D01*
X155172000Y-98946000D01*
X155172000Y-98951000D01*
X155170000Y-98957000D01*
X155169000Y-98962000D01*
X155167000Y-98968000D01*
X155165000Y-98973000D01*
X155163000Y-98978000D01*
X155161000Y-98983000D01*
X155158000Y-98988000D01*
X155155000Y-98993000D01*
X155152000Y-98997000D01*
X155148000Y-99002000D01*
X155144000Y-99006000D01*
X155140000Y-99010000D01*
X155136000Y-99014000D01*
X155132000Y-99017000D01*
X155127000Y-99021000D01*
X155123000Y-99024000D01*
X155118000Y-99027000D01*
X155113000Y-99029000D01*
X155108000Y-99032000D01*
X155102000Y-99034000D01*
X155097000Y-99036000D01*
X155092000Y-99037000D01*
X155086000Y-99038000D01*
X155080000Y-99039000D01*
X155075000Y-99040000D01*
X155069000Y-99040000D01*
X155064000Y-99040000D01*
X155058000Y-99040000D01*
X154838000Y-99040000D01*
X154832000Y-99040000D01*
X154827000Y-99040000D01*
X154821000Y-99040000D01*
X154816000Y-99039000D01*
X154810000Y-99038000D01*
X154804000Y-99037000D01*
X154799000Y-99036000D01*
X154794000Y-99034000D01*
X154788000Y-99032000D01*
X154783000Y-99029000D01*
X154778000Y-99027000D01*
X154773000Y-99024000D01*
X154769000Y-99021000D01*
X154764000Y-99017000D01*
X154760000Y-99014000D01*
X154756000Y-99010000D01*
X154752000Y-99006000D01*
X154748000Y-99002000D01*
X154744000Y-98997000D01*
X154741000Y-98993000D01*
X154738000Y-98988000D01*
X154735000Y-98983000D01*
X154733000Y-98978000D01*
X154731000Y-98973000D01*
X154729000Y-98968000D01*
X154727000Y-98962000D01*
X154726000Y-98957000D01*
X154724000Y-98951000D01*
X154724000Y-98946000D01*
X154723000Y-98940000D01*
X154723000Y-98640000D01*
X154724000Y-98634000D01*
X154724000Y-98629000D01*
X154726000Y-98623000D01*
X154727000Y-98618000D01*
X154729000Y-98612000D01*
X154731000Y-98607000D01*
X154733000Y-98602000D01*
X154735000Y-98597000D01*
X154738000Y-98592000D01*
X154741000Y-98587000D01*
X154744000Y-98583000D01*
X154748000Y-98578000D01*
X154752000Y-98574000D01*
X154756000Y-98570000D01*
X154760000Y-98566000D01*
X154764000Y-98563000D01*
X154769000Y-98559000D01*
X154773000Y-98556000D01*
X154778000Y-98553000D01*
X154783000Y-98551000D01*
X154788000Y-98548000D01*
X154794000Y-98546000D01*
X154799000Y-98544000D01*
X154804000Y-98543000D01*
X154810000Y-98542000D01*
X154816000Y-98541000D01*
X154821000Y-98540000D01*
X154827000Y-98540000D01*
X154832000Y-98540000D01*
X154838000Y-98540000D01*
X155058000Y-98540000D01*
X155064000Y-98540000D01*
X155069000Y-98540000D01*
X155075000Y-98540000D01*
X155080000Y-98541000D01*
G36*
X155080000Y-98541000D02*
G01*
X155086000Y-98542000D01*
X155092000Y-98543000D01*
X155097000Y-98544000D01*
X155102000Y-98546000D01*
X155108000Y-98548000D01*
X155113000Y-98551000D01*
X155118000Y-98553000D01*
X155123000Y-98556000D01*
X155127000Y-98559000D01*
X155132000Y-98563000D01*
X155136000Y-98566000D01*
X155140000Y-98570000D01*
X155144000Y-98574000D01*
X155148000Y-98578000D01*
X155152000Y-98583000D01*
X155155000Y-98587000D01*
X155158000Y-98592000D01*
X155161000Y-98597000D01*
X155163000Y-98602000D01*
X155165000Y-98607000D01*
X155167000Y-98612000D01*
X155169000Y-98618000D01*
X155170000Y-98623000D01*
X155172000Y-98629000D01*
X155172000Y-98634000D01*
X155173000Y-98640000D01*
X155173000Y-98940000D01*
X155172000Y-98946000D01*
X155172000Y-98951000D01*
X155170000Y-98957000D01*
X155169000Y-98962000D01*
X155167000Y-98968000D01*
X155165000Y-98973000D01*
X155163000Y-98978000D01*
X155161000Y-98983000D01*
X155158000Y-98988000D01*
X155155000Y-98993000D01*
X155152000Y-98997000D01*
X155148000Y-99002000D01*
X155144000Y-99006000D01*
X155140000Y-99010000D01*
X155136000Y-99014000D01*
X155132000Y-99017000D01*
X155127000Y-99021000D01*
X155123000Y-99024000D01*
X155118000Y-99027000D01*
X155113000Y-99029000D01*
X155108000Y-99032000D01*
X155102000Y-99034000D01*
X155097000Y-99036000D01*
X155092000Y-99037000D01*
X155086000Y-99038000D01*
X155080000Y-99039000D01*
X155075000Y-99040000D01*
X155069000Y-99040000D01*
X155064000Y-99040000D01*
X155058000Y-99040000D01*
X154838000Y-99040000D01*
X154832000Y-99040000D01*
X154827000Y-99040000D01*
X154821000Y-99040000D01*
X154816000Y-99039000D01*
X154810000Y-99038000D01*
X154804000Y-99037000D01*
X154799000Y-99036000D01*
X154794000Y-99034000D01*
X154788000Y-99032000D01*
X154783000Y-99029000D01*
X154778000Y-99027000D01*
X154773000Y-99024000D01*
X154769000Y-99021000D01*
X154764000Y-99017000D01*
X154760000Y-99014000D01*
X154756000Y-99010000D01*
X154752000Y-99006000D01*
X154748000Y-99002000D01*
X154744000Y-98997000D01*
X154741000Y-98993000D01*
X154738000Y-98988000D01*
X154735000Y-98983000D01*
X154733000Y-98978000D01*
X154731000Y-98973000D01*
X154729000Y-98968000D01*
X154727000Y-98962000D01*
X154726000Y-98957000D01*
X154724000Y-98951000D01*
X154724000Y-98946000D01*
X154723000Y-98940000D01*
X154723000Y-98640000D01*
X154724000Y-98634000D01*
X154724000Y-98629000D01*
X154726000Y-98623000D01*
X154727000Y-98618000D01*
X154729000Y-98612000D01*
X154731000Y-98607000D01*
X154733000Y-98602000D01*
X154735000Y-98597000D01*
X154738000Y-98592000D01*
X154741000Y-98587000D01*
X154744000Y-98583000D01*
X154748000Y-98578000D01*
X154752000Y-98574000D01*
X154756000Y-98570000D01*
X154760000Y-98566000D01*
X154764000Y-98563000D01*
X154769000Y-98559000D01*
X154773000Y-98556000D01*
X154778000Y-98553000D01*
X154783000Y-98551000D01*
X154788000Y-98548000D01*
X154794000Y-98546000D01*
X154799000Y-98544000D01*
X154804000Y-98543000D01*
X154810000Y-98542000D01*
X154816000Y-98541000D01*
X154821000Y-98540000D01*
X154827000Y-98540000D01*
X154832000Y-98540000D01*
X154838000Y-98540000D01*
X155058000Y-98540000D01*
X155064000Y-98540000D01*
X155069000Y-98540000D01*
X155075000Y-98540000D01*
X155080000Y-98541000D01*
G37*
X154080000Y-98531000D02*
X154086000Y-98532000D01*
X154092000Y-98533000D01*
X154097000Y-98534000D01*
X154102000Y-98536000D01*
X154108000Y-98538000D01*
X154113000Y-98541000D01*
X154118000Y-98543000D01*
X154123000Y-98546000D01*
X154127000Y-98549000D01*
X154132000Y-98553000D01*
X154136000Y-98556000D01*
X154140000Y-98560000D01*
X154144000Y-98564000D01*
X154148000Y-98568000D01*
X154152000Y-98573000D01*
X154155000Y-98577000D01*
X154158000Y-98582000D01*
X154161000Y-98587000D01*
X154163000Y-98592000D01*
X154165000Y-98597000D01*
X154167000Y-98602000D01*
X154169000Y-98608000D01*
X154170000Y-98613000D01*
X154172000Y-98619000D01*
X154172000Y-98624000D01*
X154173000Y-98630000D01*
X154173000Y-98930000D01*
X154172000Y-98936000D01*
X154172000Y-98941000D01*
X154170000Y-98947000D01*
X154169000Y-98952000D01*
X154167000Y-98958000D01*
X154165000Y-98963000D01*
X154163000Y-98968000D01*
X154161000Y-98973000D01*
X154158000Y-98978000D01*
X154155000Y-98983000D01*
X154152000Y-98987000D01*
X154148000Y-98992000D01*
X154144000Y-98996000D01*
X154140000Y-99000000D01*
X154136000Y-99004000D01*
X154132000Y-99007000D01*
X154127000Y-99011000D01*
X154123000Y-99014000D01*
X154118000Y-99017000D01*
X154113000Y-99019000D01*
X154108000Y-99022000D01*
X154102000Y-99024000D01*
X154097000Y-99026000D01*
X154092000Y-99027000D01*
X154086000Y-99028000D01*
X154080000Y-99029000D01*
X154075000Y-99030000D01*
X154069000Y-99030000D01*
X154064000Y-99030000D01*
X154058000Y-99030000D01*
X153838000Y-99030000D01*
X153832000Y-99030000D01*
X153827000Y-99030000D01*
X153821000Y-99030000D01*
X153816000Y-99029000D01*
X153810000Y-99028000D01*
X153804000Y-99027000D01*
X153799000Y-99026000D01*
X153794000Y-99024000D01*
X153788000Y-99022000D01*
X153783000Y-99019000D01*
X153778000Y-99017000D01*
X153773000Y-99014000D01*
X153769000Y-99011000D01*
X153764000Y-99007000D01*
X153760000Y-99004000D01*
X153756000Y-99000000D01*
X153752000Y-98996000D01*
X153748000Y-98992000D01*
X153744000Y-98987000D01*
X153741000Y-98983000D01*
X153738000Y-98978000D01*
X153735000Y-98973000D01*
X153733000Y-98968000D01*
X153731000Y-98963000D01*
X153729000Y-98958000D01*
X153727000Y-98952000D01*
X153726000Y-98947000D01*
X153724000Y-98941000D01*
X153724000Y-98936000D01*
X153723000Y-98930000D01*
X153723000Y-98630000D01*
X153724000Y-98624000D01*
X153724000Y-98619000D01*
X153726000Y-98613000D01*
X153727000Y-98608000D01*
X153729000Y-98602000D01*
X153731000Y-98597000D01*
X153733000Y-98592000D01*
X153735000Y-98587000D01*
X153738000Y-98582000D01*
X153741000Y-98577000D01*
X153744000Y-98573000D01*
X153748000Y-98568000D01*
X153752000Y-98564000D01*
X153756000Y-98560000D01*
X153760000Y-98556000D01*
X153764000Y-98553000D01*
X153769000Y-98549000D01*
X153773000Y-98546000D01*
X153778000Y-98543000D01*
X153783000Y-98541000D01*
X153788000Y-98538000D01*
X153794000Y-98536000D01*
X153799000Y-98534000D01*
X153804000Y-98533000D01*
X153810000Y-98532000D01*
X153816000Y-98531000D01*
X153821000Y-98530000D01*
X153827000Y-98530000D01*
X153832000Y-98530000D01*
X153838000Y-98530000D01*
X154058000Y-98530000D01*
X154064000Y-98530000D01*
X154069000Y-98530000D01*
X154075000Y-98530000D01*
X154080000Y-98531000D01*
G36*
X154080000Y-98531000D02*
G01*
X154086000Y-98532000D01*
X154092000Y-98533000D01*
X154097000Y-98534000D01*
X154102000Y-98536000D01*
X154108000Y-98538000D01*
X154113000Y-98541000D01*
X154118000Y-98543000D01*
X154123000Y-98546000D01*
X154127000Y-98549000D01*
X154132000Y-98553000D01*
X154136000Y-98556000D01*
X154140000Y-98560000D01*
X154144000Y-98564000D01*
X154148000Y-98568000D01*
X154152000Y-98573000D01*
X154155000Y-98577000D01*
X154158000Y-98582000D01*
X154161000Y-98587000D01*
X154163000Y-98592000D01*
X154165000Y-98597000D01*
X154167000Y-98602000D01*
X154169000Y-98608000D01*
X154170000Y-98613000D01*
X154172000Y-98619000D01*
X154172000Y-98624000D01*
X154173000Y-98630000D01*
X154173000Y-98930000D01*
X154172000Y-98936000D01*
X154172000Y-98941000D01*
X154170000Y-98947000D01*
X154169000Y-98952000D01*
X154167000Y-98958000D01*
X154165000Y-98963000D01*
X154163000Y-98968000D01*
X154161000Y-98973000D01*
X154158000Y-98978000D01*
X154155000Y-98983000D01*
X154152000Y-98987000D01*
X154148000Y-98992000D01*
X154144000Y-98996000D01*
X154140000Y-99000000D01*
X154136000Y-99004000D01*
X154132000Y-99007000D01*
X154127000Y-99011000D01*
X154123000Y-99014000D01*
X154118000Y-99017000D01*
X154113000Y-99019000D01*
X154108000Y-99022000D01*
X154102000Y-99024000D01*
X154097000Y-99026000D01*
X154092000Y-99027000D01*
X154086000Y-99028000D01*
X154080000Y-99029000D01*
X154075000Y-99030000D01*
X154069000Y-99030000D01*
X154064000Y-99030000D01*
X154058000Y-99030000D01*
X153838000Y-99030000D01*
X153832000Y-99030000D01*
X153827000Y-99030000D01*
X153821000Y-99030000D01*
X153816000Y-99029000D01*
X153810000Y-99028000D01*
X153804000Y-99027000D01*
X153799000Y-99026000D01*
X153794000Y-99024000D01*
X153788000Y-99022000D01*
X153783000Y-99019000D01*
X153778000Y-99017000D01*
X153773000Y-99014000D01*
X153769000Y-99011000D01*
X153764000Y-99007000D01*
X153760000Y-99004000D01*
X153756000Y-99000000D01*
X153752000Y-98996000D01*
X153748000Y-98992000D01*
X153744000Y-98987000D01*
X153741000Y-98983000D01*
X153738000Y-98978000D01*
X153735000Y-98973000D01*
X153733000Y-98968000D01*
X153731000Y-98963000D01*
X153729000Y-98958000D01*
X153727000Y-98952000D01*
X153726000Y-98947000D01*
X153724000Y-98941000D01*
X153724000Y-98936000D01*
X153723000Y-98930000D01*
X153723000Y-98630000D01*
X153724000Y-98624000D01*
X153724000Y-98619000D01*
X153726000Y-98613000D01*
X153727000Y-98608000D01*
X153729000Y-98602000D01*
X153731000Y-98597000D01*
X153733000Y-98592000D01*
X153735000Y-98587000D01*
X153738000Y-98582000D01*
X153741000Y-98577000D01*
X153744000Y-98573000D01*
X153748000Y-98568000D01*
X153752000Y-98564000D01*
X153756000Y-98560000D01*
X153760000Y-98556000D01*
X153764000Y-98553000D01*
X153769000Y-98549000D01*
X153773000Y-98546000D01*
X153778000Y-98543000D01*
X153783000Y-98541000D01*
X153788000Y-98538000D01*
X153794000Y-98536000D01*
X153799000Y-98534000D01*
X153804000Y-98533000D01*
X153810000Y-98532000D01*
X153816000Y-98531000D01*
X153821000Y-98530000D01*
X153827000Y-98530000D01*
X153832000Y-98530000D01*
X153838000Y-98530000D01*
X154058000Y-98530000D01*
X154064000Y-98530000D01*
X154069000Y-98530000D01*
X154075000Y-98530000D01*
X154080000Y-98531000D01*
G37*
X155580000Y-98531000D02*
X155586000Y-98532000D01*
X155592000Y-98533000D01*
X155597000Y-98534000D01*
X155602000Y-98536000D01*
X155608000Y-98538000D01*
X155613000Y-98541000D01*
X155618000Y-98543000D01*
X155623000Y-98546000D01*
X155627000Y-98549000D01*
X155632000Y-98553000D01*
X155636000Y-98556000D01*
X155640000Y-98560000D01*
X155644000Y-98564000D01*
X155648000Y-98568000D01*
X155652000Y-98573000D01*
X155655000Y-98577000D01*
X155658000Y-98582000D01*
X155661000Y-98587000D01*
X155663000Y-98592000D01*
X155665000Y-98597000D01*
X155667000Y-98602000D01*
X155669000Y-98608000D01*
X155670000Y-98613000D01*
X155672000Y-98619000D01*
X155672000Y-98624000D01*
X155673000Y-98630000D01*
X155673000Y-98930000D01*
X155672000Y-98936000D01*
X155672000Y-98941000D01*
X155670000Y-98947000D01*
X155669000Y-98952000D01*
X155667000Y-98958000D01*
X155665000Y-98963000D01*
X155663000Y-98968000D01*
X155661000Y-98973000D01*
X155658000Y-98978000D01*
X155655000Y-98983000D01*
X155652000Y-98987000D01*
X155648000Y-98992000D01*
X155644000Y-98996000D01*
X155640000Y-99000000D01*
X155636000Y-99004000D01*
X155632000Y-99007000D01*
X155627000Y-99011000D01*
X155623000Y-99014000D01*
X155618000Y-99017000D01*
X155613000Y-99019000D01*
X155608000Y-99022000D01*
X155602000Y-99024000D01*
X155597000Y-99026000D01*
X155592000Y-99027000D01*
X155586000Y-99028000D01*
X155580000Y-99029000D01*
X155575000Y-99030000D01*
X155569000Y-99030000D01*
X155564000Y-99030000D01*
X155558000Y-99030000D01*
X155338000Y-99030000D01*
X155332000Y-99030000D01*
X155327000Y-99030000D01*
X155321000Y-99030000D01*
X155316000Y-99029000D01*
X155310000Y-99028000D01*
X155304000Y-99027000D01*
X155299000Y-99026000D01*
X155294000Y-99024000D01*
X155288000Y-99022000D01*
X155283000Y-99019000D01*
X155278000Y-99017000D01*
X155273000Y-99014000D01*
X155269000Y-99011000D01*
X155264000Y-99007000D01*
X155260000Y-99004000D01*
X155256000Y-99000000D01*
X155252000Y-98996000D01*
X155248000Y-98992000D01*
X155244000Y-98987000D01*
X155241000Y-98983000D01*
X155238000Y-98978000D01*
X155235000Y-98973000D01*
X155233000Y-98968000D01*
X155231000Y-98963000D01*
X155229000Y-98958000D01*
X155227000Y-98952000D01*
X155226000Y-98947000D01*
X155224000Y-98941000D01*
X155224000Y-98936000D01*
X155223000Y-98930000D01*
X155223000Y-98630000D01*
X155224000Y-98624000D01*
X155224000Y-98619000D01*
X155226000Y-98613000D01*
X155227000Y-98608000D01*
X155229000Y-98602000D01*
X155231000Y-98597000D01*
X155233000Y-98592000D01*
X155235000Y-98587000D01*
X155238000Y-98582000D01*
X155241000Y-98577000D01*
X155244000Y-98573000D01*
X155248000Y-98568000D01*
X155252000Y-98564000D01*
X155256000Y-98560000D01*
X155260000Y-98556000D01*
X155264000Y-98553000D01*
X155269000Y-98549000D01*
X155273000Y-98546000D01*
X155278000Y-98543000D01*
X155283000Y-98541000D01*
X155288000Y-98538000D01*
X155294000Y-98536000D01*
X155299000Y-98534000D01*
X155304000Y-98533000D01*
X155310000Y-98532000D01*
X155316000Y-98531000D01*
X155321000Y-98530000D01*
X155327000Y-98530000D01*
X155332000Y-98530000D01*
X155338000Y-98530000D01*
X155558000Y-98530000D01*
X155564000Y-98530000D01*
X155569000Y-98530000D01*
X155575000Y-98530000D01*
X155580000Y-98531000D01*
G36*
X155580000Y-98531000D02*
G01*
X155586000Y-98532000D01*
X155592000Y-98533000D01*
X155597000Y-98534000D01*
X155602000Y-98536000D01*
X155608000Y-98538000D01*
X155613000Y-98541000D01*
X155618000Y-98543000D01*
X155623000Y-98546000D01*
X155627000Y-98549000D01*
X155632000Y-98553000D01*
X155636000Y-98556000D01*
X155640000Y-98560000D01*
X155644000Y-98564000D01*
X155648000Y-98568000D01*
X155652000Y-98573000D01*
X155655000Y-98577000D01*
X155658000Y-98582000D01*
X155661000Y-98587000D01*
X155663000Y-98592000D01*
X155665000Y-98597000D01*
X155667000Y-98602000D01*
X155669000Y-98608000D01*
X155670000Y-98613000D01*
X155672000Y-98619000D01*
X155672000Y-98624000D01*
X155673000Y-98630000D01*
X155673000Y-98930000D01*
X155672000Y-98936000D01*
X155672000Y-98941000D01*
X155670000Y-98947000D01*
X155669000Y-98952000D01*
X155667000Y-98958000D01*
X155665000Y-98963000D01*
X155663000Y-98968000D01*
X155661000Y-98973000D01*
X155658000Y-98978000D01*
X155655000Y-98983000D01*
X155652000Y-98987000D01*
X155648000Y-98992000D01*
X155644000Y-98996000D01*
X155640000Y-99000000D01*
X155636000Y-99004000D01*
X155632000Y-99007000D01*
X155627000Y-99011000D01*
X155623000Y-99014000D01*
X155618000Y-99017000D01*
X155613000Y-99019000D01*
X155608000Y-99022000D01*
X155602000Y-99024000D01*
X155597000Y-99026000D01*
X155592000Y-99027000D01*
X155586000Y-99028000D01*
X155580000Y-99029000D01*
X155575000Y-99030000D01*
X155569000Y-99030000D01*
X155564000Y-99030000D01*
X155558000Y-99030000D01*
X155338000Y-99030000D01*
X155332000Y-99030000D01*
X155327000Y-99030000D01*
X155321000Y-99030000D01*
X155316000Y-99029000D01*
X155310000Y-99028000D01*
X155304000Y-99027000D01*
X155299000Y-99026000D01*
X155294000Y-99024000D01*
X155288000Y-99022000D01*
X155283000Y-99019000D01*
X155278000Y-99017000D01*
X155273000Y-99014000D01*
X155269000Y-99011000D01*
X155264000Y-99007000D01*
X155260000Y-99004000D01*
X155256000Y-99000000D01*
X155252000Y-98996000D01*
X155248000Y-98992000D01*
X155244000Y-98987000D01*
X155241000Y-98983000D01*
X155238000Y-98978000D01*
X155235000Y-98973000D01*
X155233000Y-98968000D01*
X155231000Y-98963000D01*
X155229000Y-98958000D01*
X155227000Y-98952000D01*
X155226000Y-98947000D01*
X155224000Y-98941000D01*
X155224000Y-98936000D01*
X155223000Y-98930000D01*
X155223000Y-98630000D01*
X155224000Y-98624000D01*
X155224000Y-98619000D01*
X155226000Y-98613000D01*
X155227000Y-98608000D01*
X155229000Y-98602000D01*
X155231000Y-98597000D01*
X155233000Y-98592000D01*
X155235000Y-98587000D01*
X155238000Y-98582000D01*
X155241000Y-98577000D01*
X155244000Y-98573000D01*
X155248000Y-98568000D01*
X155252000Y-98564000D01*
X155256000Y-98560000D01*
X155260000Y-98556000D01*
X155264000Y-98553000D01*
X155269000Y-98549000D01*
X155273000Y-98546000D01*
X155278000Y-98543000D01*
X155283000Y-98541000D01*
X155288000Y-98538000D01*
X155294000Y-98536000D01*
X155299000Y-98534000D01*
X155304000Y-98533000D01*
X155310000Y-98532000D01*
X155316000Y-98531000D01*
X155321000Y-98530000D01*
X155327000Y-98530000D01*
X155332000Y-98530000D01*
X155338000Y-98530000D01*
X155558000Y-98530000D01*
X155564000Y-98530000D01*
X155569000Y-98530000D01*
X155575000Y-98530000D01*
X155580000Y-98531000D01*
G37*
%TD*%
D11*
%TO.C,J7*%
X125730000Y-125618000D03*
X125730000Y-118618000D03*
D12*
X125730000Y-115318000D03*
D13*
X122430000Y-116118000D03*
X129030000Y-116118000D03*
X129030000Y-124118000D03*
X122430000Y-124118000D03*
%TD*%
D11*
%TO.C,J6*%
X141224000Y-125618000D03*
X141224000Y-118618000D03*
D12*
X141224000Y-115318000D03*
D13*
X137924000Y-116118000D03*
X144524000Y-116118000D03*
X144524000Y-124118000D03*
X137924000Y-124118000D03*
%TD*%
D11*
%TO.C,J5*%
X156210000Y-125618000D03*
X156210000Y-118618000D03*
D12*
X156210000Y-115318000D03*
D13*
X152910000Y-116118000D03*
X159510000Y-116118000D03*
X159510000Y-124118000D03*
X152910000Y-124118000D03*
%TD*%
D11*
%TO.C,J4*%
X171450000Y-125618000D03*
X171450000Y-118618000D03*
D12*
X171450000Y-115318000D03*
D13*
X168150000Y-116118000D03*
X174750000Y-116118000D03*
X174750000Y-124118000D03*
X168150000Y-124118000D03*
%TD*%
D14*
%TO.C,C16*%
X166116000Y-99922500D03*
X166116000Y-98197500D03*
%TD*%
D15*
%TO.C,C15*%
X159258000Y-98197500D03*
X159258000Y-99922500D03*
%TD*%
D16*
%TO.C,AC1*%
X161810000Y-100210000D03*
X162310000Y-100210000D03*
X162810000Y-100210000D03*
X163310000Y-100210000D03*
D17*
X163460000Y-99560000D03*
X163460000Y-99060000D03*
X163460000Y-98560000D03*
D16*
X163310000Y-97910000D03*
X162810000Y-97910000D03*
X162310000Y-97910000D03*
X161810000Y-97910000D03*
D17*
X161660000Y-98560000D03*
X161660000Y-99060000D03*
X161660000Y-99560000D03*
%TD*%
D18*
%TO.C,D2*%
X131505000Y-83065000D03*
X131505000Y-84015000D03*
X131505000Y-84965000D03*
X129005000Y-84965000D03*
X129005000Y-84015000D03*
X129005000Y-83065000D03*
%TD*%
D19*
%TO.C,FL1*%
X130476000Y-87130000D03*
X133176000Y-87130000D03*
X133176000Y-88130000D03*
X130476000Y-88130000D03*
%TD*%
D20*
%TO.C,R5*%
X134700000Y-83102500D03*
X134700000Y-84927500D03*
%TD*%
D21*
%TO.C,J2*%
X125855000Y-75760000D03*
D22*
X125855000Y-79940000D03*
D21*
X134495000Y-75760000D03*
D22*
X134495000Y-79940000D03*
D23*
X133375000Y-80515000D03*
X132575000Y-80515000D03*
D24*
X131925000Y-80515000D03*
X130925000Y-80515000D03*
X129425000Y-80515000D03*
X128425000Y-80515000D03*
D23*
X127775000Y-80515000D03*
X126975000Y-80515000D03*
X126975000Y-80515000D03*
X127775000Y-80515000D03*
D24*
X128925000Y-80515000D03*
X129925000Y-80515000D03*
X130425000Y-80515000D03*
X131425000Y-80515000D03*
D23*
X132575000Y-80515000D03*
X133375000Y-80515000D03*
D25*
X127285000Y-79440000D03*
X133065000Y-79440000D03*
%TD*%
D20*
%TO.C,R6*%
X125810000Y-83102500D03*
X125810000Y-84927500D03*
%TD*%
%TO.C,R11*%
X169418000Y-81430500D03*
X169418000Y-79605500D03*
%TD*%
%TO.C,R10*%
X167386000Y-81430500D03*
X167386000Y-79605500D03*
%TD*%
D26*
%TO.C,D4*%
X167005000Y-76200000D03*
D27*
X168505000Y-75800000D03*
X165505000Y-75800000D03*
%TD*%
D28*
%TO.C,U4*%
X162880000Y-112602000D03*
X163830000Y-112602000D03*
X164780000Y-112602000D03*
X164780000Y-109902000D03*
X163830000Y-109902000D03*
X162880000Y-109902000D03*
%TD*%
D29*
%TO.C,R14*%
X146892474Y-103547225D03*
X146892474Y-105372225D03*
%TD*%
D30*
%TO.C,R13*%
X141454974Y-100649725D03*
X139629974Y-100649725D03*
%TD*%
D20*
%TO.C,R12*%
X151523000Y-98642500D03*
X151523000Y-100467500D03*
%TD*%
%TO.C,R8*%
X180086000Y-79351500D03*
X180086000Y-81176500D03*
%TD*%
D31*
%TO.C,U6*%
X143546001Y-98285300D03*
D32*
X143560800Y-99071999D03*
X143560800Y-99572000D03*
X143560800Y-100072000D03*
X143560800Y-100572001D03*
D31*
X143546001Y-101358700D03*
X144046001Y-101358700D03*
X144546000Y-101358700D03*
X145045999Y-101358700D03*
X145546000Y-101358700D03*
X146046000Y-101358700D03*
X146546001Y-101358700D03*
X147046000Y-101358700D03*
X147545999Y-101358700D03*
X148045999Y-101358700D03*
D32*
X148031200Y-100572001D03*
X148031200Y-100072000D03*
X148031200Y-99572000D03*
X148031200Y-99071999D03*
D31*
X148045999Y-98285300D03*
X147545999Y-98285300D03*
X147046000Y-98285300D03*
X146546001Y-98285300D03*
X146046000Y-98285300D03*
X145546000Y-98285300D03*
X145045999Y-98285300D03*
X144546000Y-98285300D03*
X144046001Y-98285300D03*
%TD*%
D20*
%TO.C,R9*%
X181961000Y-79351500D03*
X181961000Y-81176500D03*
%TD*%
D15*
%TO.C,C6*%
X176022000Y-82095000D03*
X176022000Y-83820000D03*
%TD*%
D33*
%TO.C,J1*%
X123862000Y-94250000D03*
D34*
X123862000Y-96250000D03*
%TD*%
D35*
%TO.C,U3*%
X188110000Y-90450000D03*
X186840000Y-90450000D03*
X185570000Y-90450000D03*
X184300000Y-90450000D03*
X183030000Y-90450000D03*
X181760000Y-90450000D03*
X180490000Y-90450000D03*
X179220000Y-90450000D03*
X177950000Y-90450000D03*
X176680000Y-90450000D03*
X175410000Y-90450000D03*
X174140000Y-90450000D03*
X172870000Y-90450000D03*
X171600000Y-90450000D03*
D36*
X170350000Y-92215000D03*
X170350000Y-93485000D03*
X170350000Y-94755000D03*
X170350000Y-96025000D03*
X170350000Y-97295000D03*
X170350000Y-98565000D03*
X170350000Y-99835000D03*
X170350000Y-101105000D03*
X170350000Y-102375000D03*
X170350000Y-103645000D03*
X170350000Y-104915000D03*
X170350000Y-106185000D03*
D35*
X171600000Y-107950000D03*
X172870000Y-107950000D03*
X174140000Y-107950000D03*
X175410000Y-107950000D03*
X176680000Y-107950000D03*
X177950000Y-107950000D03*
X179220000Y-107950000D03*
X180490000Y-107950000D03*
X181760000Y-107950000D03*
X183030000Y-107950000D03*
X184300000Y-107950000D03*
X185570000Y-107950000D03*
X186840000Y-107950000D03*
X188110000Y-107950000D03*
D37*
X181790000Y-96300000D03*
X180390000Y-96300000D03*
X178990000Y-96300000D03*
X178990000Y-96300000D03*
X181790000Y-97700000D03*
X181790000Y-97700000D03*
X180390000Y-97700000D03*
X178990000Y-97700000D03*
X181790000Y-99100000D03*
X180390000Y-99100000D03*
X178990000Y-99100000D03*
%TD*%
D38*
%TO.C,J3*%
X191760000Y-112395000D03*
D39*
X189220000Y-112395000D03*
X186680000Y-112395000D03*
X184140000Y-112395000D03*
%TD*%
D40*
%TO.C,Y1*%
X175667000Y-86360000D03*
X178917000Y-86360000D03*
%TD*%
D14*
%TO.C,C3*%
X151130000Y-88915000D03*
X151130000Y-87190000D03*
%TD*%
D41*
%TO.C,S3*%
X157535000Y-74730000D03*
X150035000Y-74730000D03*
X150035000Y-77030000D03*
X157535000Y-77030000D03*
D42*
X151535000Y-77930000D03*
X153035000Y-77930000D03*
X156035000Y-77930000D03*
D11*
X155285000Y-75880000D03*
X152285000Y-75880000D03*
%TD*%
D43*
%TO.C,C17*%
X155385500Y-97028000D03*
X153660500Y-97028000D03*
%TD*%
D44*
%TO.C,S2*%
X184620000Y-75220000D03*
X192570000Y-75220000D03*
X184620000Y-79720000D03*
X192570000Y-79720000D03*
%TD*%
D20*
%TO.C,R1*%
X143353000Y-90892500D03*
X143353000Y-89067500D03*
%TD*%
D30*
%TO.C,R2*%
X128524000Y-90932000D03*
X126699000Y-90932000D03*
%TD*%
D45*
%TO.C,D1*%
X138748000Y-84900000D03*
X144148000Y-84900000D03*
%TD*%
D46*
%TO.C,C1*%
X124587000Y-100330000D03*
X122862000Y-100330000D03*
%TD*%
%TO.C,C10*%
X187405000Y-85410000D03*
X185680000Y-85410000D03*
%TD*%
D28*
%TO.C,U1*%
X127132000Y-96012000D03*
X128082000Y-96012000D03*
X129032000Y-96012000D03*
X129032000Y-93312000D03*
X127132000Y-93312000D03*
%TD*%
D46*
%TO.C,C8*%
X191135000Y-87315000D03*
X189410000Y-87315000D03*
%TD*%
%TO.C,C9*%
X187405000Y-83505000D03*
X185680000Y-83505000D03*
%TD*%
D14*
%TO.C,C13*%
X147240000Y-120785000D03*
X147240000Y-119060000D03*
%TD*%
D15*
%TO.C,C4*%
X131003000Y-93545500D03*
X131003000Y-95270500D03*
%TD*%
D43*
%TO.C,C20*%
X143455999Y-96398700D03*
X145180999Y-96398700D03*
%TD*%
D47*
%TO.C,Q1*%
X140813000Y-90980000D03*
X140813000Y-89080000D03*
X138938000Y-90030000D03*
%TD*%
D14*
%TO.C,C11*%
X165862000Y-121192500D03*
X165862000Y-119467500D03*
%TD*%
D30*
%TO.C,R3*%
X122635000Y-102555000D03*
X120810000Y-102555000D03*
%TD*%
D46*
%TO.C,C18*%
X141404974Y-98744725D03*
X139679974Y-98744725D03*
%TD*%
D48*
%TO.C,R7*%
X185630000Y-87315000D03*
X187455000Y-87315000D03*
%TD*%
D27*
%TO.C,D3*%
X175665000Y-75800000D03*
X178665000Y-75800000D03*
D26*
X177165000Y-76200000D03*
%TD*%
D49*
%TO.C,U2*%
X153695000Y-83620000D03*
X153695000Y-85920000D03*
D50*
X159995000Y-85920000D03*
D49*
X153695000Y-88220000D03*
%TD*%
D14*
%TO.C,C12*%
X162052000Y-121192500D03*
X162052000Y-119467500D03*
%TD*%
D44*
%TO.C,S1*%
X191935000Y-123535000D03*
X183985000Y-123535000D03*
X191935000Y-119035000D03*
X183985000Y-119035000D03*
%TD*%
D48*
%TO.C,R4*%
X120810000Y-104460000D03*
X122635000Y-104460000D03*
%TD*%
D46*
%TO.C,C7*%
X191135000Y-85410000D03*
X189410000Y-85410000D03*
%TD*%
D15*
%TO.C,C5*%
X177927000Y-82095000D03*
X177927000Y-83820000D03*
%TD*%
%TO.C,C2*%
X151130000Y-83380000D03*
X151130000Y-85105000D03*
%TD*%
D14*
%TO.C,C14*%
X132000000Y-120785000D03*
X132000000Y-119060000D03*
%TD*%
%TO.C,C19*%
X144987474Y-105322225D03*
X144987474Y-103597225D03*
%TD*%
M02*
