%TF.GenerationSoftware,KiCad,Pcbnew,7.0.8*%
%TF.CreationDate,2023-12-05T20:52:06+01:00*%
%TF.ProjectId,HM_mainboard,484d5f6d-6169-46e6-926f-6172642e6b69,rev?*%
%TF.SameCoordinates,Original*%
%TF.FileFunction,Copper,L2,Bot*%
%TF.FilePolarity,Positive*%
%FSLAX46Y46*%
G04 Gerber Fmt 4.6, Leading zero omitted, Abs format (unit mm)*
G04 Created by KiCad (PCBNEW 7.0.8) date 2023-12-05 20:52:06*
%MOMM*%
%LPD*%
G01*
G04 APERTURE LIST*
G04 Aperture macros list*
%AMRoundRect*
0 Rectangle with rounded corners*
0 $1 Rounding radius*
0 $2 $3 $4 $5 $6 $7 $8 $9 X,Y pos of 4 corners*
0 Add a 4 corners polygon primitive as box body*
4,1,4,$2,$3,$4,$5,$6,$7,$8,$9,$2,$3,0*
0 Add four circle primitives for the rounded corners*
1,1,$1+$1,$2,$3*
1,1,$1+$1,$4,$5*
1,1,$1+$1,$6,$7*
1,1,$1+$1,$8,$9*
0 Add four rect primitives between the rounded corners*
20,1,$1+$1,$2,$3,$4,$5,0*
20,1,$1+$1,$4,$5,$6,$7,0*
20,1,$1+$1,$6,$7,$8,$9,0*
20,1,$1+$1,$8,$9,$2,$3,0*%
G04 Aperture macros list end*
%TA.AperFunction,ComponentPad*%
%ADD10O,2.700000X2.000000*%
%TD*%
%TA.AperFunction,ComponentPad*%
%ADD11O,2.000000X2.700000*%
%TD*%
%TA.AperFunction,ComponentPad*%
%ADD12O,1.000000X1.800000*%
%TD*%
%TA.AperFunction,ComponentPad*%
%ADD13O,1.000000X2.100000*%
%TD*%
%TA.AperFunction,ComponentPad*%
%ADD14RoundRect,0.250000X-0.625000X0.350000X-0.625000X-0.350000X0.625000X-0.350000X0.625000X0.350000X0*%
%TD*%
%TA.AperFunction,ComponentPad*%
%ADD15O,1.750000X1.200000*%
%TD*%
%TA.AperFunction,ComponentPad*%
%ADD16R,1.700000X1.700000*%
%TD*%
%TA.AperFunction,ComponentPad*%
%ADD17O,1.700000X1.700000*%
%TD*%
%TA.AperFunction,ViaPad*%
%ADD18C,0.800000*%
%TD*%
%TA.AperFunction,ViaPad*%
%ADD19C,0.300000*%
%TD*%
%TA.AperFunction,Conductor*%
%ADD20C,0.250000*%
%TD*%
%TA.AperFunction,Conductor*%
%ADD21C,0.200000*%
%TD*%
%TA.AperFunction,Conductor*%
%ADD22C,1.000000*%
%TD*%
%TA.AperFunction,Conductor*%
%ADD23C,0.750000*%
%TD*%
G04 APERTURE END LIST*
D10*
%TO.P,J7,1,1*%
%TO.N,GND*%
X125730000Y-115318000D03*
D11*
%TO.P,J7,2,2*%
X122430000Y-116118000D03*
%TO.P,J7,3,3*%
X129030000Y-116118000D03*
%TO.P,J7,4,4*%
%TO.N,/BTN_4*%
X129030000Y-124118000D03*
%TO.P,J7,5,5*%
X122430000Y-124118000D03*
%TD*%
D10*
%TO.P,J6,1,1*%
%TO.N,GND*%
X141224000Y-115318000D03*
D11*
%TO.P,J6,2,2*%
X137924000Y-116118000D03*
%TO.P,J6,3,3*%
X144524000Y-116118000D03*
%TO.P,J6,4,4*%
%TO.N,/BTN_3*%
X144524000Y-124118000D03*
%TO.P,J6,5,5*%
X137924000Y-124118000D03*
%TD*%
D10*
%TO.P,J5,1,1*%
%TO.N,GND*%
X156210000Y-115318000D03*
D11*
%TO.P,J5,2,2*%
X152910000Y-116118000D03*
%TO.P,J5,3,3*%
X159510000Y-116118000D03*
%TO.P,J5,4,4*%
%TO.N,/BTN_2*%
X159510000Y-124118000D03*
%TO.P,J5,5,5*%
X152910000Y-124118000D03*
%TD*%
D10*
%TO.P,J4,1,1*%
%TO.N,GND*%
X171450000Y-115318000D03*
D11*
%TO.P,J4,2,2*%
X168150000Y-116118000D03*
%TO.P,J4,3,3*%
X174750000Y-116118000D03*
%TO.P,J4,4,4*%
%TO.N,/BTN_1*%
X174750000Y-124118000D03*
%TO.P,J4,5,5*%
X168150000Y-124118000D03*
%TD*%
D12*
%TO.P,J2,S1,SHIELD*%
%TO.N,GND*%
X125855000Y-75760000D03*
D13*
X125855000Y-79940000D03*
D12*
X134495000Y-75760000D03*
D13*
X134495000Y-79940000D03*
%TD*%
D14*
%TO.P,J1,1,Pin_1*%
%TO.N,GND*%
X123862000Y-94250000D03*
D15*
%TO.P,J1,2,Pin_2*%
%TO.N,V_BATT*%
X123862000Y-96250000D03*
%TD*%
D16*
%TO.P,J3,1,Pin_1*%
%TO.N,3.3V*%
X191760000Y-112395000D03*
D17*
%TO.P,J3,2,Pin_2*%
%TO.N,/Microcontroller - ESP32-S3-WROOM/UART_TXD*%
X189220000Y-112395000D03*
%TO.P,J3,3,Pin_3*%
%TO.N,/Microcontroller - ESP32-S3-WROOM/UART_RXD*%
X186680000Y-112395000D03*
%TO.P,J3,4,Pin_4*%
%TO.N,GND*%
X184140000Y-112395000D03*
%TD*%
D18*
%TO.N,GND*%
X156972000Y-100584000D03*
X156464000Y-98791382D03*
X164084000Y-125476000D03*
X163830000Y-121666000D03*
X163830000Y-117856000D03*
X163830000Y-114554000D03*
X179324000Y-83312000D03*
X193294000Y-115824000D03*
X187960000Y-115824000D03*
X178308000Y-123444000D03*
X178054000Y-119380000D03*
X132842000Y-114554000D03*
X132588000Y-109474000D03*
X126492000Y-109982000D03*
X189992000Y-89154000D03*
X170434000Y-86868000D03*
X167640000Y-86868000D03*
X165100000Y-87630000D03*
X162560000Y-87630000D03*
X166878000Y-83058000D03*
X164084000Y-83312000D03*
X162560000Y-84582000D03*
X164338000Y-78994000D03*
X161798000Y-79248000D03*
X159766000Y-80772000D03*
X158242000Y-82804000D03*
X156210000Y-84836000D03*
X148336000Y-84328000D03*
X153670000Y-81026000D03*
X147066000Y-81280000D03*
X131572000Y-77216000D03*
X129032000Y-77216000D03*
X121920000Y-79248000D03*
X121666000Y-85598000D03*
X146304000Y-77216000D03*
X141224000Y-78232000D03*
X137922000Y-77978000D03*
X125984000Y-88138000D03*
X122428000Y-90932000D03*
X119380000Y-90932000D03*
X121666000Y-106426000D03*
X118110000Y-100330000D03*
X118110000Y-103378000D03*
X137160000Y-96774000D03*
X135890000Y-98552000D03*
X132080000Y-101600000D03*
X129286000Y-103886000D03*
X124968000Y-104648000D03*
D19*
%TO.N,/BATT_CHARGING_STATUS*%
X133604000Y-94488000D03*
X131318000Y-96774000D03*
%TO.N,/V_BATT_MEASURE*%
X135128000Y-95758000D03*
X132461000Y-98425000D03*
D18*
%TO.N,GND*%
X135890000Y-100584000D03*
X135890000Y-104394000D03*
X138938000Y-107696000D03*
X143764000Y-107696000D03*
X148082000Y-107696000D03*
X152400000Y-107696000D03*
X167640000Y-90932000D03*
X164846000Y-91186000D03*
X162560000Y-91186000D03*
X167894000Y-97282000D03*
D19*
%TO.N,/BNO55_INT*%
X160528000Y-103632000D03*
X152654000Y-103632000D03*
%TO.N,/MC6470_INT*%
X160528000Y-102870000D03*
X154686000Y-102870000D03*
D18*
%TO.N,GND*%
X151130000Y-113538000D03*
X154178000Y-110490000D03*
X157734000Y-108966000D03*
X161036000Y-108966000D03*
X168148000Y-108458000D03*
X166370000Y-108458000D03*
X182880000Y-116586000D03*
X166370000Y-117094000D03*
X167386000Y-113284000D03*
X173228000Y-113284000D03*
X125476000Y-122174000D03*
X141224000Y-122428000D03*
X156210000Y-122174000D03*
X171196000Y-122174000D03*
X188214000Y-121920000D03*
X179578000Y-113284000D03*
X182372000Y-110490000D03*
X187452000Y-109982000D03*
X192532000Y-109728000D03*
X188722000Y-105664000D03*
X186182000Y-103632000D03*
X181610000Y-103632000D03*
X177292000Y-103632000D03*
X172466000Y-103632000D03*
X172466000Y-99822000D03*
X172466000Y-95758000D03*
X186436000Y-92710000D03*
X179324000Y-92710000D03*
X174244000Y-92710000D03*
X188468000Y-76962000D03*
X191516000Y-83312000D03*
X188976000Y-83820000D03*
X189230000Y-81534000D03*
X186690000Y-81534000D03*
X183388000Y-86868000D03*
X183388000Y-85598000D03*
X183388000Y-84074000D03*
X183388000Y-82296000D03*
X181610000Y-75184000D03*
X172720000Y-80518000D03*
X174244000Y-81788000D03*
X174244000Y-79248000D03*
X176530000Y-79756000D03*
X171196000Y-79248000D03*
X172212000Y-75184000D03*
X171196000Y-81788000D03*
X172212000Y-83566000D03*
X173736000Y-85090000D03*
X148082000Y-87884000D03*
X146558000Y-89154000D03*
X144780000Y-90678000D03*
X139954000Y-94271500D03*
X138430000Y-95758000D03*
D19*
%TO.N,/V_BATT_MEASURE*%
X182626000Y-94488000D03*
X167640000Y-94742000D03*
X153162000Y-94742000D03*
X148336000Y-94742000D03*
%TO.N,/BATT_CHARGING_STATUS*%
X184150000Y-92710000D03*
X167640000Y-93726000D03*
X153162000Y-93726000D03*
X148336000Y-93726000D03*
%TO.N,/Microcontroller - ESP32-S3-WROOM/USB_C_D+*%
X153162000Y-92181000D03*
%TO.N,/Microcontroller - ESP32-S3-WROOM/USB_C_D-*%
X153162000Y-92681001D03*
%TO.N,/Microcontroller - ESP32-S3-WROOM/USB_C_D+*%
X147828000Y-92181000D03*
%TO.N,/Microcontroller - ESP32-S3-WROOM/USB_C_D-*%
X147828000Y-92731000D03*
X171525000Y-92731000D03*
%TO.N,/Microcontroller - ESP32-S3-WROOM/USB_C_D+*%
X171525000Y-92181000D03*
%TO.N,/Microcontroller - ESP32-S3-WROOM/USB_C_D-*%
X167386000Y-92731000D03*
%TO.N,/Microcontroller - ESP32-S3-WROOM/USB_C_D+*%
X167386000Y-92181000D03*
D18*
%TO.N,3.3V*%
X156464000Y-89408000D03*
%TO.N,V_USB*%
X132334000Y-93472000D03*
%TO.N,V_BATT*%
X119634000Y-102362000D03*
%TO.N,GND*%
X122682000Y-99060000D03*
%TO.N,V_USB*%
X129794000Y-92202000D03*
%TO.N,V_BATT*%
X130048000Y-96774000D03*
X139700000Y-91440000D03*
%TO.N,V_USB*%
X143510000Y-87884000D03*
X140970000Y-88138000D03*
X141732000Y-84836000D03*
X132625500Y-84205299D03*
X127477496Y-81809906D03*
X133215956Y-81922044D03*
X144148000Y-83312000D03*
%TO.N,3.3V*%
X163830000Y-108674500D03*
X190246000Y-109982000D03*
X169418000Y-77470000D03*
X155956000Y-88138000D03*
X179832000Y-77216000D03*
X186840000Y-88646000D03*
X188468000Y-86360000D03*
D19*
%TO.N,/MC6470_INT*%
X152908000Y-101092000D03*
X152908000Y-99822000D03*
%TO.N,/I2C_SDA*%
X151968200Y-96135000D03*
X150444200Y-96135000D03*
X158242000Y-95758000D03*
X157259500Y-95758000D03*
X161009469Y-95758000D03*
X161036000Y-99568000D03*
%TO.N,/I2C_SCL*%
X160528000Y-95250000D03*
X160528000Y-99060000D03*
D18*
%TO.N,3.3V*%
X164084000Y-96597391D03*
X149098000Y-89662000D03*
X151130000Y-90170000D03*
X153416000Y-89916000D03*
X155194000Y-89916000D03*
X157734000Y-89662000D03*
X164592000Y-100076000D03*
X159258000Y-97028000D03*
X151523000Y-101854000D03*
X152400000Y-97028000D03*
D19*
%TO.N,/Microcontroller - ESP32-S3-WROOM/BOOT*%
X178054000Y-114554000D03*
X171704000Y-109728000D03*
D18*
%TO.N,3.3V*%
X148666200Y-105279000D03*
X138760200Y-101977000D03*
X140538200Y-97151000D03*
X142240000Y-95758000D03*
%TD*%
D20*
%TO.N,GND*%
X156464000Y-100076000D02*
X156972000Y-100584000D01*
X156464000Y-98791382D02*
X156464000Y-100076000D01*
%TO.N,/V_BATT_MEASURE*%
X132461000Y-98425000D02*
X135128000Y-95758000D01*
%TO.N,/BATT_CHARGING_STATUS*%
X131318000Y-96774000D02*
X133604000Y-94488000D01*
%TO.N,/BNO55_INT*%
X160528000Y-103632000D02*
X152654000Y-103632000D01*
%TO.N,/MC6470_INT*%
X154686000Y-102870000D02*
X160528000Y-102870000D01*
%TO.N,/V_BATT_MEASURE*%
X148336000Y-94742000D02*
X153162000Y-94742000D01*
%TO.N,/BATT_CHARGING_STATUS*%
X148336000Y-93726000D02*
X153162000Y-93726000D01*
D21*
%TO.N,/Microcontroller - ESP32-S3-WROOM/USB_C_D-*%
X147877999Y-92681001D02*
X147828000Y-92731000D01*
X153162000Y-92681001D02*
X147877999Y-92681001D01*
%TO.N,/Microcontroller - ESP32-S3-WROOM/USB_C_D+*%
X153112001Y-92230999D02*
X147877999Y-92230999D01*
X147877999Y-92230999D02*
X147828000Y-92181000D01*
X153162000Y-92181000D02*
X153112001Y-92230999D01*
D20*
%TO.N,/V_BATT_MEASURE*%
X182372000Y-94742000D02*
X182626000Y-94488000D01*
X167640000Y-94742000D02*
X182372000Y-94742000D01*
%TO.N,/BATT_CHARGING_STATUS*%
X183134000Y-93726000D02*
X184150000Y-92710000D01*
X167640000Y-93726000D02*
X183134000Y-93726000D01*
D21*
%TO.N,/Microcontroller - ESP32-S3-WROOM/USB_C_D-*%
X171475001Y-92681001D02*
X171525000Y-92731000D01*
X167435999Y-92681001D02*
X171475001Y-92681001D01*
X167386000Y-92731000D02*
X167435999Y-92681001D01*
%TO.N,/Microcontroller - ESP32-S3-WROOM/USB_C_D+*%
X167386000Y-92181000D02*
X167435999Y-92230999D01*
X167435999Y-92230999D02*
X171475001Y-92230999D01*
X171475001Y-92230999D02*
X171525000Y-92181000D01*
D22*
%TO.N,3.3V*%
X162814000Y-81280000D02*
X165608000Y-81280000D01*
X155956000Y-88138000D02*
X162814000Y-81280000D01*
X165608000Y-81280000D02*
X169418000Y-77470000D01*
D23*
X163830000Y-108674500D02*
X163830000Y-105664000D01*
D22*
X185674000Y-105410000D02*
X190246000Y-109982000D01*
X166116000Y-105410000D02*
X185674000Y-105410000D01*
X179578000Y-77470000D02*
X179832000Y-77216000D01*
X169418000Y-77470000D02*
X179578000Y-77470000D01*
X157734000Y-89662000D02*
X160274000Y-89662000D01*
X160274000Y-89662000D02*
X165862000Y-89662000D01*
X188468000Y-87630000D02*
X188468000Y-86360000D01*
X187452000Y-88646000D02*
X188468000Y-87630000D01*
X166878000Y-88646000D02*
X187452000Y-88646000D01*
X165862000Y-89662000D02*
X166878000Y-88646000D01*
D20*
%TO.N,/MC6470_INT*%
X152908000Y-99822000D02*
X152908000Y-101092000D01*
%TO.N,/I2C_SDA*%
X150444200Y-96135000D02*
X151968200Y-96135000D01*
X157259500Y-95758000D02*
X158242000Y-95758000D01*
X161036000Y-95784531D02*
X161036000Y-99568000D01*
X161009469Y-95758000D02*
X161036000Y-95784531D01*
%TO.N,/I2C_SCL*%
X160528000Y-95250000D02*
X160528000Y-99060000D01*
%TO.N,/Microcontroller - ESP32-S3-WROOM/BOOT*%
X176530000Y-113030000D02*
X178054000Y-114554000D01*
X175006000Y-113030000D02*
X176530000Y-113030000D01*
X171704000Y-109728000D02*
X175006000Y-113030000D01*
%TD*%
%TA.AperFunction,Conductor*%
%TO.N,GND*%
G36*
X156549203Y-99598750D02*
G01*
X156586977Y-99657528D01*
X156590331Y-99672188D01*
X156599030Y-99724677D01*
X156649951Y-99859245D01*
X156683727Y-99920408D01*
X156768747Y-100032862D01*
X156770499Y-100035179D01*
X156886078Y-100120848D01*
X156886081Y-100120850D01*
X156886087Y-100120854D01*
X156947568Y-100154047D01*
X156947570Y-100154048D01*
X157082616Y-100203687D01*
X157082623Y-100203688D01*
X157086868Y-100204913D01*
X157086808Y-100205120D01*
X157106635Y-100211561D01*
X157158678Y-100234733D01*
X157181125Y-100247693D01*
X157227219Y-100281181D01*
X157246484Y-100298527D01*
X157284598Y-100340856D01*
X157299836Y-100361829D01*
X157328320Y-100411165D01*
X157338864Y-100434847D01*
X157356468Y-100489027D01*
X157361858Y-100514385D01*
X157367812Y-100571039D01*
X157367812Y-100596959D01*
X157361858Y-100653613D01*
X157356468Y-100678971D01*
X157338864Y-100733151D01*
X157328320Y-100756833D01*
X157299836Y-100806169D01*
X157284599Y-100827141D01*
X157246488Y-100869468D01*
X157227221Y-100886816D01*
X157181124Y-100920306D01*
X157158677Y-100933265D01*
X157106639Y-100956434D01*
X157081986Y-100964445D01*
X157044790Y-100972352D01*
X157026263Y-100976290D01*
X157000482Y-100979000D01*
X156943516Y-100979000D01*
X156917736Y-100976290D01*
X156895984Y-100971666D01*
X156862010Y-100964445D01*
X156837356Y-100956434D01*
X156785325Y-100933268D01*
X156762878Y-100920308D01*
X156716777Y-100886815D01*
X156697514Y-100869472D01*
X156659397Y-100827139D01*
X156644162Y-100806169D01*
X156615678Y-100756833D01*
X156605136Y-100733155D01*
X156587530Y-100678971D01*
X156582142Y-100653622D01*
X156574825Y-100584000D01*
X156570337Y-100541295D01*
X156570337Y-100541296D01*
X156569675Y-100537083D01*
X156566341Y-100515839D01*
X156558527Y-100478554D01*
X156545421Y-100428795D01*
X156482678Y-100299316D01*
X156443571Y-100241416D01*
X156443570Y-100241415D01*
X156443568Y-100241413D01*
X156443567Y-100241411D01*
X156443247Y-100241023D01*
X156442565Y-100240307D01*
X156407097Y-100201216D01*
X156402853Y-100195995D01*
X156395745Y-100186212D01*
X156383448Y-100170613D01*
X156379967Y-100166537D01*
X156369045Y-100151629D01*
X156367878Y-100149758D01*
X156364353Y-100144391D01*
X156344006Y-100077550D01*
X156344000Y-100076322D01*
X156344000Y-100077861D01*
X156342668Y-100035533D01*
X156342730Y-100030199D01*
X156344000Y-100007161D01*
X156344000Y-99692463D01*
X156363685Y-99625424D01*
X156416489Y-99579669D01*
X156485647Y-99569725D01*
X156549203Y-99598750D01*
G37*
%TD.AperFunction*%
%TA.AperFunction,Conductor*%
G36*
X156518264Y-98399091D02*
G01*
X156573988Y-98410935D01*
X156598642Y-98418946D01*
X156607467Y-98422875D01*
X156650677Y-98442113D01*
X156673117Y-98455068D01*
X156719227Y-98488568D01*
X156738483Y-98505907D01*
X156776599Y-98548239D01*
X156791836Y-98569211D01*
X156820320Y-98618547D01*
X156830864Y-98642229D01*
X156848468Y-98696409D01*
X156853858Y-98721764D01*
X156859813Y-98778419D01*
X156859813Y-98804341D01*
X156853858Y-98861001D01*
X156848468Y-98886358D01*
X156842804Y-98903791D01*
X156830865Y-98940531D01*
X156820322Y-98964210D01*
X156791837Y-99013548D01*
X156776601Y-99034520D01*
X156738846Y-99076452D01*
X156725780Y-99092201D01*
X156707405Y-99116267D01*
X156683930Y-99149737D01*
X156624164Y-99280603D01*
X156604478Y-99347644D01*
X156604476Y-99347649D01*
X156588714Y-99457280D01*
X156559689Y-99520836D01*
X156500911Y-99558610D01*
X156431041Y-99558610D01*
X156372263Y-99520836D01*
X156343238Y-99457280D01*
X156342383Y-99449667D01*
X156340727Y-99429238D01*
X156335774Y-99388631D01*
X156304472Y-99289083D01*
X156292618Y-99251382D01*
X156292613Y-99251370D01*
X156262386Y-99188384D01*
X156262379Y-99188373D01*
X156182311Y-99068854D01*
X156182306Y-99068847D01*
X156151401Y-99034525D01*
X156136162Y-99013551D01*
X156136160Y-99013548D01*
X156107676Y-98964210D01*
X156097136Y-98940537D01*
X156079530Y-98886354D01*
X156074141Y-98861003D01*
X156068186Y-98804338D01*
X156068186Y-98778419D01*
X156069613Y-98764840D01*
X156074141Y-98721756D01*
X156079528Y-98696414D01*
X156097135Y-98642223D01*
X156107672Y-98618558D01*
X156136165Y-98569206D01*
X156151392Y-98548248D01*
X156189519Y-98505903D01*
X156208771Y-98488567D01*
X156254877Y-98455069D01*
X156277312Y-98442118D01*
X156329357Y-98418945D01*
X156353999Y-98410938D01*
X156409743Y-98399090D01*
X156435514Y-98396382D01*
X156492484Y-98396382D01*
X156518264Y-98399091D01*
G37*
%TD.AperFunction*%
%TA.AperFunction,Conductor*%
G36*
X122736263Y-98667709D02*
G01*
X122765298Y-98673880D01*
X122791987Y-98679552D01*
X122816638Y-98687562D01*
X122868684Y-98710734D01*
X122891127Y-98723692D01*
X122937215Y-98757177D01*
X122956479Y-98774522D01*
X122994600Y-98816860D01*
X123009837Y-98837831D01*
X123017481Y-98851070D01*
X123038322Y-98887168D01*
X123048864Y-98910847D01*
X123066468Y-98965027D01*
X123071858Y-98990382D01*
X123077813Y-99047037D01*
X123077813Y-99072960D01*
X123071858Y-99129615D01*
X123066468Y-99154971D01*
X123048864Y-99209151D01*
X123038320Y-99232833D01*
X123009836Y-99282169D01*
X122994599Y-99303141D01*
X122956488Y-99345468D01*
X122937221Y-99362816D01*
X122891124Y-99396306D01*
X122868677Y-99409265D01*
X122816639Y-99432434D01*
X122791986Y-99440445D01*
X122754790Y-99448352D01*
X122736263Y-99452290D01*
X122710482Y-99455000D01*
X122653516Y-99455000D01*
X122627736Y-99452290D01*
X122605984Y-99447666D01*
X122572010Y-99440445D01*
X122547356Y-99432434D01*
X122495325Y-99409268D01*
X122472878Y-99396308D01*
X122426777Y-99362815D01*
X122407514Y-99345472D01*
X122369397Y-99303139D01*
X122354162Y-99282169D01*
X122353258Y-99280603D01*
X122325676Y-99232829D01*
X122315136Y-99209155D01*
X122297530Y-99154971D01*
X122292141Y-99129617D01*
X122288208Y-99092201D01*
X122286186Y-99072956D01*
X122286186Y-99047037D01*
X122287501Y-99034525D01*
X122292141Y-98990374D01*
X122297528Y-98965032D01*
X122315135Y-98910841D01*
X122325672Y-98887176D01*
X122354165Y-98837824D01*
X122369392Y-98816866D01*
X122407519Y-98774521D01*
X122426771Y-98757185D01*
X122472877Y-98723687D01*
X122495312Y-98710736D01*
X122547357Y-98687563D01*
X122571999Y-98679556D01*
X122627743Y-98667708D01*
X122653514Y-98665000D01*
X122710484Y-98665000D01*
X122736263Y-98667709D01*
G37*
%TD.AperFunction*%
%TA.AperFunction,Conductor*%
G36*
X196539039Y-73171685D02*
G01*
X196584794Y-73224489D01*
X196596000Y-73276000D01*
X196596000Y-127638000D01*
X196576315Y-127705039D01*
X196523511Y-127750794D01*
X196472000Y-127762000D01*
X117218000Y-127762000D01*
X117150961Y-127742315D01*
X117105206Y-127689511D01*
X117094000Y-127638000D01*
X117094000Y-124530065D01*
X120929500Y-124530065D01*
X120944890Y-124715813D01*
X120944892Y-124715824D01*
X121005936Y-124956881D01*
X121105826Y-125184606D01*
X121241833Y-125392782D01*
X121241836Y-125392785D01*
X121410256Y-125575738D01*
X121606491Y-125728474D01*
X121825190Y-125846828D01*
X122060386Y-125927571D01*
X122305665Y-125968500D01*
X122554335Y-125968500D01*
X122799614Y-125927571D01*
X123034810Y-125846828D01*
X123253509Y-125728474D01*
X123449744Y-125575738D01*
X123453475Y-125571685D01*
X124875740Y-125571685D01*
X124885755Y-125756406D01*
X124885755Y-125756411D01*
X124935244Y-125934656D01*
X124935247Y-125934662D01*
X125021898Y-126098102D01*
X125084540Y-126171850D01*
X125141663Y-126239100D01*
X125288936Y-126351054D01*
X125456833Y-126428732D01*
X125456834Y-126428732D01*
X125456836Y-126428733D01*
X125511648Y-126440797D01*
X125637503Y-126468500D01*
X125637506Y-126468500D01*
X125776107Y-126468500D01*
X125776113Y-126468500D01*
X125913910Y-126453514D01*
X126089221Y-126394444D01*
X126247736Y-126299070D01*
X126382041Y-126171849D01*
X126485858Y-126018730D01*
X126554331Y-125846875D01*
X126584260Y-125664317D01*
X126574245Y-125479593D01*
X126550143Y-125392785D01*
X126524755Y-125301343D01*
X126524752Y-125301337D01*
X126438101Y-125137897D01*
X126318337Y-124996900D01*
X126239449Y-124936931D01*
X126171064Y-124884946D01*
X126003167Y-124807268D01*
X126003163Y-124807266D01*
X125822497Y-124767500D01*
X125683887Y-124767500D01*
X125683883Y-124767500D01*
X125546088Y-124782486D01*
X125370776Y-124841557D01*
X125370774Y-124841558D01*
X125212262Y-124936931D01*
X125212261Y-124936932D01*
X125077959Y-125064149D01*
X124974138Y-125217276D01*
X124905669Y-125389122D01*
X124875740Y-125571685D01*
X123453475Y-125571685D01*
X123618164Y-125392785D01*
X123754173Y-125184607D01*
X123854063Y-124956881D01*
X123915108Y-124715821D01*
X123930500Y-124530067D01*
X123930500Y-124530065D01*
X127529500Y-124530065D01*
X127544890Y-124715813D01*
X127544892Y-124715824D01*
X127605936Y-124956881D01*
X127705826Y-125184606D01*
X127841833Y-125392782D01*
X127841836Y-125392785D01*
X128010256Y-125575738D01*
X128206491Y-125728474D01*
X128425190Y-125846828D01*
X128660386Y-125927571D01*
X128905665Y-125968500D01*
X129154335Y-125968500D01*
X129399614Y-125927571D01*
X129634810Y-125846828D01*
X129853509Y-125728474D01*
X130049744Y-125575738D01*
X130218164Y-125392785D01*
X130354173Y-125184607D01*
X130454063Y-124956881D01*
X130515108Y-124715821D01*
X130530500Y-124530067D01*
X130530500Y-124530065D01*
X136423500Y-124530065D01*
X136438890Y-124715813D01*
X136438892Y-124715824D01*
X136499936Y-124956881D01*
X136599826Y-125184606D01*
X136735833Y-125392782D01*
X136735836Y-125392785D01*
X136904256Y-125575738D01*
X137100491Y-125728474D01*
X137319190Y-125846828D01*
X137554386Y-125927571D01*
X137799665Y-125968500D01*
X138048335Y-125968500D01*
X138293614Y-125927571D01*
X138528810Y-125846828D01*
X138747509Y-125728474D01*
X138943744Y-125575738D01*
X138947475Y-125571685D01*
X140369740Y-125571685D01*
X140379755Y-125756406D01*
X140379755Y-125756411D01*
X140429244Y-125934656D01*
X140429247Y-125934662D01*
X140515898Y-126098102D01*
X140578540Y-126171850D01*
X140635663Y-126239100D01*
X140782936Y-126351054D01*
X140950833Y-126428732D01*
X140950834Y-126428732D01*
X140950836Y-126428733D01*
X141005648Y-126440797D01*
X141131503Y-126468500D01*
X141131506Y-126468500D01*
X141270107Y-126468500D01*
X141270113Y-126468500D01*
X141407910Y-126453514D01*
X141583221Y-126394444D01*
X141741736Y-126299070D01*
X141876041Y-126171849D01*
X141979858Y-126018730D01*
X142048331Y-125846875D01*
X142078260Y-125664317D01*
X142068245Y-125479593D01*
X142044143Y-125392785D01*
X142018755Y-125301343D01*
X142018752Y-125301337D01*
X141932101Y-125137897D01*
X141812337Y-124996900D01*
X141733449Y-124936931D01*
X141665064Y-124884946D01*
X141497167Y-124807268D01*
X141497163Y-124807266D01*
X141316497Y-124767500D01*
X141177887Y-124767500D01*
X141177883Y-124767500D01*
X141040088Y-124782486D01*
X140864776Y-124841557D01*
X140864774Y-124841558D01*
X140706262Y-124936931D01*
X140706261Y-124936932D01*
X140571959Y-125064149D01*
X140468138Y-125217276D01*
X140399669Y-125389122D01*
X140369740Y-125571685D01*
X138947475Y-125571685D01*
X139112164Y-125392785D01*
X139248173Y-125184607D01*
X139348063Y-124956881D01*
X139409108Y-124715821D01*
X139424500Y-124530067D01*
X139424500Y-124530065D01*
X143023500Y-124530065D01*
X143038890Y-124715813D01*
X143038892Y-124715824D01*
X143099936Y-124956881D01*
X143199826Y-125184606D01*
X143335833Y-125392782D01*
X143335836Y-125392785D01*
X143504256Y-125575738D01*
X143700491Y-125728474D01*
X143919190Y-125846828D01*
X144154386Y-125927571D01*
X144399665Y-125968500D01*
X144648335Y-125968500D01*
X144893614Y-125927571D01*
X145128810Y-125846828D01*
X145347509Y-125728474D01*
X145543744Y-125575738D01*
X145712164Y-125392785D01*
X145848173Y-125184607D01*
X145948063Y-124956881D01*
X146009108Y-124715821D01*
X146024500Y-124530067D01*
X146024500Y-124530065D01*
X151409500Y-124530065D01*
X151424890Y-124715813D01*
X151424892Y-124715824D01*
X151485936Y-124956881D01*
X151585826Y-125184606D01*
X151721833Y-125392782D01*
X151721836Y-125392785D01*
X151890256Y-125575738D01*
X152086491Y-125728474D01*
X152305190Y-125846828D01*
X152540386Y-125927571D01*
X152785665Y-125968500D01*
X153034335Y-125968500D01*
X153279614Y-125927571D01*
X153514810Y-125846828D01*
X153733509Y-125728474D01*
X153929744Y-125575738D01*
X153933475Y-125571685D01*
X155355740Y-125571685D01*
X155365755Y-125756406D01*
X155365755Y-125756411D01*
X155415244Y-125934656D01*
X155415247Y-125934662D01*
X155501898Y-126098102D01*
X155564540Y-126171850D01*
X155621663Y-126239100D01*
X155768936Y-126351054D01*
X155936833Y-126428732D01*
X155936834Y-126428732D01*
X155936836Y-126428733D01*
X155991648Y-126440797D01*
X156117503Y-126468500D01*
X156117506Y-126468500D01*
X156256107Y-126468500D01*
X156256113Y-126468500D01*
X156393910Y-126453514D01*
X156569221Y-126394444D01*
X156727736Y-126299070D01*
X156862041Y-126171849D01*
X156965858Y-126018730D01*
X157034331Y-125846875D01*
X157064260Y-125664317D01*
X157054245Y-125479593D01*
X157030143Y-125392785D01*
X157004755Y-125301343D01*
X157004752Y-125301337D01*
X156918101Y-125137897D01*
X156798337Y-124996900D01*
X156719449Y-124936931D01*
X156651064Y-124884946D01*
X156483167Y-124807268D01*
X156483163Y-124807266D01*
X156302497Y-124767500D01*
X156163887Y-124767500D01*
X156163883Y-124767500D01*
X156026088Y-124782486D01*
X155850776Y-124841557D01*
X155850774Y-124841558D01*
X155692262Y-124936931D01*
X155692261Y-124936932D01*
X155557959Y-125064149D01*
X155454138Y-125217276D01*
X155385669Y-125389122D01*
X155355740Y-125571685D01*
X153933475Y-125571685D01*
X154098164Y-125392785D01*
X154234173Y-125184607D01*
X154334063Y-124956881D01*
X154395108Y-124715821D01*
X154410500Y-124530067D01*
X154410500Y-124530065D01*
X158009500Y-124530065D01*
X158024890Y-124715813D01*
X158024892Y-124715824D01*
X158085936Y-124956881D01*
X158185826Y-125184606D01*
X158321833Y-125392782D01*
X158321836Y-125392785D01*
X158490256Y-125575738D01*
X158686491Y-125728474D01*
X158905190Y-125846828D01*
X159140386Y-125927571D01*
X159385665Y-125968500D01*
X159634335Y-125968500D01*
X159879614Y-125927571D01*
X160114810Y-125846828D01*
X160333509Y-125728474D01*
X160529744Y-125575738D01*
X160698164Y-125392785D01*
X160834173Y-125184607D01*
X160934063Y-124956881D01*
X160995108Y-124715821D01*
X161010500Y-124530067D01*
X161010500Y-124530065D01*
X166649500Y-124530065D01*
X166664890Y-124715813D01*
X166664892Y-124715824D01*
X166725936Y-124956881D01*
X166825826Y-125184606D01*
X166961833Y-125392782D01*
X166961836Y-125392785D01*
X167130256Y-125575738D01*
X167326491Y-125728474D01*
X167545190Y-125846828D01*
X167780386Y-125927571D01*
X168025665Y-125968500D01*
X168274335Y-125968500D01*
X168519614Y-125927571D01*
X168754810Y-125846828D01*
X168973509Y-125728474D01*
X169169744Y-125575738D01*
X169173475Y-125571685D01*
X170595740Y-125571685D01*
X170605755Y-125756406D01*
X170605755Y-125756411D01*
X170655244Y-125934656D01*
X170655247Y-125934662D01*
X170741898Y-126098102D01*
X170804540Y-126171850D01*
X170861663Y-126239100D01*
X171008936Y-126351054D01*
X171176833Y-126428732D01*
X171176834Y-126428732D01*
X171176836Y-126428733D01*
X171231648Y-126440797D01*
X171357503Y-126468500D01*
X171357506Y-126468500D01*
X171496107Y-126468500D01*
X171496113Y-126468500D01*
X171633910Y-126453514D01*
X171809221Y-126394444D01*
X171967736Y-126299070D01*
X172102041Y-126171849D01*
X172205858Y-126018730D01*
X172274331Y-125846875D01*
X172304260Y-125664317D01*
X172294245Y-125479593D01*
X172270143Y-125392785D01*
X172244755Y-125301343D01*
X172244752Y-125301337D01*
X172158101Y-125137897D01*
X172038337Y-124996900D01*
X171959449Y-124936931D01*
X171891064Y-124884946D01*
X171723167Y-124807268D01*
X171723163Y-124807266D01*
X171542497Y-124767500D01*
X171403887Y-124767500D01*
X171403883Y-124767500D01*
X171266088Y-124782486D01*
X171090776Y-124841557D01*
X171090774Y-124841558D01*
X170932262Y-124936931D01*
X170932261Y-124936932D01*
X170797959Y-125064149D01*
X170694138Y-125217276D01*
X170625669Y-125389122D01*
X170595740Y-125571685D01*
X169173475Y-125571685D01*
X169338164Y-125392785D01*
X169474173Y-125184607D01*
X169574063Y-124956881D01*
X169635108Y-124715821D01*
X169650500Y-124530067D01*
X169650500Y-124530065D01*
X173249500Y-124530065D01*
X173264890Y-124715813D01*
X173264892Y-124715824D01*
X173325936Y-124956881D01*
X173425826Y-125184606D01*
X173561833Y-125392782D01*
X173561836Y-125392785D01*
X173730256Y-125575738D01*
X173926491Y-125728474D01*
X174145190Y-125846828D01*
X174380386Y-125927571D01*
X174625665Y-125968500D01*
X174874335Y-125968500D01*
X175119614Y-125927571D01*
X175354810Y-125846828D01*
X175573509Y-125728474D01*
X175769744Y-125575738D01*
X175938164Y-125392785D01*
X176074173Y-125184607D01*
X176174063Y-124956881D01*
X176235108Y-124715821D01*
X176250500Y-124530067D01*
X176250500Y-123705933D01*
X176235108Y-123520179D01*
X176174063Y-123279119D01*
X176074173Y-123051393D01*
X175938166Y-122843217D01*
X175916557Y-122819744D01*
X175769744Y-122660262D01*
X175573509Y-122507526D01*
X175573507Y-122507525D01*
X175573506Y-122507524D01*
X175354811Y-122389172D01*
X175354802Y-122389169D01*
X175119616Y-122308429D01*
X174874335Y-122267500D01*
X174625665Y-122267500D01*
X174380383Y-122308429D01*
X174145197Y-122389169D01*
X174145188Y-122389172D01*
X173926493Y-122507524D01*
X173730257Y-122660261D01*
X173561833Y-122843217D01*
X173425826Y-123051393D01*
X173325936Y-123279118D01*
X173264892Y-123520175D01*
X173264890Y-123520186D01*
X173249500Y-123705935D01*
X173249500Y-124530065D01*
X169650500Y-124530065D01*
X169650500Y-123705933D01*
X169635108Y-123520179D01*
X169574063Y-123279119D01*
X169474173Y-123051393D01*
X169338166Y-122843217D01*
X169316557Y-122819744D01*
X169169744Y-122660262D01*
X168973509Y-122507526D01*
X168973507Y-122507525D01*
X168973506Y-122507524D01*
X168754811Y-122389172D01*
X168754802Y-122389169D01*
X168519616Y-122308429D01*
X168274335Y-122267500D01*
X168025665Y-122267500D01*
X167780383Y-122308429D01*
X167545197Y-122389169D01*
X167545188Y-122389172D01*
X167326493Y-122507524D01*
X167130257Y-122660261D01*
X166961833Y-122843217D01*
X166825826Y-123051393D01*
X166725936Y-123279118D01*
X166664892Y-123520175D01*
X166664890Y-123520186D01*
X166649500Y-123705935D01*
X166649500Y-124530065D01*
X161010500Y-124530065D01*
X161010500Y-123705933D01*
X160995108Y-123520179D01*
X160934063Y-123279119D01*
X160834173Y-123051393D01*
X160698166Y-122843217D01*
X160676557Y-122819744D01*
X160529744Y-122660262D01*
X160333509Y-122507526D01*
X160333507Y-122507525D01*
X160333506Y-122507524D01*
X160114811Y-122389172D01*
X160114802Y-122389169D01*
X159879616Y-122308429D01*
X159634335Y-122267500D01*
X159385665Y-122267500D01*
X159140383Y-122308429D01*
X158905197Y-122389169D01*
X158905188Y-122389172D01*
X158686493Y-122507524D01*
X158490257Y-122660261D01*
X158321833Y-122843217D01*
X158185826Y-123051393D01*
X158085936Y-123279118D01*
X158024892Y-123520175D01*
X158024890Y-123520186D01*
X158009500Y-123705935D01*
X158009500Y-124530065D01*
X154410500Y-124530065D01*
X154410500Y-123705933D01*
X154395108Y-123520179D01*
X154334063Y-123279119D01*
X154234173Y-123051393D01*
X154098166Y-122843217D01*
X154076557Y-122819744D01*
X153929744Y-122660262D01*
X153733509Y-122507526D01*
X153733507Y-122507525D01*
X153733506Y-122507524D01*
X153514811Y-122389172D01*
X153514802Y-122389169D01*
X153279616Y-122308429D01*
X153034335Y-122267500D01*
X152785665Y-122267500D01*
X152540383Y-122308429D01*
X152305197Y-122389169D01*
X152305188Y-122389172D01*
X152086493Y-122507524D01*
X151890257Y-122660261D01*
X151721833Y-122843217D01*
X151585826Y-123051393D01*
X151485936Y-123279118D01*
X151424892Y-123520175D01*
X151424890Y-123520186D01*
X151409500Y-123705935D01*
X151409500Y-124530065D01*
X146024500Y-124530065D01*
X146024500Y-123705933D01*
X146009108Y-123520179D01*
X145948063Y-123279119D01*
X145848173Y-123051393D01*
X145712166Y-122843217D01*
X145690557Y-122819744D01*
X145543744Y-122660262D01*
X145347509Y-122507526D01*
X145347507Y-122507525D01*
X145347506Y-122507524D01*
X145128811Y-122389172D01*
X145128802Y-122389169D01*
X144893616Y-122308429D01*
X144648335Y-122267500D01*
X144399665Y-122267500D01*
X144154383Y-122308429D01*
X143919197Y-122389169D01*
X143919188Y-122389172D01*
X143700493Y-122507524D01*
X143504257Y-122660261D01*
X143335833Y-122843217D01*
X143199826Y-123051393D01*
X143099936Y-123279118D01*
X143038892Y-123520175D01*
X143038890Y-123520186D01*
X143023500Y-123705935D01*
X143023500Y-124530065D01*
X139424500Y-124530065D01*
X139424500Y-123705933D01*
X139409108Y-123520179D01*
X139348063Y-123279119D01*
X139248173Y-123051393D01*
X139112166Y-122843217D01*
X139090557Y-122819744D01*
X138943744Y-122660262D01*
X138747509Y-122507526D01*
X138747507Y-122507525D01*
X138747506Y-122507524D01*
X138528811Y-122389172D01*
X138528802Y-122389169D01*
X138293616Y-122308429D01*
X138048335Y-122267500D01*
X137799665Y-122267500D01*
X137554383Y-122308429D01*
X137319197Y-122389169D01*
X137319188Y-122389172D01*
X137100493Y-122507524D01*
X136904257Y-122660261D01*
X136735833Y-122843217D01*
X136599826Y-123051393D01*
X136499936Y-123279118D01*
X136438892Y-123520175D01*
X136438890Y-123520186D01*
X136423500Y-123705935D01*
X136423500Y-124530065D01*
X130530500Y-124530065D01*
X130530500Y-123705933D01*
X130515108Y-123520179D01*
X130454063Y-123279119D01*
X130354173Y-123051393D01*
X130218166Y-122843217D01*
X130196557Y-122819744D01*
X130049744Y-122660262D01*
X129853509Y-122507526D01*
X129853507Y-122507525D01*
X129853506Y-122507524D01*
X129634811Y-122389172D01*
X129634802Y-122389169D01*
X129399616Y-122308429D01*
X129154335Y-122267500D01*
X128905665Y-122267500D01*
X128660383Y-122308429D01*
X128425197Y-122389169D01*
X128425188Y-122389172D01*
X128206493Y-122507524D01*
X128010257Y-122660261D01*
X127841833Y-122843217D01*
X127705826Y-123051393D01*
X127605936Y-123279118D01*
X127544892Y-123520175D01*
X127544890Y-123520186D01*
X127529500Y-123705935D01*
X127529500Y-124530065D01*
X123930500Y-124530065D01*
X123930500Y-123705933D01*
X123915108Y-123520179D01*
X123854063Y-123279119D01*
X123754173Y-123051393D01*
X123618166Y-122843217D01*
X123596557Y-122819744D01*
X123449744Y-122660262D01*
X123253509Y-122507526D01*
X123253507Y-122507525D01*
X123253506Y-122507524D01*
X123034811Y-122389172D01*
X123034802Y-122389169D01*
X122799616Y-122308429D01*
X122554335Y-122267500D01*
X122305665Y-122267500D01*
X122060383Y-122308429D01*
X121825197Y-122389169D01*
X121825188Y-122389172D01*
X121606493Y-122507524D01*
X121410257Y-122660261D01*
X121241833Y-122843217D01*
X121105826Y-123051393D01*
X121005936Y-123279118D01*
X120944892Y-123520175D01*
X120944890Y-123520186D01*
X120929500Y-123705935D01*
X120929500Y-124530065D01*
X117094000Y-124530065D01*
X117094000Y-118571685D01*
X124875740Y-118571685D01*
X124885755Y-118756406D01*
X124885755Y-118756411D01*
X124935244Y-118934656D01*
X124935247Y-118934662D01*
X125021898Y-119098102D01*
X125084540Y-119171850D01*
X125141663Y-119239100D01*
X125288936Y-119351054D01*
X125456833Y-119428732D01*
X125456834Y-119428732D01*
X125456836Y-119428733D01*
X125511648Y-119440797D01*
X125637503Y-119468500D01*
X125637506Y-119468500D01*
X125776107Y-119468500D01*
X125776113Y-119468500D01*
X125913910Y-119453514D01*
X126089221Y-119394444D01*
X126247736Y-119299070D01*
X126382041Y-119171849D01*
X126485858Y-119018730D01*
X126554331Y-118846875D01*
X126584260Y-118664317D01*
X126579238Y-118571685D01*
X140369740Y-118571685D01*
X140379755Y-118756406D01*
X140379755Y-118756411D01*
X140429244Y-118934656D01*
X140429247Y-118934662D01*
X140515898Y-119098102D01*
X140578540Y-119171850D01*
X140635663Y-119239100D01*
X140782936Y-119351054D01*
X140950833Y-119428732D01*
X140950834Y-119428732D01*
X140950836Y-119428733D01*
X141005648Y-119440797D01*
X141131503Y-119468500D01*
X141131506Y-119468500D01*
X141270107Y-119468500D01*
X141270113Y-119468500D01*
X141407910Y-119453514D01*
X141583221Y-119394444D01*
X141741736Y-119299070D01*
X141876041Y-119171849D01*
X141979858Y-119018730D01*
X142048331Y-118846875D01*
X142078260Y-118664317D01*
X142073238Y-118571685D01*
X155355740Y-118571685D01*
X155365755Y-118756406D01*
X155365755Y-118756411D01*
X155415244Y-118934656D01*
X155415247Y-118934662D01*
X155501898Y-119098102D01*
X155564540Y-119171850D01*
X155621663Y-119239100D01*
X155768936Y-119351054D01*
X155936833Y-119428732D01*
X155936834Y-119428732D01*
X155936836Y-119428733D01*
X155991648Y-119440797D01*
X156117503Y-119468500D01*
X156117506Y-119468500D01*
X156256107Y-119468500D01*
X156256113Y-119468500D01*
X156393910Y-119453514D01*
X156569221Y-119394444D01*
X156727736Y-119299070D01*
X156862041Y-119171849D01*
X156965858Y-119018730D01*
X157034331Y-118846875D01*
X157064260Y-118664317D01*
X157059238Y-118571685D01*
X170595740Y-118571685D01*
X170605755Y-118756406D01*
X170605755Y-118756411D01*
X170655244Y-118934656D01*
X170655247Y-118934662D01*
X170741898Y-119098102D01*
X170804540Y-119171850D01*
X170861663Y-119239100D01*
X171008936Y-119351054D01*
X171176833Y-119428732D01*
X171176834Y-119428732D01*
X171176836Y-119428733D01*
X171231648Y-119440797D01*
X171357503Y-119468500D01*
X171357506Y-119468500D01*
X171496107Y-119468500D01*
X171496113Y-119468500D01*
X171633910Y-119453514D01*
X171809221Y-119394444D01*
X171967736Y-119299070D01*
X172102041Y-119171849D01*
X172205858Y-119018730D01*
X172274331Y-118846875D01*
X172304260Y-118664317D01*
X172294245Y-118479593D01*
X172244754Y-118301341D01*
X172158100Y-118137896D01*
X172095460Y-118064151D01*
X172038337Y-117996900D01*
X171891064Y-117884946D01*
X171723167Y-117807268D01*
X171723163Y-117807266D01*
X171542497Y-117767500D01*
X171403887Y-117767500D01*
X171403883Y-117767500D01*
X171266088Y-117782486D01*
X171090776Y-117841557D01*
X171090774Y-117841558D01*
X170932262Y-117936931D01*
X170932261Y-117936932D01*
X170797959Y-118064149D01*
X170694138Y-118217276D01*
X170625669Y-118389122D01*
X170595740Y-118571685D01*
X157059238Y-118571685D01*
X157054245Y-118479593D01*
X157004754Y-118301341D01*
X156918100Y-118137896D01*
X156855460Y-118064151D01*
X156798337Y-117996900D01*
X156651064Y-117884946D01*
X156483167Y-117807268D01*
X156483163Y-117807266D01*
X156302497Y-117767500D01*
X156163887Y-117767500D01*
X156163883Y-117767500D01*
X156026088Y-117782486D01*
X155850776Y-117841557D01*
X155850774Y-117841558D01*
X155692262Y-117936931D01*
X155692261Y-117936932D01*
X155557959Y-118064149D01*
X155454138Y-118217276D01*
X155385669Y-118389122D01*
X155355740Y-118571685D01*
X142073238Y-118571685D01*
X142068245Y-118479593D01*
X142018754Y-118301341D01*
X141932100Y-118137896D01*
X141869460Y-118064151D01*
X141812337Y-117996900D01*
X141665064Y-117884946D01*
X141497167Y-117807268D01*
X141497163Y-117807266D01*
X141316497Y-117767500D01*
X141177887Y-117767500D01*
X141177883Y-117767500D01*
X141040088Y-117782486D01*
X140864776Y-117841557D01*
X140864774Y-117841558D01*
X140706262Y-117936931D01*
X140706261Y-117936932D01*
X140571959Y-118064149D01*
X140468138Y-118217276D01*
X140399669Y-118389122D01*
X140369740Y-118571685D01*
X126579238Y-118571685D01*
X126574245Y-118479593D01*
X126524754Y-118301341D01*
X126438100Y-118137896D01*
X126375460Y-118064151D01*
X126318337Y-117996900D01*
X126171064Y-117884946D01*
X126003167Y-117807268D01*
X126003163Y-117807266D01*
X125822497Y-117767500D01*
X125683887Y-117767500D01*
X125683883Y-117767500D01*
X125546088Y-117782486D01*
X125370776Y-117841557D01*
X125370774Y-117841558D01*
X125212262Y-117936931D01*
X125212261Y-117936932D01*
X125077959Y-118064149D01*
X124974138Y-118217276D01*
X124905669Y-118389122D01*
X124875740Y-118571685D01*
X117094000Y-118571685D01*
X117094000Y-116530041D01*
X120930000Y-116530041D01*
X120945385Y-116715730D01*
X120945387Y-116715738D01*
X121006412Y-116956717D01*
X121106267Y-117184367D01*
X121242232Y-117392478D01*
X121410592Y-117575364D01*
X121410602Y-117575373D01*
X121606762Y-117728051D01*
X121606771Y-117728057D01*
X121825385Y-117846364D01*
X121825396Y-117846369D01*
X122060507Y-117927083D01*
X122179999Y-117947023D01*
X122180000Y-117947022D01*
X122180000Y-116901686D01*
X122220156Y-116927493D01*
X122358111Y-116968000D01*
X122501889Y-116968000D01*
X122639844Y-116927493D01*
X122680000Y-116901686D01*
X122680000Y-117947023D01*
X122799492Y-117927083D01*
X123034603Y-117846369D01*
X123034614Y-117846364D01*
X123253228Y-117728057D01*
X123253237Y-117728051D01*
X123449397Y-117575373D01*
X123449407Y-117575364D01*
X123617767Y-117392478D01*
X123753732Y-117184367D01*
X123853587Y-116956717D01*
X123914612Y-116715738D01*
X123914614Y-116715730D01*
X123930000Y-116530041D01*
X123930000Y-116258390D01*
X123949685Y-116191351D01*
X124002489Y-116145596D01*
X124071647Y-116135652D01*
X124135203Y-116164677D01*
X124151853Y-116182228D01*
X124272626Y-116337397D01*
X124272635Y-116337407D01*
X124455522Y-116505767D01*
X124455521Y-116505767D01*
X124663632Y-116641732D01*
X124891282Y-116741587D01*
X125132261Y-116802612D01*
X125132269Y-116802614D01*
X125317959Y-116818000D01*
X125480000Y-116818000D01*
X125480000Y-115818000D01*
X125980000Y-115818000D01*
X125980000Y-116818000D01*
X126142041Y-116818000D01*
X126327730Y-116802614D01*
X126327738Y-116802612D01*
X126568717Y-116741587D01*
X126796367Y-116641732D01*
X127004478Y-116505767D01*
X127187364Y-116337407D01*
X127187373Y-116337397D01*
X127308147Y-116182228D01*
X127364857Y-116141415D01*
X127434630Y-116137740D01*
X127495313Y-116172372D01*
X127527640Y-116234313D01*
X127530000Y-116258390D01*
X127530000Y-116530041D01*
X127545385Y-116715730D01*
X127545387Y-116715738D01*
X127606412Y-116956717D01*
X127706267Y-117184367D01*
X127842232Y-117392478D01*
X128010592Y-117575364D01*
X128010602Y-117575373D01*
X128206762Y-117728051D01*
X128206771Y-117728057D01*
X128425385Y-117846364D01*
X128425396Y-117846369D01*
X128660507Y-117927083D01*
X128779999Y-117947023D01*
X128780000Y-117947022D01*
X128780000Y-116901686D01*
X128820156Y-116927493D01*
X128958111Y-116968000D01*
X129101889Y-116968000D01*
X129239844Y-116927493D01*
X129280000Y-116901686D01*
X129280000Y-117947023D01*
X129399492Y-117927083D01*
X129634603Y-117846369D01*
X129634614Y-117846364D01*
X129853228Y-117728057D01*
X129853237Y-117728051D01*
X130049397Y-117575373D01*
X130049407Y-117575364D01*
X130217767Y-117392478D01*
X130353732Y-117184367D01*
X130453587Y-116956717D01*
X130514612Y-116715738D01*
X130514614Y-116715730D01*
X130530000Y-116530041D01*
X136424000Y-116530041D01*
X136439385Y-116715730D01*
X136439387Y-116715738D01*
X136500412Y-116956717D01*
X136600267Y-117184367D01*
X136736232Y-117392478D01*
X136904592Y-117575364D01*
X136904602Y-117575373D01*
X137100762Y-117728051D01*
X137100771Y-117728057D01*
X137319385Y-117846364D01*
X137319396Y-117846369D01*
X137554507Y-117927083D01*
X137673999Y-117947023D01*
X137674000Y-117947022D01*
X137674000Y-116901686D01*
X137714156Y-116927493D01*
X137852111Y-116968000D01*
X137995889Y-116968000D01*
X138133844Y-116927493D01*
X138174000Y-116901686D01*
X138174000Y-117947023D01*
X138293492Y-117927083D01*
X138528603Y-117846369D01*
X138528614Y-117846364D01*
X138747228Y-117728057D01*
X138747237Y-117728051D01*
X138943397Y-117575373D01*
X138943407Y-117575364D01*
X139111767Y-117392478D01*
X139247732Y-117184367D01*
X139347587Y-116956717D01*
X139408612Y-116715738D01*
X139408614Y-116715730D01*
X139424000Y-116530041D01*
X139424000Y-116258390D01*
X139443685Y-116191351D01*
X139496489Y-116145596D01*
X139565647Y-116135652D01*
X139629203Y-116164677D01*
X139645853Y-116182228D01*
X139766626Y-116337397D01*
X139766635Y-116337407D01*
X139949522Y-116505767D01*
X139949521Y-116505767D01*
X140157632Y-116641732D01*
X140385282Y-116741587D01*
X140626261Y-116802612D01*
X140626269Y-116802614D01*
X140811959Y-116818000D01*
X140974000Y-116818000D01*
X140974000Y-115818000D01*
X141474000Y-115818000D01*
X141474000Y-116818000D01*
X141636041Y-116818000D01*
X141821730Y-116802614D01*
X141821738Y-116802612D01*
X142062717Y-116741587D01*
X142290367Y-116641732D01*
X142498478Y-116505767D01*
X142681364Y-116337407D01*
X142681373Y-116337397D01*
X142802147Y-116182228D01*
X142858857Y-116141415D01*
X142928630Y-116137740D01*
X142989313Y-116172372D01*
X143021640Y-116234313D01*
X143024000Y-116258390D01*
X143024000Y-116530041D01*
X143039385Y-116715730D01*
X143039387Y-116715738D01*
X143100412Y-116956717D01*
X143200267Y-117184367D01*
X143336232Y-117392478D01*
X143504592Y-117575364D01*
X143504602Y-117575373D01*
X143700762Y-117728051D01*
X143700771Y-117728057D01*
X143919385Y-117846364D01*
X143919396Y-117846369D01*
X144154507Y-117927083D01*
X144273999Y-117947023D01*
X144274000Y-117947022D01*
X144274000Y-116901686D01*
X144314156Y-116927493D01*
X144452111Y-116968000D01*
X144595889Y-116968000D01*
X144733844Y-116927493D01*
X144774000Y-116901686D01*
X144774000Y-117947023D01*
X144893492Y-117927083D01*
X145128603Y-117846369D01*
X145128614Y-117846364D01*
X145347228Y-117728057D01*
X145347237Y-117728051D01*
X145543397Y-117575373D01*
X145543407Y-117575364D01*
X145711767Y-117392478D01*
X145847732Y-117184367D01*
X145947587Y-116956717D01*
X146008612Y-116715738D01*
X146008614Y-116715730D01*
X146024000Y-116530041D01*
X151410000Y-116530041D01*
X151425385Y-116715730D01*
X151425387Y-116715738D01*
X151486412Y-116956717D01*
X151586267Y-117184367D01*
X151722232Y-117392478D01*
X151890592Y-117575364D01*
X151890602Y-117575373D01*
X152086762Y-117728051D01*
X152086771Y-117728057D01*
X152305385Y-117846364D01*
X152305396Y-117846369D01*
X152540507Y-117927083D01*
X152659999Y-117947023D01*
X152660000Y-117947022D01*
X152660000Y-116901686D01*
X152700156Y-116927493D01*
X152838111Y-116968000D01*
X152981889Y-116968000D01*
X153119844Y-116927493D01*
X153160000Y-116901686D01*
X153160000Y-117947023D01*
X153279492Y-117927083D01*
X153514603Y-117846369D01*
X153514614Y-117846364D01*
X153733228Y-117728057D01*
X153733237Y-117728051D01*
X153929397Y-117575373D01*
X153929407Y-117575364D01*
X154097767Y-117392478D01*
X154233732Y-117184367D01*
X154333587Y-116956717D01*
X154394612Y-116715738D01*
X154394614Y-116715730D01*
X154410000Y-116530041D01*
X154410000Y-116258390D01*
X154429685Y-116191351D01*
X154482489Y-116145596D01*
X154551647Y-116135652D01*
X154615203Y-116164677D01*
X154631853Y-116182228D01*
X154752626Y-116337397D01*
X154752635Y-116337407D01*
X154935522Y-116505767D01*
X154935521Y-116505767D01*
X155143632Y-116641732D01*
X155371282Y-116741587D01*
X155612261Y-116802612D01*
X155612269Y-116802614D01*
X155797959Y-116818000D01*
X155960000Y-116818000D01*
X155960000Y-115818000D01*
X156460000Y-115818000D01*
X156460000Y-116818000D01*
X156622041Y-116818000D01*
X156807730Y-116802614D01*
X156807738Y-116802612D01*
X157048717Y-116741587D01*
X157276367Y-116641732D01*
X157484478Y-116505767D01*
X157667364Y-116337407D01*
X157667373Y-116337397D01*
X157788147Y-116182228D01*
X157844857Y-116141415D01*
X157914630Y-116137740D01*
X157975313Y-116172372D01*
X158007640Y-116234313D01*
X158010000Y-116258390D01*
X158010000Y-116530041D01*
X158025385Y-116715730D01*
X158025387Y-116715738D01*
X158086412Y-116956717D01*
X158186267Y-117184367D01*
X158322232Y-117392478D01*
X158490592Y-117575364D01*
X158490602Y-117575373D01*
X158686762Y-117728051D01*
X158686771Y-117728057D01*
X158905385Y-117846364D01*
X158905396Y-117846369D01*
X159140507Y-117927083D01*
X159259999Y-117947023D01*
X159260000Y-117947022D01*
X159260000Y-116901686D01*
X159300156Y-116927493D01*
X159438111Y-116968000D01*
X159581889Y-116968000D01*
X159719844Y-116927493D01*
X159760000Y-116901686D01*
X159760000Y-117947023D01*
X159879492Y-117927083D01*
X160114603Y-117846369D01*
X160114614Y-117846364D01*
X160333228Y-117728057D01*
X160333237Y-117728051D01*
X160529397Y-117575373D01*
X160529407Y-117575364D01*
X160697767Y-117392478D01*
X160833732Y-117184367D01*
X160933587Y-116956717D01*
X160994612Y-116715738D01*
X160994614Y-116715730D01*
X161010000Y-116530041D01*
X166650000Y-116530041D01*
X166665385Y-116715730D01*
X166665387Y-116715738D01*
X166726412Y-116956717D01*
X166826267Y-117184367D01*
X166962232Y-117392478D01*
X167130592Y-117575364D01*
X167130602Y-117575373D01*
X167326762Y-117728051D01*
X167326771Y-117728057D01*
X167545385Y-117846364D01*
X167545396Y-117846369D01*
X167780507Y-117927083D01*
X167899999Y-117947023D01*
X167900000Y-117947022D01*
X167900000Y-116901686D01*
X167940156Y-116927493D01*
X168078111Y-116968000D01*
X168221889Y-116968000D01*
X168359844Y-116927493D01*
X168400000Y-116901686D01*
X168400000Y-117947023D01*
X168519492Y-117927083D01*
X168754603Y-117846369D01*
X168754614Y-117846364D01*
X168973228Y-117728057D01*
X168973237Y-117728051D01*
X169169397Y-117575373D01*
X169169407Y-117575364D01*
X169337767Y-117392478D01*
X169473732Y-117184367D01*
X169573587Y-116956717D01*
X169634612Y-116715738D01*
X169634614Y-116715730D01*
X169650000Y-116530041D01*
X169650000Y-116258390D01*
X169669685Y-116191351D01*
X169722489Y-116145596D01*
X169791647Y-116135652D01*
X169855203Y-116164677D01*
X169871853Y-116182228D01*
X169992626Y-116337397D01*
X169992635Y-116337407D01*
X170175522Y-116505767D01*
X170175521Y-116505767D01*
X170383632Y-116641732D01*
X170611282Y-116741587D01*
X170852261Y-116802612D01*
X170852269Y-116802614D01*
X171037959Y-116818000D01*
X171200000Y-116818000D01*
X171200000Y-115818000D01*
X171700000Y-115818000D01*
X171700000Y-116818000D01*
X171862041Y-116818000D01*
X172047730Y-116802614D01*
X172047738Y-116802612D01*
X172288717Y-116741587D01*
X172516367Y-116641732D01*
X172724478Y-116505767D01*
X172907364Y-116337407D01*
X172907373Y-116337397D01*
X173028147Y-116182228D01*
X173084857Y-116141415D01*
X173154630Y-116137740D01*
X173215313Y-116172372D01*
X173247640Y-116234313D01*
X173250000Y-116258390D01*
X173250000Y-116530041D01*
X173265385Y-116715730D01*
X173265387Y-116715738D01*
X173326412Y-116956717D01*
X173426267Y-117184367D01*
X173562232Y-117392478D01*
X173730592Y-117575364D01*
X173730602Y-117575373D01*
X173926762Y-117728051D01*
X173926771Y-117728057D01*
X174145385Y-117846364D01*
X174145396Y-117846369D01*
X174380507Y-117927083D01*
X174499999Y-117947023D01*
X174500000Y-117947022D01*
X174500000Y-116901686D01*
X174540156Y-116927493D01*
X174678111Y-116968000D01*
X174821889Y-116968000D01*
X174959844Y-116927493D01*
X175000000Y-116901686D01*
X175000000Y-117947023D01*
X175119492Y-117927083D01*
X175354603Y-117846369D01*
X175354614Y-117846364D01*
X175573228Y-117728057D01*
X175573237Y-117728051D01*
X175769397Y-117575373D01*
X175769407Y-117575364D01*
X175937767Y-117392478D01*
X176073732Y-117184367D01*
X176173587Y-116956717D01*
X176234612Y-116715738D01*
X176234614Y-116715730D01*
X176250000Y-116530041D01*
X176250000Y-116368000D01*
X175250000Y-116368000D01*
X175250000Y-115868000D01*
X176250000Y-115868000D01*
X176250000Y-115705959D01*
X176234614Y-115520269D01*
X176234612Y-115520261D01*
X176173587Y-115279282D01*
X176073732Y-115051632D01*
X175937767Y-114843521D01*
X175769407Y-114660635D01*
X175769397Y-114660626D01*
X175573237Y-114507948D01*
X175573228Y-114507942D01*
X175354614Y-114389635D01*
X175354603Y-114389630D01*
X175119492Y-114308916D01*
X175000000Y-114288976D01*
X175000000Y-115334313D01*
X174959844Y-115308507D01*
X174821889Y-115268000D01*
X174678111Y-115268000D01*
X174540156Y-115308507D01*
X174500000Y-115334313D01*
X174500000Y-114288976D01*
X174380507Y-114308916D01*
X174145396Y-114389630D01*
X174145385Y-114389635D01*
X173926771Y-114507942D01*
X173926762Y-114507948D01*
X173730602Y-114660626D01*
X173730592Y-114660635D01*
X173562234Y-114843519D01*
X173478611Y-114971515D01*
X173425464Y-115016871D01*
X173356233Y-115026295D01*
X173292897Y-114996793D01*
X173257521Y-114943956D01*
X173178369Y-114713396D01*
X173178364Y-114713385D01*
X173060057Y-114494771D01*
X173060051Y-114494762D01*
X172907373Y-114298602D01*
X172907364Y-114298592D01*
X172724477Y-114130232D01*
X172724478Y-114130232D01*
X172516367Y-113994267D01*
X172288717Y-113894412D01*
X172047738Y-113833387D01*
X172047730Y-113833385D01*
X171862041Y-113818000D01*
X171700000Y-113818000D01*
X171700000Y-114818000D01*
X171200000Y-114818000D01*
X171200000Y-113818000D01*
X171037959Y-113818000D01*
X170852269Y-113833385D01*
X170852261Y-113833387D01*
X170611282Y-113894412D01*
X170383632Y-113994267D01*
X170175521Y-114130232D01*
X169992635Y-114298592D01*
X169992626Y-114298602D01*
X169839948Y-114494762D01*
X169839942Y-114494771D01*
X169721635Y-114713385D01*
X169721630Y-114713396D01*
X169642478Y-114943956D01*
X169602092Y-115000972D01*
X169537293Y-115027102D01*
X169468653Y-115014050D01*
X169421388Y-114971514D01*
X169337767Y-114843521D01*
X169169407Y-114660635D01*
X169169397Y-114660626D01*
X168973237Y-114507948D01*
X168973228Y-114507942D01*
X168754614Y-114389635D01*
X168754603Y-114389630D01*
X168519492Y-114308916D01*
X168400000Y-114288976D01*
X168400000Y-115334313D01*
X168359844Y-115308507D01*
X168221889Y-115268000D01*
X168078111Y-115268000D01*
X167940156Y-115308507D01*
X167900000Y-115334313D01*
X167900000Y-114288976D01*
X167780507Y-114308916D01*
X167545396Y-114389630D01*
X167545385Y-114389635D01*
X167326771Y-114507942D01*
X167326762Y-114507948D01*
X167130602Y-114660626D01*
X167130592Y-114660635D01*
X166962232Y-114843521D01*
X166826267Y-115051632D01*
X166726412Y-115279282D01*
X166665387Y-115520261D01*
X166665385Y-115520269D01*
X166650000Y-115705959D01*
X166650000Y-115868000D01*
X167650000Y-115868000D01*
X167650000Y-116368000D01*
X166650000Y-116368000D01*
X166650000Y-116530041D01*
X161010000Y-116530041D01*
X161010000Y-116368000D01*
X160010000Y-116368000D01*
X160010000Y-115868000D01*
X161010000Y-115868000D01*
X161010000Y-115705959D01*
X160994614Y-115520269D01*
X160994612Y-115520261D01*
X160933587Y-115279282D01*
X160833732Y-115051632D01*
X160697767Y-114843521D01*
X160529407Y-114660635D01*
X160529397Y-114660626D01*
X160333237Y-114507948D01*
X160333228Y-114507942D01*
X160114614Y-114389635D01*
X160114603Y-114389630D01*
X159879492Y-114308916D01*
X159760000Y-114288976D01*
X159760000Y-115334313D01*
X159719844Y-115308507D01*
X159581889Y-115268000D01*
X159438111Y-115268000D01*
X159300156Y-115308507D01*
X159260000Y-115334313D01*
X159260000Y-114288976D01*
X159140507Y-114308916D01*
X158905396Y-114389630D01*
X158905385Y-114389635D01*
X158686771Y-114507942D01*
X158686762Y-114507948D01*
X158490602Y-114660626D01*
X158490592Y-114660635D01*
X158322234Y-114843519D01*
X158238611Y-114971515D01*
X158185464Y-115016871D01*
X158116233Y-115026295D01*
X158052897Y-114996793D01*
X158017521Y-114943956D01*
X157938369Y-114713396D01*
X157938364Y-114713385D01*
X157820057Y-114494771D01*
X157820051Y-114494762D01*
X157667373Y-114298602D01*
X157667364Y-114298592D01*
X157484477Y-114130232D01*
X157484478Y-114130232D01*
X157276367Y-113994267D01*
X157048717Y-113894412D01*
X156807738Y-113833387D01*
X156807730Y-113833385D01*
X156622041Y-113818000D01*
X156460000Y-113818000D01*
X156460000Y-114818000D01*
X155960000Y-114818000D01*
X155960000Y-113818000D01*
X155797959Y-113818000D01*
X155612269Y-113833385D01*
X155612261Y-113833387D01*
X155371282Y-113894412D01*
X155143632Y-113994267D01*
X154935521Y-114130232D01*
X154752635Y-114298592D01*
X154752626Y-114298602D01*
X154599948Y-114494762D01*
X154599942Y-114494771D01*
X154481635Y-114713385D01*
X154481630Y-114713396D01*
X154402478Y-114943956D01*
X154362092Y-115000972D01*
X154297293Y-115027102D01*
X154228653Y-115014050D01*
X154181388Y-114971514D01*
X154097767Y-114843521D01*
X153929407Y-114660635D01*
X153929397Y-114660626D01*
X153733237Y-114507948D01*
X153733228Y-114507942D01*
X153514614Y-114389635D01*
X153514603Y-114389630D01*
X153279492Y-114308916D01*
X153160000Y-114288976D01*
X153160000Y-115334313D01*
X153119844Y-115308507D01*
X152981889Y-115268000D01*
X152838111Y-115268000D01*
X152700156Y-115308507D01*
X152660000Y-115334313D01*
X152660000Y-114288976D01*
X152659999Y-114288976D01*
X152540507Y-114308916D01*
X152305396Y-114389630D01*
X152305385Y-114389635D01*
X152086771Y-114507942D01*
X152086762Y-114507948D01*
X151890602Y-114660626D01*
X151890592Y-114660635D01*
X151722232Y-114843521D01*
X151586267Y-115051632D01*
X151486412Y-115279282D01*
X151425387Y-115520261D01*
X151425385Y-115520269D01*
X151410000Y-115705959D01*
X151410000Y-115868000D01*
X152410000Y-115868000D01*
X152410000Y-116368000D01*
X151410000Y-116368000D01*
X151410000Y-116530041D01*
X146024000Y-116530041D01*
X146024000Y-116368000D01*
X145024000Y-116368000D01*
X145024000Y-115868000D01*
X146024000Y-115868000D01*
X146024000Y-115705959D01*
X146008614Y-115520269D01*
X146008612Y-115520261D01*
X145947587Y-115279282D01*
X145847732Y-115051632D01*
X145711767Y-114843521D01*
X145543407Y-114660635D01*
X145543397Y-114660626D01*
X145347237Y-114507948D01*
X145347228Y-114507942D01*
X145128614Y-114389635D01*
X145128603Y-114389630D01*
X144893492Y-114308916D01*
X144774000Y-114288976D01*
X144774000Y-115334313D01*
X144733844Y-115308507D01*
X144595889Y-115268000D01*
X144452111Y-115268000D01*
X144314156Y-115308507D01*
X144274000Y-115334313D01*
X144274000Y-114288976D01*
X144273999Y-114288976D01*
X144154507Y-114308916D01*
X143919396Y-114389630D01*
X143919385Y-114389635D01*
X143700771Y-114507942D01*
X143700762Y-114507948D01*
X143504602Y-114660626D01*
X143504592Y-114660635D01*
X143336234Y-114843519D01*
X143252611Y-114971515D01*
X143199464Y-115016871D01*
X143130233Y-115026295D01*
X143066897Y-114996793D01*
X143031521Y-114943956D01*
X142952369Y-114713396D01*
X142952364Y-114713385D01*
X142834057Y-114494771D01*
X142834051Y-114494762D01*
X142681373Y-114298602D01*
X142681364Y-114298592D01*
X142498477Y-114130232D01*
X142498478Y-114130232D01*
X142290367Y-113994267D01*
X142062717Y-113894412D01*
X141821738Y-113833387D01*
X141821730Y-113833385D01*
X141636041Y-113818000D01*
X141474000Y-113818000D01*
X141474000Y-114818000D01*
X140974000Y-114818000D01*
X140974000Y-113818000D01*
X140811959Y-113818000D01*
X140626269Y-113833385D01*
X140626261Y-113833387D01*
X140385282Y-113894412D01*
X140157632Y-113994267D01*
X139949521Y-114130232D01*
X139766635Y-114298592D01*
X139766626Y-114298602D01*
X139613948Y-114494762D01*
X139613942Y-114494771D01*
X139495635Y-114713385D01*
X139495630Y-114713396D01*
X139416478Y-114943956D01*
X139376092Y-115000972D01*
X139311293Y-115027102D01*
X139242653Y-115014050D01*
X139195388Y-114971514D01*
X139111767Y-114843521D01*
X138943407Y-114660635D01*
X138943397Y-114660626D01*
X138747237Y-114507948D01*
X138747228Y-114507942D01*
X138528614Y-114389635D01*
X138528603Y-114389630D01*
X138293492Y-114308916D01*
X138174000Y-114288976D01*
X138174000Y-115334313D01*
X138133844Y-115308507D01*
X137995889Y-115268000D01*
X137852111Y-115268000D01*
X137714156Y-115308507D01*
X137674000Y-115334313D01*
X137674000Y-114288976D01*
X137673999Y-114288976D01*
X137554507Y-114308916D01*
X137319396Y-114389630D01*
X137319385Y-114389635D01*
X137100771Y-114507942D01*
X137100762Y-114507948D01*
X136904602Y-114660626D01*
X136904592Y-114660635D01*
X136736232Y-114843521D01*
X136600267Y-115051632D01*
X136500412Y-115279282D01*
X136439387Y-115520261D01*
X136439385Y-115520269D01*
X136424000Y-115705959D01*
X136424000Y-115868000D01*
X137424000Y-115868000D01*
X137424000Y-116368000D01*
X136424000Y-116368000D01*
X136424000Y-116530041D01*
X130530000Y-116530041D01*
X130530000Y-116368000D01*
X129530000Y-116368000D01*
X129530000Y-115868000D01*
X130530000Y-115868000D01*
X130530000Y-115705959D01*
X130514614Y-115520269D01*
X130514612Y-115520261D01*
X130453587Y-115279282D01*
X130353732Y-115051632D01*
X130217767Y-114843521D01*
X130049407Y-114660635D01*
X130049397Y-114660626D01*
X129853237Y-114507948D01*
X129853228Y-114507942D01*
X129634614Y-114389635D01*
X129634603Y-114389630D01*
X129399492Y-114308916D01*
X129280000Y-114288976D01*
X129280000Y-115334313D01*
X129239844Y-115308507D01*
X129101889Y-115268000D01*
X128958111Y-115268000D01*
X128820156Y-115308507D01*
X128780000Y-115334313D01*
X128780000Y-114288976D01*
X128779999Y-114288976D01*
X128660507Y-114308916D01*
X128425396Y-114389630D01*
X128425385Y-114389635D01*
X128206771Y-114507942D01*
X128206762Y-114507948D01*
X128010602Y-114660626D01*
X128010592Y-114660635D01*
X127842234Y-114843519D01*
X127758611Y-114971515D01*
X127705464Y-115016871D01*
X127636233Y-115026295D01*
X127572897Y-114996793D01*
X127537521Y-114943956D01*
X127458369Y-114713396D01*
X127458364Y-114713385D01*
X127340057Y-114494771D01*
X127340051Y-114494762D01*
X127187373Y-114298602D01*
X127187364Y-114298592D01*
X127004477Y-114130232D01*
X127004478Y-114130232D01*
X126796367Y-113994267D01*
X126568717Y-113894412D01*
X126327738Y-113833387D01*
X126327730Y-113833385D01*
X126142041Y-113818000D01*
X125980000Y-113818000D01*
X125980000Y-114818000D01*
X125480000Y-114818000D01*
X125480000Y-113818000D01*
X125317959Y-113818000D01*
X125132269Y-113833385D01*
X125132261Y-113833387D01*
X124891282Y-113894412D01*
X124663632Y-113994267D01*
X124455521Y-114130232D01*
X124272635Y-114298592D01*
X124272626Y-114298602D01*
X124119948Y-114494762D01*
X124119942Y-114494771D01*
X124001635Y-114713385D01*
X124001630Y-114713396D01*
X123922478Y-114943956D01*
X123882092Y-115000972D01*
X123817293Y-115027102D01*
X123748653Y-115014050D01*
X123701388Y-114971514D01*
X123617767Y-114843521D01*
X123449407Y-114660635D01*
X123449397Y-114660626D01*
X123253237Y-114507948D01*
X123253228Y-114507942D01*
X123034614Y-114389635D01*
X123034603Y-114389630D01*
X122799492Y-114308916D01*
X122680000Y-114288976D01*
X122680000Y-115334313D01*
X122639844Y-115308507D01*
X122501889Y-115268000D01*
X122358111Y-115268000D01*
X122220156Y-115308507D01*
X122180000Y-115334313D01*
X122180000Y-114288976D01*
X122179999Y-114288976D01*
X122060507Y-114308916D01*
X121825396Y-114389630D01*
X121825385Y-114389635D01*
X121606771Y-114507942D01*
X121606762Y-114507948D01*
X121410602Y-114660626D01*
X121410592Y-114660635D01*
X121242232Y-114843521D01*
X121106267Y-115051632D01*
X121006412Y-115279282D01*
X120945387Y-115520261D01*
X120945385Y-115520269D01*
X120930000Y-115705959D01*
X120930000Y-115868000D01*
X121930000Y-115868000D01*
X121930000Y-116368000D01*
X120930000Y-116368000D01*
X120930000Y-116530041D01*
X117094000Y-116530041D01*
X117094000Y-109728000D01*
X171048722Y-109728000D01*
X171067762Y-109884818D01*
X171123780Y-110032523D01*
X171213517Y-110162530D01*
X171331760Y-110267283D01*
X171331762Y-110267284D01*
X171371733Y-110288263D01*
X171401788Y-110310378D01*
X174505197Y-113413788D01*
X174515022Y-113426051D01*
X174515243Y-113425869D01*
X174520214Y-113431878D01*
X174546217Y-113456295D01*
X174570635Y-113479226D01*
X174591529Y-113500120D01*
X174597011Y-113504373D01*
X174601443Y-113508157D01*
X174635418Y-113540062D01*
X174652976Y-113549714D01*
X174669235Y-113560395D01*
X174685064Y-113572673D01*
X174727838Y-113591182D01*
X174733056Y-113593738D01*
X174773908Y-113616197D01*
X174793316Y-113621180D01*
X174811717Y-113627480D01*
X174830104Y-113635437D01*
X174873488Y-113642308D01*
X174876119Y-113642725D01*
X174881839Y-113643909D01*
X174926981Y-113655500D01*
X174947016Y-113655500D01*
X174966414Y-113657026D01*
X174986194Y-113660159D01*
X174986195Y-113660160D01*
X174986195Y-113660159D01*
X174986196Y-113660160D01*
X175032584Y-113655775D01*
X175038422Y-113655500D01*
X176219548Y-113655500D01*
X176286587Y-113675185D01*
X176307229Y-113691819D01*
X177465471Y-114850061D01*
X177479840Y-114867302D01*
X177563515Y-114988528D01*
X177563517Y-114988530D01*
X177681760Y-115093283D01*
X177681762Y-115093284D01*
X177821634Y-115166696D01*
X177975014Y-115204500D01*
X177975015Y-115204500D01*
X178132985Y-115204500D01*
X178286365Y-115166696D01*
X178426240Y-115093283D01*
X178544483Y-114988530D01*
X178634220Y-114858523D01*
X178690237Y-114710818D01*
X178709278Y-114554000D01*
X178690237Y-114397182D01*
X178634220Y-114249477D01*
X178544483Y-114119470D01*
X178426240Y-114014717D01*
X178426238Y-114014716D01*
X178426237Y-114014715D01*
X178426233Y-114014712D01*
X178386268Y-113993737D01*
X178356213Y-113971622D01*
X177030803Y-112646212D01*
X177020980Y-112633950D01*
X177020759Y-112634134D01*
X177015786Y-112628123D01*
X176965364Y-112580773D01*
X176954919Y-112570328D01*
X176944475Y-112559883D01*
X176938986Y-112555625D01*
X176934561Y-112551847D01*
X176900582Y-112519938D01*
X176900580Y-112519936D01*
X176900577Y-112519935D01*
X176883029Y-112510288D01*
X176866763Y-112499604D01*
X176850933Y-112487325D01*
X176808168Y-112468818D01*
X176802922Y-112466248D01*
X176762093Y-112443803D01*
X176762092Y-112443802D01*
X176742693Y-112438822D01*
X176724281Y-112432518D01*
X176705898Y-112424562D01*
X176705892Y-112424560D01*
X176659874Y-112417272D01*
X176654152Y-112416087D01*
X176609021Y-112404500D01*
X176609019Y-112404500D01*
X176588984Y-112404500D01*
X176569586Y-112402973D01*
X176562162Y-112401797D01*
X176549805Y-112399840D01*
X176549804Y-112399840D01*
X176503416Y-112404225D01*
X176497578Y-112404500D01*
X175316453Y-112404500D01*
X175249414Y-112384815D01*
X175228772Y-112368181D01*
X172292528Y-109431937D01*
X172278159Y-109414696D01*
X172271176Y-109404580D01*
X172194483Y-109293470D01*
X172076240Y-109188717D01*
X172076238Y-109188716D01*
X172076237Y-109188715D01*
X171936365Y-109115303D01*
X171782986Y-109077500D01*
X171782985Y-109077500D01*
X171625015Y-109077500D01*
X171625014Y-109077500D01*
X171471634Y-109115303D01*
X171331762Y-109188715D01*
X171213516Y-109293471D01*
X171123781Y-109423475D01*
X171123780Y-109423476D01*
X171067762Y-109571181D01*
X171048722Y-109727999D01*
X171048722Y-109728000D01*
X117094000Y-109728000D01*
X117094000Y-106302000D01*
X136908500Y-106302000D01*
X136908501Y-106302009D01*
X136920052Y-106409450D01*
X136920054Y-106409462D01*
X136931260Y-106460972D01*
X136965383Y-106563497D01*
X136965386Y-106563503D01*
X137043171Y-106684537D01*
X137043179Y-106684548D01*
X137088923Y-106737340D01*
X137088926Y-106737343D01*
X137088930Y-106737347D01*
X137197664Y-106831567D01*
X137197667Y-106831568D01*
X137197668Y-106831569D01*
X137291925Y-106874616D01*
X137328541Y-106891338D01*
X137373357Y-106904497D01*
X137395575Y-106911022D01*
X137395580Y-106911023D01*
X137395584Y-106911024D01*
X137538000Y-106931500D01*
X162830500Y-106931500D01*
X162897539Y-106951185D01*
X162943294Y-107003989D01*
X162954500Y-107055500D01*
X162954500Y-108435292D01*
X162948432Y-108473608D01*
X162944326Y-108486242D01*
X162944326Y-108486243D01*
X162944326Y-108486244D01*
X162924540Y-108674500D01*
X162944326Y-108862756D01*
X162944327Y-108862759D01*
X163002818Y-109042777D01*
X163002821Y-109042784D01*
X163097467Y-109206716D01*
X163175581Y-109293470D01*
X163224129Y-109347388D01*
X163377265Y-109458648D01*
X163377270Y-109458651D01*
X163550192Y-109535642D01*
X163550197Y-109535644D01*
X163735354Y-109575000D01*
X163735355Y-109575000D01*
X163924644Y-109575000D01*
X163924646Y-109575000D01*
X164109803Y-109535644D01*
X164282730Y-109458651D01*
X164435871Y-109347388D01*
X164562533Y-109206716D01*
X164657179Y-109042784D01*
X164715674Y-108862756D01*
X164735460Y-108674500D01*
X164715674Y-108486244D01*
X164711567Y-108473605D01*
X164705500Y-108435292D01*
X164705500Y-107055500D01*
X164725185Y-106988461D01*
X164777989Y-106942706D01*
X164829500Y-106931500D01*
X166499990Y-106931500D01*
X166500000Y-106931500D01*
X166607456Y-106919947D01*
X166658967Y-106908741D01*
X166693197Y-106897347D01*
X166761497Y-106874616D01*
X166761501Y-106874613D01*
X166761504Y-106874613D01*
X166882543Y-106796825D01*
X166935347Y-106751070D01*
X167029567Y-106642336D01*
X167089338Y-106511459D01*
X167092832Y-106499560D01*
X167130609Y-106440784D01*
X167194166Y-106411761D01*
X167211808Y-106410500D01*
X185208217Y-106410500D01*
X185275256Y-106430185D01*
X185295898Y-106446819D01*
X189574419Y-110725340D01*
X189692592Y-110821698D01*
X189872951Y-110915909D01*
X190068582Y-110971886D01*
X190257117Y-110986243D01*
X190271475Y-110987337D01*
X190271476Y-110987337D01*
X190271477Y-110987337D01*
X190379150Y-110973624D01*
X190465968Y-110962567D01*
X190534957Y-110973624D01*
X190587017Y-111020224D01*
X190605618Y-111087572D01*
X190584855Y-111154285D01*
X190555953Y-111184834D01*
X190552454Y-111187453D01*
X190552452Y-111187455D01*
X190466206Y-111302664D01*
X190466203Y-111302669D01*
X190417189Y-111434083D01*
X190375317Y-111490016D01*
X190309853Y-111514433D01*
X190241580Y-111499581D01*
X190213326Y-111478430D01*
X190091402Y-111356506D01*
X190091395Y-111356501D01*
X189897834Y-111220967D01*
X189897830Y-111220965D01*
X189897828Y-111220964D01*
X189683663Y-111121097D01*
X189683659Y-111121096D01*
X189683655Y-111121094D01*
X189455413Y-111059938D01*
X189455403Y-111059936D01*
X189220001Y-111039341D01*
X189219999Y-111039341D01*
X188984596Y-111059936D01*
X188984586Y-111059938D01*
X188756344Y-111121094D01*
X188756335Y-111121098D01*
X188542171Y-111220964D01*
X188542169Y-111220965D01*
X188348597Y-111356505D01*
X188181505Y-111523597D01*
X188051575Y-111709158D01*
X187996998Y-111752783D01*
X187927500Y-111759977D01*
X187865145Y-111728454D01*
X187848425Y-111709158D01*
X187718494Y-111523597D01*
X187551402Y-111356506D01*
X187551395Y-111356501D01*
X187357834Y-111220967D01*
X187357830Y-111220965D01*
X187357828Y-111220964D01*
X187143663Y-111121097D01*
X187143659Y-111121096D01*
X187143655Y-111121094D01*
X186915413Y-111059938D01*
X186915403Y-111059936D01*
X186680001Y-111039341D01*
X186679999Y-111039341D01*
X186444596Y-111059936D01*
X186444586Y-111059938D01*
X186216344Y-111121094D01*
X186216335Y-111121098D01*
X186002171Y-111220964D01*
X186002169Y-111220965D01*
X185808597Y-111356505D01*
X185641508Y-111523594D01*
X185511269Y-111709595D01*
X185456692Y-111753219D01*
X185387193Y-111760412D01*
X185324839Y-111728890D01*
X185308119Y-111709594D01*
X185178113Y-111523926D01*
X185178108Y-111523920D01*
X185011082Y-111356894D01*
X184817578Y-111221399D01*
X184603492Y-111121570D01*
X184603486Y-111121567D01*
X184390000Y-111064364D01*
X184390000Y-111959498D01*
X184282315Y-111910320D01*
X184175763Y-111895000D01*
X184104237Y-111895000D01*
X183997685Y-111910320D01*
X183890000Y-111959498D01*
X183890000Y-111064364D01*
X183889999Y-111064364D01*
X183676513Y-111121567D01*
X183676507Y-111121570D01*
X183462422Y-111221399D01*
X183462420Y-111221400D01*
X183268926Y-111356886D01*
X183268920Y-111356891D01*
X183101891Y-111523920D01*
X183101886Y-111523926D01*
X182966400Y-111717420D01*
X182966399Y-111717422D01*
X182866570Y-111931507D01*
X182866567Y-111931513D01*
X182809364Y-112144999D01*
X182809364Y-112145000D01*
X183706314Y-112145000D01*
X183680507Y-112185156D01*
X183640000Y-112323111D01*
X183640000Y-112466889D01*
X183680507Y-112604844D01*
X183706314Y-112645000D01*
X182809364Y-112645000D01*
X182866567Y-112858486D01*
X182866570Y-112858492D01*
X182966399Y-113072578D01*
X183101894Y-113266082D01*
X183268917Y-113433105D01*
X183462421Y-113568600D01*
X183676507Y-113668429D01*
X183676516Y-113668433D01*
X183890000Y-113725634D01*
X183890000Y-112830501D01*
X183997685Y-112879680D01*
X184104237Y-112895000D01*
X184175763Y-112895000D01*
X184282315Y-112879680D01*
X184390000Y-112830501D01*
X184390000Y-113725633D01*
X184603483Y-113668433D01*
X184603492Y-113668429D01*
X184817578Y-113568600D01*
X185011082Y-113433105D01*
X185178105Y-113266082D01*
X185308119Y-113080405D01*
X185362696Y-113036781D01*
X185432195Y-113029588D01*
X185494549Y-113061110D01*
X185511269Y-113080405D01*
X185641505Y-113266401D01*
X185808599Y-113433495D01*
X185903742Y-113500115D01*
X186002165Y-113569032D01*
X186002167Y-113569033D01*
X186002170Y-113569035D01*
X186216337Y-113668903D01*
X186444592Y-113730063D01*
X186621034Y-113745500D01*
X186679999Y-113750659D01*
X186680000Y-113750659D01*
X186680001Y-113750659D01*
X186738966Y-113745500D01*
X186915408Y-113730063D01*
X187143663Y-113668903D01*
X187357830Y-113569035D01*
X187551401Y-113433495D01*
X187718495Y-113266401D01*
X187848425Y-113080842D01*
X187903002Y-113037217D01*
X187972500Y-113030023D01*
X188034855Y-113061546D01*
X188051575Y-113080842D01*
X188181281Y-113266082D01*
X188181505Y-113266401D01*
X188348599Y-113433495D01*
X188443742Y-113500115D01*
X188542165Y-113569032D01*
X188542167Y-113569033D01*
X188542170Y-113569035D01*
X188756337Y-113668903D01*
X188984592Y-113730063D01*
X189161034Y-113745500D01*
X189219999Y-113750659D01*
X189220000Y-113750659D01*
X189220001Y-113750659D01*
X189278966Y-113745500D01*
X189455408Y-113730063D01*
X189683663Y-113668903D01*
X189897830Y-113569035D01*
X190091401Y-113433495D01*
X190213329Y-113311566D01*
X190274648Y-113278084D01*
X190344340Y-113283068D01*
X190400274Y-113324939D01*
X190417189Y-113355917D01*
X190466202Y-113487328D01*
X190466206Y-113487335D01*
X190552452Y-113602544D01*
X190552455Y-113602547D01*
X190667664Y-113688793D01*
X190667671Y-113688797D01*
X190802517Y-113739091D01*
X190802516Y-113739091D01*
X190809444Y-113739835D01*
X190862127Y-113745500D01*
X192657872Y-113745499D01*
X192717483Y-113739091D01*
X192852331Y-113688796D01*
X192967546Y-113602546D01*
X193053796Y-113487331D01*
X193104091Y-113352483D01*
X193110500Y-113292873D01*
X193110499Y-111497128D01*
X193104091Y-111437517D01*
X193102810Y-111434083D01*
X193053797Y-111302671D01*
X193053793Y-111302664D01*
X192967547Y-111187455D01*
X192967544Y-111187452D01*
X192852335Y-111101206D01*
X192852328Y-111101202D01*
X192717482Y-111050908D01*
X192717483Y-111050908D01*
X192657883Y-111044501D01*
X192657881Y-111044500D01*
X192657873Y-111044500D01*
X192657865Y-111044500D01*
X190868370Y-111044500D01*
X190801331Y-111024815D01*
X190755576Y-110972011D01*
X190745632Y-110902853D01*
X190774657Y-110839297D01*
X190805459Y-110813645D01*
X190841227Y-110792590D01*
X190992213Y-110656179D01*
X191112649Y-110492167D01*
X191197605Y-110307268D01*
X191199981Y-110297032D01*
X191243602Y-110109053D01*
X191245541Y-110032523D01*
X191248756Y-109905636D01*
X191212858Y-109705347D01*
X191137377Y-109516383D01*
X191137372Y-109516376D01*
X191137370Y-109516371D01*
X191025403Y-109346482D01*
X191025400Y-109346478D01*
X190090602Y-108411681D01*
X190057117Y-108350358D01*
X190062101Y-108280667D01*
X190103973Y-108224733D01*
X190169437Y-108200316D01*
X190178283Y-108200000D01*
X195600000Y-108200000D01*
X195600000Y-90200000D01*
X189650000Y-90200000D01*
X189650000Y-107671717D01*
X189630315Y-107738756D01*
X189577511Y-107784511D01*
X189508353Y-107794455D01*
X189444797Y-107765430D01*
X189438319Y-107759398D01*
X186390452Y-104711532D01*
X186329061Y-104646949D01*
X186329060Y-104646948D01*
X186329059Y-104646947D01*
X186301204Y-104627559D01*
X186278709Y-104611902D01*
X186274946Y-104609064D01*
X186227413Y-104570305D01*
X186227406Y-104570300D01*
X186196959Y-104554397D01*
X186190251Y-104550334D01*
X186162049Y-104530705D01*
X186162046Y-104530703D01*
X186162045Y-104530703D01*
X186162041Y-104530701D01*
X186105680Y-104506514D01*
X186101424Y-104504493D01*
X186047057Y-104476094D01*
X186047050Y-104476091D01*
X186047049Y-104476091D01*
X186041008Y-104474362D01*
X186014030Y-104466642D01*
X186006630Y-104464008D01*
X185975057Y-104450459D01*
X185975058Y-104450459D01*
X185914966Y-104438109D01*
X185910391Y-104436986D01*
X185851420Y-104420113D01*
X185851425Y-104420113D01*
X185817158Y-104417503D01*
X185809380Y-104416412D01*
X185775742Y-104409500D01*
X185775741Y-104409500D01*
X185714402Y-104409500D01*
X185709695Y-104409321D01*
X185704121Y-104408896D01*
X185648524Y-104404662D01*
X185628589Y-104407201D01*
X185614440Y-104409003D01*
X185606611Y-104409500D01*
X167253500Y-104409500D01*
X167186461Y-104389815D01*
X167140706Y-104337011D01*
X167129500Y-104285500D01*
X167129500Y-96558477D01*
X167127070Y-96523499D01*
X167126974Y-96522814D01*
X167119904Y-96472162D01*
X167105435Y-96403627D01*
X167046741Y-96272262D01*
X167009451Y-96213177D01*
X167009447Y-96213171D01*
X166916120Y-96103666D01*
X163087688Y-92731000D01*
X166730722Y-92731000D01*
X166749762Y-92887818D01*
X166797816Y-93014523D01*
X166805780Y-93035523D01*
X166895517Y-93165530D01*
X167013760Y-93270283D01*
X167013761Y-93270283D01*
X167013763Y-93270285D01*
X167015723Y-93271638D01*
X167016825Y-93272997D01*
X167019374Y-93275256D01*
X167018998Y-93275679D01*
X167059714Y-93325919D01*
X167067375Y-93395368D01*
X167061227Y-93417660D01*
X167003763Y-93569181D01*
X166984722Y-93725999D01*
X166984722Y-93726000D01*
X167003762Y-93882818D01*
X167045363Y-93992508D01*
X167059780Y-94030523D01*
X167067743Y-94042059D01*
X167151608Y-94163560D01*
X167173491Y-94229915D01*
X167156025Y-94297566D01*
X167151608Y-94304440D01*
X167059781Y-94437475D01*
X167059780Y-94437476D01*
X167003762Y-94585181D01*
X166984722Y-94741999D01*
X166984722Y-94742000D01*
X167003762Y-94898818D01*
X167038896Y-94991457D01*
X167059780Y-95046523D01*
X167149517Y-95176530D01*
X167267760Y-95281283D01*
X167267762Y-95281284D01*
X167407634Y-95354696D01*
X167561014Y-95392500D01*
X167561015Y-95392500D01*
X167718985Y-95392500D01*
X167805799Y-95371103D01*
X167835473Y-95367500D01*
X182289257Y-95367500D01*
X182304877Y-95369224D01*
X182304904Y-95368939D01*
X182312660Y-95369671D01*
X182312667Y-95369673D01*
X182381814Y-95367500D01*
X182411350Y-95367500D01*
X182418228Y-95366630D01*
X182424041Y-95366172D01*
X182470627Y-95364709D01*
X182489869Y-95359117D01*
X182508912Y-95355174D01*
X182528792Y-95352664D01*
X182572122Y-95335507D01*
X182577646Y-95333617D01*
X182581396Y-95332527D01*
X182622390Y-95320618D01*
X182639629Y-95310422D01*
X182657103Y-95301862D01*
X182675727Y-95294488D01*
X182675727Y-95294487D01*
X182675732Y-95294486D01*
X182713449Y-95267082D01*
X182718305Y-95263892D01*
X182758420Y-95240170D01*
X182772589Y-95225999D01*
X182787379Y-95213368D01*
X182803587Y-95201594D01*
X182833285Y-95165693D01*
X182837217Y-95161372D01*
X182886093Y-95112496D01*
X182928216Y-95070373D01*
X182958267Y-95048262D01*
X182998240Y-95027283D01*
X183116483Y-94922530D01*
X183206220Y-94792523D01*
X183262237Y-94644818D01*
X183281278Y-94488000D01*
X183275986Y-94444421D01*
X183287446Y-94375501D01*
X183334349Y-94323714D01*
X183364487Y-94310399D01*
X183384390Y-94304618D01*
X183401629Y-94294422D01*
X183419103Y-94285862D01*
X183437727Y-94278488D01*
X183437727Y-94278487D01*
X183437732Y-94278486D01*
X183475449Y-94251082D01*
X183480305Y-94247892D01*
X183520420Y-94224170D01*
X183534589Y-94209999D01*
X183549379Y-94197368D01*
X183565587Y-94185594D01*
X183595299Y-94149676D01*
X183599212Y-94145376D01*
X184452215Y-93292373D01*
X184482266Y-93270261D01*
X184522240Y-93249283D01*
X184640483Y-93144530D01*
X184730220Y-93014523D01*
X184786237Y-92866818D01*
X184805278Y-92710000D01*
X184786237Y-92553182D01*
X184730220Y-92405477D01*
X184640483Y-92275470D01*
X184522240Y-92170717D01*
X184522238Y-92170716D01*
X184522237Y-92170715D01*
X184382365Y-92097303D01*
X184228986Y-92059500D01*
X184228985Y-92059500D01*
X184071015Y-92059500D01*
X184071014Y-92059500D01*
X183917634Y-92097303D01*
X183777762Y-92170715D01*
X183659516Y-92275471D01*
X183575840Y-92396696D01*
X183561471Y-92413937D01*
X182911228Y-93064181D01*
X182849905Y-93097666D01*
X182823547Y-93100500D01*
X172260223Y-93100500D01*
X172193184Y-93080815D01*
X172147429Y-93028011D01*
X172137485Y-92958853D01*
X172144281Y-92932530D01*
X172161236Y-92887821D01*
X172161236Y-92887820D01*
X172161237Y-92887818D01*
X172180278Y-92731000D01*
X172161237Y-92574182D01*
X172133091Y-92499970D01*
X172127725Y-92430309D01*
X172133090Y-92412034D01*
X172161237Y-92337818D01*
X172180278Y-92181000D01*
X172179030Y-92170717D01*
X172161237Y-92024181D01*
X172139992Y-91968164D01*
X172105220Y-91876477D01*
X172015483Y-91746470D01*
X171897240Y-91641717D01*
X171897238Y-91641716D01*
X171897237Y-91641715D01*
X171757365Y-91568303D01*
X171603986Y-91530500D01*
X171603985Y-91530500D01*
X171446015Y-91530500D01*
X171446014Y-91530500D01*
X171292636Y-91568303D01*
X171247307Y-91592094D01*
X171201196Y-91616295D01*
X171143571Y-91630499D01*
X167767429Y-91630499D01*
X167709803Y-91616295D01*
X167618365Y-91568304D01*
X167618364Y-91568303D01*
X167618363Y-91568303D01*
X167464986Y-91530500D01*
X167464985Y-91530500D01*
X167307015Y-91530500D01*
X167307014Y-91530500D01*
X167153634Y-91568303D01*
X167013762Y-91641715D01*
X166895516Y-91746471D01*
X166805781Y-91876475D01*
X166805780Y-91876476D01*
X166749762Y-92024181D01*
X166730722Y-92180999D01*
X166749762Y-92337814D01*
X166749764Y-92337823D01*
X166777907Y-92412030D01*
X166783274Y-92481693D01*
X166777907Y-92499970D01*
X166749764Y-92574176D01*
X166749762Y-92574185D01*
X166730722Y-92730999D01*
X166730722Y-92731000D01*
X163087688Y-92731000D01*
X160986035Y-90879544D01*
X160948745Y-90820459D01*
X160949317Y-90750592D01*
X160987572Y-90692125D01*
X161051363Y-90663622D01*
X161068004Y-90662500D01*
X165849284Y-90662500D01*
X165938358Y-90664757D01*
X165938358Y-90664756D01*
X165938363Y-90664757D01*
X165998753Y-90653932D01*
X166003412Y-90653280D01*
X166045607Y-90648988D01*
X166064438Y-90647074D01*
X166097227Y-90636786D01*
X166104840Y-90634918D01*
X166138653Y-90628858D01*
X166195621Y-90606101D01*
X166200053Y-90604524D01*
X166258588Y-90586159D01*
X166288627Y-90569484D01*
X166295708Y-90566122D01*
X166327617Y-90553377D01*
X166378854Y-90519608D01*
X166382851Y-90517187D01*
X166436502Y-90487409D01*
X166462568Y-90465030D01*
X166468843Y-90460300D01*
X166497519Y-90441402D01*
X166540923Y-90397995D01*
X166544327Y-90394841D01*
X166590895Y-90354866D01*
X166611928Y-90327691D01*
X166617098Y-90321821D01*
X167256101Y-89682819D01*
X167317424Y-89649334D01*
X167343782Y-89646500D01*
X187439284Y-89646500D01*
X187528358Y-89648757D01*
X187528358Y-89648756D01*
X187528363Y-89648757D01*
X187588753Y-89637932D01*
X187593412Y-89637280D01*
X187635607Y-89632988D01*
X187654438Y-89631074D01*
X187687227Y-89620786D01*
X187694840Y-89618918D01*
X187728653Y-89612858D01*
X187785621Y-89590101D01*
X187790053Y-89588524D01*
X187848588Y-89570159D01*
X187878627Y-89553484D01*
X187885708Y-89550122D01*
X187917617Y-89537377D01*
X187968854Y-89503608D01*
X187972851Y-89501187D01*
X188026502Y-89471409D01*
X188052568Y-89449030D01*
X188058843Y-89444300D01*
X188087519Y-89425402D01*
X188130923Y-89381995D01*
X188134327Y-89378841D01*
X188180895Y-89338866D01*
X188201928Y-89311691D01*
X188207098Y-89305821D01*
X189166468Y-88346451D01*
X189231053Y-88285059D01*
X189266099Y-88234706D01*
X189268938Y-88230941D01*
X189272612Y-88226435D01*
X189307698Y-88183407D01*
X189323601Y-88152960D01*
X189327674Y-88146239D01*
X189332489Y-88139320D01*
X189347295Y-88118049D01*
X189371492Y-88061660D01*
X189373498Y-88057435D01*
X189401909Y-88003049D01*
X189411360Y-87970015D01*
X189413991Y-87962628D01*
X189427540Y-87931058D01*
X189439893Y-87870940D01*
X189441006Y-87866412D01*
X189457887Y-87807418D01*
X189460495Y-87773155D01*
X189461587Y-87765376D01*
X189467109Y-87738510D01*
X189468500Y-87731741D01*
X189468500Y-87670401D01*
X189468679Y-87665692D01*
X189473337Y-87604526D01*
X189468997Y-87570442D01*
X189468500Y-87562603D01*
X189468500Y-86309256D01*
X189453074Y-86157560D01*
X189392162Y-85963420D01*
X189392160Y-85963416D01*
X189392159Y-85963412D01*
X189293409Y-85785498D01*
X189293408Y-85785497D01*
X189293407Y-85785495D01*
X189160867Y-85631106D01*
X189160865Y-85631104D01*
X188999962Y-85506554D01*
X188999959Y-85506553D01*
X188999958Y-85506552D01*
X188817271Y-85416940D01*
X188620285Y-85365937D01*
X188620287Y-85365937D01*
X188484804Y-85359066D01*
X188417064Y-85355631D01*
X188417063Y-85355631D01*
X188417061Y-85355631D01*
X188215936Y-85386442D01*
X188215924Y-85386445D01*
X188025118Y-85457111D01*
X188025111Y-85457115D01*
X187852432Y-85564745D01*
X187852427Y-85564749D01*
X187704949Y-85704938D01*
X187704948Y-85704940D01*
X187588705Y-85871949D01*
X187508459Y-86058943D01*
X187467500Y-86258258D01*
X187467500Y-87164217D01*
X187447815Y-87231256D01*
X187431181Y-87251898D01*
X187073899Y-87609181D01*
X187012576Y-87642666D01*
X186986218Y-87645500D01*
X166890717Y-87645500D01*
X166801637Y-87643243D01*
X166801628Y-87643243D01*
X166748636Y-87652741D01*
X166741254Y-87654064D01*
X166736595Y-87654718D01*
X166675564Y-87660925D01*
X166675562Y-87660926D01*
X166642780Y-87671210D01*
X166635156Y-87673081D01*
X166627308Y-87674488D01*
X166601349Y-87679141D01*
X166544381Y-87701895D01*
X166539945Y-87703474D01*
X166481414Y-87721840D01*
X166481410Y-87721842D01*
X166451378Y-87738510D01*
X166444284Y-87741879D01*
X166412382Y-87754623D01*
X166412377Y-87754625D01*
X166361156Y-87788381D01*
X166357128Y-87790822D01*
X166303501Y-87820588D01*
X166277434Y-87842965D01*
X166271165Y-87847692D01*
X166242481Y-87866597D01*
X166242477Y-87866601D01*
X166199112Y-87909967D01*
X166195656Y-87913169D01*
X166149105Y-87953134D01*
X166128076Y-87980299D01*
X166122885Y-87986192D01*
X165483899Y-88625181D01*
X165422576Y-88658666D01*
X165396218Y-88661500D01*
X158515085Y-88661500D01*
X158448046Y-88641815D01*
X158433117Y-88630545D01*
X157705664Y-87989694D01*
X157668373Y-87930608D01*
X157668945Y-87860741D01*
X157699949Y-87808970D01*
X163192102Y-82316819D01*
X163253425Y-82283334D01*
X163279783Y-82280500D01*
X165595284Y-82280500D01*
X165684358Y-82282757D01*
X165684358Y-82282756D01*
X165684363Y-82282757D01*
X165744753Y-82271932D01*
X165749412Y-82271280D01*
X165791607Y-82266988D01*
X165810438Y-82265074D01*
X165843227Y-82254786D01*
X165850840Y-82252918D01*
X165884653Y-82246858D01*
X165941621Y-82224101D01*
X165946053Y-82222524D01*
X166004588Y-82204159D01*
X166034627Y-82187484D01*
X166041708Y-82184122D01*
X166073617Y-82171377D01*
X166124854Y-82137608D01*
X166128851Y-82135187D01*
X166182502Y-82105409D01*
X166208568Y-82083030D01*
X166214843Y-82078300D01*
X166243519Y-82059402D01*
X166286917Y-82016002D01*
X166290336Y-82012834D01*
X166336895Y-81972866D01*
X166357931Y-81945688D01*
X166363101Y-81939818D01*
X169796102Y-78506819D01*
X169857425Y-78473334D01*
X169883783Y-78470500D01*
X179565284Y-78470500D01*
X179654358Y-78472757D01*
X179654358Y-78472756D01*
X179654363Y-78472757D01*
X179714753Y-78461932D01*
X179719412Y-78461280D01*
X179761607Y-78456988D01*
X179780438Y-78455074D01*
X179813227Y-78444786D01*
X179820840Y-78442918D01*
X179854653Y-78436858D01*
X179911621Y-78414101D01*
X179916053Y-78412524D01*
X179974588Y-78394159D01*
X180004627Y-78377484D01*
X180011708Y-78374122D01*
X180043617Y-78361377D01*
X180094854Y-78327608D01*
X180098851Y-78325187D01*
X180152502Y-78295409D01*
X180178568Y-78273030D01*
X180184843Y-78268300D01*
X180213519Y-78249402D01*
X180256911Y-78206008D01*
X180260328Y-78202841D01*
X180306895Y-78162866D01*
X180327928Y-78135692D01*
X180333107Y-78129812D01*
X180575340Y-77887580D01*
X180671698Y-77769407D01*
X180765909Y-77589049D01*
X180821886Y-77393418D01*
X180837337Y-77190524D01*
X180811630Y-76988672D01*
X180745816Y-76796128D01*
X180734634Y-76777133D01*
X180642593Y-76620778D01*
X180642592Y-76620777D01*
X180642590Y-76620773D01*
X180506179Y-76469787D01*
X180460979Y-76436596D01*
X180342171Y-76349353D01*
X180342164Y-76349349D01*
X180157274Y-76264397D01*
X180157261Y-76264392D01*
X179959053Y-76218397D01*
X179755639Y-76213244D01*
X179755634Y-76213244D01*
X179555352Y-76249140D01*
X179555345Y-76249142D01*
X179366383Y-76324623D01*
X179366371Y-76324629D01*
X179196482Y-76436596D01*
X179191604Y-76440574D01*
X179189987Y-76438591D01*
X179138574Y-76466666D01*
X179112216Y-76469500D01*
X169430717Y-76469500D01*
X169341637Y-76467243D01*
X169341628Y-76467243D01*
X169281260Y-76478064D01*
X169276595Y-76478718D01*
X169215563Y-76484925D01*
X169215555Y-76484927D01*
X169182781Y-76495210D01*
X169175154Y-76497082D01*
X169141350Y-76503141D01*
X169084384Y-76525894D01*
X169079948Y-76527473D01*
X169021414Y-76545840D01*
X169021412Y-76545841D01*
X168991385Y-76562506D01*
X168984293Y-76565874D01*
X168952383Y-76578621D01*
X168901154Y-76612383D01*
X168897126Y-76614824D01*
X168843502Y-76644588D01*
X168843499Y-76644590D01*
X168817427Y-76666970D01*
X168811160Y-76671695D01*
X168782482Y-76690598D01*
X168782475Y-76690603D01*
X168739116Y-76733962D01*
X168735661Y-76737164D01*
X168689106Y-76777132D01*
X168689105Y-76777133D01*
X168668076Y-76804300D01*
X168662884Y-76810194D01*
X165229899Y-80243181D01*
X165168576Y-80276666D01*
X165142218Y-80279500D01*
X162826717Y-80279500D01*
X162737637Y-80277243D01*
X162737628Y-80277243D01*
X162677260Y-80288064D01*
X162672595Y-80288718D01*
X162611563Y-80294925D01*
X162611555Y-80294927D01*
X162578781Y-80305210D01*
X162571154Y-80307082D01*
X162537350Y-80313141D01*
X162480384Y-80335894D01*
X162475948Y-80337473D01*
X162417414Y-80355840D01*
X162417412Y-80355841D01*
X162387385Y-80372506D01*
X162380293Y-80375874D01*
X162348383Y-80388621D01*
X162297154Y-80422383D01*
X162293126Y-80424824D01*
X162239502Y-80454588D01*
X162239499Y-80454590D01*
X162213427Y-80476970D01*
X162207160Y-80481695D01*
X162178482Y-80500598D01*
X162178475Y-80500603D01*
X162135116Y-80543962D01*
X162131661Y-80547164D01*
X162085106Y-80587132D01*
X162085105Y-80587133D01*
X162064076Y-80614300D01*
X162058884Y-80620194D01*
X156087185Y-86591893D01*
X156025862Y-86625378D01*
X155981859Y-86626950D01*
X155909173Y-86616500D01*
X155909170Y-86616500D01*
X152270000Y-86616500D01*
X152269991Y-86616500D01*
X152269990Y-86616501D01*
X152162549Y-86628052D01*
X152162537Y-86628054D01*
X152111027Y-86639260D01*
X152008502Y-86673383D01*
X152008496Y-86673386D01*
X151887462Y-86751171D01*
X151887451Y-86751179D01*
X151834659Y-86796923D01*
X151740433Y-86905664D01*
X151740430Y-86905668D01*
X151680664Y-87036534D01*
X151660978Y-87103575D01*
X151660976Y-87103580D01*
X151640500Y-87246001D01*
X151640500Y-87508500D01*
X151620815Y-87575539D01*
X151568011Y-87621294D01*
X151516500Y-87632500D01*
X149642925Y-87632500D01*
X149630494Y-87632806D01*
X149612097Y-87633712D01*
X149587285Y-87635546D01*
X149587279Y-87635547D01*
X149447572Y-87669917D01*
X149447570Y-87669917D01*
X149447565Y-87669919D01*
X149424741Y-87679142D01*
X149382785Y-87696095D01*
X149258406Y-87768444D01*
X143684653Y-92180999D01*
X143490549Y-92334665D01*
X137147269Y-97356428D01*
X137086422Y-97413356D01*
X137065567Y-97436374D01*
X137059076Y-97443539D01*
X137008433Y-97509651D01*
X136948663Y-97640524D01*
X136928978Y-97707562D01*
X136928976Y-97707567D01*
X136912595Y-97821503D01*
X136908500Y-97849987D01*
X136908500Y-98791380D01*
X136908500Y-99822000D01*
X136908500Y-103631999D01*
X136908500Y-106302000D01*
X117094000Y-106302000D01*
X117094000Y-103254000D01*
X118620500Y-103254000D01*
X118620501Y-103254009D01*
X118632052Y-103361450D01*
X118632054Y-103361462D01*
X118643260Y-103412972D01*
X118677383Y-103515497D01*
X118677386Y-103515503D01*
X118755171Y-103636537D01*
X118755179Y-103636548D01*
X118800923Y-103689340D01*
X118800926Y-103689343D01*
X118800930Y-103689347D01*
X118909664Y-103783567D01*
X118909667Y-103783568D01*
X118909668Y-103783569D01*
X118984943Y-103817947D01*
X119040541Y-103843338D01*
X119085357Y-103856497D01*
X119107575Y-103863022D01*
X119107580Y-103863023D01*
X119107584Y-103863024D01*
X119250000Y-103883500D01*
X119250003Y-103883500D01*
X127471028Y-103883500D01*
X127471029Y-103883500D01*
X127484380Y-103883147D01*
X127494256Y-103882624D01*
X127504134Y-103882102D01*
X127506432Y-103881919D01*
X127530775Y-103879986D01*
X127670235Y-103844596D01*
X127734824Y-103817947D01*
X127858665Y-103744701D01*
X132913126Y-99683080D01*
X132917524Y-99679207D01*
X132930174Y-99668071D01*
X132930172Y-99668072D01*
X132930191Y-99668055D01*
X132954417Y-99644711D01*
X132954423Y-99644703D01*
X132954434Y-99644694D01*
X132985692Y-99611738D01*
X132985691Y-99611738D01*
X132985695Y-99611735D01*
X133063482Y-99490695D01*
X133092507Y-99427139D01*
X133092509Y-99427136D01*
X133133043Y-99289083D01*
X133133042Y-99145203D01*
X133123098Y-99076045D01*
X133082563Y-98937996D01*
X133082561Y-98937993D01*
X133082561Y-98937992D01*
X133038790Y-98869885D01*
X133019105Y-98802846D01*
X133038789Y-98735806D01*
X133055419Y-98715169D01*
X133096710Y-98673878D01*
X133158031Y-98640395D01*
X133227723Y-98645379D01*
X133269010Y-98670923D01*
X133296305Y-98696406D01*
X133313327Y-98712298D01*
X133431398Y-98794519D01*
X133567852Y-98840146D01*
X133627928Y-98851071D01*
X133627986Y-98851086D01*
X133636592Y-98852647D01*
X133636594Y-98852647D01*
X133636597Y-98852648D01*
X133780378Y-98857982D01*
X133780378Y-98857981D01*
X133780379Y-98857982D01*
X133919834Y-98822593D01*
X133919833Y-98822593D01*
X133919838Y-98822592D01*
X133984427Y-98795943D01*
X134108268Y-98722697D01*
X135454972Y-97640524D01*
X136845899Y-96522816D01*
X136855128Y-96514766D01*
X136861218Y-96509457D01*
X136888599Y-96483571D01*
X136894743Y-96478471D01*
X136954674Y-96434929D01*
X136966826Y-96425642D01*
X138130668Y-95490411D01*
X138145986Y-95477055D01*
X138147403Y-95475714D01*
X138153536Y-95470613D01*
X138165797Y-95461706D01*
X138168869Y-95459357D01*
X138177944Y-95452423D01*
X139354611Y-94506885D01*
X139356202Y-94505597D01*
X139358005Y-94504130D01*
X139358004Y-94504130D01*
X139358010Y-94504126D01*
X139455299Y-94398124D01*
X139493451Y-94342329D01*
X139494093Y-94341461D01*
X139494737Y-94340449D01*
X139494741Y-94340444D01*
X139558223Y-94211326D01*
X139587134Y-94122343D01*
X139597672Y-94098673D01*
X139626163Y-94049326D01*
X139641391Y-94028367D01*
X139679519Y-93986020D01*
X139698771Y-93968685D01*
X139744877Y-93935187D01*
X139767312Y-93922236D01*
X139819357Y-93899063D01*
X139843999Y-93891056D01*
X139899743Y-93879208D01*
X139925514Y-93876500D01*
X139924185Y-93876500D01*
X139937536Y-93876147D01*
X139947412Y-93875624D01*
X139957290Y-93875102D01*
X139959588Y-93874919D01*
X139983931Y-93872986D01*
X140123391Y-93837596D01*
X140187980Y-93810947D01*
X140311821Y-93737701D01*
X142002314Y-92379269D01*
X142061509Y-92323276D01*
X142088151Y-92293656D01*
X142137567Y-92228904D01*
X142197338Y-92098027D01*
X142217023Y-92030988D01*
X142217024Y-92030984D01*
X142237500Y-91888568D01*
X142237500Y-90294000D01*
X142237500Y-90291500D01*
X142257185Y-90224461D01*
X142309989Y-90178706D01*
X142361500Y-90167500D01*
X144655990Y-90167500D01*
X144656000Y-90167500D01*
X144763456Y-90155947D01*
X144814967Y-90144741D01*
X144849197Y-90133347D01*
X144917497Y-90110616D01*
X144917501Y-90110613D01*
X144917504Y-90110613D01*
X145038543Y-90032825D01*
X145091347Y-89987070D01*
X145185567Y-89878336D01*
X145245338Y-89747459D01*
X145265023Y-89680420D01*
X145265024Y-89680416D01*
X145285500Y-89538000D01*
X145285500Y-81150000D01*
X145273947Y-81042544D01*
X145262741Y-80991033D01*
X145251274Y-80956581D01*
X145228616Y-80888502D01*
X145228613Y-80888496D01*
X145225371Y-80883452D01*
X145150825Y-80767457D01*
X145126999Y-80739960D01*
X145105076Y-80714659D01*
X145105072Y-80714656D01*
X145105070Y-80714653D01*
X144996336Y-80620433D01*
X144996333Y-80620431D01*
X144996331Y-80620430D01*
X144865465Y-80560664D01*
X144865460Y-80560662D01*
X144865459Y-80560662D01*
X144842858Y-80554025D01*
X144798425Y-80540978D01*
X144798419Y-80540976D01*
X144712966Y-80528690D01*
X144656000Y-80520500D01*
X135619000Y-80520500D01*
X135551961Y-80500815D01*
X135506206Y-80448011D01*
X135495000Y-80396500D01*
X135495000Y-80190000D01*
X134795000Y-80190000D01*
X134795000Y-79690000D01*
X135495000Y-79690000D01*
X135495000Y-79339286D01*
X135479581Y-79187661D01*
X135418700Y-78993618D01*
X135418695Y-78993608D01*
X135319994Y-78815784D01*
X135319994Y-78815783D01*
X135187521Y-78661469D01*
X135187520Y-78661468D01*
X135026695Y-78536981D01*
X134844093Y-78447411D01*
X134745000Y-78421753D01*
X134745000Y-79223889D01*
X134720543Y-79184390D01*
X134631038Y-79116799D01*
X134523160Y-79086105D01*
X134411479Y-79096454D01*
X134311078Y-79146448D01*
X134245000Y-79218930D01*
X134245000Y-78416633D01*
X134243053Y-78416931D01*
X134243047Y-78416933D01*
X134052342Y-78487562D01*
X134052335Y-78487565D01*
X133879732Y-78595149D01*
X133732331Y-78735264D01*
X133732330Y-78735266D01*
X133616143Y-78902196D01*
X133603076Y-78932645D01*
X133558548Y-78986488D01*
X133491980Y-79007710D01*
X133424505Y-78989574D01*
X133413640Y-78982119D01*
X133355233Y-78937302D01*
X133355230Y-78937300D01*
X133264731Y-78899814D01*
X133215236Y-78879313D01*
X133201171Y-78877461D01*
X133102727Y-78864500D01*
X133102720Y-78864500D01*
X133027280Y-78864500D01*
X133027272Y-78864500D01*
X132914764Y-78879313D01*
X132914763Y-78879313D01*
X132774770Y-78937300D01*
X132774767Y-78937301D01*
X132774767Y-78937302D01*
X132654549Y-79029549D01*
X132587600Y-79116799D01*
X132562300Y-79149770D01*
X132504313Y-79289763D01*
X132504312Y-79289765D01*
X132484534Y-79439999D01*
X132484534Y-79440000D01*
X132504312Y-79590234D01*
X132504313Y-79590236D01*
X132562302Y-79730233D01*
X132654549Y-79850451D01*
X132774767Y-79942698D01*
X132914764Y-80000687D01*
X133027280Y-80015500D01*
X133027287Y-80015500D01*
X133102713Y-80015500D01*
X133102720Y-80015500D01*
X133215236Y-80000687D01*
X133323547Y-79955823D01*
X133393017Y-79948354D01*
X133455496Y-79979629D01*
X133491148Y-80039718D01*
X133495000Y-80070384D01*
X133495000Y-80396500D01*
X133475315Y-80463539D01*
X133422511Y-80509294D01*
X133371000Y-80520500D01*
X127124000Y-80520500D01*
X127123991Y-80520500D01*
X127123990Y-80520501D01*
X127016549Y-80532052D01*
X127016532Y-80532055D01*
X127005358Y-80534486D01*
X126935666Y-80529502D01*
X126879733Y-80487630D01*
X126855316Y-80422166D01*
X126855000Y-80413320D01*
X126855000Y-80070384D01*
X126874685Y-80003345D01*
X126927489Y-79957590D01*
X126996647Y-79947646D01*
X127026454Y-79955823D01*
X127134764Y-80000687D01*
X127247280Y-80015500D01*
X127247287Y-80015500D01*
X127322713Y-80015500D01*
X127322720Y-80015500D01*
X127435236Y-80000687D01*
X127575233Y-79942698D01*
X127695451Y-79850451D01*
X127787698Y-79730233D01*
X127845687Y-79590236D01*
X127865466Y-79440000D01*
X127845687Y-79289764D01*
X127787698Y-79149767D01*
X127695451Y-79029549D01*
X127575233Y-78937302D01*
X127575229Y-78937300D01*
X127490480Y-78902196D01*
X127435236Y-78879313D01*
X127421171Y-78877461D01*
X127322727Y-78864500D01*
X127322720Y-78864500D01*
X127247280Y-78864500D01*
X127247272Y-78864500D01*
X127134764Y-78879313D01*
X127134763Y-78879313D01*
X126994769Y-78937300D01*
X126994766Y-78937302D01*
X126935421Y-78982839D01*
X126870251Y-79008033D01*
X126801807Y-78993994D01*
X126751817Y-78945180D01*
X126751516Y-78944640D01*
X126679997Y-78815788D01*
X126679994Y-78815783D01*
X126547521Y-78661469D01*
X126547520Y-78661468D01*
X126386695Y-78536981D01*
X126204093Y-78447411D01*
X126105000Y-78421753D01*
X126105000Y-79223889D01*
X126080543Y-79184390D01*
X125991038Y-79116799D01*
X125883160Y-79086105D01*
X125771479Y-79096454D01*
X125671078Y-79146448D01*
X125605000Y-79218930D01*
X125605000Y-78416633D01*
X125603053Y-78416931D01*
X125603047Y-78416933D01*
X125412342Y-78487562D01*
X125412335Y-78487565D01*
X125239732Y-78595149D01*
X125092331Y-78735264D01*
X125092330Y-78735266D01*
X124976143Y-78902195D01*
X124895940Y-79089092D01*
X124855000Y-79288309D01*
X124855000Y-79690000D01*
X125555000Y-79690000D01*
X125555000Y-80190000D01*
X124855000Y-80190000D01*
X124855000Y-80540713D01*
X124870418Y-80692338D01*
X124931299Y-80886381D01*
X124931304Y-80886391D01*
X125030005Y-81064215D01*
X125030005Y-81064216D01*
X125162478Y-81218530D01*
X125162479Y-81218531D01*
X125323304Y-81343018D01*
X125505907Y-81432589D01*
X125605000Y-81458244D01*
X125605000Y-80656110D01*
X125629457Y-80695610D01*
X125718962Y-80763201D01*
X125826840Y-80793895D01*
X125938521Y-80783546D01*
X126038922Y-80733552D01*
X126105000Y-80661069D01*
X126105000Y-81463366D01*
X126106944Y-81463069D01*
X126106945Y-81463069D01*
X126297660Y-81392436D01*
X126304903Y-81387922D01*
X126372208Y-81369163D01*
X126438970Y-81389769D01*
X126483993Y-81443198D01*
X126494500Y-81493151D01*
X126494500Y-94620500D01*
X126474815Y-94687539D01*
X126422011Y-94733294D01*
X126370500Y-94744500D01*
X125361000Y-94744500D01*
X125293961Y-94724815D01*
X125248206Y-94672011D01*
X125237000Y-94620500D01*
X125237000Y-94500000D01*
X124141560Y-94500000D01*
X124180278Y-94457941D01*
X124230551Y-94343330D01*
X124240886Y-94218605D01*
X124210163Y-94097281D01*
X124146606Y-94000000D01*
X125236999Y-94000000D01*
X125236999Y-93850028D01*
X125236998Y-93850013D01*
X125226505Y-93747302D01*
X125171358Y-93580880D01*
X125171356Y-93580875D01*
X125079315Y-93431654D01*
X124955345Y-93307684D01*
X124806124Y-93215643D01*
X124806119Y-93215641D01*
X124639697Y-93160494D01*
X124639690Y-93160493D01*
X124536986Y-93150000D01*
X124112000Y-93150000D01*
X124112000Y-93969382D01*
X124042948Y-93915637D01*
X123924576Y-93875000D01*
X123830927Y-93875000D01*
X123738554Y-93890414D01*
X123628486Y-93949981D01*
X123612000Y-93967889D01*
X123612000Y-93150000D01*
X123187028Y-93150000D01*
X123187012Y-93150001D01*
X123084302Y-93160494D01*
X122917880Y-93215641D01*
X122917875Y-93215643D01*
X122768654Y-93307684D01*
X122644684Y-93431654D01*
X122552643Y-93580875D01*
X122552641Y-93580880D01*
X122497494Y-93747302D01*
X122497493Y-93747309D01*
X122487000Y-93850013D01*
X122487000Y-94000000D01*
X123582440Y-94000000D01*
X123543722Y-94042059D01*
X123493449Y-94156670D01*
X123483114Y-94281395D01*
X123513837Y-94402719D01*
X123577394Y-94500000D01*
X122487001Y-94500000D01*
X122487001Y-94620500D01*
X122467316Y-94687539D01*
X122414512Y-94733294D01*
X122363001Y-94744500D01*
X119250000Y-94744500D01*
X119249991Y-94744500D01*
X119249990Y-94744501D01*
X119142549Y-94756052D01*
X119142537Y-94756054D01*
X119091027Y-94767260D01*
X118988502Y-94801383D01*
X118988496Y-94801386D01*
X118867462Y-94879171D01*
X118867451Y-94879179D01*
X118814659Y-94924923D01*
X118720433Y-95033664D01*
X118720430Y-95033668D01*
X118660664Y-95164534D01*
X118640978Y-95231575D01*
X118640976Y-95231580D01*
X118630355Y-95305453D01*
X118620500Y-95374000D01*
X118620500Y-99059998D01*
X118620500Y-103254000D01*
X117094000Y-103254000D01*
X117094000Y-76210713D01*
X124855000Y-76210713D01*
X124870418Y-76362338D01*
X124931299Y-76556381D01*
X124931304Y-76556391D01*
X125030005Y-76734215D01*
X125030005Y-76734216D01*
X125162478Y-76888530D01*
X125162479Y-76888531D01*
X125323304Y-77013018D01*
X125505907Y-77102589D01*
X125605000Y-77128244D01*
X125605000Y-76326110D01*
X125629457Y-76365610D01*
X125718962Y-76433201D01*
X125826840Y-76463895D01*
X125938521Y-76453546D01*
X126038922Y-76403552D01*
X126105000Y-76331069D01*
X126105000Y-77133366D01*
X126106944Y-77133069D01*
X126106945Y-77133069D01*
X126297660Y-77062436D01*
X126297664Y-77062434D01*
X126470267Y-76954850D01*
X126617668Y-76814735D01*
X126617669Y-76814733D01*
X126733856Y-76647804D01*
X126814059Y-76460907D01*
X126855000Y-76261690D01*
X126855000Y-76210713D01*
X133495000Y-76210713D01*
X133510418Y-76362338D01*
X133571299Y-76556381D01*
X133571304Y-76556391D01*
X133670005Y-76734215D01*
X133670005Y-76734216D01*
X133802478Y-76888530D01*
X133802479Y-76888531D01*
X133963304Y-77013018D01*
X134145907Y-77102589D01*
X134245000Y-77128244D01*
X134245000Y-76326110D01*
X134269457Y-76365610D01*
X134358962Y-76433201D01*
X134466840Y-76463895D01*
X134578521Y-76453546D01*
X134678922Y-76403552D01*
X134745000Y-76331069D01*
X134745000Y-77133366D01*
X134746944Y-77133069D01*
X134746945Y-77133069D01*
X134937660Y-77062436D01*
X134937664Y-77062434D01*
X135110267Y-76954850D01*
X135257668Y-76814735D01*
X135257669Y-76814733D01*
X135373856Y-76647804D01*
X135454059Y-76460907D01*
X135495000Y-76261690D01*
X135495000Y-76010000D01*
X134795000Y-76010000D01*
X134795000Y-75833685D01*
X151430740Y-75833685D01*
X151440755Y-76018406D01*
X151440755Y-76018411D01*
X151490244Y-76196656D01*
X151490247Y-76196662D01*
X151576898Y-76360102D01*
X151693250Y-76497082D01*
X151696663Y-76501100D01*
X151843936Y-76613054D01*
X152011833Y-76690732D01*
X152011834Y-76690732D01*
X152011836Y-76690733D01*
X152066648Y-76702797D01*
X152192503Y-76730500D01*
X152192506Y-76730500D01*
X152331107Y-76730500D01*
X152331113Y-76730500D01*
X152468910Y-76715514D01*
X152644221Y-76656444D01*
X152802736Y-76561070D01*
X152937041Y-76433849D01*
X153040858Y-76280730D01*
X153047367Y-76264395D01*
X153109330Y-76108877D01*
X153109329Y-76108877D01*
X153109331Y-76108875D01*
X153139260Y-75926317D01*
X153134238Y-75833685D01*
X154430740Y-75833685D01*
X154440755Y-76018406D01*
X154440755Y-76018411D01*
X154490244Y-76196656D01*
X154490247Y-76196662D01*
X154576898Y-76360102D01*
X154693250Y-76497082D01*
X154696663Y-76501100D01*
X154843936Y-76613054D01*
X155011833Y-76690732D01*
X155011834Y-76690732D01*
X155011836Y-76690733D01*
X155066648Y-76702797D01*
X155192503Y-76730500D01*
X155192506Y-76730500D01*
X155331107Y-76730500D01*
X155331113Y-76730500D01*
X155468910Y-76715514D01*
X155644221Y-76656444D01*
X155802736Y-76561070D01*
X155937041Y-76433849D01*
X156040858Y-76280730D01*
X156047367Y-76264395D01*
X156109330Y-76108877D01*
X156109329Y-76108877D01*
X156109331Y-76108875D01*
X156139260Y-75926317D01*
X156129245Y-75741593D01*
X156079754Y-75563341D01*
X155993100Y-75399896D01*
X155930460Y-75326151D01*
X155873337Y-75258900D01*
X155794449Y-75198931D01*
X155726064Y-75146946D01*
X155558167Y-75069268D01*
X155558163Y-75069266D01*
X155377497Y-75029500D01*
X155238887Y-75029500D01*
X155238883Y-75029500D01*
X155101088Y-75044486D01*
X154925776Y-75103557D01*
X154925774Y-75103558D01*
X154767262Y-75198931D01*
X154767261Y-75198932D01*
X154632959Y-75326149D01*
X154529138Y-75479276D01*
X154460669Y-75651122D01*
X154430740Y-75833685D01*
X153134238Y-75833685D01*
X153129245Y-75741593D01*
X153079754Y-75563341D01*
X152993100Y-75399896D01*
X152930460Y-75326151D01*
X152873337Y-75258900D01*
X152794449Y-75198931D01*
X152726064Y-75146946D01*
X152558167Y-75069268D01*
X152558163Y-75069266D01*
X152377497Y-75029500D01*
X152238887Y-75029500D01*
X152238883Y-75029500D01*
X152101088Y-75044486D01*
X151925776Y-75103557D01*
X151925774Y-75103558D01*
X151767262Y-75198931D01*
X151767261Y-75198932D01*
X151632959Y-75326149D01*
X151529138Y-75479276D01*
X151460669Y-75651122D01*
X151430740Y-75833685D01*
X134795000Y-75833685D01*
X134795000Y-75510000D01*
X135495000Y-75510000D01*
X135495000Y-75309286D01*
X135479581Y-75157661D01*
X135418700Y-74963618D01*
X135418695Y-74963608D01*
X135319994Y-74785784D01*
X135319994Y-74785783D01*
X135187521Y-74631469D01*
X135187520Y-74631468D01*
X135026695Y-74506981D01*
X134844093Y-74417411D01*
X134745000Y-74391753D01*
X134745000Y-75193889D01*
X134720543Y-75154390D01*
X134631038Y-75086799D01*
X134523160Y-75056105D01*
X134411479Y-75066454D01*
X134311078Y-75116448D01*
X134245000Y-75188930D01*
X134245000Y-74386633D01*
X134243053Y-74386931D01*
X134243047Y-74386933D01*
X134052342Y-74457562D01*
X134052335Y-74457565D01*
X133879732Y-74565149D01*
X133732331Y-74705264D01*
X133732330Y-74705266D01*
X133616143Y-74872195D01*
X133535940Y-75059092D01*
X133495000Y-75258309D01*
X133495000Y-75510000D01*
X134195000Y-75510000D01*
X134195000Y-76010000D01*
X133495000Y-76010000D01*
X133495000Y-76210713D01*
X126855000Y-76210713D01*
X126855000Y-76010000D01*
X126155000Y-76010000D01*
X126155000Y-75510000D01*
X126855000Y-75510000D01*
X126855000Y-75309286D01*
X126839581Y-75157661D01*
X126778700Y-74963618D01*
X126778695Y-74963608D01*
X126679994Y-74785784D01*
X126679994Y-74785783D01*
X126547521Y-74631469D01*
X126547520Y-74631468D01*
X126386695Y-74506981D01*
X126204093Y-74417411D01*
X126105000Y-74391753D01*
X126105000Y-75193889D01*
X126080543Y-75154390D01*
X125991038Y-75086799D01*
X125883160Y-75056105D01*
X125771479Y-75066454D01*
X125671078Y-75116448D01*
X125605000Y-75188930D01*
X125605000Y-74386633D01*
X125603053Y-74386931D01*
X125603047Y-74386933D01*
X125412342Y-74457562D01*
X125412335Y-74457565D01*
X125239732Y-74565149D01*
X125092331Y-74705264D01*
X125092330Y-74705266D01*
X124976143Y-74872195D01*
X124895940Y-75059092D01*
X124855000Y-75258309D01*
X124855000Y-75510000D01*
X125555000Y-75510000D01*
X125555000Y-76010000D01*
X124855000Y-76010000D01*
X124855000Y-76210713D01*
X117094000Y-76210713D01*
X117094000Y-73276000D01*
X117113685Y-73208961D01*
X117166489Y-73163206D01*
X117218000Y-73152000D01*
X196472000Y-73152000D01*
X196539039Y-73171685D01*
G37*
%TD.AperFunction*%
%TD*%
%TA.AperFunction,Conductor*%
%TO.N,3.3V*%
G36*
X155976209Y-87141685D02*
G01*
X155991138Y-87152955D01*
X166581969Y-96482972D01*
X166619259Y-96542057D01*
X166624000Y-96576016D01*
X166624000Y-106302000D01*
X166604315Y-106369039D01*
X166551511Y-106414794D01*
X166500000Y-106426000D01*
X137538000Y-106426000D01*
X137470961Y-106406315D01*
X137425206Y-106353511D01*
X137414000Y-106302000D01*
X137414000Y-103632000D01*
X151998722Y-103632000D01*
X152017762Y-103788818D01*
X152073780Y-103936523D01*
X152163517Y-104066530D01*
X152281760Y-104171283D01*
X152281762Y-104171284D01*
X152421634Y-104244696D01*
X152575014Y-104282500D01*
X152575015Y-104282500D01*
X152732985Y-104282500D01*
X152819799Y-104261103D01*
X152849473Y-104257500D01*
X160332527Y-104257500D01*
X160362201Y-104261103D01*
X160449014Y-104282500D01*
X160449015Y-104282500D01*
X160606985Y-104282500D01*
X160760365Y-104244696D01*
X160900240Y-104171283D01*
X161018483Y-104066530D01*
X161108220Y-103936523D01*
X161164237Y-103788818D01*
X161183278Y-103632000D01*
X161164237Y-103475182D01*
X161108220Y-103327477D01*
X161108218Y-103327475D01*
X161108218Y-103327473D01*
X161104056Y-103321444D01*
X161082170Y-103255091D01*
X161099633Y-103187438D01*
X161104056Y-103180556D01*
X161108218Y-103174526D01*
X161108218Y-103174525D01*
X161108220Y-103174523D01*
X161164237Y-103026818D01*
X161183278Y-102870000D01*
X161164237Y-102713182D01*
X161108220Y-102565477D01*
X161018483Y-102435470D01*
X160900240Y-102330717D01*
X160900238Y-102330716D01*
X160900237Y-102330715D01*
X160760365Y-102257303D01*
X160606986Y-102219500D01*
X160606985Y-102219500D01*
X160449015Y-102219500D01*
X160449014Y-102219500D01*
X160362201Y-102240897D01*
X160332527Y-102244500D01*
X154881473Y-102244500D01*
X154851799Y-102240897D01*
X154764986Y-102219500D01*
X154764985Y-102219500D01*
X154607015Y-102219500D01*
X154607014Y-102219500D01*
X154453634Y-102257303D01*
X154313762Y-102330715D01*
X154195516Y-102435471D01*
X154105781Y-102565475D01*
X154105780Y-102565476D01*
X154049763Y-102713181D01*
X154030722Y-102870000D01*
X154030722Y-102877501D01*
X154028771Y-102877501D01*
X154018965Y-102936477D01*
X153972061Y-102988263D01*
X153907329Y-103006500D01*
X152849473Y-103006500D01*
X152819799Y-103002897D01*
X152732986Y-102981500D01*
X152732985Y-102981500D01*
X152575015Y-102981500D01*
X152575014Y-102981500D01*
X152421634Y-103019303D01*
X152281762Y-103092715D01*
X152163516Y-103197471D01*
X152073781Y-103327475D01*
X152073780Y-103327476D01*
X152017762Y-103475181D01*
X151998722Y-103631999D01*
X151998722Y-103632000D01*
X137414000Y-103632000D01*
X137414000Y-101092000D01*
X152252722Y-101092000D01*
X152271762Y-101248818D01*
X152317019Y-101368148D01*
X152327780Y-101396523D01*
X152417517Y-101526530D01*
X152535760Y-101631283D01*
X152535762Y-101631284D01*
X152675634Y-101704696D01*
X152829014Y-101742500D01*
X152829015Y-101742500D01*
X152986985Y-101742500D01*
X153140365Y-101704696D01*
X153280240Y-101631283D01*
X153398483Y-101526530D01*
X153488220Y-101396523D01*
X153544237Y-101248818D01*
X153563278Y-101092000D01*
X153544237Y-100935182D01*
X153541558Y-100928117D01*
X153533500Y-100884147D01*
X153533500Y-100029853D01*
X153541559Y-99985880D01*
X153542384Y-99983702D01*
X153544237Y-99978818D01*
X153563278Y-99822000D01*
X153560589Y-99799849D01*
X153544237Y-99665181D01*
X153519245Y-99599283D01*
X153488220Y-99517477D01*
X153398483Y-99387470D01*
X153280240Y-99282717D01*
X153280238Y-99282716D01*
X153280237Y-99282715D01*
X153140365Y-99209303D01*
X152986986Y-99171500D01*
X152986985Y-99171500D01*
X152829015Y-99171500D01*
X152829014Y-99171500D01*
X152675634Y-99209303D01*
X152535762Y-99282715D01*
X152417516Y-99387471D01*
X152327781Y-99517475D01*
X152327780Y-99517476D01*
X152271762Y-99665181D01*
X152252722Y-99821999D01*
X152252722Y-99822000D01*
X152271763Y-99978819D01*
X152274441Y-99985880D01*
X152282500Y-100029853D01*
X152282500Y-100884147D01*
X152274442Y-100928117D01*
X152271764Y-100935176D01*
X152271762Y-100935185D01*
X152252722Y-101091999D01*
X152252722Y-101092000D01*
X137414000Y-101092000D01*
X137414000Y-98791382D01*
X155558540Y-98791382D01*
X155578326Y-98979638D01*
X155578327Y-98979641D01*
X155636818Y-99159659D01*
X155636821Y-99159666D01*
X155731467Y-99323598D01*
X155768317Y-99364524D01*
X155806650Y-99407097D01*
X155836880Y-99470088D01*
X155838500Y-99490069D01*
X155838500Y-99993255D01*
X155836775Y-100008872D01*
X155837061Y-100008899D01*
X155836326Y-100016665D01*
X155838500Y-100085814D01*
X155838500Y-100115343D01*
X155838501Y-100115360D01*
X155839368Y-100122231D01*
X155839826Y-100128050D01*
X155841290Y-100174624D01*
X155841291Y-100174627D01*
X155846880Y-100193867D01*
X155850824Y-100212911D01*
X155851179Y-100215715D01*
X155853336Y-100232791D01*
X155870490Y-100276119D01*
X155872382Y-100281647D01*
X155885381Y-100326388D01*
X155895580Y-100343634D01*
X155904138Y-100361103D01*
X155911514Y-100379732D01*
X155938898Y-100417423D01*
X155942106Y-100422307D01*
X155965827Y-100462416D01*
X155965833Y-100462424D01*
X155979990Y-100476580D01*
X155992627Y-100491375D01*
X156004406Y-100507587D01*
X156017383Y-100518322D01*
X156024670Y-100524351D01*
X156063777Y-100582251D01*
X156068950Y-100606932D01*
X156086326Y-100772256D01*
X156086327Y-100772259D01*
X156144818Y-100952277D01*
X156144821Y-100952284D01*
X156239467Y-101116216D01*
X156358863Y-101248818D01*
X156366129Y-101256888D01*
X156519265Y-101368148D01*
X156519270Y-101368151D01*
X156692192Y-101445142D01*
X156692197Y-101445144D01*
X156877354Y-101484500D01*
X156877355Y-101484500D01*
X157066644Y-101484500D01*
X157066646Y-101484500D01*
X157251803Y-101445144D01*
X157424730Y-101368151D01*
X157577871Y-101256888D01*
X157704533Y-101116216D01*
X157799179Y-100952284D01*
X157857674Y-100772256D01*
X157877460Y-100584000D01*
X157857674Y-100395744D01*
X157799179Y-100215716D01*
X157704533Y-100051784D01*
X157577871Y-99911112D01*
X157577870Y-99911111D01*
X157424734Y-99799851D01*
X157424729Y-99799848D01*
X157251807Y-99722857D01*
X157251803Y-99722856D01*
X157187718Y-99709234D01*
X157126237Y-99676041D01*
X157092461Y-99614878D01*
X157089500Y-99587944D01*
X157089500Y-99490069D01*
X157109185Y-99423030D01*
X157121350Y-99407097D01*
X157143164Y-99382870D01*
X157196533Y-99323598D01*
X157291179Y-99159666D01*
X157323563Y-99060000D01*
X159872722Y-99060000D01*
X159891762Y-99216818D01*
X159916754Y-99282715D01*
X159947780Y-99364523D01*
X160037517Y-99494530D01*
X160155760Y-99599283D01*
X160295635Y-99672696D01*
X160325505Y-99680058D01*
X160385883Y-99715211D01*
X160411771Y-99756482D01*
X160455780Y-99872523D01*
X160545517Y-100002530D01*
X160663760Y-100107283D01*
X160663762Y-100107284D01*
X160803634Y-100180696D01*
X160957014Y-100218500D01*
X160957015Y-100218500D01*
X161114985Y-100218500D01*
X161268365Y-100180696D01*
X161368672Y-100128050D01*
X161408240Y-100107283D01*
X161526483Y-100002530D01*
X161616220Y-99872523D01*
X161672237Y-99724818D01*
X161691278Y-99568000D01*
X161672237Y-99411182D01*
X161669558Y-99404117D01*
X161661500Y-99360147D01*
X161661500Y-95867273D01*
X161663224Y-95851653D01*
X161662939Y-95851627D01*
X161663671Y-95843871D01*
X161663673Y-95843864D01*
X161662047Y-95792129D01*
X161662890Y-95773287D01*
X161664747Y-95758000D01*
X161659991Y-95718834D01*
X161659571Y-95713329D01*
X161658710Y-95685904D01*
X161656847Y-95679495D01*
X161652829Y-95659848D01*
X161645706Y-95601181D01*
X161622224Y-95539264D01*
X161589689Y-95453477D01*
X161499952Y-95323470D01*
X161381709Y-95218717D01*
X161381707Y-95218716D01*
X161381706Y-95218715D01*
X161241836Y-95145304D01*
X161241229Y-95145155D01*
X161240830Y-95144922D01*
X161234819Y-95142643D01*
X161235198Y-95141643D01*
X161180849Y-95109998D01*
X161154963Y-95068729D01*
X161146542Y-95046524D01*
X161108220Y-94945477D01*
X161018483Y-94815470D01*
X160900240Y-94710717D01*
X160900238Y-94710716D01*
X160900237Y-94710715D01*
X160760365Y-94637303D01*
X160606986Y-94599500D01*
X160606985Y-94599500D01*
X160449015Y-94599500D01*
X160449014Y-94599500D01*
X160295634Y-94637303D01*
X160155762Y-94710715D01*
X160037516Y-94815471D01*
X159947781Y-94945475D01*
X159947780Y-94945476D01*
X159891762Y-95093181D01*
X159872722Y-95249999D01*
X159872722Y-95250000D01*
X159891763Y-95406819D01*
X159894441Y-95413880D01*
X159902500Y-95457853D01*
X159902500Y-98852147D01*
X159894442Y-98896117D01*
X159891764Y-98903176D01*
X159891762Y-98903185D01*
X159872722Y-99059999D01*
X159872722Y-99060000D01*
X157323563Y-99060000D01*
X157349674Y-98979638D01*
X157369460Y-98791382D01*
X157349674Y-98603126D01*
X157291179Y-98423098D01*
X157196533Y-98259166D01*
X157069871Y-98118494D01*
X157069870Y-98118493D01*
X156916734Y-98007233D01*
X156916729Y-98007230D01*
X156743807Y-97930239D01*
X156743802Y-97930237D01*
X156598001Y-97899247D01*
X156558646Y-97890882D01*
X156369354Y-97890882D01*
X156336897Y-97897780D01*
X156184197Y-97930237D01*
X156184192Y-97930239D01*
X156011270Y-98007230D01*
X156011265Y-98007233D01*
X155858129Y-98118493D01*
X155731466Y-98259167D01*
X155636821Y-98423097D01*
X155636818Y-98423104D01*
X155578327Y-98603122D01*
X155578326Y-98603126D01*
X155558540Y-98791382D01*
X137414000Y-98791382D01*
X137414000Y-97849987D01*
X137433685Y-97782948D01*
X137461031Y-97752766D01*
X143804314Y-92731000D01*
X147172722Y-92731000D01*
X147191762Y-92887818D01*
X147228818Y-92985524D01*
X147247780Y-93035523D01*
X147337517Y-93165530D01*
X147455760Y-93270283D01*
X147455762Y-93270284D01*
X147595634Y-93343696D01*
X147633164Y-93352946D01*
X147693546Y-93388101D01*
X147725335Y-93450320D01*
X147719433Y-93517313D01*
X147699763Y-93569178D01*
X147699763Y-93569180D01*
X147680722Y-93725999D01*
X147680722Y-93726000D01*
X147699762Y-93882818D01*
X147755780Y-94030523D01*
X147755781Y-94030524D01*
X147847608Y-94163560D01*
X147869491Y-94229915D01*
X147852025Y-94297566D01*
X147847608Y-94304440D01*
X147755781Y-94437475D01*
X147755780Y-94437476D01*
X147699762Y-94585181D01*
X147680722Y-94741999D01*
X147680722Y-94742000D01*
X147699762Y-94898818D01*
X147717458Y-94945477D01*
X147755780Y-95046523D01*
X147845517Y-95176530D01*
X147963760Y-95281283D01*
X147963762Y-95281284D01*
X148103634Y-95354696D01*
X148257014Y-95392500D01*
X148257015Y-95392500D01*
X148414985Y-95392500D01*
X148501799Y-95371103D01*
X148531473Y-95367500D01*
X150004659Y-95367500D01*
X150071698Y-95387185D01*
X150117453Y-95439989D01*
X150127397Y-95509147D01*
X150098372Y-95572703D01*
X150075102Y-95593548D01*
X150071963Y-95595714D01*
X150071960Y-95595717D01*
X149977388Y-95679500D01*
X149953716Y-95700471D01*
X149863981Y-95830475D01*
X149863980Y-95830476D01*
X149807962Y-95978181D01*
X149788922Y-96134999D01*
X149788922Y-96135000D01*
X149807962Y-96291818D01*
X149860705Y-96430888D01*
X149863980Y-96439523D01*
X149953717Y-96569530D01*
X150071960Y-96674283D01*
X150071962Y-96674284D01*
X150211834Y-96747696D01*
X150365214Y-96785500D01*
X150365215Y-96785500D01*
X150523185Y-96785500D01*
X150609999Y-96764103D01*
X150639673Y-96760500D01*
X151772727Y-96760500D01*
X151802401Y-96764103D01*
X151889214Y-96785500D01*
X151889215Y-96785500D01*
X152047185Y-96785500D01*
X152200565Y-96747696D01*
X152340440Y-96674283D01*
X152458683Y-96569530D01*
X152548420Y-96439523D01*
X152604437Y-96291818D01*
X152623478Y-96135000D01*
X152604437Y-95978182D01*
X152548420Y-95830477D01*
X152498393Y-95758000D01*
X156604222Y-95758000D01*
X156623262Y-95914818D01*
X156651718Y-95989849D01*
X156679280Y-96062523D01*
X156769017Y-96192530D01*
X156887260Y-96297283D01*
X156887262Y-96297284D01*
X157027134Y-96370696D01*
X157180514Y-96408500D01*
X157180515Y-96408500D01*
X157338485Y-96408500D01*
X157425299Y-96387103D01*
X157454973Y-96383500D01*
X158046527Y-96383500D01*
X158076201Y-96387103D01*
X158163014Y-96408500D01*
X158163015Y-96408500D01*
X158320985Y-96408500D01*
X158474365Y-96370696D01*
X158614240Y-96297283D01*
X158732483Y-96192530D01*
X158822220Y-96062523D01*
X158878237Y-95914818D01*
X158897278Y-95758000D01*
X158887747Y-95679500D01*
X158878237Y-95601181D01*
X158854755Y-95539264D01*
X158822220Y-95453477D01*
X158732483Y-95323470D01*
X158614240Y-95218717D01*
X158614238Y-95218716D01*
X158614237Y-95218715D01*
X158474365Y-95145303D01*
X158320986Y-95107500D01*
X158320985Y-95107500D01*
X158163015Y-95107500D01*
X158163014Y-95107500D01*
X158076201Y-95128897D01*
X158046527Y-95132500D01*
X157454973Y-95132500D01*
X157425299Y-95128897D01*
X157338486Y-95107500D01*
X157338485Y-95107500D01*
X157180515Y-95107500D01*
X157180514Y-95107500D01*
X157027134Y-95145303D01*
X156887262Y-95218715D01*
X156769016Y-95323471D01*
X156679281Y-95453475D01*
X156679280Y-95453476D01*
X156623262Y-95601181D01*
X156604222Y-95757999D01*
X156604222Y-95758000D01*
X152498393Y-95758000D01*
X152458683Y-95700470D01*
X152340440Y-95595717D01*
X152340438Y-95595716D01*
X152340436Y-95595714D01*
X152337298Y-95593548D01*
X152335534Y-95591371D01*
X152334826Y-95590744D01*
X152334930Y-95590626D01*
X152293309Y-95539264D01*
X152285652Y-95469815D01*
X152316757Y-95407251D01*
X152376749Y-95371436D01*
X152407741Y-95367500D01*
X152966527Y-95367500D01*
X152996201Y-95371103D01*
X153083014Y-95392500D01*
X153083015Y-95392500D01*
X153240985Y-95392500D01*
X153394365Y-95354696D01*
X153534240Y-95281283D01*
X153652483Y-95176530D01*
X153742220Y-95046523D01*
X153798237Y-94898818D01*
X153817278Y-94742000D01*
X153798237Y-94585182D01*
X153742220Y-94437477D01*
X153652483Y-94307470D01*
X153652481Y-94307468D01*
X153650391Y-94304440D01*
X153628508Y-94238086D01*
X153645973Y-94170434D01*
X153650391Y-94163560D01*
X153652481Y-94160531D01*
X153652483Y-94160530D01*
X153742220Y-94030523D01*
X153798237Y-93882818D01*
X153817278Y-93726000D01*
X153801811Y-93598612D01*
X153798237Y-93569181D01*
X153767202Y-93487349D01*
X153742220Y-93421477D01*
X153652483Y-93291470D01*
X153652481Y-93291467D01*
X153647509Y-93285855D01*
X153649979Y-93283666D01*
X153620771Y-93236928D01*
X153621654Y-93167064D01*
X153649914Y-93123276D01*
X153647509Y-93121146D01*
X153652481Y-93115533D01*
X153652481Y-93115532D01*
X153652483Y-93115531D01*
X153742220Y-92985524D01*
X153798237Y-92837819D01*
X153817278Y-92681001D01*
X153798237Y-92524183D01*
X153779572Y-92474970D01*
X153774206Y-92405309D01*
X153779574Y-92387027D01*
X153798237Y-92337818D01*
X153817278Y-92181000D01*
X153798237Y-92024182D01*
X153742220Y-91876477D01*
X153652483Y-91746470D01*
X153534240Y-91641717D01*
X153534238Y-91641716D01*
X153534237Y-91641715D01*
X153394365Y-91568303D01*
X153240986Y-91530500D01*
X153240985Y-91530500D01*
X153083015Y-91530500D01*
X153083014Y-91530500D01*
X152929636Y-91568303D01*
X152910208Y-91578500D01*
X152838196Y-91616295D01*
X152780571Y-91630499D01*
X148209429Y-91630499D01*
X148151803Y-91616295D01*
X148060365Y-91568304D01*
X148060364Y-91568303D01*
X148060363Y-91568303D01*
X147906986Y-91530500D01*
X147906985Y-91530500D01*
X147749015Y-91530500D01*
X147749014Y-91530500D01*
X147595634Y-91568303D01*
X147455762Y-91641715D01*
X147337516Y-91746471D01*
X147247781Y-91876475D01*
X147247780Y-91876476D01*
X147191762Y-92024181D01*
X147172722Y-92180999D01*
X147172722Y-92181000D01*
X147191762Y-92337814D01*
X147191764Y-92337823D01*
X147219907Y-92412030D01*
X147225274Y-92481693D01*
X147219907Y-92499970D01*
X147191764Y-92574176D01*
X147191762Y-92574185D01*
X147172722Y-92730999D01*
X147172722Y-92731000D01*
X143804314Y-92731000D01*
X149572175Y-88164777D01*
X149636955Y-88138600D01*
X149649142Y-88138000D01*
X152146000Y-88138000D01*
X152146000Y-87246000D01*
X152165685Y-87178961D01*
X152218489Y-87133206D01*
X152270000Y-87122000D01*
X155909170Y-87122000D01*
X155976209Y-87141685D01*
G37*
%TD.AperFunction*%
%TD*%
%TA.AperFunction,Conductor*%
%TO.N,V_BATT*%
G36*
X141675039Y-90189685D02*
G01*
X141720794Y-90242489D01*
X141732000Y-90294000D01*
X141732000Y-91888568D01*
X141712315Y-91955607D01*
X141685673Y-91985227D01*
X139995180Y-93343659D01*
X139930591Y-93370308D01*
X139917507Y-93371000D01*
X139859354Y-93371000D01*
X139826897Y-93377898D01*
X139674197Y-93410355D01*
X139674192Y-93410357D01*
X139501270Y-93487348D01*
X139501265Y-93487351D01*
X139348129Y-93598611D01*
X139221466Y-93739285D01*
X139126821Y-93903215D01*
X139126819Y-93903219D01*
X139077464Y-94055119D01*
X139038026Y-94112794D01*
X139037205Y-94113459D01*
X137866092Y-95054532D01*
X137863699Y-95056361D01*
X137824130Y-95085110D01*
X137824123Y-95085117D01*
X137820579Y-95089053D01*
X137806107Y-95102734D01*
X136654976Y-96027750D01*
X136652583Y-96029579D01*
X136554130Y-96101110D01*
X136535812Y-96121454D01*
X136521338Y-96135137D01*
X133791627Y-98328655D01*
X133727038Y-98355304D01*
X133658296Y-98342803D01*
X133607225Y-98295122D01*
X133590039Y-98227399D01*
X133612196Y-98161135D01*
X133626267Y-98144321D01*
X135430214Y-96340374D01*
X135460265Y-96318262D01*
X135500240Y-96297283D01*
X135618483Y-96192530D01*
X135708220Y-96062523D01*
X135764237Y-95914818D01*
X135783278Y-95758000D01*
X135764237Y-95601182D01*
X135708220Y-95453477D01*
X135618483Y-95323470D01*
X135500240Y-95218717D01*
X135500238Y-95218716D01*
X135500237Y-95218715D01*
X135360365Y-95145303D01*
X135206986Y-95107500D01*
X135206985Y-95107500D01*
X135049015Y-95107500D01*
X135049014Y-95107500D01*
X134895634Y-95145303D01*
X134755762Y-95218715D01*
X134637516Y-95323471D01*
X134553840Y-95444696D01*
X134539471Y-95461937D01*
X132158785Y-97842622D01*
X132128734Y-97864735D01*
X132088763Y-97885714D01*
X132088760Y-97885717D01*
X131970516Y-97990471D01*
X131880781Y-98120475D01*
X131880780Y-98120476D01*
X131824762Y-98268181D01*
X131805722Y-98424999D01*
X131805722Y-98425000D01*
X131824762Y-98581818D01*
X131866444Y-98691722D01*
X131880780Y-98729523D01*
X131970517Y-98859530D01*
X132088760Y-98964283D01*
X132088762Y-98964284D01*
X132228634Y-99037696D01*
X132382014Y-99075500D01*
X132509950Y-99075500D01*
X132576989Y-99095185D01*
X132622744Y-99147989D01*
X132632688Y-99217147D01*
X132603663Y-99280703D01*
X132587623Y-99296159D01*
X127542024Y-103350659D01*
X127477435Y-103377308D01*
X127464351Y-103378000D01*
X119250000Y-103378000D01*
X119182961Y-103358315D01*
X119137206Y-103305511D01*
X119126000Y-103254000D01*
X119126000Y-99060000D01*
X121776540Y-99060000D01*
X121796326Y-99248256D01*
X121796327Y-99248259D01*
X121854818Y-99428277D01*
X121854821Y-99428284D01*
X121949467Y-99592216D01*
X122031660Y-99683500D01*
X122076129Y-99732888D01*
X122229265Y-99844148D01*
X122229270Y-99844151D01*
X122402192Y-99921142D01*
X122402197Y-99921144D01*
X122587354Y-99960500D01*
X122587355Y-99960500D01*
X122776644Y-99960500D01*
X122776646Y-99960500D01*
X122961803Y-99921144D01*
X123134730Y-99844151D01*
X123287871Y-99732888D01*
X123414533Y-99592216D01*
X123509179Y-99428284D01*
X123567674Y-99248256D01*
X123587460Y-99060000D01*
X123567674Y-98871744D01*
X123509179Y-98691716D01*
X123414533Y-98527784D01*
X123287871Y-98387112D01*
X123207412Y-98328655D01*
X123134734Y-98275851D01*
X123134729Y-98275848D01*
X122961807Y-98198857D01*
X122961802Y-98198855D01*
X122816001Y-98167865D01*
X122776646Y-98159500D01*
X122587354Y-98159500D01*
X122554897Y-98166398D01*
X122402197Y-98198855D01*
X122402192Y-98198857D01*
X122229270Y-98275848D01*
X122229265Y-98275851D01*
X122076129Y-98387111D01*
X121949466Y-98527785D01*
X121854821Y-98691715D01*
X121854818Y-98691722D01*
X121796327Y-98871740D01*
X121796326Y-98871744D01*
X121776540Y-99060000D01*
X119126000Y-99060000D01*
X119126000Y-95374000D01*
X119145685Y-95306961D01*
X119198489Y-95261206D01*
X119250000Y-95250000D01*
X122726473Y-95250000D01*
X122793512Y-95269685D01*
X122839267Y-95322489D01*
X122849211Y-95391647D01*
X122820186Y-95455203D01*
X122686894Y-95609030D01*
X122686885Y-95609041D01*
X122581855Y-95790960D01*
X122581852Y-95790967D01*
X122513144Y-95989482D01*
X122513144Y-95989484D01*
X122511632Y-96000000D01*
X123582440Y-96000000D01*
X123543722Y-96042059D01*
X123493449Y-96156670D01*
X123483114Y-96281395D01*
X123513837Y-96402719D01*
X123577394Y-96500000D01*
X122515742Y-96500000D01*
X122542770Y-96611409D01*
X122630040Y-96802507D01*
X122751889Y-96973619D01*
X122751895Y-96973625D01*
X122903932Y-97118592D01*
X123080657Y-97232166D01*
X123275685Y-97310244D01*
X123481962Y-97350000D01*
X123612000Y-97350000D01*
X123612000Y-96530617D01*
X123681052Y-96584363D01*
X123799424Y-96625000D01*
X123893073Y-96625000D01*
X123985446Y-96609586D01*
X124095514Y-96550019D01*
X124112000Y-96532110D01*
X124112000Y-97350000D01*
X124189398Y-97350000D01*
X124346122Y-97335034D01*
X124346126Y-97335033D01*
X124547686Y-97275850D01*
X124734414Y-97179586D01*
X124899537Y-97049731D01*
X124899540Y-97049728D01*
X125037105Y-96890969D01*
X125037114Y-96890958D01*
X125142144Y-96709039D01*
X125142147Y-96709032D01*
X125210855Y-96510517D01*
X125210855Y-96510515D01*
X125212368Y-96500000D01*
X124141560Y-96500000D01*
X124180278Y-96457941D01*
X124230551Y-96343330D01*
X124240886Y-96218605D01*
X124210163Y-96097281D01*
X124146606Y-96000000D01*
X125208257Y-96000000D01*
X125181229Y-95888590D01*
X125093959Y-95697492D01*
X124972110Y-95526380D01*
X124972099Y-95526368D01*
X124906419Y-95463743D01*
X124871483Y-95403235D01*
X124874808Y-95333444D01*
X124915336Y-95276530D01*
X124980201Y-95250562D01*
X124991988Y-95250000D01*
X131578445Y-95250000D01*
X131597599Y-95247500D01*
X131660546Y-95247500D01*
X131727585Y-95267185D01*
X131773340Y-95319989D01*
X131783284Y-95389147D01*
X131754259Y-95452703D01*
X131748227Y-95459181D01*
X131015785Y-96191622D01*
X130985734Y-96213735D01*
X130945763Y-96234714D01*
X130945760Y-96234717D01*
X130827516Y-96339471D01*
X130737781Y-96469475D01*
X130737780Y-96469476D01*
X130681762Y-96617181D01*
X130662722Y-96773999D01*
X130662722Y-96774000D01*
X130681762Y-96930818D01*
X130734569Y-97070056D01*
X130737780Y-97078523D01*
X130827517Y-97208530D01*
X130945760Y-97313283D01*
X130945762Y-97313284D01*
X131085634Y-97386696D01*
X131239014Y-97424500D01*
X131239015Y-97424500D01*
X131396985Y-97424500D01*
X131550365Y-97386696D01*
X131648799Y-97335033D01*
X131690240Y-97313283D01*
X131808483Y-97208530D01*
X131892163Y-97087297D01*
X131906526Y-97070062D01*
X133906216Y-95070373D01*
X133936267Y-95048261D01*
X133976240Y-95027283D01*
X134094483Y-94922530D01*
X134184220Y-94792523D01*
X134240237Y-94644818D01*
X134259278Y-94488000D01*
X134240237Y-94331182D01*
X134184220Y-94183477D01*
X134141056Y-94120943D01*
X134119174Y-94054591D01*
X134136639Y-93986939D01*
X134180235Y-93943626D01*
X140566298Y-90187120D01*
X140629168Y-90170000D01*
X141608000Y-90170000D01*
X141675039Y-90189685D01*
G37*
%TD.AperFunction*%
%TD*%
%TA.AperFunction,Conductor*%
%TO.N,V_USB*%
G36*
X133646603Y-81045685D02*
G01*
X133673650Y-81069230D01*
X133802132Y-81218893D01*
X133802134Y-81218895D01*
X133963037Y-81343445D01*
X133963038Y-81343445D01*
X133963042Y-81343448D01*
X134145729Y-81433060D01*
X134342715Y-81484063D01*
X134545936Y-81494369D01*
X134747071Y-81463556D01*
X134937887Y-81392886D01*
X135110571Y-81285252D01*
X135258053Y-81145059D01*
X135303918Y-81079161D01*
X135358371Y-81035384D01*
X135405692Y-81026000D01*
X144656000Y-81026000D01*
X144723039Y-81045685D01*
X144768794Y-81098489D01*
X144780000Y-81150000D01*
X144780000Y-89538000D01*
X144760315Y-89605039D01*
X144707511Y-89650794D01*
X144656000Y-89662000D01*
X140461999Y-89662000D01*
X136158552Y-92193440D01*
X131855103Y-94724880D01*
X131792234Y-94742000D01*
X127124000Y-94742000D01*
X127056961Y-94722315D01*
X127011206Y-94669511D01*
X127000000Y-94618000D01*
X127000000Y-81150000D01*
X127019685Y-81082961D01*
X127072489Y-81037206D01*
X127124000Y-81026000D01*
X133579564Y-81026000D01*
X133646603Y-81045685D01*
G37*
%TD.AperFunction*%
%TD*%
M02*
